solid ascii
 facet normal -0.255982 -0.154985 -0.954177
  outer loop
   vertex -32.8935 23.0401 -7.07172
   vertex -37.5776 29.0119 -6.78508
   vertex -36.3026 29.0939 -7.14044
  endloop
 endfacet
 facet normal -0.135394 0.0524694 -0.989402
  outer loop
   vertex -1.47997 28.6732 -7.45685
   vertex -16.0944 2.55576 -6.842
   vertex -2.81975 29.2013 -7.2455
  endloop
 endfacet
 facet normal -0.258422 0.536619 -0.803279
  outer loop
   vertex -36.3026 29.0939 -7.14044
   vertex -37.5776 29.0119 -6.78508
   vertex -36.2804 29.9745 -6.5593
  endloop
 endfacet
 facet normal -0.179309 -0.0148892 -0.98368
  outer loop
   vertex -32.8935 23.0401 -7.07172
   vertex -36.2804 29.9745 -6.5593
   vertex -33.5905 31.2633 -7.06914
  endloop
 endfacet
 facet normal -0.467161 -0.102026 -0.878266
  outer loop
   vertex -31.3858 33.3196 -4.55993
   vertex -33.3832 30.8622 -3.21202
   vertex -33.3383 31.6076 -3.32247
  endloop
 endfacet
 facet normal -0.255721 -0.278209 -0.925854
  outer loop
   vertex 2.86425 32.3289 -9.75523
   vertex -1.47997 28.6732 -7.45685
   vertex -2.81975 29.2013 -7.2455
  endloop
 endfacet
 facet normal -0.818346 -0.37442 -0.436028
  outer loop
   vertex -16.0944 2.55576 -6.842
   vertex -31.3858 33.3196 -4.55993
   vertex -30.5654 33.997 -6.68141
  endloop
 endfacet
 facet normal -0.349548 -0.111249 -0.93029
  outer loop
   vertex 2.86425 32.3289 -9.75523
   vertex -2.81975 29.2013 -7.2455
   vertex -0.235143 41.2824 -9.66138
  endloop
 endfacet
 facet normal -0.328569 -0.117117 -0.93719
  outer loop
   vertex -0.235143 41.2824 -9.66138
   vertex -2.81975 29.2013 -7.2455
   vertex -5.03255 40.1549 -7.83856
  endloop
 endfacet
 facet normal -0.596546 0.452277 -0.663007
  outer loop
   vertex -21.5506 40.3622 -3.68948
   vertex -24.4541 37.7473 -2.8608
   vertex -23.1349 39.2607 -3.01532
  endloop
 endfacet
 facet normal -0.406153 -0.0186539 -0.913615
  outer loop
   vertex -16.0944 2.55576 -6.842
   vertex -18.1584 42.586 -6.74175
   vertex -17.3787 42.6213 -7.0891
  endloop
 endfacet
 facet normal -0.39865 -0.0392121 -0.916265
  outer loop
   vertex -16.0944 2.55576 -6.842
   vertex -20.8147 40.5796 -6.41555
   vertex -19.3417 41.2472 -7.08499
  endloop
 endfacet
 facet normal -0.224905 -0.444697 -0.866985
  outer loop
   vertex -5.03255 40.1549 -7.83856
   vertex -15.3974 44.0086 -7.12646
   vertex -0.235143 41.2824 -9.66138
  endloop
 endfacet
 facet normal -0.3605 0.49353 -0.791497
  outer loop
   vertex -15.3974 44.0086 -7.12646
   vertex -17.3787 42.6213 -7.0891
   vertex -16.4753 43.9429 -6.67653
  endloop
 endfacet
 facet normal -0.490953 0.48881 -0.721131
  outer loop
   vertex -10.0516 48.1736 -7.94281
   vertex -15.3974 44.0086 -7.12646
   vertex -14.1861 45.8191 -6.72395
  endloop
 endfacet
 facet normal -0.151162 0.0757324 -0.985604
  outer loop
   vertex -0.235143 41.2824 -9.66138
   vertex -15.3974 44.0086 -7.12646
   vertex -9.21489 46.8263 -7.85817
  endloop
 endfacet
 facet normal -0.548703 -0.636806 0.541668
  outer loop
   vertex -12.5291 47.1076 -2.60152
   vertex -1.14689 37.6117 -2.23514
   vertex -12.1163 46.9644 -2.35161
  endloop
 endfacet
 facet normal -0.35353 -0.282596 -0.891715
  outer loop
   vertex -0.235143 41.2824 -9.66138
   vertex -9.21489 46.8263 -7.85817
   vertex -8.34369 49.5515 -9.06723
  endloop
 endfacet
 facet normal -0.507597 0.304844 -0.805863
  outer loop
   vertex -10.0516 48.1736 -7.94281
   vertex -13.3281 46.485 -6.51777
   vertex -9.99324 49.1374 -7.61495
  endloop
 endfacet
 facet normal -0.63566 -0.134073 -0.760237
  outer loop
   vertex -8.34369 49.5515 -9.06723
   vertex -9.21489 46.8263 -7.85817
   vertex -9.99324 49.1374 -7.61495
  endloop
 endfacet
 facet normal -0.308927 -0.236745 -0.921149
  outer loop
   vertex -0.235143 41.2824 -9.66138
   vertex -8.34369 49.5515 -9.06723
   vertex -7.45901 50.5023 -9.60829
  endloop
 endfacet
 facet normal -0.660912 0.100823 -0.74366
  outer loop
   vertex -4.82951 53.5092 -6.16259
   vertex -9.96652 48.7492 -2.24253
   vertex -9.20371 49.8533 -2.77077
  endloop
 endfacet
 facet normal -0.199472 0.199575 -0.959365
  outer loop
   vertex -3.52201 53.9995 -6.33245
   vertex -0.235143 41.2824 -9.66138
   vertex -4.82951 53.5092 -6.16259
  endloop
 endfacet
 facet normal -0.166805 -0.890908 0.422444
  outer loop
   vertex 20.579 56.973 8.40917
   vertex 34.168 55.0651 9.75124
   vertex 33.6326 55.2796 9.99212
  endloop
 endfacet
 facet normal -0.900237 0.258388 -0.350442
  outer loop
   vertex 0.107928 57.4177 -3.02434
   vertex -1.28061 56.7393 0.0424324
   vertex -0.073129 58.1252 -2.03756
  endloop
 endfacet
 facet normal -0.96659 -0.25079 0.0529978
  outer loop
   vertex -22.329 -56.3117 -0.515498
   vertex -22.0756 -57.2909 -0.527598
   vertex -21.9837 -57.5392 -0.0260758
  endloop
 endfacet
 facet normal -0.312374 -0.919254 0.23957
  outer loop
   vertex 16.7455 -57.0687 5.95723
   vertex 17.5011 -56.7491 8.1688
   vertex 16.8414 -56.4889 8.307
  endloop
 endfacet
 facet normal -0.0131154 0.666418 -0.745463
  outer loop
   vertex 12.8035 67.0254 4.1755
   vertex 6.93858 64.9673 2.43881
   vertex 7.00404 65.6103 3.01248
  endloop
 endfacet
 facet normal -0.599009 0.335795 -0.726932
  outer loop
   vertex -23.0767 -54.0882 -2.74518
   vertex -23.127 -53.5858 -2.47158
   vertex -22.1619 -53.2104 -3.09348
  endloop
 endfacet
 facet normal -0.297497 0.507741 -0.808514
  outer loop
   vertex 9.28163 67.5639 3.46858
   vertex 8.3629 67.2597 3.61559
   vertex 12.9439 73.4554 5.82078
  endloop
 endfacet
 facet normal -0.951332 -0.240041 0.193257
  outer loop
   vertex 23.5629 67.4685 9.82635
   vertex 22.1262 72.264 8.71021
   vertex 21.5713 73.0844 6.9978
  endloop
 endfacet
 facet normal -0.358966 0.23872 -0.902306
  outer loop
   vertex 12.8035 67.0254 4.1755
   vertex 12.9439 73.4554 5.82078
   vertex 14.6025 74.8722 5.53579
  endloop
 endfacet
 facet normal -0.734618 -0.662759 0.145216
  outer loop
   vertex 14.6025 74.8722 5.53579
   vertex 14.7222 75.4403 8.73449
   vertex 14.4706 75.1557 6.16292
  endloop
 endfacet
 facet normal -0.543296 0.310039 -0.780196
  outer loop
   vertex -22.7292 -53.0931 -3.3813
   vertex -23.218 -53.5805 -3.23466
   vertex -23.3072 -53.0948 -2.97948
  endloop
 endfacet
 facet normal -0.209856 0.142306 -0.967321
  outer loop
   vertex -19.8772 -32.85 -7.68259
   vertex -5.78339 -25.9877 -9.73064
   vertex -11.4405 -33.2461 -9.57117
  endloop
 endfacet
 facet normal -0.152059 0.136417 -0.978912
  outer loop
   vertex -22.8702 -54.2423 -1.90997
   vertex -22.0103 -54.3411 -2.05731
   vertex -22.8348 -54.8269 -1.99694
  endloop
 endfacet
 facet normal -0.954792 -0.276027 0.110368
  outer loop
   vertex -33.1834 -26.1197 -2.65596
   vertex -34.0125 -24.9215 -6.83223
   vertex -32.0718 -30.1195 -3.04329
  endloop
 endfacet
 facet normal -0.937973 -0.346673 0.00483447
  outer loop
   vertex -34.0125 -24.9215 -6.83223
   vertex -32.0399 -30.2613 -7.01414
   vertex -32.0718 -30.1195 -3.04329
  endloop
 endfacet
 facet normal -0.213623 0.12659 -0.96868
  outer loop
   vertex -32.0399 -30.2613 -7.01414
   vertex -21.9536 -12.252 -6.88494
   vertex -31.5524 -30.3932 -7.13887
  endloop
 endfacet
 facet normal -0.253317 -0.966837 0.0324983
  outer loop
   vertex -32.0399 -30.2613 -7.01414
   vertex -31.5524 -30.3932 -7.13887
   vertex -32.0718 -30.1195 -3.04329
  endloop
 endfacet
 facet normal -0.177508 0.43295 -0.883768
  outer loop
   vertex -19.8772 -32.85 -7.68259
   vertex -11.4405 -33.2461 -9.57117
   vertex -16.2226 -35.9872 -9.95349
  endloop
 endfacet
 facet normal -0.942973 -0.318017 -0.0983251
  outer loop
   vertex -32.0718 -30.1195 -3.04329
   vertex -31.5524 -30.3932 -7.13887
   vertex -30.0222 -34.8793 -7.30504
  endloop
 endfacet
 facet normal -0.892181 -0.446315 0.0693949
  outer loop
   vertex -30.0301 -34.1283 -2.57693
   vertex -32.0718 -30.1195 -3.04329
   vertex -30.0222 -34.8793 -7.30504
  endloop
 endfacet
 facet normal -0.303705 -0.0262593 -0.952404
  outer loop
   vertex -30.0222 -34.8793 -7.30504
   vertex -21.7204 -41.521 -9.76923
   vertex -28.8537 -38.9997 -7.56403
  endloop
 endfacet
 facet normal -0.805371 -0.193161 -0.560417
  outer loop
   vertex -29.9779 -36.1007 -6.94776
   vertex -30.0222 -34.8793 -7.30504
   vertex -28.8537 -38.9997 -7.56403
  endloop
 endfacet
 facet normal -0.238531 -0.668125 -0.704778
  outer loop
   vertex -23.5532 -50.5396 -5.38946
   vertex -22.7666 -52.0925 -4.18355
   vertex -24.0248 -51.1123 -4.68694
  endloop
 endfacet
 facet normal -0.995012 -0.0948497 0.0309053
  outer loop
   vertex -30.0301 -34.1283 -2.57693
   vertex -29.9779 -36.1007 -6.94776
   vertex -29.8241 -36.3868 -2.87698
  endloop
 endfacet
 facet normal -0.311672 0.291558 -0.904353
  outer loop
   vertex -19.8772 -32.85 -7.68259
   vertex -16.2226 -35.9872 -9.95349
   vertex -17.4199 -37.456 -10.0144
  endloop
 endfacet
 facet normal -0.350732 -0.935005 -0.0524635
  outer loop
   vertex -29.8241 -36.3868 -2.87698
   vertex -29.9779 -36.1007 -6.94776
   vertex -29.1667 -36.6493 -2.59448
  endloop
 endfacet
 facet normal -0.321425 0.28559 -0.902842
  outer loop
   vertex -19.8772 -32.85 -7.68259
   vertex -17.4199 -37.456 -10.0144
   vertex -21.7204 -41.521 -9.76923
  endloop
 endfacet
 facet normal -0.931338 -0.364112 0.00569942
  outer loop
   vertex -29.9779 -36.1007 -6.94776
   vertex -27.5722 -42.2608 -7.3827
   vertex -28.9152 -38.7568 -2.98323
  endloop
 endfacet
 facet normal -0.930904 -0.364817 0.0180713
  outer loop
   vertex -27.5722 -42.2608 -7.3827
   vertex -29.9779 -36.1007 -6.94776
   vertex -28.8537 -38.9997 -7.56403
  endloop
 endfacet
 facet normal -0.843761 -0.514649 0.152328
  outer loop
   vertex -28.9152 -38.7568 -2.98323
   vertex -27.5722 -42.2608 -7.3827
   vertex -27.5456 -40.8948 -2.62044
  endloop
 endfacet
 facet normal -0.293524 0.359498 -0.885779
  outer loop
   vertex -26.6512 -43.4179 -10.0871
   vertex -28.8537 -38.9997 -7.56403
   vertex -24.4773 -41.652 -10.0907
  endloop
 endfacet
 facet normal -0.930473 -0.366218 -0.0101772
  outer loop
   vertex -27.5722 -42.2608 -7.3827
   vertex -28.8537 -38.9997 -7.56403
   vertex -27.2478 -43.0171 -9.82751
  endloop
 endfacet
 facet normal -0.0728982 0.463371 -0.883161
  outer loop
   vertex -27.9388 -41.4013 -8.92272
   vertex -26.6512 -43.4179 -10.0871
   vertex -27.2478 -43.0171 -9.82751
  endloop
 endfacet
 facet normal -0.788647 -0.614846 -0.000498227
  outer loop
   vertex -27.6154 -42.2089 -3.05838
   vertex -27.5722 -42.2608 -7.3827
   vertex -27.022 -42.9704 -2.57291
  endloop
 endfacet
 facet normal -0.205515 -0.593252 -0.778341
  outer loop
   vertex -25.9761 -44.7184 -9.27405
   vertex -26.3811 -45.5235 -8.55348
   vertex -26.6512 -43.4179 -10.0871
  endloop
 endfacet
 facet normal -0.958909 -0.280829 -0.0403649
  outer loop
   vertex -27.5722 -42.2608 -7.3827
   vertex -27.2478 -43.0171 -9.82751
   vertex -26.7495 -44.7948 -9.29778
  endloop
 endfacet
 facet normal -0.927348 -0.364631 0.0840817
  outer loop
   vertex -26.7495 -44.7948 -9.29778
   vertex -26.161 -46.0069 -8.06339
   vertex -27.5722 -42.2608 -7.3827
  endloop
 endfacet
 facet normal -0.906928 -0.419196 0.0418998
  outer loop
   vertex -27.022 -42.9704 -2.57291
   vertex -27.5722 -42.2608 -7.3827
   vertex -25.6223 -45.9782 -2.36826
  endloop
 endfacet
 facet normal -0.926432 -0.36544 0.0904327
  outer loop
   vertex -27.5722 -42.2608 -7.3827
   vertex -26.161 -46.0069 -8.06339
   vertex -25.9229 -46.4898 -7.57595
  endloop
 endfacet
 facet normal -0.929439 -0.355825 0.0976339
  outer loop
   vertex -25.6223 -45.9782 -2.36826
   vertex -27.5722 -42.2608 -7.3827
   vertex -25.1478 -48.3997 -6.67616
  endloop
 endfacet
 facet normal -0.994597 -0.0113005 -0.103198
  outer loop
   vertex -25.6223 -45.9782 -2.36826
   vertex -25.1478 -48.3997 -6.67616
   vertex -25.5814 -47.34 -2.61282
  endloop
 endfacet
 facet normal -0.560287 -0.528045 -0.638159
  outer loop
   vertex -25.9229 -46.4898 -7.57595
   vertex -25.828 -44.9867 -8.90297
   vertex -25.1478 -48.3997 -6.67616
  endloop
 endfacet
 facet normal -0.930833 -0.364328 0.0285374
  outer loop
   vertex -27.5722 -42.2608 -7.3827
   vertex -25.9229 -46.4898 -7.57595
   vertex -25.1478 -48.3997 -6.67616
  endloop
 endfacet
 facet normal -0.77088 -0.631622 0.0824531
  outer loop
   vertex -25.5814 -47.34 -2.61282
   vertex -25.1478 -48.3997 -6.67616
   vertex -24.8653 -48.1496 -2.11973
  endloop
 endfacet
 facet normal -0.988904 -0.131803 0.0685386
  outer loop
   vertex -24.8653 -48.1496 -2.11973
   vertex -25.1478 -48.3997 -6.67616
   vertex -24.6411 -49.7824 -2.02438
  endloop
 endfacet
 facet normal -0.835181 -0.433641 -0.338272
  outer loop
   vertex -25.828 -44.9867 -8.90297
   vertex -24.135 -51.1389 -5.19623
   vertex -24.9007 -48.9256 -6.14309
  endloop
 endfacet
 facet normal -0.409018 -0.450772 -0.793416
  outer loop
   vertex 22.2655 -51.6284 8.11962
   vertex 15.9301 -37.4985 3.35782
   vertex 23.664 -48.9669 5.88656
  endloop
 endfacet
 facet normal -0.853873 0.0120975 -0.520341
  outer loop
   vertex 22.2655 -51.6284 8.11962
   vertex 23.664 -48.9669 5.88656
   vertex 23.4748 -49.688 6.18024
  endloop
 endfacet
 facet normal -0.919466 -0.392817 -0.0166086
  outer loop
   vertex -24.6411 -49.7824 -2.02438
   vertex -25.1478 -48.3997 -6.67616
   vertex -24.0248 -51.1123 -4.68694
  endloop
 endfacet
 facet normal -0.906249 -0.422743 0.0013978
  outer loop
   vertex -24.6411 -49.7824 -2.02438
   vertex -24.0248 -51.1123 -4.68694
   vertex -23.837 -51.5127 -3.98883
  endloop
 endfacet
 facet normal -0.934996 -0.345978 -0.077986
  outer loop
   vertex -24.1042 -51.4551 -1.0404
   vertex -24.6411 -49.7824 -2.02438
   vertex -23.837 -51.5127 -3.98883
  endloop
 endfacet
 facet normal -0.963148 -0.239925 0.121579
  outer loop
   vertex -24.0248 -51.1123 -4.68694
   vertex -23.563 -52.6034 -3.97074
   vertex -23.837 -51.5127 -3.98883
  endloop
 endfacet
 facet normal -0.222461 -0.352149 -0.909122
  outer loop
   vertex -23.3553 -53.0913 -3.4811
   vertex -23.4938 -52.3614 -3.72993
   vertex -22.5363 -52.1852 -4.0325
  endloop
 endfacet
 facet normal -0.960303 -0.263946 0.0902803
  outer loop
   vertex -23.3553 -53.0913 -3.4811
   vertex -23.3072 -53.0948 -2.97948
   vertex -23.837 -51.5127 -3.98883
  endloop
 endfacet
 facet normal -0.936953 -0.346973 -0.0415762
  outer loop
   vertex -23.5198 -53.1546 -0.0264115
   vertex -24.1042 -51.4551 -1.0404
   vertex -22.329 -56.3117 -0.515498
  endloop
 endfacet
 facet normal -0.959271 -0.271562 0.0778019
  outer loop
   vertex -23.3072 -53.0948 -2.97948
   vertex -23.127 -53.5858 -2.47158
   vertex -23.837 -51.5127 -3.98883
  endloop
 endfacet
 facet normal -0.924785 -0.372712 -0.0765381
  outer loop
   vertex -23.837 -51.5127 -3.98883
   vertex -23.127 -53.5858 -2.47158
   vertex -24.1042 -51.4551 -1.0404
  endloop
 endfacet
 facet normal -0.964914 -0.236814 0.113398
  outer loop
   vertex -23.218 -53.5805 -3.23466
   vertex -23.127 -53.5858 -2.47158
   vertex -23.3072 -53.0948 -2.97948
  endloop
 endfacet
 facet normal -0.928672 -0.32169 -0.18462
  outer loop
   vertex -23.5446 -53.3849 0.499479
   vertex -23.5198 -53.1546 -0.0264115
   vertex -22.329 -56.3117 -0.515498
  endloop
 endfacet
 facet normal -0.772202 -0.469269 0.428359
  outer loop
   vertex -23.5446 -53.3849 0.499479
   vertex -22.329 -56.3117 -0.515498
   vertex -22.7684 -53.8278 1.41359
  endloop
 endfacet
 facet normal -0.918258 -0.393903 -0.0405331
  outer loop
   vertex -23.127 -53.5858 -2.47158
   vertex -22.8702 -54.2423 -1.90997
   vertex -24.1042 -51.4551 -1.0404
  endloop
 endfacet
 facet normal -0.937981 -0.345692 -0.026249
  outer loop
   vertex -22.329 -56.3117 -0.515498
   vertex -24.1042 -51.4551 -1.0404
   vertex -22.8348 -54.8269 -1.99694
  endloop
 endfacet
 facet normal -0.902432 0.153116 -0.402705
  outer loop
   vertex -22.7684 -53.8278 1.41359
   vertex -22.329 -56.3117 -0.515498
   vertex -23.1146 -55.0667 1.71851
  endloop
 endfacet
 facet normal -0.883023 -0.466606 -0.050496
  outer loop
   vertex -23.1146 -55.0667 1.71851
   vertex -22.329 -56.3117 -0.515498
   vertex -22.6248 -56.1173 2.86059
  endloop
 endfacet
 facet normal -0.278211 0.144899 -0.949528
  outer loop
   vertex 18.3478 78.916 7.11249
   vertex 18.9076 76.7951 6.62483
   vertex 17.6647 78.8443 7.30168
  endloop
 endfacet
 facet normal -0.110387 0.442619 -0.88989
  outer loop
   vertex -21.4236 -56.4466 -0.694869
   vertex -22.2177 -56.7985 -0.771403
   vertex -22.329 -56.3117 -0.515498
  endloop
 endfacet
 facet normal -0.948624 -0.309596 -0.0652876
  outer loop
   vertex -22.6248 -56.1173 2.86059
   vertex -22.329 -56.3117 -0.515498
   vertex -21.2122 -60.4251 2.76377
  endloop
 endfacet
 facet normal -0.959863 -0.279468 -0.0236693
  outer loop
   vertex -22.329 -56.3117 -0.515498
   vertex -21.9837 -57.5392 -0.0260758
   vertex -21.2122 -60.4251 2.76377
  endloop
 endfacet
 facet normal -0.481237 -0.590117 -0.648208
  outer loop
   vertex -22.7382 -57.0178 2.93359
   vertex -22.9584 -55.5711 1.78001
   vertex -22.5846 -57.4908 3.25014
  endloop
 endfacet
 facet normal -0.606742 -0.164948 -0.777596
  outer loop
   vertex -21.9837 -57.5392 -0.0260758
   vertex -21.4236 -56.4466 -0.694869
   vertex -21.6837 -58.5184 -0.0524201
  endloop
 endfacet
 facet normal -0.896653 -0.286434 -0.337592
  outer loop
   vertex -22.1092 -58.6888 3.67298
   vertex -22.6248 -56.1173 2.86059
   vertex -21.2122 -60.4251 2.76377
  endloop
 endfacet
 facet normal -0.955751 -0.291772 -0.0375345
  outer loop
   vertex -21.2122 -60.4251 2.76377
   vertex -21.9837 -57.5392 -0.0260758
   vertex -21.6837 -58.5184 -0.0524201
  endloop
 endfacet
 facet normal -0.820064 -0.532892 0.208615
  outer loop
   vertex -21.5561 -59.3064 4.26954
   vertex -22.1092 -58.6888 3.67298
   vertex -21.2122 -60.4251 2.76377
  endloop
 endfacet
 facet normal -0.939273 -0.34097 0.0388112
  outer loop
   vertex -20.1645 -63.0406 5.14224
   vertex -21.5561 -59.3064 4.26954
   vertex -21.2122 -60.4251 2.76377
  endloop
 endfacet
 facet normal -0.896224 -0.426221 -0.122954
  outer loop
   vertex -19.04 -64.8706 2.34073
   vertex -21.2122 -60.4251 2.76377
   vertex -21.4413 -59.2688 0.425275
  endloop
 endfacet
 facet normal -0.898621 -0.431598 -0.0787554
  outer loop
   vertex -21.2122 -60.4251 2.76377
   vertex -19.04 -64.8706 2.34073
   vertex -20.1645 -63.0406 5.14224
  endloop
 endfacet
 facet normal -0.800679 -0.595281 0.0674825
  outer loop
   vertex -20.1645 -63.0406 5.14224
   vertex -19.04 -64.8706 2.34073
   vertex -19.4832 -63.8987 5.65667
  endloop
 endfacet
 facet normal -0.98852 0.0432099 -0.144779
  outer loop
   vertex -19.4832 -63.8987 5.65667
   vertex -19.04 -64.8706 2.34073
   vertex -19.5052 -64.4838 5.63245
  endloop
 endfacet
 facet normal -0.876295 -0.476983 -0.0677865
  outer loop
   vertex -19.5052 -64.4838 5.63245
   vertex -19.04 -64.8706 2.34073
   vertex -15.977 -70.8055 4.50496
  endloop
 endfacet
 facet normal -0.892006 -0.451345 0.0247564
  outer loop
   vertex -15.977 -70.8055 4.50496
   vertex -19.04 -64.8706 2.34073
   vertex -16.7437 -69.356 3.30517
  endloop
 endfacet
 facet normal -0.404066 0.631508 -0.661762
  outer loop
   vertex -17.1127 -68.6382 3.34294
   vertex -10.8395 -65.0157 2.96943
   vertex -16.5856 -68.5674 3.08856
  endloop
 endfacet
 facet normal -0.75475 -0.484879 -0.441865
  outer loop
   vertex -16.5856 -68.5674 3.08856
   vertex -14.9553 -71.8494 3.90529
   vertex -15.977 -70.8055 4.50496
  endloop
 endfacet
 facet normal -0.744748 -0.654728 -0.129154
  outer loop
   vertex -14.2787 -73.3322 7.52089
   vertex -15.977 -70.8055 4.50496
   vertex -14.9553 -71.8494 3.90529
  endloop
 endfacet
 facet normal -0.865432 -0.495838 0.0719216
  outer loop
   vertex -19.5052 -64.4838 5.63245
   vertex -15.977 -70.8055 4.50496
   vertex -14.2787 -73.3322 7.52089
  endloop
 endfacet
 facet normal -0.961765 -0.264363 0.0715562
  outer loop
   vertex -14.4084 -73.6358 4.65575
   vertex -14.2787 -73.3322 7.52089
   vertex -14.9553 -71.8494 3.90529
  endloop
 endfacet
 facet normal -0.869415 -0.485664 0.0908239
  outer loop
   vertex -14.4084 -73.6358 4.65575
   vertex -13.7803 -74.7758 4.57222
   vertex -14.2787 -73.3322 7.52089
  endloop
 endfacet
 facet normal -0.956697 0.162727 -0.241351
  outer loop
   vertex -14.2787 -73.3322 7.52089
   vertex -13.7803 -74.7758 4.57222
   vertex -14.3306 -74.1599 7.16876
  endloop
 endfacet
 facet normal -0.684682 -0.664132 0.300233
  outer loop
   vertex -14.3306 -74.1599 7.16876
   vertex -13.0177 -76.494 4.99969
   vertex -13.9128 -74.3747 7.64655
  endloop
 endfacet
 facet normal -0.800525 0.300552 -0.518486
  outer loop
   vertex -3.34694 -72.7018 4.9252
   vertex -4.20573 -74.4464 5.2398
   vertex -4.54657 -74.7226 5.60598
  endloop
 endfacet
 facet normal -0.927829 0.0665076 -0.36703
  outer loop
   vertex -13.9128 -74.3747 7.64655
   vertex -13.0177 -76.494 4.99969
   vertex -13.8801 -75.3764 7.38231
  endloop
 endfacet
 facet normal -0.90949 -0.388965 -0.146744
  outer loop
   vertex -13.8801 -75.3764 7.38231
   vertex -13.0177 -76.494 4.99969
   vertex -12.749 -78.3318 8.20556
  endloop
 endfacet
 facet normal -0.939894 -0.324237 -0.107092
  outer loop
   vertex -13.0177 -76.494 4.99969
   vertex -12.6814 -77.4618 4.97846
   vertex -12.749 -78.3318 8.20556
  endloop
 endfacet
 facet normal -0.954844 -0.281234 -0.0958124
  outer loop
   vertex -12.5003 -78.4984 6.2162
   vertex -12.749 -78.3318 8.20556
   vertex -12.6814 -77.4618 4.97846
  endloop
 endfacet
 facet normal -0.957905 -0.273091 -0.0885445
  outer loop
   vertex -12.3894 -78.721 5.70321
   vertex -12.5003 -78.4984 6.2162
   vertex -12.6814 -77.4618 4.97846
  endloop
 endfacet
 facet normal -0.740161 -0.660417 0.126535
  outer loop
   vertex -12.5003 -78.4984 6.2162
   vertex -12.3894 -78.721 5.70321
   vertex -12.1318 -78.8246 6.66934
  endloop
 endfacet
 facet normal -0.831556 -0.424708 -0.357963
  outer loop
   vertex -12.8804 -79.0881 7.79868
   vertex -12.5003 -78.4984 6.2162
   vertex -12.5138 -78.9379 6.76886
  endloop
 endfacet
 facet normal -0.694722 -0.180037 -0.696382
  outer loop
   vertex -42.9477 2.20071 -6.77072
   vertex -42.5581 2.94131 -7.35087
   vertex -42.3168 1.83023 -7.30434
  endloop
 endfacet
 facet normal -0.275915 -0.911066 0.306317
  outer loop
   vertex -43.0548 3.14121 -4.06993
   vertex -42.9477 2.20071 -6.77072
   vertex -42.3168 1.83023 -7.30434
  endloop
 endfacet
 facet normal -0.25683 0.48337 -0.836894
  outer loop
   vertex 6.55551 1.47299 -9.40374
   vertex 5.21602 0.253815 -9.69684
   vertex 1.10532 1.53751 -7.6939
  endloop
 endfacet
 facet normal -0.729073 -0.244801 -0.639159
  outer loop
   vertex -42.8827 1.73233 -3.98899
   vertex -42.3946 -0.0582579 -3.85997
   vertex -42.6329 0.706391 -3.88099
  endloop
 endfacet
 facet normal -0.975095 -0.153151 -0.160416
  outer loop
   vertex -41.4279 -4.24551 -6.9068
   vertex -43.0548 3.14121 -4.06993
   vertex -42.3168 1.83023 -7.30434
  endloop
 endfacet
 facet normal -0.278408 -0.956928 -0.0823227
  outer loop
   vertex 29.8949 2.29721 3.38851
   vertex 42.8295 -1.71036 6.2293
   vertex 43.4416 -1.92862 6.69654
  endloop
 endfacet
 facet normal -0.979503 -0.189476 -0.0683621
  outer loop
   vertex -43.0548 3.14121 -4.06993
   vertex -41.4279 -4.24551 -6.9068
   vertex -41.7971 -3.38736 -3.99631
  endloop
 endfacet
 facet normal -0.879638 -0.474793 0.0284288
  outer loop
   vertex -41.7971 -3.38736 -3.99631
   vertex -41.4279 -4.24551 -6.9068
   vertex -40.7309 -5.32803 -3.41886
  endloop
 endfacet
 facet normal -0.966044 -0.227526 0.122438
  outer loop
   vertex -40.7309 -5.32803 -3.41886
   vertex -41.4279 -4.24551 -6.9068
   vertex -39.4516 -10.9491 -3.77083
  endloop
 endfacet
 facet normal -0.404166 0.120504 -0.906713
  outer loop
   vertex -2.84768 -10.5154 -7.53371
   vertex 1.10532 1.53751 -7.6939
   vertex 5.21602 0.253815 -9.69684
  endloop
 endfacet
 facet normal -0.830549 -0.41737 -0.368768
  outer loop
   vertex -39.4516 -10.9491 -3.77083
   vertex -41.4279 -4.24551 -6.9068
   vertex -40.4089 -6.04196 -7.16879
  endloop
 endfacet
 facet normal -0.361097 -0.610603 -0.704822
  outer loop
   vertex 42.0576 -10.0098 7.8191
   vertex 29.8949 2.29721 3.38851
   vertex 41.5244 -7.8616 6.23125
  endloop
 endfacet
 facet normal -0.27881 0.0158946 -0.960215
  outer loop
   vertex 5.21602 0.253815 -9.69684
   vertex 3.71657 -8.95633 -9.41391
   vertex -2.84768 -10.5154 -7.53371
  endloop
 endfacet
 facet normal -0.961998 -0.255097 -0.0973944
  outer loop
   vertex -39.4516 -10.9491 -3.77083
   vertex -40.4089 -6.04196 -7.16879
   vertex -39.1582 -11.4745 -5.29318
  endloop
 endfacet
 facet normal -0.976624 -0.190375 0.0998192
  outer loop
   vertex -40.4089 -6.04196 -7.16879
   vertex -39.6745 -9.62344 -6.81427
   vertex -39.1582 -11.4745 -5.29318
  endloop
 endfacet
 facet normal -0.296427 0.103008 -0.949484
  outer loop
   vertex -2.84768 -10.5154 -7.53371
   vertex 3.71657 -8.95633 -9.41391
   vertex 3.12271 -10.4894 -9.39483
  endloop
 endfacet
 facet normal -0.534255 -0.222817 -0.815429
  outer loop
   vertex -39.7164 -8.4144 -7.11715
   vertex -39.2321 -9.61154 -7.10733
   vertex -39.6745 -9.62344 -6.81427
  endloop
 endfacet
 facet normal -0.410128 -0.644597 -0.645205
  outer loop
   vertex -39.2321 -9.61154 -7.10733
   vertex -39.1582 -11.4745 -5.29318
   vertex -39.6745 -9.62344 -6.81427
  endloop
 endfacet
 facet normal -0.758827 -0.469598 -0.451287
  outer loop
   vertex -39.1582 -11.4745 -5.29318
   vertex -39.2321 -9.61154 -7.10733
   vertex -38.929 -10.1023 -7.10639
  endloop
 endfacet
 facet normal -0.425353 -0.115902 -0.897575
  outer loop
   vertex -39.3501 -10.5987 -6.84272
   vertex -38.929 -10.1023 -7.10639
   vertex -39.1859 -11.0858 -6.85763
  endloop
 endfacet
 facet normal -0.946363 -0.317104 -0.061986
  outer loop
   vertex -39.1582 -11.4745 -5.29318
   vertex -39.3501 -10.5987 -6.84272
   vertex -39.1859 -11.0858 -6.85763
  endloop
 endfacet
 facet normal -0.794923 -0.604185 0.0552873
  outer loop
   vertex -39.4516 -10.9491 -3.77083
   vertex -39.1582 -11.4745 -5.29318
   vertex -38.6213 -11.9923 -3.23232
  endloop
 endfacet
 facet normal -0.27927 0.358243 -0.890882
  outer loop
   vertex -2.84768 -10.5154 -7.53371
   vertex 3.12271 -10.4894 -9.39483
   vertex -5.17623 -11.4061 -7.16193
  endloop
 endfacet
 facet normal -0.940464 -0.333396 -0.0661376
  outer loop
   vertex -39.1582 -11.4745 -5.29318
   vertex -39.1859 -11.0858 -6.85763
   vertex -38.3205 -13.5077 -6.95546
  endloop
 endfacet
 facet normal -0.942044 -0.287299 0.173238
  outer loop
   vertex -38.6213 -11.9923 -3.23232
   vertex -39.1582 -11.4745 -5.29318
   vertex -36.4966 -18.8102 -2.9854
  endloop
 endfacet
 facet normal -0.935949 -0.349329 -0.0443738
  outer loop
   vertex -39.1582 -11.4745 -5.29318
   vertex -38.3205 -13.5077 -6.95546
   vertex -38.238 -13.7831 -6.52728
  endloop
 endfacet
 facet normal -0.774556 -0.589272 -0.22983
  outer loop
   vertex -38.3205 -13.5077 -6.95546
   vertex -36.9378 -15.2995 -7.02115
   vertex -38.238 -13.7831 -6.52728
  endloop
 endfacet
 facet normal -0.268036 0.0901739 -0.959179
  outer loop
   vertex -5.17623 -11.4061 -7.16193
   vertex 3.12271 -10.4894 -9.39483
   vertex -4.68381 -14.9637 -7.63398
  endloop
 endfacet
 facet normal -0.382448 0.327215 -0.864097
  outer loop
   vertex -4.68381 -14.9637 -7.63398
   vertex 3.12271 -10.4894 -9.39483
   vertex -19.8772 -32.85 -7.68259
  endloop
 endfacet
 facet normal -0.93528 -0.351716 -0.0393251
  outer loop
   vertex -36.4966 -18.8102 -2.9854
   vertex -39.1582 -11.4745 -5.29318
   vertex -35.8352 -20.1795 -6.46778
  endloop
 endfacet
 facet normal -0.821494 -0.24405 -0.515351
  outer loop
   vertex -39.1582 -11.4745 -5.29318
   vertex -36.9378 -15.2995 -7.02115
   vertex -35.8352 -20.1795 -6.46778
  endloop
 endfacet
 facet normal -0.2094 0.141296 -0.967568
  outer loop
   vertex -19.8772 -32.85 -7.68259
   vertex 3.12271 -10.4894 -9.39483
   vertex -5.78339 -25.9877 -9.73064
  endloop
 endfacet
 facet normal -0.933012 -0.357998 -0.0364241
  outer loop
   vertex -36.4966 -18.8102 -2.9854
   vertex -35.8352 -20.1795 -6.46778
   vertex -36.0074 -20.0476 -3.3542
  endloop
 endfacet
 facet normal -0.919734 -0.391042 -0.0342893
  outer loop
   vertex -36.0074 -20.0476 -3.3542
   vertex -35.8352 -20.1795 -6.46778
   vertex -35.7731 -20.6218 -3.09136
  endloop
 endfacet
 facet normal -0.708548 -0.351561 -0.611853
  outer loop
   vertex -35.8352 -20.1795 -6.46778
   vertex -35.38 -20.2288 -6.96661
   vertex -34.289 -22.4041 -6.98017
  endloop
 endfacet
 facet normal -0.927446 -0.372609 -0.0317329
  outer loop
   vertex -35.7731 -20.6218 -3.09136
   vertex -35.8352 -20.1795 -6.46778
   vertex -35.3825 -21.5907 -3.12881
  endloop
 endfacet
 facet normal -0.827931 -0.547985 -0.119343
  outer loop
   vertex -35.3825 -21.5907 -3.12881
   vertex -35.8352 -20.1795 -6.46778
   vertex -34.289 -22.4041 -6.98017
  endloop
 endfacet
 facet normal -0.961333 0.0105639 -0.275187
  outer loop
   vertex -34.289 -22.4041 -6.98017
   vertex -34.3585 -23.9444 -6.79638
   vertex -35.3825 -21.5907 -3.12881
  endloop
 endfacet
 facet normal -0.16501 0.167704 -0.97193
  outer loop
   vertex -34.3585 -23.9444 -6.79638
   vertex -21.9536 -12.252 -6.88494
   vertex -33.7689 -24.5558 -7.00197
  endloop
 endfacet
 facet normal -0.64275 -0.713644 0.278542
  outer loop
   vertex -35.3825 -21.5907 -3.12881
   vertex -34.3585 -23.9444 -6.79638
   vertex -33.7689 -24.5558 -7.00197
  endloop
 endfacet
 facet normal -0.793253 0.276757 -0.54236
  outer loop
   vertex -35.3825 -21.5907 -3.12881
   vertex -33.7689 -24.5558 -7.00197
   vertex -34.0125 -24.9215 -6.83223
  endloop
 endfacet
 facet normal -0.900443 -0.431487 0.0549734
  outer loop
   vertex -35.3825 -21.5907 -3.12881
   vertex -34.0125 -24.9215 -6.83223
   vertex -33.1834 -26.1197 -2.65596
  endloop
 endfacet
 facet normal -0.297237 -0.159129 -0.94145
  outer loop
   vertex 6.55551 1.47299 -9.40374
   vertex 1.10532 1.53751 -7.6939
   vertex -1.1942 2.55716 -7.14023
  endloop
 endfacet
 facet normal -0.299467 -0.18748 -0.935506
  outer loop
   vertex 6.55551 1.47299 -9.40374
   vertex -1.1942 2.55716 -7.14023
   vertex 5.42204 4.44791 -9.63709
  endloop
 endfacet
 facet normal -0.972594 -0.232385 0.00765034
  outer loop
   vertex -42.5581 2.94131 -7.35087
   vertex -42.8698 4.36606 -3.69432
   vertex -43.4993 6.89462 -6.9171
  endloop
 endfacet
 facet normal -0.880966 -0.440279 -0.173359
  outer loop
   vertex -42.8698 4.36606 -3.69432
   vertex -43.3937 5.51547 -3.95101
   vertex -43.4993 6.89462 -6.9171
  endloop
 endfacet
 facet normal -0.88221 -0.444791 -0.154487
  outer loop
   vertex -42.9167 6.55954 -3.69191
   vertex -43.7653 8.29538 -3.84364
   vertex -43.0806 8.14493 -7.32062
  endloop
 endfacet
 facet normal -0.362048 0.0368907 -0.931429
  outer loop
   vertex 5.42204 4.44791 -9.63709
   vertex -1.1942 2.55716 -7.14023
   vertex 6.20581 9.09915 -9.75752
  endloop
 endfacet
 facet normal -0.20866 -0.236399 -0.948987
  outer loop
   vertex -21.9536 -12.252 -6.88494
   vertex -43.4993 6.89462 -6.9171
   vertex -43.0806 8.14493 -7.32062
  endloop
 endfacet
 facet normal -0.102671 0.699073 -0.70764
  outer loop
   vertex 43.915 7.23331 6.23068
   vertex 29.8949 2.29721 3.38851
   vertex 44.4148 7.50662 6.42817
  endloop
 endfacet
 facet normal -0.981108 0.00454789 -0.193406
  outer loop
   vertex -43.0806 8.14493 -7.32062
   vertex -43.7653 8.29538 -3.84364
   vertex -43.7354 9.53214 -3.96652
  endloop
 endfacet
 facet normal -0.553037 -0.639638 0.533866
  outer loop
   vertex -43.6781 8.91379 -7.01835
   vertex -43.0806 8.14493 -7.32062
   vertex -43.6159 11.5476 -3.79824
  endloop
 endfacet
 facet normal -0.983886 -0.0478843 -0.172263
  outer loop
   vertex -43.0806 8.14493 -7.32062
   vertex -43.7354 9.53214 -3.96652
   vertex -43.7874 10.5063 -3.94029
  endloop
 endfacet
 facet normal -0.361466 0.0361308 -0.931685
  outer loop
   vertex 6.20581 9.09915 -9.75752
   vertex -1.1942 2.55716 -7.14023
   vertex 6.73061 20.7392 -9.50973
  endloop
 endfacet
 facet normal -0.24502 -0.244335 -0.938225
  outer loop
   vertex -21.9536 -12.252 -6.88494
   vertex -43.7695 10.1363 -7.01807
   vertex -43.3994 11.1511 -7.379
  endloop
 endfacet
 facet normal -0.922933 0.197114 -0.330667
  outer loop
   vertex -43.6159 11.5476 -3.79824
   vertex -43.0806 8.14493 -7.32062
   vertex -43.7874 10.5063 -3.94029
  endloop
 endfacet
 facet normal -0.684297 -0.00974191 -0.729138
  outer loop
   vertex -43.3994 11.1511 -7.379
   vertex -43.7695 10.1363 -7.01807
   vertex -43.8725 11.8354 -6.94418
  endloop
 endfacet
 facet normal -0.255716 -0.0145173 -0.966643
  outer loop
   vertex 6.73061 20.7392 -9.50973
   vertex -1.1942 2.55716 -7.14023
   vertex -1.47997 28.6732 -7.45685
  endloop
 endfacet
 facet normal -0.885018 -0.334412 -0.323901
  outer loop
   vertex -44.1362 15.7903 -6.75675
   vertex -43.4645 14.6028 -7.36618
   vertex -43.6159 11.5476 -3.79824
  endloop
 endfacet
 facet normal -0.992346 -0.123466 -0.00252052
  outer loop
   vertex -44.1362 15.7903 -6.75675
   vertex -43.6159 11.5476 -3.79824
   vertex -44.1536 15.874 -4.00717
  endloop
 endfacet
 facet normal -0.756621 -0.0960827 -0.646756
  outer loop
   vertex -43.4645 14.6028 -7.36618
   vertex -44.1362 15.7903 -6.75675
   vertex -43.6705 16.2813 -7.37452
  endloop
 endfacet
 facet normal -0.965832 -0.257297 -0.0310979
  outer loop
   vertex -43.6705 16.2813 -7.37452
   vertex -44.1498 17.76 -4.72109
   vertex -44.4461 19.1389 -6.9302
  endloop
 endfacet
 facet normal -0.987194 -0.0800778 -0.137969
  outer loop
   vertex -44.1498 17.76 -4.72109
   vertex -44.1701 17.1411 -4.21666
   vertex -44.3152 18.4566 -3.94203
  endloop
 endfacet
 facet normal -0.655867 0.488202 -0.575758
  outer loop
   vertex -44.1498 17.76 -4.72109
   vertex -44.3152 18.4566 -3.94203
   vertex -43.9106 19.2708 -3.71256
  endloop
 endfacet
 facet normal -0.952786 -0.240093 -0.185887
  outer loop
   vertex -44.1498 17.76 -4.72109
   vertex -44.5472 21.0291 -6.90683
   vertex -44.1034 19.6067 -7.3441
  endloop
 endfacet
 facet normal -0.986911 -0.153341 -0.0499325
  outer loop
   vertex -44.1498 17.76 -4.72109
   vertex -44.7119 21.2233 -4.24731
   vertex -44.5472 21.0291 -6.90683
  endloop
 endfacet
 facet normal -0.283788 0.00776631 -0.958856
  outer loop
   vertex -44.5472 21.0291 -6.90683
   vertex -44.1824 23.4903 -6.99486
   vertex -42.9114 24.2223 -7.3651
  endloop
 endfacet
 facet normal -0.344909 0.553257 -0.75825
  outer loop
   vertex -40.9686 25.5656 -7.26875
   vertex -42.9114 24.2223 -7.3651
   vertex -41.5724 25.7374 -6.86871
  endloop
 endfacet
 facet normal -0.545094 0.337123 -0.767607
  outer loop
   vertex 40.6958 25.1141 5.73943
   vertex 29.8949 2.29721 3.38851
   vertex 41.0856 26.8275 6.21513
  endloop
 endfacet
 facet normal -0.366981 -0.141901 -0.919342
  outer loop
   vertex -1.47997 28.6732 -7.45685
   vertex 2.86425 32.3289 -9.75523
   vertex 6.73061 20.7392 -9.50973
  endloop
 endfacet
 facet normal -0.517235 0.443362 -0.73205
  outer loop
   vertex -44.7119 21.2233 -4.24731
   vertex -44.7113 22.1646 -3.67765
   vertex -44.3761 22.5628 -3.67331
  endloop
 endfacet
endsolid
