solid ascii
 facet normal 0.724225 0.0615983 -0.686807
  outer loop
   vertex -31.3858 33.3196 -4.55993
   vertex -32.8935 23.0401 -7.07172
   vertex -33.5905 31.2633 -7.06914
  endloop
 endfacet
 facet normal 0.739693 0.0274162 -0.672386
  outer loop
   vertex -31.3858 33.3196 -4.55993
   vertex -33.5905 31.2633 -7.06914
   vertex -33.186 32.2419 -6.58432
  endloop
 endfacet
 facet normal 0.250668 0.194937 -0.948243
  outer loop
   vertex -32.8935 23.0401 -7.07172
   vertex -31.3858 33.3196 -4.55993
   vertex -16.0944 2.55576 -6.842
  endloop
 endfacet
 facet normal 0.0555588 -0.0427851 -0.997538
  outer loop
   vertex -2.81975 29.2013 -7.2455
   vertex -16.0944 2.55576 -6.842
   vertex -5.03255 40.1549 -7.83856
  endloop
 endfacet
 facet normal -0.00575882 -0.00638548 -0.999963
  outer loop
   vertex -24.402 37.5526 -7.01764
   vertex -16.0944 2.55576 -6.842
   vertex -27.223 35.709 -6.98962
  endloop
 endfacet
 facet normal -0.0764784 -0.0301091 -0.996617
  outer loop
   vertex -16.0944 2.55576 -6.842
   vertex -30.5654 33.997 -6.68141
   vertex -27.223 35.709 -6.98962
  endloop
 endfacet
 facet normal 0.666412 -0.55118 -0.502091
  outer loop
   vertex 40.4295 36.0619 8.4295
   vertex 39.5388 34.4761 8.98818
   vertex 40.1407 37.204 6.79238
  endloop
 endfacet
 facet normal 0.34788 0.130156 -0.928461
  outer loop
   vertex 4.94838 30.5977 -9.21702
   vertex 2.86425 32.3289 -9.75523
   vertex -0.235143 41.2824 -9.66138
  endloop
 endfacet
 facet normal 0.0432068 0.183566 -0.982057
  outer loop
   vertex 40.1407 37.204 6.79238
   vertex 39.6272 32.7009 5.92806
   vertex 20.5723 7.1799 0.319334
  endloop
 endfacet
 facet normal 0.521538 0.119563 -0.844809
  outer loop
   vertex -16.0944 2.55576 -6.842
   vertex -24.402 37.5526 -7.01764
   vertex -24.0141 38.383 -6.66067
  endloop
 endfacet
 facet normal 0.535977 -0.17109 -0.826715
  outer loop
   vertex 40.1407 37.204 6.79238
   vertex 20.5723 7.1799 0.319334
   vertex 39.5547 37.8709 6.27446
  endloop
 endfacet
 facet normal -0.105415 -0.01827 -0.99426
  outer loop
   vertex -16.0944 2.55576 -6.842
   vertex -24.0141 38.383 -6.66067
   vertex -20.9668 39.9563 -7.01266
  endloop
 endfacet
 facet normal 0.0941723 0.133191 -0.986606
  outer loop
   vertex 39.5547 37.8709 6.27446
   vertex 20.5723 7.1799 0.319334
   vertex 39.4874 40.9347 6.68165
  endloop
 endfacet
 facet normal 0.261911 0.0159213 -0.964961
  outer loop
   vertex -16.0944 2.55576 -6.842
   vertex -19.3417 41.2472 -7.08499
   vertex -18.1584 42.586 -6.74175
  endloop
 endfacet
 facet normal -0.0622118 -0.00814947 -0.99803
  outer loop
   vertex -5.03255 40.1549 -7.83856
   vertex -16.0944 2.55576 -6.842
   vertex -17.3787 42.6213 -7.0891
  endloop
 endfacet
 facet normal 0.252882 0.0639664 -0.96538
  outer loop
   vertex 20.5723 7.1799 0.319334
   vertex 1.35865 58.6339 -1.30435
   vertex 34.0477 51.9812 6.81777
  endloop
 endfacet
 facet normal 0.21514 0.0631306 -0.974541
  outer loop
   vertex 39.4874 40.9347 6.68165
   vertex 20.5723 7.1799 0.319334
   vertex 38.386 43.6488 6.61432
  endloop
 endfacet
 facet normal -0.0512913 0.0463879 -0.997606
  outer loop
   vertex -5.03255 40.1549 -7.83856
   vertex -17.3787 42.6213 -7.0891
   vertex -15.3974 44.0086 -7.12646
  endloop
 endfacet
 facet normal 0.144582 0.099314 -0.984496
  outer loop
   vertex 20.5723 7.1799 0.319334
   vertex 34.0477 51.9812 6.81777
   vertex 38.386 43.6488 6.61432
  endloop
 endfacet
 facet normal 0.577023 0.318787 -0.751944
  outer loop
   vertex 38.386 43.6488 6.61432
   vertex 34.0477 51.9812 6.81777
   vertex 38.5343 45.4808 7.50481
  endloop
 endfacet
 facet normal -0.0693699 -0.105401 -0.992007
  outer loop
   vertex -15.3974 44.0086 -7.12646
   vertex -10.0516 48.1736 -7.94281
   vertex -9.21489 46.8263 -7.85817
  endloop
 endfacet
 facet normal 0.492323 0.253435 -0.8327
  outer loop
   vertex -9.21489 46.8263 -7.85817
   vertex -10.0516 48.1736 -7.94281
   vertex -9.99324 49.1374 -7.61495
  endloop
 endfacet
 facet normal 0.278413 0.229342 -0.932678
  outer loop
   vertex 34.0477 51.9812 6.81777
   vertex 1.35865 58.6339 -1.30435
   vertex 12.8035 67.0254 4.1755
  endloop
 endfacet
 facet normal 0.343778 0.274525 -0.898027
  outer loop
   vertex -0.235143 41.2824 -9.66138
   vertex -7.45901 50.5023 -9.60829
   vertex -6.53599 51.7335 -8.87857
  endloop
 endfacet
 facet normal 0.38639 0.17089 -0.906366
  outer loop
   vertex 38.5343 45.4808 7.50481
   vertex 34.0477 51.9812 6.81777
   vertex 35.4508 52.4489 7.5041
  endloop
 endfacet
 facet normal 0.461526 0.339635 -0.819537
  outer loop
   vertex -0.235143 41.2824 -9.66138
   vertex -6.53599 51.7335 -8.87857
   vertex -5.2112 52.5205 -7.80634
  endloop
 endfacet
 facet normal 0.374902 0.202778 -0.904616
  outer loop
   vertex 35.4508 52.4489 7.5041
   vertex 34.0477 51.9812 6.81777
   vertex 34.1804 54.5226 7.44243
  endloop
 endfacet
 facet normal -0.0040609 0.238889 -0.971038
  outer loop
   vertex 34.1804 54.5226 7.44243
   vertex 34.0477 51.9812 6.81777
   vertex 34.0589 54.9782 7.55504
  endloop
 endfacet
 facet normal 0.370897 0.22053 -0.90211
  outer loop
   vertex 34.0589 54.9782 7.55504
   vertex 34.0477 51.9812 6.81777
   vertex 31.6119 58.5768 7.42867
  endloop
 endfacet
 facet normal 0.245119 0.178781 -0.952866
  outer loop
   vertex 34.0477 51.9812 6.81777
   vertex 12.8035 67.0254 4.1755
   vertex 31.6119 58.5768 7.42867
  endloop
 endfacet
 facet normal 0.354637 0.349228 -0.867336
  outer loop
   vertex -0.235143 41.2824 -9.66138
   vertex -2.63944 55.6595 -4.8556
   vertex 0.107928 57.4177 -3.02434
  endloop
 endfacet
 facet normal 0.478578 0.152761 -0.864654
  outer loop
   vertex -2.63944 55.6595 -4.8556
   vertex -1.62239 56.7594 -4.09835
   vertex 0.107928 57.4177 -3.02434
  endloop
 endfacet
 facet normal 0.306099 0.390129 -0.868391
  outer loop
   vertex 1.35865 58.6339 -1.30435
   vertex -0.235143 41.2824 -9.66138
   vertex -0.073129 58.1252 -2.03756
  endloop
 endfacet
 facet normal 0.466155 -0.884641 -0.0104913
  outer loop
   vertex 0.878427 59.1767 2.46082
   vertex 6.24117 61.9619 5.89292
   vertex 2.61028 60.0702 4.07607
  endloop
 endfacet
 facet normal 0.106957 -0.140873 -0.984233
  outer loop
   vertex 31.6119 58.5768 7.42867
   vertex 12.8035 67.0254 4.1755
   vertex 30.4658 59.5221 7.16882
  endloop
 endfacet
 facet normal 0.247832 0.205705 -0.946712
  outer loop
   vertex 12.8035 67.0254 4.1755
   vertex 29.1706 61.4331 7.24501
   vertex 30.4658 59.5221 7.16882
  endloop
 endfacet
 facet normal 0.339877 -0.611569 -0.71447
  outer loop
   vertex -21.9837 -57.5392 -0.0260758
   vertex -22.2177 -56.7985 -0.771403
   vertex -21.4236 -56.4466 -0.694869
  endloop
 endfacet
 facet normal 0.279181 0.0146071 -0.960127
  outer loop
   vertex 12.8035 67.0254 4.1755
   vertex 3.62367 61.878 1.42791
   vertex 6.93858 64.9673 2.43881
  endloop
 endfacet
 facet normal 0.164534 -0.274454 -0.94742
  outer loop
   vertex 26.6083 64.5223 7.29803
   vertex 12.8035 67.0254 4.1755
   vertex 25.9233 65.0681 7.02094
  endloop
 endfacet
 facet normal 0.219504 0.0553111 -0.974042
  outer loop
   vertex 25.9233 65.0681 7.02094
   vertex 12.8035 67.0254 4.1755
   vertex 23.5129 68.0771 6.64861
  endloop
 endfacet
 facet normal 0.13392 0.241137 -0.961207
  outer loop
   vertex 12.8035 67.0254 4.1755
   vertex 7.00404 65.6103 3.01248
   vertex 8.3629 67.2597 3.61559
  endloop
 endfacet
 facet normal 0.0693968 -0.596151 -0.799867
  outer loop
   vertex 12.8035 67.0254 4.1755
   vertex 8.3629 67.2597 3.61559
   vertex 9.28163 67.5639 3.46858
  endloop
 endfacet
 facet normal 0.225883 0.236854 -0.944922
  outer loop
   vertex 12.8035 67.0254 4.1755
   vertex 9.28163 67.5639 3.46858
   vertex 12.9439 73.4554 5.82078
  endloop
 endfacet
 facet normal 0.0494344 -0.887146 -0.458834
  outer loop
   vertex -22.1619 -53.2104 -3.09348
   vertex -23.127 -53.5858 -2.47158
   vertex -22.7292 -53.0931 -3.3813
  endloop
 endfacet
 facet normal 0.279197 -0.948062 -0.152408
  outer loop
   vertex 11.8975 70.6328 4.48047
   vertex 10.6481 70.2093 4.82593
   vertex 11.219 70.46 4.31236
  endloop
 endfacet
 facet normal -0.137693 -0.97956 -0.146641
  outer loop
   vertex -22.8702 -54.2423 -1.90997
   vertex -23.0767 -54.0882 -2.74518
   vertex -22.0103 -54.3411 -2.05731
  endloop
 endfacet
 facet normal 0.208668 0.148321 -0.966674
  outer loop
   vertex 21.5713 73.0844 6.9978
   vertex 23.5129 68.0771 6.64861
   vertex 12.8035 67.0254 4.1755
  endloop
 endfacet
 facet normal 0.406556 -0.170194 -0.897634
  outer loop
   vertex 21.5713 73.0844 6.9978
   vertex 12.8035 67.0254 4.1755
   vertex 21.2875 73.265 6.83503
  endloop
 endfacet
 facet normal 0.318023 -0.617004 -0.719838
  outer loop
   vertex -23.0767 -54.0882 -2.74518
   vertex -22.1619 -53.2104 -3.09348
   vertex -22.0103 -54.3411 -2.05731
  endloop
 endfacet
 facet normal 0.183319 0.163886 -0.969296
  outer loop
   vertex 21.2875 73.265 6.83503
   vertex 12.8035 67.0254 4.1755
   vertex 20.0755 76.2665 7.11327
  endloop
 endfacet
 facet normal 0.168223 0.130809 -0.977031
  outer loop
   vertex 15.3178 75.6159 5.75853
   vertex 12.8035 67.0254 4.1755
   vertex 14.6025 74.8722 5.53579
  endloop
 endfacet
 facet normal 0.119123 0.21445 -0.969444
  outer loop
   vertex 12.8035 67.0254 4.1755
   vertex 15.6905 76.5411 6.63519
   vertex 20.0755 76.2665 7.11327
  endloop
 endfacet
 facet normal 0.0464717 -0.620631 -0.782725
  outer loop
   vertex 20.0755 76.2665 7.11327
   vertex 15.6905 76.5411 6.63519
   vertex 18.9076 76.7951 6.62483
  endloop
 endfacet
 facet normal 0.0724135 -0.93181 -0.35565
  outer loop
   vertex 18.9076 76.7951 6.62483
   vertex 15.6905 76.5411 6.63519
   vertex 16.2829 76.7989 6.08035
  endloop
 endfacet
 facet normal 0.215863 0.421792 -0.880622
  outer loop
   vertex 18.9076 76.7951 6.62483
   vertex 16.9643 76.9715 6.23298
   vertex 17.6647 78.8443 7.30168
  endloop
 endfacet
 facet normal 0.4841 0.315431 -0.81618
  outer loop
   vertex 20.0755 76.2665 7.11327
   vertex 18.9076 76.7951 6.62483
   vertex 18.3478 78.916 7.11249
  endloop
 endfacet
 facet normal 0.690214 -0.71833 -0.087221
  outer loop
   vertex -22.7292 -53.0931 -3.3813
   vertex -23.127 -53.5858 -2.47158
   vertex -23.218 -53.5805 -3.23466
  endloop
 endfacet
 facet normal 0.216936 -0.0770458 -0.973141
  outer loop
   vertex 34.7113 -26.4713 6.1355
   vertex 33.4425 -28.3048 5.9978
   vertex 20.5723 7.1799 0.319334
  endloop
 endfacet
 facet normal -0.0440045 0.0342284 -0.998445
  outer loop
   vertex -21.9536 -12.252 -6.88494
   vertex -19.8772 -32.85 -7.68259
   vertex -30.0222 -34.8793 -7.30504
  endloop
 endfacet
 facet normal 0.445267 -0.364999 -0.817627
  outer loop
   vertex -11.4405 -33.2461 -9.57117
   vertex -5.78339 -25.9877 -9.73064
   vertex 1.85322 -38.4622 -0.00309605
  endloop
 endfacet
 facet normal 0.876654 -0.413919 -0.245252
  outer loop
   vertex 34.7113 -26.4713 6.1355
   vertex 34.8043 -27.6263 8.41718
   vertex 34.4684 -28.4542 8.61359
  endloop
 endfacet
 facet normal -0.115953 0.0720475 -0.990638
  outer loop
   vertex -33.2047 -27.1054 -6.64828
   vertex -21.9536 -12.252 -6.88494
   vertex -32.0399 -30.2613 -7.01414
  endloop
 endfacet
 facet normal 0.785645 -0.518356 -0.33774
  outer loop
   vertex 33.4425 -28.3048 5.9978
   vertex 34.7113 -26.4713 6.1355
   vertex 34.4684 -28.4542 8.61359
  endloop
 endfacet
 facet normal -0.00184731 -0.999975 -0.00675816
  outer loop
   vertex -22.7292 -53.0931 -3.3813
   vertex -23.3072 -53.0948 -2.97948
   vertex -23.3553 -53.0913 -3.4811
  endloop
 endfacet
 facet normal -0.0264602 0.0279875 -0.999258
  outer loop
   vertex -21.9536 -12.252 -6.88494
   vertex -30.0222 -34.8793 -7.30504
   vertex -31.5524 -30.3932 -7.13887
  endloop
 endfacet
 facet normal 0.585273 -0.244551 -0.773078
  outer loop
   vertex -5.78339 -25.9877 -9.73064
   vertex 1.72575 -35.9322 -0.899916
   vertex 1.85322 -38.4622 -0.00309605
  endloop
 endfacet
 facet normal 0.0308839 -0.424959 -0.904686
  outer loop
   vertex -22.7666 -52.0925 -4.18355
   vertex -23.563 -52.6034 -3.97074
   vertex -24.0248 -51.1123 -4.68694
  endloop
 endfacet
 facet normal 0.844439 -0.401875 -0.354145
  outer loop
   vertex 33.4425 -28.3048 5.9978
   vertex 34.4684 -28.4542 8.61359
   vertex 32.5179 -32.3398 8.37199
  endloop
 endfacet
 facet normal 0.220732 -0.0755513 -0.972404
  outer loop
   vertex 20.5723 7.1799 0.319334
   vertex 33.4425 -28.3048 5.9978
   vertex 28.3234 -40.4538 5.77971
  endloop
 endfacet
 facet normal 0.171638 -0.084585 -0.981522
  outer loop
   vertex 15.9301 -37.4985 3.35782
   vertex 20.5723 7.1799 0.319334
   vertex 28.3234 -40.4538 5.77971
  endloop
 endfacet
 facet normal 0.408956 -0.432111 -0.803764
  outer loop
   vertex -11.4405 -33.2461 -9.57117
   vertex 1.85322 -38.4622 -0.00309605
   vertex -16.1967 -55.7285 0.0956169
  endloop
 endfacet
 facet normal -0.0859633 0.250337 -0.964335
  outer loop
   vertex -30.0222 -34.8793 -7.30504
   vertex -19.8772 -32.85 -7.68259
   vertex -21.7204 -41.521 -9.76923
  endloop
 endfacet
 facet normal 0.772018 -0.315391 -0.55183
  outer loop
   vertex 28.3234 -40.4538 5.77971
   vertex 33.4425 -28.3048 5.9978
   vertex 31.8732 -33.1776 6.58734
  endloop
 endfacet
 facet normal 0.844607 -0.488018 -0.220176
  outer loop
   vertex 31.6628 -34.7849 8.64217
   vertex 30.6107 -36.5888 8.60443
   vertex 31.5617 -34.7736 8.22918
  endloop
 endfacet
 facet normal 0.314308 -0.430328 -0.846185
  outer loop
   vertex -16.2226 -35.9872 -9.95349
   vertex -11.4405 -33.2461 -9.57117
   vertex -16.1967 -55.7285 0.0956169
  endloop
 endfacet
 facet normal 0.694488 -0.710569 -0.113043
  outer loop
   vertex -23.5532 -50.5396 -5.38946
   vertex -24.0248 -51.1123 -4.68694
   vertex -24.135 -51.1389 -5.19623
  endloop
 endfacet
 facet normal 0.85981 -0.381844 -0.339002
  outer loop
   vertex 31.8732 -33.1776 6.58734
   vertex 31.0331 -36.3557 8.03647
   vertex 28.3234 -40.4538 5.77971
  endloop
 endfacet
 facet normal 0.848169 -0.334743 -0.410556
  outer loop
   vertex 31.0331 -36.3557 8.03647
   vertex 30.6961 -37.2275 8.05104
   vertex 28.3234 -40.4538 5.77971
  endloop
 endfacet
 facet normal 0.240771 -0.31348 -0.918564
  outer loop
   vertex 1.72575 -35.9322 -0.899916
   vertex 15.9301 -37.4985 3.35782
   vertex 1.85322 -38.4622 -0.00309605
  endloop
 endfacet
 facet normal 0.515234 -0.388259 -0.764061
  outer loop
   vertex -16.2226 -35.9872 -9.95349
   vertex -16.1967 -55.7285 0.0956169
   vertex -17.4199 -37.456 -10.0144
  endloop
 endfacet
 facet normal 0.85478 -0.379118 -0.35443
  outer loop
   vertex 30.6961 -37.2275 8.05104
   vertex 30.2799 -38.2921 8.18605
   vertex 28.3234 -40.4538 5.77971
  endloop
 endfacet
 facet normal 0.821154 -0.54103 -0.18164
  outer loop
   vertex 28.3234 -40.4538 5.77971
   vertex 30.2799 -38.2921 8.18605
   vertex 30.2291 -38.5182 8.62968
  endloop
 endfacet
 facet normal 0.873959 -0.312843 -0.371921
  outer loop
   vertex 28.3234 -40.4538 5.77971
   vertex 30.2291 -38.5182 8.62968
   vertex 29.1734 -40.9457 8.19077
  endloop
 endfacet
 facet normal 0.241037 -0.257326 -0.93578
  outer loop
   vertex 1.85322 -38.4622 -0.00309605
   vertex 15.9301 -37.4985 3.35782
   vertex -16.1967 -55.7285 0.0956169
  endloop
 endfacet
 facet normal 0.361879 -0.432654 -0.825744
  outer loop
   vertex -17.4199 -37.456 -10.0144
   vertex -16.1967 -55.7285 0.0956169
   vertex -21.7204 -41.521 -9.76923
  endloop
 endfacet
 facet normal 0.124811 -0.261048 -0.957223
  outer loop
   vertex 15.9301 -37.4985 3.35782
   vertex 28.3234 -40.4538 5.77971
   vertex 27.3546 -44.0589 6.63654
  endloop
 endfacet
 facet normal 0.736068 -0.563855 -0.374527
  outer loop
   vertex 28.3234 -40.4538 5.77971
   vertex 29.1734 -40.9457 8.19077
   vertex 29.0184 -41.3756 8.53336
  endloop
 endfacet
 facet normal 0.888798 -0.317423 -0.330577
  outer loop
   vertex 28.3234 -40.4538 5.77971
   vertex 29.0184 -41.3756 8.53336
   vertex 27.3546 -44.0589 6.63654
  endloop
 endfacet
 facet normal 0.124669 -0.311807 -0.941931
  outer loop
   vertex -21.7204 -41.521 -9.76923
   vertex -25.9761 -44.7184 -9.27405
   vertex -24.4773 -41.652 -10.0907
  endloop
 endfacet
 facet normal 0.309772 -0.383172 -0.870184
  outer loop
   vertex -26.6512 -43.4179 -10.0871
   vertex -24.4773 -41.652 -10.0907
   vertex -25.9761 -44.7184 -9.27405
  endloop
 endfacet
 facet normal -0.0170059 -0.590073 -0.807171
  outer loop
   vertex -27.0725 -43.8268 -9.77923
   vertex -26.6512 -43.4179 -10.0871
   vertex -26.3811 -45.5235 -8.55348
  endloop
 endfacet
 facet normal 0.787423 -0.595386 -0.159625
  outer loop
   vertex 27.3546 -44.0589 6.63654
   vertex 26.8846 -45.1752 8.48208
   vertex 25.4387 -46.4165 5.97934
  endloop
 endfacet
 facet normal 0.414877 -0.650684 -0.635993
  outer loop
   vertex -25.9761 -44.7184 -9.27405
   vertex -21.7204 -41.521 -9.76923
   vertex -25.828 -44.9867 -8.90297
  endloop
 endfacet
 facet normal 0.293376 -0.715305 -0.634247
  outer loop
   vertex -25.9761 -44.7184 -9.27405
   vertex -25.828 -44.9867 -8.90297
   vertex -26.3811 -45.5235 -8.55348
  endloop
 endfacet
 facet normal 0.167681 -0.864429 0.473969
  outer loop
   vertex 26.8846 -45.1752 8.48208
   vertex 26.0402 -45.3039 8.54604
   vertex 26.6701 -45.4625 8.03402
  endloop
 endfacet
 facet normal 0.291446 0.0296835 -0.956127
  outer loop
   vertex 15.9301 -37.4985 3.35782
   vertex 27.3546 -44.0589 6.63654
   vertex 25.4387 -46.4165 5.97934
  endloop
 endfacet
 facet normal 0.782779 -0.591065 -0.194678
  outer loop
   vertex 25.4387 -46.4165 5.97934
   vertex 26.6701 -45.4625 8.03402
   vertex 26.4442 -45.8767 8.38336
  endloop
 endfacet
 facet normal 0.173174 -0.10328 -0.979461
  outer loop
   vertex 15.9301 -37.4985 3.35782
   vertex 25.4387 -46.4165 5.97934
   vertex 24.8926 -47.5702 6.00445
  endloop
 endfacet
 facet normal 0.797757 -0.566534 -0.206452
  outer loop
   vertex 25.4387 -46.4165 5.97934
   vertex 26.4442 -45.8767 8.38336
   vertex 23.2585 -50.2867 8.17515
  endloop
 endfacet
 facet normal 0.208108 -0.462122 -0.862052
  outer loop
   vertex -25.828 -44.9867 -8.90297
   vertex -21.7204 -41.521 -9.76923
   vertex -24.135 -51.1389 -5.19623
  endloop
 endfacet
 facet normal 0.140629 -0.132679 -0.981132
  outer loop
   vertex 15.9301 -37.4985 3.35782
   vertex 24.8926 -47.5702 6.00445
   vertex 24.0726 -48.6726 6.036
  endloop
 endfacet
 facet normal 0.791753 -0.593092 -0.146181
  outer loop
   vertex 24.8926 -47.5702 6.00445
   vertex 23.2585 -50.2867 8.17515
   vertex 24.0726 -48.6726 6.036
  endloop
 endfacet
 facet normal 0.0698544 -0.017327 -0.997407
  outer loop
   vertex 30.6107 -36.5888 8.60443
   vertex 31.2752 -35.8544 8.63821
   vertex 31.099 -36.396 8.63527
  endloop
 endfacet
 facet normal 0.779746 -0.225637 -0.584024
  outer loop
   vertex -25.1478 -48.3997 -6.67616
   vertex -25.828 -44.9867 -8.90297
   vertex -24.9007 -48.9256 -6.14309
  endloop
 endfacet
 facet normal 0.332861 0.0165784 -0.94283
  outer loop
   vertex 15.9301 -37.4985 3.35782
   vertex 24.0726 -48.6726 6.036
   vertex 23.664 -48.9669 5.88656
  endloop
 endfacet
 facet normal 0.627351 -0.717524 -0.302639
  outer loop
   vertex 24.0726 -48.6726 6.036
   vertex 23.2585 -50.2867 8.17515
   vertex 23.664 -48.9669 5.88656
  endloop
 endfacet
 facet normal 0.0749774 -0.898959 0.431569
  outer loop
   vertex 30.8881 -36.9303 8.63672
   vertex 30.4708 -36.9879 8.5892
   vertex 30.6961 -37.2275 8.05104
  endloop
 endfacet
 facet normal 0.784195 -0.603451 -0.144519
  outer loop
   vertex 23.2585 -50.2867 8.17515
   vertex 24.6092 -48.5732 8.34928
   vertex 23.4775 -50.055 8.39615
  endloop
 endfacet
 facet normal 0.18479 -0.459459 -0.868764
  outer loop
   vertex -23.5532 -50.5396 -5.38946
   vertex -24.135 -51.1389 -5.19623
   vertex -21.7204 -41.521 -9.76923
  endloop
 endfacet
 facet normal 0.347329 -0.464726 -0.814489
  outer loop
   vertex -22.7666 -52.0925 -4.18355
   vertex -21.7204 -41.521 -9.76923
   vertex -22.5363 -52.1852 -4.0325
  endloop
 endfacet
 facet normal 0.335582 -0.465827 -0.818773
  outer loop
   vertex -22.7666 -52.0925 -4.18355
   vertex -23.5532 -50.5396 -5.38946
   vertex -21.7204 -41.521 -9.76923
  endloop
 endfacet
 facet normal 0.281007 -0.471245 -0.83604
  outer loop
   vertex -21.7204 -41.521 -9.76923
   vertex -16.1967 -55.7285 0.0956169
   vertex -22.5363 -52.1852 -4.0325
  endloop
 endfacet
 facet normal 0.221678 -0.220697 -0.949817
  outer loop
   vertex -16.1967 -55.7285 0.0956169
   vertex 15.9301 -37.4985 3.35782
   vertex 22.2655 -51.6284 8.11962
  endloop
 endfacet
 facet normal 0.131999 -0.64287 -0.754516
  outer loop
   vertex -16.1967 -55.7285 0.0956169
   vertex -22.1619 -53.2104 -3.09348
   vertex -22.5363 -52.1852 -4.0325
  endloop
 endfacet
 facet normal 0.689296 -0.665293 -0.286804
  outer loop
   vertex 18.3448 -54.6096 5.61233
   vertex 22.2655 -51.6284 8.11962
   vertex 20.6979 -53.3224 8.28179
  endloop
 endfacet
 facet normal -0.00562277 -0.856204 -0.516607
  outer loop
   vertex -23.4938 -52.3614 -3.72993
   vertex -22.7666 -52.0925 -4.18355
   vertex -22.5363 -52.1852 -4.0325
  endloop
 endfacet
 facet normal 0.260555 -0.59862 -0.757473
  outer loop
   vertex -22.1619 -53.2104 -3.09348
   vertex -22.7292 -53.0931 -3.3813
   vertex -22.5363 -52.1852 -4.0325
  endloop
 endfacet
 facet normal 0.124736 -0.595619 -0.793523
  outer loop
   vertex -22.7292 -53.0931 -3.3813
   vertex -23.3553 -53.0913 -3.4811
   vertex -22.5363 -52.1852 -4.0325
  endloop
 endfacet
 facet normal 0.114768 0.546653 -0.829457
  outer loop
   vertex -16.1967 -55.7285 0.0956169
   vertex 22.2655 -51.6284 8.11962
   vertex 18.3448 -54.6096 5.61233
  endloop
 endfacet
 facet normal 0.11592 -0.662557 -0.739987
  outer loop
   vertex -22.0103 -54.3411 -2.05731
   vertex -22.1619 -53.2104 -3.09348
   vertex -16.1967 -55.7285 0.0956169
  endloop
 endfacet
 facet normal 0.731454 -0.574104 -0.367939
  outer loop
   vertex 18.3448 -54.6096 5.61233
   vertex 20.6979 -53.3224 8.28179
   vertex 18.5634 -55.7508 7.82756
  endloop
 endfacet
 facet normal 0.16083 -0.183905 -0.969697
  outer loop
   vertex -16.1967 -55.7285 0.0956169
   vertex 18.3448 -54.6096 5.61233
   vertex 13.1147 -59.6903 5.70844
  endloop
 endfacet
 facet normal 0.209 -0.46184 -0.861988
  outer loop
   vertex -22.8348 -54.8269 -1.99694
   vertex -22.0103 -54.3411 -2.05731
   vertex -16.1967 -55.7285 0.0956169
  endloop
 endfacet
 facet normal 0.136461 -0.676004 -0.724153
  outer loop
   vertex -22.8348 -54.8269 -1.99694
   vertex -16.1967 -55.7285 0.0956169
   vertex -22.329 -56.3117 -0.515498
  endloop
 endfacet
 facet normal 0.760028 -0.54415 -0.355328
  outer loop
   vertex 18.3448 -54.6096 5.61233
   vertex 18.5634 -55.7508 7.82756
   vertex 16.7455 -57.0687 5.95723
  endloop
 endfacet
 facet normal 0.659606 -0.742273 -0.118117
  outer loop
   vertex 16.7455 -57.0687 5.95723
   vertex 18.5634 -55.7508 7.82756
   vertex 17.5011 -56.7491 8.1688
  endloop
 endfacet
 facet normal 0.240408 -0.286441 -0.927446
  outer loop
   vertex 18.3448 -54.6096 5.61233
   vertex 16.7455 -57.0687 5.95723
   vertex 15.0989 -58.3333 5.921
  endloop
 endfacet
 facet normal 0.348448 -0.374951 -0.859067
  outer loop
   vertex 13.1147 -59.6903 5.70844
   vertex 18.3448 -54.6096 5.61233
   vertex 15.0989 -58.3333 5.921
  endloop
 endfacet
 facet normal 0.387202 -0.906658 -0.167472
  outer loop
   vertex 14.9154 -58.2613 8.1827
   vertex 16.7455 -57.0687 5.95723
   vertex 16.5382 -57.5354 8.00442
  endloop
 endfacet
 facet normal 0.606396 -0.791675 0.0743974
  outer loop
   vertex 16.7455 -57.0687 5.95723
   vertex 14.9154 -58.2613 8.1827
   vertex 15.0989 -58.3333 5.921
  endloop
 endfacet
 facet normal 0.183841 -0.312108 -0.932089
  outer loop
   vertex -21.4236 -56.4466 -0.694869
   vertex -16.1967 -55.7285 0.0956169
   vertex -21.6837 -58.5184 -0.0524201
  endloop
 endfacet
 facet normal 0.410631 -0.782791 -0.467568
  outer loop
   vertex -21.6837 -58.5184 -0.0524201
   vertex -16.1967 -55.7285 0.0956169
   vertex -21.6032 -58.7743 0.446619
  endloop
 endfacet
 facet normal 0.557811 -0.826876 0.0715774
  outer loop
   vertex 15.0989 -58.3333 5.921
   vertex 14.9154 -58.2613 8.1827
   vertex 13.1147 -59.6903 5.70844
  endloop
 endfacet
 facet normal 0.734947 -0.660547 -0.153398
  outer loop
   vertex 14.9154 -58.2613 8.1827
   vertex 13.6914 -59.5232 7.75219
   vertex 13.1147 -59.6903 5.70844
  endloop
 endfacet
 facet normal 0.529935 -0.844205 -0.0805356
  outer loop
   vertex 13.1147 -59.6903 5.70844
   vertex 13.6914 -59.5232 7.75219
   vertex 9.47016 -61.9331 5.23696
  endloop
 endfacet
 facet normal 0.362209 -0.897407 0.251925
  outer loop
   vertex 13.6914 -59.5232 7.75219
   vertex 12.7543 -59.8189 8.04613
   vertex 9.47016 -61.9331 5.23696
  endloop
 endfacet
 facet normal 0.0392118 -0.182814 -0.982365
  outer loop
   vertex -21.6032 -58.7743 0.446619
   vertex -16.1967 -55.7285 0.0956169
   vertex -20.8046 -60.9602 0.885286
  endloop
 endfacet
 facet normal 0.502752 -0.860692 -0.0803033
  outer loop
   vertex 9.47016 -61.9331 5.23696
   vertex 12.4951 -60.4096 7.84611
   vertex 10.5932 -61.5102 7.73565
  endloop
 endfacet
 facet normal 0.176856 -0.0811858 -0.980883
  outer loop
   vertex -16.1967 -55.7285 0.0956169
   vertex 13.1147 -59.6903 5.70844
   vertex 9.47016 -61.9331 5.23696
  endloop
 endfacet
 facet normal 0.13026 -0.22375 -0.965903
  outer loop
   vertex -10.8395 -65.0157 2.96943
   vertex -16.1967 -55.7285 0.0956169
   vertex 6.72519 -64.1502 5.13769
  endloop
 endfacet
 facet normal 0.710063 -0.673594 -0.20514
  outer loop
   vertex 10.5932 -61.5102 7.73565
   vertex 9.94401 -62.1795 7.68638
   vertex 9.47016 -61.9331 5.23696
  endloop
 endfacet
 facet normal 0.173701 -0.0937725 -0.980324
  outer loop
   vertex -16.1967 -55.7285 0.0956169
   vertex 9.47016 -61.9331 5.23696
   vertex 8.01202 -62.8566 5.06693
  endloop
 endfacet
 facet normal 0.142067 -0.194413 -0.970577
  outer loop
   vertex 6.72519 -64.1502 5.13769
   vertex -16.1967 -55.7285 0.0956169
   vertex 8.01202 -62.8566 5.06693
  endloop
 endfacet
 facet normal 0.647531 -0.735522 -0.199274
  outer loop
   vertex 9.47016 -61.9331 5.23696
   vertex 9.94401 -62.1795 7.68638
   vertex 8.71259 -63.1938 7.42846
  endloop
 endfacet
 facet normal 0.115377 -0.246849 -0.962161
  outer loop
   vertex -16.1967 -55.7285 0.0956169
   vertex -19.537 -63.8638 1.78224
   vertex -20.8046 -60.9602 0.885286
  endloop
 endfacet
 facet normal 0.537238 -0.797924 -0.273298
  outer loop
   vertex 8.01202 -62.8566 5.06693
   vertex 9.47016 -61.9331 5.23696
   vertex 8.71259 -63.1938 7.42846
  endloop
 endfacet
 facet normal 0.677176 -0.687926 -0.261132
  outer loop
   vertex 6.72519 -64.1502 5.13769
   vertex 8.01202 -62.8566 5.06693
   vertex 7.23502 -64.5287 7.45701
  endloop
 endfacet
 facet normal 0.638256 -0.712667 -0.291093
  outer loop
   vertex 8.01202 -62.8566 5.06693
   vertex 8.71259 -63.1938 7.42846
   vertex 7.23502 -64.5287 7.45701
  endloop
 endfacet
 facet normal 0.0998346 -0.241127 -0.965345
  outer loop
   vertex -16.1967 -55.7285 0.0956169
   vertex -10.8395 -65.0157 2.96943
   vertex -19.537 -63.8638 1.78224
  endloop
 endfacet
 facet normal 0.229933 -0.9512 -0.20579
  outer loop
   vertex 6.72519 -64.1502 5.13769
   vertex 7.23502 -64.5287 7.45701
   vertex 6.11622 -64.2439 4.89033
  endloop
 endfacet
 facet normal 0.253791 0.226646 -0.940331
  outer loop
   vertex 29.1706 61.4331 7.24501
   vertex 12.8035 67.0254 4.1755
   vertex 26.6083 64.5223 7.29803
  endloop
 endfacet
 facet normal 0.122152 -0.154348 -0.980436
  outer loop
   vertex -10.8395 -65.0157 2.96943
   vertex 5.1424 -65.7254 5.07234
   vertex 2.03034 -69.1903 5.23008
  endloop
 endfacet
 facet normal 0.699963 -0.6545 -0.2858
  outer loop
   vertex 5.1424 -65.7254 5.07234
   vertex 7.23502 -64.5287 7.45701
   vertex 5.74315 -66.1413 7.49621
  endloop
 endfacet
 facet normal 0.463861 -0.846809 -0.260285
  outer loop
   vertex 5.1424 -65.7254 5.07234
   vertex 5.74315 -66.1413 7.49621
   vertex 4.36755 -66.9611 7.71173
  endloop
 endfacet
 facet normal 0.127119 -0.13987 -0.981976
  outer loop
   vertex -1.36545 -72.0928 5.20392
   vertex -10.8395 -65.0157 2.96943
   vertex 2.03034 -69.1903 5.23008
  endloop
 endfacet
 facet normal 0.730508 -0.663481 -0.161711
  outer loop
   vertex 2.03034 -69.1903 5.23008
   vertex 5.1424 -65.7254 5.07234
   vertex 0.877266 -71.0564 7.67782
  endloop
 endfacet
 facet normal 0.687211 -0.677695 -0.261671
  outer loop
   vertex 5.1424 -65.7254 5.07234
   vertex 4.05524 -67.7603 7.48735
   vertex 0.877266 -71.0564 7.67782
  endloop
 endfacet
 facet normal 0.0958774 -0.264963 -0.95948
  outer loop
   vertex -19.537 -63.8638 1.78224
   vertex -10.8395 -65.0157 2.96943
   vertex -17.1127 -68.6382 3.34294
  endloop
 endfacet
 facet normal 0.0993846 -0.193523 -0.976049
  outer loop
   vertex -16.5856 -68.5674 3.08856
   vertex -10.8395 -65.0157 2.96943
   vertex -14.9553 -71.8494 3.90529
  endloop
 endfacet
 facet normal 0.165416 -0.0886819 -0.982229
  outer loop
   vertex -10.8395 -65.0157 2.96943
   vertex -1.36545 -72.0928 5.20392
   vertex -3.34694 -72.7018 4.9252
  endloop
 endfacet
 facet normal 0.687552 -0.317234 -0.653173
  outer loop
   vertex -16.7437 -69.356 3.30517
   vertex -16.5856 -68.5674 3.08856
   vertex -16.5015 -69.8372 3.79374
  endloop
 endfacet
 facet normal 0.041393 -0.208299 -0.977189
  outer loop
   vertex -10.8395 -65.0157 2.96943
   vertex -3.34694 -72.7018 4.9252
   vertex -14.4084 -73.6358 4.65575
  endloop
 endfacet
 facet normal 0.628113 -0.732488 -0.262557
  outer loop
   vertex 2.03034 -69.1903 5.23008
   vertex 0.877266 -71.0564 7.67782
   vertex -1.36545 -72.0928 5.20392
  endloop
 endfacet
 facet normal 0.230122 -0.922132 0.310992
  outer loop
   vertex 0.877266 -71.0564 7.67782
   vertex -0.991884 -71.4509 7.89126
   vertex 0.465173 -71.3027 7.25251
  endloop
 endfacet
 facet normal 0.765992 -0.298357 -0.569419
  outer loop
   vertex -1.36545 -72.0928 5.20392
   vertex 0.877266 -71.0564 7.67782
   vertex 0.465173 -71.3027 7.25251
  endloop
 endfacet
 facet normal 0.602442 -0.759495 -0.245419
  outer loop
   vertex -1.36545 -72.0928 5.20392
   vertex 0.465173 -71.3027 7.25251
   vertex 0.160217 -71.6617 7.61475
  endloop
 endfacet
 facet normal 0.0722759 0.54906 -0.832652
  outer loop
   vertex -15.977 -70.8055 4.50496
   vertex -14.9553 -71.8494 3.90529
   vertex -15.4272 -71.7224 3.94804
  endloop
 endfacet
 facet normal 0.28423 -0.296065 -0.911898
  outer loop
   vertex -10.8395 -65.0157 2.96943
   vertex -14.4084 -73.6358 4.65575
   vertex -14.9553 -71.8494 3.90529
  endloop
 endfacet
 facet normal 0.577799 -0.78445 -0.225361
  outer loop
   vertex -1.36545 -72.0928 5.20392
   vertex 0.160217 -71.6617 7.61475
   vertex -3.04637 -74.0557 7.72676
  endloop
 endfacet
 facet normal 0.319775 -0.839198 -0.439875
  outer loop
   vertex -3.34694 -72.7018 4.9252
   vertex -1.36545 -72.0928 5.20392
   vertex -3.04637 -74.0557 7.72676
  endloop
 endfacet
 facet normal 0.828446 -0.464274 -0.313254
  outer loop
   vertex -3.34694 -72.7018 4.9252
   vertex -3.04637 -74.0557 7.72676
   vertex -4.20573 -74.4464 5.2398
  endloop
 endfacet
 facet normal 0.542223 -0.831307 -0.122157
  outer loop
   vertex -4.20573 -74.4464 5.2398
   vertex -3.04637 -74.0557 7.72676
   vertex -4.54657 -74.7226 5.60598
  endloop
 endfacet
 facet normal 0.545102 -0.829011 -0.124915
  outer loop
   vertex -4.54657 -74.7226 5.60598
   vertex -3.04637 -74.0557 7.72676
   vertex -5.9867 -75.6563 5.51826
  endloop
 endfacet
 facet normal 0.361964 -0.483396 -0.797064
  outer loop
   vertex -3.34694 -72.7018 4.9252
   vertex -4.54657 -74.7226 5.60598
   vertex -5.9867 -75.6563 5.51826
  endloop
 endfacet
 facet normal 0.166587 -0.334992 -0.927378
  outer loop
   vertex -11.8592 -77.5777 5.15744
   vertex -3.34694 -72.7018 4.9252
   vertex -5.9867 -75.6563 5.51826
  endloop
 endfacet
 facet normal 0.4034 -0.907079 0.120321
  outer loop
   vertex -5.9867 -75.6563 5.51826
   vertex -3.04637 -74.0557 7.72676
   vertex -6.24409 -75.4421 7.99581
  endloop
 endfacet
 facet normal 0.0302364 -0.0704511 -0.997057
  outer loop
   vertex -12.6814 -77.4618 4.97846
   vertex -14.4084 -73.6358 4.65575
   vertex -3.34694 -72.7018 4.9252
  endloop
 endfacet
 facet normal 0.608259 -0.782876 0.130867
  outer loop
   vertex -5.9867 -75.6563 5.51826
   vertex -6.24409 -75.4421 7.99581
   vertex -8.59639 -77.3426 7.55982
  endloop
 endfacet
 facet normal 0.15812 -0.320524 -0.93395
  outer loop
   vertex -12.6814 -77.4618 4.97846
   vertex -3.34694 -72.7018 4.9252
   vertex -11.8592 -77.5777 5.15744
  endloop
 endfacet
 facet normal 0.311473 -0.888852 -0.336045
  outer loop
   vertex -11.8592 -77.5777 5.15744
   vertex -5.9867 -75.6563 5.51826
   vertex -8.59639 -77.3426 7.55982
  endloop
 endfacet
 facet normal 0.209802 -0.958886 -0.191105
  outer loop
   vertex -11.8592 -77.5777 5.15744
   vertex -8.59639 -77.3426 7.55982
   vertex -10.3673 -77.8446 8.13427
  endloop
 endfacet
 facet normal 0.691669 -0.600977 -0.400526
  outer loop
   vertex -11.8592 -77.5777 5.15744
   vertex -10.3673 -77.8446 8.13427
   vertex -11.8755 -78.9468 7.18364
  endloop
 endfacet
 facet normal 0.123113 -0.473457 -0.872171
  outer loop
   vertex -11.8592 -77.5777 5.15744
   vertex -12.3894 -78.721 5.70321
   vertex -12.6814 -77.4618 4.97846
  endloop
 endfacet
 facet normal 0.775183 -0.526314 -0.349406
  outer loop
   vertex -11.8592 -77.5777 5.15744
   vertex -11.8755 -78.9468 7.18364
   vertex -12.3894 -78.721 5.70321
  endloop
 endfacet
 facet normal 0.66145 -0.717909 -0.217003
  outer loop
   vertex -11.634 -78.9198 7.83039
   vertex -11.8755 -78.9468 7.18364
   vertex -10.3673 -77.8446 8.13427
  endloop
 endfacet
 facet normal 0.0703199 -0.78161 -0.619791
  outer loop
   vertex -12.5003 -78.4984 6.2162
   vertex -12.1318 -78.8246 6.66934
   vertex -12.5138 -78.9379 6.76886
  endloop
 endfacet
 facet normal 0.0875472 -0.767991 0.634449
  outer loop
   vertex -12.3924 -78.7924 8.08923
   vertex -12.8804 -79.0881 7.79868
   vertex -11.634 -78.9198 7.83039
  endloop
 endfacet
 facet normal 0.134013 -0.990941 -0.00869877
  outer loop
   vertex -12.8804 -79.0881 7.79868
   vertex -11.8755 -78.9468 7.18364
   vertex -11.634 -78.9198 7.83039
  endloop
 endfacet
 facet normal -0.00983167 -0.0439688 -0.998985
  outer loop
   vertex -42.5581 2.94131 -7.35087
   vertex -21.9536 -12.252 -6.88494
   vertex -42.3168 1.83023 -7.30434
  endloop
 endfacet
 facet normal 0.616942 -0.540241 -0.572295
  outer loop
   vertex 6.55551 1.47299 -9.40374
   vertex 20.5723 7.1799 0.319334
   vertex 5.21602 0.253815 -9.69684
  endloop
 endfacet
 facet normal 0.225796 -0.00967562 -0.974127
  outer loop
   vertex 44.1154 3.56833 6.6721
   vertex 43.4999 -1.39102 6.57869
   vertex 29.8949 2.29721 3.38851
  endloop
 endfacet
 facet normal -0.0179575 0.445526 -0.895089
  outer loop
   vertex -1.1942 2.55716 -7.14023
   vertex 1.10532 1.53751 -7.6939
   vertex -16.0944 2.55576 -6.842
  endloop
 endfacet
 facet normal 0.301332 0.341486 -0.890273
  outer loop
   vertex 29.8949 2.29721 3.38851
   vertex 43.4999 -1.39102 6.57869
   vertex 42.8295 -1.71036 6.2293
  endloop
 endfacet
 facet normal 0.535136 -0.235893 -0.811162
  outer loop
   vertex 42.8295 -1.71036 6.2293
   vertex 43.4999 -1.39102 6.57869
   vertex 43.4416 -1.92862 6.69654
  endloop
 endfacet
 facet normal 0.252105 0.0517224 -0.966317
  outer loop
   vertex 29.8949 2.29721 3.38851
   vertex 43.4416 -1.92862 6.69654
   vertex 43.2301 -2.84775 6.59216
  endloop
 endfacet
 facet normal -0.0273513 -0.0692501 -0.997224
  outer loop
   vertex -42.3168 1.83023 -7.30434
   vertex -21.9536 -12.252 -6.88494
   vertex -41.4279 -4.24551 -6.9068
  endloop
 endfacet
 facet normal 0.16215 -0.183452 -0.969563
  outer loop
   vertex 43.2301 -2.84775 6.59216
   vertex 43.0654 -4.73868 6.92241
   vertex 29.8949 2.29721 3.38851
  endloop
 endfacet
 facet normal 0.298724 0.0816034 -0.950844
  outer loop
   vertex 29.8949 2.29721 3.38851
   vertex 43.0654 -4.73868 6.92241
   vertex 42.6832 -6.36887 6.66243
  endloop
 endfacet
 facet normal 0.078006 0.187062 -0.979246
  outer loop
   vertex -41.4279 -4.24551 -6.9068
   vertex -21.9536 -12.252 -6.88494
   vertex -40.4089 -6.04196 -7.16879
  endloop
 endfacet
 facet normal 0.0089317 -0.0191548 -0.999777
  outer loop
   vertex -40.4089 -6.04196 -7.16879
   vertex -21.9536 -12.252 -6.88494
   vertex -39.7164 -8.4144 -7.11715
  endloop
 endfacet
 facet normal -0.0481605 0.0219521 -0.998598
  outer loop
   vertex -16.0944 2.55576 -6.842
   vertex 1.10532 1.53751 -7.6939
   vertex -21.9536 -12.252 -6.88494
  endloop
 endfacet
 facet normal 0.559523 -0.116301 -0.820614
  outer loop
   vertex 5.21602 0.253815 -9.69684
   vertex 9.34249 -11.7376 -5.1838
   vertex 3.71657 -8.95633 -9.41391
  endloop
 endfacet
 facet normal -0.0337354 -0.0022185 -0.999428
  outer loop
   vertex 1.10532 1.53751 -7.6939
   vertex -2.84768 -10.5154 -7.53371
   vertex -21.9536 -12.252 -6.88494
  endloop
 endfacet
 facet normal 0.27928 -0.0687877 -0.957743
  outer loop
   vertex 29.8949 2.29721 3.38851
   vertex 42.0576 -10.0098 7.8191
   vertex 20.5723 7.1799 0.319334
  endloop
 endfacet
 facet normal 0.283397 0.056533 -0.957335
  outer loop
   vertex 29.8949 2.29721 3.38851
   vertex 42.6832 -6.36887 6.66243
   vertex 41.5244 -7.8616 6.23125
  endloop
 endfacet
 facet normal 0.66939 -0.326943 -0.667102
  outer loop
   vertex 41.5244 -7.8616 6.23125
   vertex 42.6832 -6.36887 6.66243
   vertex 42.0576 -10.0098 7.8191
  endloop
 endfacet
 facet normal 0.576467 -0.10653 -0.810147
  outer loop
   vertex 5.21602 0.253815 -9.69684
   vertex 20.5723 7.1799 0.319334
   vertex 9.34249 -11.7376 -5.1838
  endloop
 endfacet
 facet normal 0.0123822 -0.00319226 -0.999918
  outer loop
   vertex -39.7164 -8.4144 -7.11715
   vertex -21.9536 -12.252 -6.88494
   vertex -39.2321 -9.61154 -7.10733
  endloop
 endfacet
 facet normal 0.0138857 0.00664958 -0.999881
  outer loop
   vertex -39.2321 -9.61154 -7.10733
   vertex -21.9536 -12.252 -6.88494
   vertex -38.929 -10.1023 -7.10639
  endloop
 endfacet
 facet normal 0.00479715 -0.395849 -0.918303
  outer loop
   vertex -21.9536 -12.252 -6.88494
   vertex -2.84768 -10.5154 -7.53371
   vertex -5.17623 -11.4061 -7.16193
  endloop
 endfacet
 facet normal -0.0178312 -0.24077 -0.970418
  outer loop
   vertex -38.929 -10.1023 -7.10639
   vertex -21.9536 -12.252 -6.88494
   vertex -39.1859 -11.0858 -6.85763
  endloop
 endfacet
 facet normal -0.0974148 -0.413574 -0.905244
  outer loop
   vertex 20.5723 7.1799 0.319334
   vertex 41.2905 -11.0426 6.41504
   vertex 41.4102 -11.7749 6.73671
  endloop
 endfacet
 facet normal 0.518573 -0.21119 -0.828541
  outer loop
   vertex 3.12271 -10.4894 -9.39483
   vertex 3.71657 -8.95633 -9.41391
   vertex 9.34249 -11.7376 -5.1838
  endloop
 endfacet
 facet normal 0.0010795 0.0393526 -0.999225
  outer loop
   vertex -21.9536 -12.252 -6.88494
   vertex -36.9378 -15.2995 -7.02115
   vertex -39.1859 -11.0858 -6.85763
  endloop
 endfacet
 facet normal -0.0228421 0.128396 -0.99146
  outer loop
   vertex -21.9536 -12.252 -6.88494
   vertex -5.17623 -11.4061 -7.16193
   vertex -4.68381 -14.9637 -7.63398
  endloop
 endfacet
 facet normal 0.262943 -0.0373387 -0.964088
  outer loop
   vertex 20.5723 7.1799 0.319334
   vertex 41.4102 -11.7749 6.73671
   vertex 40.67 -14.7027 6.64823
  endloop
 endfacet
 facet normal 0.526849 -0.306243 -0.792871
  outer loop
   vertex 9.34249 -11.7376 -5.1838
   vertex 1.72575 -35.9322 -0.899916
   vertex -5.78339 -25.9877 -9.73064
  endloop
 endfacet
 facet normal 0.00900271 0.0435715 -0.99901
  outer loop
   vertex -39.1859 -11.0858 -6.85763
   vertex -36.9378 -15.2995 -7.02115
   vertex -38.3205 -13.5077 -6.95546
  endloop
 endfacet
 facet normal 0.227752 -0.0716811 -0.971077
  outer loop
   vertex 20.5723 7.1799 0.319334
   vertex 40.67 -14.7027 6.64823
   vertex 39.7954 -17.2055 6.62785
  endloop
 endfacet
 facet normal 0.808021 -0.339614 -0.481419
  outer loop
   vertex 1.72575 -35.9322 -0.899916
   vertex 9.34249 -11.7376 -5.1838
   vertex 20.5723 7.1799 0.319334
  endloop
 endfacet
 facet normal 0.501888 -0.27061 -0.82151
  outer loop
   vertex 3.12271 -10.4894 -9.39483
   vertex 9.34249 -11.7376 -5.1838
   vertex -5.78339 -25.9877 -9.73064
  endloop
 endfacet
 facet normal 0.0163337 -0.0356507 -0.999231
  outer loop
   vertex -36.9378 -15.2995 -7.02115
   vertex -21.9536 -12.252 -6.88494
   vertex -36.2406 -19.0978 -6.87423
  endloop
 endfacet
 facet normal -0.0378421 0.0348586 -0.998676
  outer loop
   vertex -21.9536 -12.252 -6.88494
   vertex -4.68381 -14.9637 -7.63398
   vertex -19.8772 -32.85 -7.68259
  endloop
 endfacet
 facet normal 0.160984 -0.126322 -0.97884
  outer loop
   vertex 20.5723 7.1799 0.319334
   vertex 39.7954 -17.2055 6.62785
   vertex 39.4219 -18.0475 6.67508
  endloop
 endfacet
 facet normal 0.0190228 -0.230872 -0.972798
  outer loop
   vertex 20.5723 7.1799 0.319334
   vertex 39.4219 -18.0475 6.67508
   vertex 39.2033 -19.4915 7.01353
  endloop
 endfacet
 facet normal 0.447597 0.0893435 -0.889761
  outer loop
   vertex 20.5723 7.1799 0.319334
   vertex 39.2033 -19.4915 7.01353
   vertex 38.5419 -20.4583 6.58376
  endloop
 endfacet
 facet normal 0.143326 -0.300591 -0.942922
  outer loop
   vertex -36.2406 -19.0978 -6.87423
   vertex -21.9536 -12.252 -6.88494
   vertex -35.8352 -20.1795 -6.46778
  endloop
 endfacet
 facet normal 0.843255 -0.524433 -0.117858
  outer loop
   vertex 39.2033 -19.4915 7.01353
   vertex 39.2105 -19.8133 8.49648
   vertex 38.5419 -20.4583 6.58376
  endloop
 endfacet
 facet normal 0.0018319 0.0071546 -0.999973
  outer loop
   vertex -35.38 -20.2288 -6.96661
   vertex -21.9536 -12.252 -6.88494
   vertex -34.289 -22.4041 -6.98017
  endloop
 endfacet
 facet normal 0.654699 -0.755444 0.0259544
  outer loop
   vertex 38.5419 -20.4583 6.58376
   vertex 39.2105 -19.8133 8.49648
   vertex 38.1655 -20.6972 9.12768
  endloop
 endfacet
 facet normal 0.0535581 -0.187486 -0.980806
  outer loop
   vertex 20.5723 7.1799 0.319334
   vertex 38.5419 -20.4583 6.58376
   vertex 37.4113 -23.3886 7.08216
  endloop
 endfacet
 facet normal 0.276361 -0.0937622 -0.956469
  outer loop
   vertex 15.9301 -37.4985 3.35782
   vertex 1.72575 -35.9322 -0.899916
   vertex 20.5723 7.1799 0.319334
  endloop
 endfacet
 facet normal 0.108523 -0.122608 -0.986504
  outer loop
   vertex -34.289 -22.4041 -6.98017
   vertex -21.9536 -12.252 -6.88494
   vertex -34.3585 -23.9444 -6.79638
  endloop
 endfacet
 facet normal 0.764801 -0.63301 -0.119906
  outer loop
   vertex 37.4113 -23.3886 7.08216
   vertex 37.0275 -24.1198 8.49473
   vertex 34.7113 -26.4713 6.1355
  endloop
 endfacet
 facet normal 0.347224 -0.0161682 -0.937643
  outer loop
   vertex 37.4113 -23.3886 7.08216
   vertex 34.7113 -26.4713 6.1355
   vertex 20.5723 7.1799 0.319334
  endloop
 endfacet
 facet normal 0.0603568 -0.0615926 -0.996275
  outer loop
   vertex -21.9536 -12.252 -6.88494
   vertex -33.2047 -27.1054 -6.64828
   vertex -34.0125 -24.9215 -6.83223
  endloop
 endfacet
 facet normal 0.809263 -0.516703 -0.279483
  outer loop
   vertex 37.0275 -24.1198 8.49473
   vertex 35.1275 -27.2146 8.71457
   vertex 34.7113 -26.4713 6.1355
  endloop
 endfacet
 facet normal 0.527054 0.134999 -0.839041
  outer loop
   vertex 20.5723 7.1799 0.319334
   vertex 6.55551 1.47299 -9.40374
   vertex 5.42204 4.44791 -9.63709
  endloop
 endfacet
 facet normal 0.23544 -0.155822 -0.959316
  outer loop
   vertex 44.1154 3.56833 6.6721
   vertex 29.8949 2.29721 3.38851
   vertex 44.1657 4.55618 6.52397
  endloop
 endfacet
 facet normal 0.526544 -0.546422 -0.651286
  outer loop
   vertex 20.5723 7.1799 0.319334
   vertex 5.42204 4.44791 -9.63709
   vertex 6.90721 5.74167 -9.52183
  endloop
 endfacet
 facet normal 0.123405 0.137217 -0.982824
  outer loop
   vertex -21.9536 -12.252 -6.88494
   vertex -42.5581 2.94131 -7.35087
   vertex -43.4993 6.89462 -6.9171
  endloop
 endfacet
 facet normal 0.195999 0.113705 -0.973989
  outer loop
   vertex 44.1657 4.55618 6.52397
   vertex 29.8949 2.29721 3.38851
   vertex 44.3859 6.32877 6.77522
  endloop
 endfacet
 facet normal 0.307497 -0.368169 -0.877438
  outer loop
   vertex 44.3859 6.32877 6.77522
   vertex 29.8949 2.29721 3.38851
   vertex 43.915 7.23331 6.23068
  endloop
 endfacet
 facet normal 0.116476 -0.0453169 -0.992159
  outer loop
   vertex 6.90721 5.74167 -9.52183
   vertex 5.42204 4.44791 -9.63709
   vertex 6.20581 9.09915 -9.75752
  endloop
 endfacet
 facet normal 0.544246 -0.788871 -0.285447
  outer loop
   vertex 44.7119 6.94394 8.54978
   vertex 43.915 7.23331 6.23068
   vertex 44.4148 7.50662 6.42817
  endloop
 endfacet
 facet normal 0.0116083 -0.00169375 -0.999931
  outer loop
   vertex -16.0944 2.55576 -6.842
   vertex -21.9536 -12.252 -6.88494
   vertex -32.8935 23.0401 -7.07172
  endloop
 endfacet
 facet normal 0.169253 0.100341 -0.980451
  outer loop
   vertex 44.4148 7.50662 6.42817
   vertex 29.8949 2.29721 3.38851
   vertex 44.4587 8.32309 6.51932
  endloop
 endfacet
 facet normal 0.444325 -0.888875 0.111698
  outer loop
   vertex -43.7354 9.53214 -3.96652
   vertex -23.653 19.6945 -2.98173
   vertex -43.2923 9.79105 -3.6684
  endloop
 endfacet
 facet normal 0.00686995 0.000748086 -0.999976
  outer loop
   vertex -21.9536 -12.252 -6.88494
   vertex -43.6781 8.91379 -7.01835
   vertex -43.7695 10.1363 -7.01807
  endloop
 endfacet
 facet normal 0.586396 -0.0337252 -0.809322
  outer loop
   vertex 20.5723 7.1799 0.319334
   vertex 6.90721 5.74167 -9.52183
   vertex 14.471 16.3238 -4.48244
  endloop
 endfacet
 facet normal 0.38826 -0.00590473 -0.921531
  outer loop
   vertex 44.225 11.2645 6.402
   vertex 44.4587 8.32309 6.51932
   vertex 43.2526 13.8677 5.97561
  endloop
 endfacet
 facet normal -0.0200087 -0.0123392 -0.999724
  outer loop
   vertex -1.1942 2.55716 -7.14023
   vertex -16.0944 2.55576 -6.842
   vertex -1.47997 28.6732 -7.45685
  endloop
 endfacet
 facet normal 0.228016 -0.0457706 -0.972581
  outer loop
   vertex 44.4587 8.32309 6.51932
   vertex 29.8949 2.29721 3.38851
   vertex 43.2526 13.8677 5.97561
  endloop
 endfacet
 facet normal -0.139298 -0.129172 -0.98179
  outer loop
   vertex -21.9536 -12.252 -6.88494
   vertex -43.8725 11.8354 -6.94418
   vertex -43.4645 14.6028 -7.36618
  endloop
 endfacet
 facet normal 0.508613 0.0458965 -0.859771
  outer loop
   vertex 14.471 16.3238 -4.48244
   vertex 6.90721 5.74167 -9.52183
   vertex 6.20581 9.09915 -9.75752
  endloop
 endfacet
 facet normal 0.0257079 0.00267824 -0.999666
  outer loop
   vertex -32.8935 23.0401 -7.07172
   vertex -21.9536 -12.252 -6.88494
   vertex -43.4645 14.6028 -7.36618
  endloop
 endfacet
 facet normal 0.285527 -0.0501013 -0.95706
  outer loop
   vertex 44.225 11.2645 6.402
   vertex 43.2526 13.8677 5.97561
   vertex 44.2608 14.1077 6.26384
  endloop
 endfacet
 facet normal 0.260361 0.063282 -0.963435
  outer loop
   vertex 44.2608 14.1077 6.26384
   vertex 43.2526 13.8677 5.97561
   vertex 44.1764 14.9083 6.2936
  endloop
 endfacet
 facet normal 0.294202 0.0307374 -0.955249
  outer loop
   vertex 44.1764 14.9083 6.2936
   vertex 43.2526 13.8677 5.97561
   vertex 43.0758 19.1735 6.09189
  endloop
 endfacet
 facet normal 0.0289722 -0.00141462 -0.999579
  outer loop
   vertex -32.8935 23.0401 -7.07172
   vertex -43.4645 14.6028 -7.36618
   vertex -43.6705 16.2813 -7.37452
  endloop
 endfacet
 facet normal 0.167337 0.0271745 -0.985525
  outer loop
   vertex 43.2526 13.8677 5.97561
   vertex 29.8949 2.29721 3.38851
   vertex 43.0758 19.1735 6.09189
  endloop
 endfacet
 facet normal 0.542044 -0.00654963 -0.840324
  outer loop
   vertex 14.471 16.3238 -4.48244
   vertex 6.20581 9.09915 -9.75752
   vertex 6.73061 20.7392 -9.50973
  endloop
 endfacet
 facet normal -0.0586498 0.137812 -0.98872
  outer loop
   vertex -32.8935 23.0401 -7.07172
   vertex -43.6705 16.2813 -7.37452
   vertex -44.4461 19.1389 -6.9302
  endloop
 endfacet
 facet normal 0.240847 -0.736164 -0.632499
  outer loop
   vertex -32.8935 23.0401 -7.07172
   vertex -44.4461 19.1389 -6.9302
   vertex -44.1034 19.6067 -7.3441
  endloop
 endfacet
 facet normal 0.131588 0.05577 -0.989734
  outer loop
   vertex 43.0758 19.1735 6.09189
   vertex 29.8949 2.29721 3.38851
   vertex 42.7315 21.1359 6.1567
  endloop
 endfacet
 facet normal -0.0611683 0.275808 -0.959265
  outer loop
   vertex -32.8935 23.0401 -7.07172
   vertex -44.1034 19.6067 -7.3441
   vertex -44.5472 21.0291 -6.90683
  endloop
 endfacet
 facet normal -0.0156605 0.1558 -0.987664
  outer loop
   vertex 42.7315 21.1359 6.1567
   vertex 29.8949 2.29721 3.38851
   vertex 42.7485 21.6848 6.24303
  endloop
 endfacet
 facet normal 0.591322 0.130528 -0.795802
  outer loop
   vertex 14.471 16.3238 -4.48244
   vertex 6.73061 20.7392 -9.50973
   vertex 4.94838 30.5977 -9.21702
  endloop
 endfacet
 facet normal 0.227024 -0.00712573 -0.973863
  outer loop
   vertex 42.7485 21.6848 6.24303
   vertex 29.8949 2.29721 3.38851
   vertex 40.6958 25.1141 5.73943
  endloop
 endfacet
 facet normal -0.00044081 -0.0791804 -0.99686
  outer loop
   vertex -32.8935 23.0401 -7.07172
   vertex -44.5472 21.0291 -6.90683
   vertex -40.9686 25.5656 -7.26875
  endloop
 endfacet
 facet normal 0.217589 -0.246979 -0.944275
  outer loop
   vertex -40.9686 25.5656 -7.26875
   vertex -44.5472 21.0291 -6.90683
   vertex -42.9114 24.2223 -7.3651
  endloop
 endfacet
 facet normal 0.74744 -0.0518423 -0.662304
  outer loop
   vertex 43.0545 23.5377 8.52468
   vertex 40.6958 25.1141 5.73943
   vertex 41.7645 25.8702 6.8863
  endloop
 endfacet
 facet normal 0.730162 0.00436482 -0.68326
  outer loop
   vertex 41.7645 25.8702 6.8863
   vertex 40.6958 25.1141 5.73943
   vertex 41.4336 26.4878 6.53665
  endloop
 endfacet
 facet normal 0.698575 0.03943 -0.714449
  outer loop
   vertex 41.4336 26.4878 6.53665
   vertex 40.6958 25.1141 5.73943
   vertex 41.0856 26.8275 6.21513
  endloop
 endfacet
 facet normal 0.31471 0.0849628 -0.945378
  outer loop
   vertex 6.73061 20.7392 -9.50973
   vertex 2.86425 32.3289 -9.75523
   vertex 4.94838 30.5977 -9.21702
  endloop
 endfacet
 facet normal 0.226855 0.00872995 -0.973889
  outer loop
   vertex 29.8949 2.29721 3.38851
   vertex 39.6272 32.7009 5.92806
   vertex 41.0856 26.8275 6.21513
  endloop
 endfacet
 facet normal 0.0519458 0.0884909 -0.994722
  outer loop
   vertex -32.8935 23.0401 -7.07172
   vertex -40.9686 25.5656 -7.26875
   vertex -37.5776 29.0119 -6.78508
  endloop
 endfacet
 facet normal 0.304222 -0.0178277 -0.952434
  outer loop
   vertex 39.6272 32.7009 5.92806
   vertex 29.8949 2.29721 3.38851
   vertex 20.5723 7.1799 0.319334
  endloop
 endfacet
 facet normal 0.136517 -0.990627 -0.0045351
  outer loop
   vertex -11.8755 -78.9468 7.18364
   vertex -12.8804 -79.0881 7.79868
   vertex -12.5023 -79.0287 6.20768
  endloop
 endfacet
 facet normal 0.799156 -0.357534 -0.483238
  outer loop
   vertex -12.1318 -78.8246 6.66934
   vertex -11.8755 -78.9468 7.18364
   vertex -12.5023 -79.0287 6.20768
  endloop
 endfacet
endsolid
