solid ascii
 facet normal -0.694985 0.711831 0.101451
  outer loop
   vertex -37.5776 29.0119 -6.78508
   vertex -40.6948 26.0378 -7.27184
   vertex -38.0338 28.1116 -3.59347
  endloop
 endfacet
 facet normal -0.605532 0.784341 0.13469
  outer loop
   vertex -37.5776 29.0119 -6.78508
   vertex -38.0338 28.1116 -3.59347
   vertex -36.2804 29.9745 -6.5593
  endloop
 endfacet
 facet normal -0.222707 0.245711 0.943413
  outer loop
   vertex -38.0338 28.1116 -3.59347
   vertex -33.3832 30.8622 -3.21202
   vertex -34.0856 31.232 -3.47415
  endloop
 endfacet
 facet normal -0.353578 0.871945 0.338666
  outer loop
   vertex -38.0338 28.1116 -3.59347
   vertex -33.5905 31.2633 -7.06914
   vertex -36.2804 29.9745 -6.5593
  endloop
 endfacet
 facet normal -0.115341 -0.0287766 0.992909
  outer loop
   vertex 28.6089 36.2171 7.76896
   vertex 40.6801 27.5821 8.92096
   vertex 39.5388 34.4761 8.98818
  endloop
 endfacet
 facet normal -0.024269 -0.00052936 0.999705
  outer loop
   vertex -33.3832 30.8622 -3.21202
   vertex -23.653 19.6945 -2.98173
   vertex -31.6688 32.4582 -3.16956
  endloop
 endfacet
 facet normal -0.0506967 0.511659 0.857691
  outer loop
   vertex -34.0856 31.232 -3.47415
   vertex -33.3832 30.8622 -3.21202
   vertex -31.3858 33.3196 -4.55993
  endloop
 endfacet
 facet normal -0.61919 0.784628 -0.0310446
  outer loop
   vertex -38.0338 28.1116 -3.59347
   vertex -34.0856 31.232 -3.47415
   vertex -31.3858 33.3196 -4.55993
  endloop
 endfacet
 facet normal -0.167815 0.154368 0.973657
  outer loop
   vertex -33.3832 30.8622 -3.21202
   vertex -31.6688 32.4582 -3.16956
   vertex -33.3383 31.6076 -3.32247
  endloop
 endfacet
 facet normal -0.622281 0.777552 -0.0904391
  outer loop
   vertex -33.5905 31.2633 -7.06914
   vertex -38.0338 28.1116 -3.59347
   vertex -31.3858 33.3196 -4.55993
  endloop
 endfacet
 facet normal -0.739693 -0.0274162 0.672386
  outer loop
   vertex -33.186 32.2419 -6.58432
   vertex -33.5905 31.2633 -7.06914
   vertex -31.3858 33.3196 -4.55993
  endloop
 endfacet
 facet normal -0.44425 0.799241 0.40479
  outer loop
   vertex -33.3383 31.6076 -3.32247
   vertex -31.6688 32.4582 -3.16956
   vertex -31.3858 33.3196 -4.55993
  endloop
 endfacet
 facet normal -0.753887 0.616068 0.228287
  outer loop
   vertex -31.3858 33.3196 -4.55993
   vertex -31.6688 32.4582 -3.16956
   vertex -31.022 33.2514 -3.17441
  endloop
 endfacet
 facet normal -0.0385481 -0.00950405 0.999212
  outer loop
   vertex -31.6688 32.4582 -3.16956
   vertex -23.653 19.6945 -2.98173
   vertex -29.8238 34.008 -3.08364
  endloop
 endfacet
 facet normal -0.534867 0.825303 0.181085
  outer loop
   vertex -31.3858 33.3196 -4.55993
   vertex -31.022 33.2514 -3.17441
   vertex -29.8238 34.008 -3.08364
  endloop
 endfacet
 facet normal -0.0115342 0.00214704 0.999931
  outer loop
   vertex -29.8238 34.008 -3.08364
   vertex -23.653 19.6945 -2.98173
   vertex -27.8658 35.5815 -3.06443
  endloop
 endfacet
 facet normal -0.601395 0.744854 0.288991
  outer loop
   vertex -31.3858 33.3196 -4.55993
   vertex -29.8238 34.008 -3.08364
   vertex -27.8658 35.5815 -3.06443
  endloop
 endfacet
 facet normal -0.444847 0.888611 0.111721
  outer loop
   vertex -31.3858 33.3196 -4.55993
   vertex -27.223 35.709 -6.98962
   vertex -30.5654 33.997 -6.68141
  endloop
 endfacet
 facet normal -0.0474935 0.355531 0.933457
  outer loop
   vertex 28.6089 36.2171 7.76896
   vertex 39.5388 34.4761 8.98818
   vertex 40.4295 36.0619 8.4295
  endloop
 endfacet
 facet normal -0.546517 0.828587 -0.121499
  outer loop
   vertex -27.223 35.709 -6.98962
   vertex -31.3858 33.3196 -4.55993
   vertex -26.7949 36.5504 -3.17689
  endloop
 endfacet
 facet normal -0.607274 0.712012 0.352501
  outer loop
   vertex -31.3858 33.3196 -4.55993
   vertex -27.8658 35.5815 -3.06443
   vertex -26.7949 36.5504 -3.17689
  endloop
 endfacet
 facet normal 0.0806012 0.0265601 0.996392
  outer loop
   vertex -27.8658 35.5815 -3.06443
   vertex -23.653 19.6945 -2.98173
   vertex -26.7949 36.5504 -3.17689
  endloop
 endfacet
 facet normal -0.543802 0.830273 -0.122176
  outer loop
   vertex -27.223 35.709 -6.98962
   vertex -26.7949 36.5504 -3.17689
   vertex -24.402 37.5526 -7.01764
  endloop
 endfacet
 facet normal -0.151131 -0.0167268 0.988372
  outer loop
   vertex -26.7949 36.5504 -3.17689
   vertex -23.653 19.6945 -2.98173
   vertex -25.1231 37.529 -2.90468
  endloop
 endfacet
 facet normal -0.070217 0.0412736 0.996678
  outer loop
   vertex -23.653 19.6945 -2.98173
   vertex 11.096 29.6378 -0.945383
   vertex -21.5506 40.3622 -3.68948
  endloop
 endfacet
 facet normal -0.49354 0.86589 -0.0815675
  outer loop
   vertex -26.7949 36.5504 -3.17689
   vertex -25.1231 37.529 -2.90468
   vertex -24.402 37.5526 -7.01764
  endloop
 endfacet
 facet normal -0.0621314 0.0656897 0.995904
  outer loop
   vertex -21.5506 40.3622 -3.68948
   vertex 11.096 29.6378 -0.945383
   vertex -1.14689 37.6117 -2.23514
  endloop
 endfacet
 facet normal -0.632083 0.767558 -0.10642
  outer loop
   vertex -21.5506 40.3622 -3.68948
   vertex -24.402 37.5526 -7.01764
   vertex -25.1231 37.529 -2.90468
  endloop
 endfacet
 facet normal -0.802986 0.124515 0.582846
  outer loop
   vertex -24.402 37.5526 -7.01764
   vertex -21.5506 40.3622 -3.68948
   vertex -24.0141 38.383 -6.66067
  endloop
 endfacet
 facet normal -0.467655 0.863768 -0.187627
  outer loop
   vertex -24.0141 38.383 -6.66067
   vertex -21.5506 40.3622 -3.68948
   vertex -20.9668 39.9563 -7.01266
  endloop
 endfacet
 facet normal -0.237325 -0.232029 0.943313
  outer loop
   vertex 40.4295 36.0619 8.4295
   vertex 39.7881 39.2602 9.05482
   vertex 37.961 42.6797 9.43624
  endloop
 endfacet
 facet normal -0.384477 -0.176691 0.906067
  outer loop
   vertex 28.6089 36.2171 7.76896
   vertex 20.579 56.973 8.40917
   vertex 11.096 29.6378 -0.945383
  endloop
 endfacet
 facet normal -0.886564 0.414063 -0.206292
  outer loop
   vertex -21.5506 40.3622 -3.68948
   vertex -20.8147 40.5796 -6.41555
   vertex -20.9668 39.9563 -7.01266
  endloop
 endfacet
 facet normal -0.112847 -0.344296 0.932055
  outer loop
   vertex -21.5506 40.3622 -3.68948
   vertex -1.14689 37.6117 -2.23514
   vertex -19.3087 41.9211 -2.8422
  endloop
 endfacet
 facet normal -0.428818 0.90233 -0.0437753
  outer loop
   vertex -20.8147 40.5796 -6.41555
   vertex -21.5506 40.3622 -3.68948
   vertex -19.3417 41.2472 -7.08499
  endloop
 endfacet
 facet normal -0.0572096 -0.170974 0.983613
  outer loop
   vertex 28.6089 36.2171 7.76896
   vertex 40.4295 36.0619 8.4295
   vertex 37.961 42.6797 9.43624
  endloop
 endfacet
 facet normal -0.53291 0.836328 -0.128693
  outer loop
   vertex -19.3417 41.2472 -7.08499
   vertex -21.5506 40.3622 -3.68948
   vertex -19.3087 41.9211 -2.8422
  endloop
 endfacet
 facet normal -0.12254 -0.0779254 0.9894
  outer loop
   vertex 20.579 56.973 8.40917
   vertex 28.6089 36.2171 7.76896
   vertex 37.961 42.6797 9.43624
  endloop
 endfacet
 facet normal -0.732442 0.67326 -0.101241
  outer loop
   vertex -18.1584 42.586 -6.74175
   vertex -19.3417 41.2472 -7.08499
   vertex -19.3087 41.9211 -2.8422
  endloop
 endfacet
 facet normal 0.0347836 0.983423 0.17796
  outer loop
   vertex -17.3787 42.6213 -7.0891
   vertex -18.1584 42.586 -6.74175
   vertex -19.3087 41.9211 -2.8422
  endloop
 endfacet
 facet normal -0.76206 0.598268 -0.247669
  outer loop
   vertex -17.3787 42.6213 -7.0891
   vertex -19.3087 41.9211 -2.8422
   vertex -16.4753 43.9429 -6.67653
  endloop
 endfacet
 facet normal -0.0650983 -0.00746323 0.997851
  outer loop
   vertex 20.579 56.973 8.40917
   vertex 37.961 42.6797 9.43624
   vertex 38.0016 45.4773 9.45982
  endloop
 endfacet
 facet normal -0.03539 0.279924 0.95937
  outer loop
   vertex 37.961 42.6797 9.43624
   vertex 38.8904 43.1384 9.33669
   vertex 38.8912 44.6924 8.8833
  endloop
 endfacet
 facet normal -0.0355097 -0.0088794 0.99933
  outer loop
   vertex -19.3087 41.9211 -2.8422
   vertex -1.14689 37.6117 -2.23514
   vertex -16.1945 44.2875 -2.71051
  endloop
 endfacet
 facet normal 0.185475 0.80602 0.562077
  outer loop
   vertex -16.4753 43.9429 -6.67653
   vertex -19.3087 41.9211 -2.8422
   vertex -15.3974 44.0086 -7.12646
  endloop
 endfacet
 facet normal -0.0621112 -0.0691009 0.995674
  outer loop
   vertex -1.14689 37.6117 -2.23514
   vertex -13.2882 46.1088 -2.40282
   vertex -16.1945 44.2875 -2.71051
  endloop
 endfacet
 facet normal -0.725572 0.570889 -0.384229
  outer loop
   vertex -15.3974 44.0086 -7.12646
   vertex -19.3087 41.9211 -2.8422
   vertex -14.1861 45.8191 -6.72395
  endloop
 endfacet
 facet normal -0.572998 0.817031 0.0642945
  outer loop
   vertex -19.3087 41.9211 -2.8422
   vertex -13.2882 46.1088 -2.40282
   vertex -14.1861 45.8191 -6.72395
  endloop
 endfacet
 facet normal -0.622791 0.778568 0.0772195
  outer loop
   vertex -14.1861 45.8191 -6.72395
   vertex -13.2882 46.1088 -2.40282
   vertex -13.3281 46.485 -6.51777
  endloop
 endfacet
 facet normal -0.563853 0.795386 -0.222331
  outer loop
   vertex -11.2105 47.7105 -7.5038
   vertex -14.1861 45.8191 -6.72395
   vertex -13.3281 46.485 -6.51777
  endloop
 endfacet
 facet normal 0.0808577 0.135023 0.987538
  outer loop
   vertex -13.2882 46.1088 -2.40282
   vertex -1.14689 37.6117 -2.23514
   vertex -12.5291 47.1076 -2.60152
  endloop
 endfacet
 facet normal -0.295873 -0.367849 0.881559
  outer loop
   vertex 20.579 56.973 8.40917
   vertex 38.0016 45.4773 9.45982
   vertex 36.6653 46.94 9.62166
  endloop
 endfacet
 facet normal -0.788437 0.611821 0.0635853
  outer loop
   vertex -13.2882 46.1088 -2.40282
   vertex -12.5291 47.1076 -2.60152
   vertex -13.3281 46.485 -6.51777
  endloop
 endfacet
 facet normal 0.00464162 0.639665 0.76864
  outer loop
   vertex -10.0516 48.1736 -7.94281
   vertex -12.7696 46.9651 -6.92068
   vertex -13.3281 46.485 -6.51777
  endloop
 endfacet
 facet normal -0.328282 0.476866 0.815371
  outer loop
   vertex -12.5291 47.1076 -2.60152
   vertex -12.1163 46.9644 -2.35161
   vertex -10.8347 48.4936 -2.72993
  endloop
 endfacet
 facet normal -0.632865 0.774238 0.00602421
  outer loop
   vertex -13.3281 46.485 -6.51777
   vertex -12.5291 47.1076 -2.60152
   vertex -10.8347 48.4936 -2.72993
  endloop
 endfacet
 facet normal 0.114787 0.146864 0.982474
  outer loop
   vertex -12.1163 46.9644 -2.35161
   vertex -1.14689 37.6117 -2.23514
   vertex -10.8347 48.4936 -2.72993
  endloop
 endfacet
 facet normal -0.39387 -0.311326 0.864836
  outer loop
   vertex -10.8347 48.4936 -2.72993
   vertex -1.14689 37.6117 -2.23514
   vertex -9.96652 48.7492 -2.24253
  endloop
 endfacet
 facet normal -0.634136 0.770507 -0.0647316
  outer loop
   vertex -13.3281 46.485 -6.51777
   vertex -4.82951 53.5092 -6.16259
   vertex -9.99324 49.1374 -7.61495
  endloop
 endfacet
 facet normal -0.418883 0.379367 0.824996
  outer loop
   vertex 36.6653 46.94 9.62166
   vertex 37.3371 48.0114 9.4701
   vertex 37.2177 49.4142 8.76444
  endloop
 endfacet
 facet normal 0.00459745 0.8822 -0.470852
  outer loop
   vertex -13.3281 46.485 -6.51777
   vertex -10.8347 48.4936 -2.72993
   vertex -9.96652 48.7492 -2.24253
  endloop
 endfacet
 facet normal -0.63655 0.765341 0.0951701
  outer loop
   vertex -13.3281 46.485 -6.51777
   vertex -9.96652 48.7492 -2.24253
   vertex -4.82951 53.5092 -6.16259
  endloop
 endfacet
 facet normal -0.230315 -0.109273 0.966961
  outer loop
   vertex -9.20371 49.8533 -2.77077
   vertex -1.14689 37.6117 -2.23514
   vertex -6.69023 51.5611 -1.97911
  endloop
 endfacet
 facet normal -0.530032 0.754571 -0.386896
  outer loop
   vertex -9.99324 49.1374 -7.61495
   vertex -4.82951 53.5092 -6.16259
   vertex -8.34369 49.5515 -9.06723
  endloop
 endfacet
 facet normal -0.738701 0.673602 -0.0241107
  outer loop
   vertex -8.34369 49.5515 -9.06723
   vertex -4.82951 53.5092 -6.16259
   vertex -7.45901 50.5023 -9.60829
  endloop
 endfacet
 facet normal -0.582842 0.804358 0.115342
  outer loop
   vertex -4.82951 53.5092 -6.16259
   vertex -9.20371 49.8533 -2.77077
   vertex -6.69023 51.5611 -1.97911
  endloop
 endfacet
 facet normal -0.247034 -0.235931 0.939846
  outer loop
   vertex 11.096 29.6378 -0.945383
   vertex 20.579 56.973 8.40917
   vertex 6.24117 61.9619 5.89292
  endloop
 endfacet
 facet normal -0.636006 0.0195855 0.771436
  outer loop
   vertex -6.53599 51.7335 -8.87857
   vertex -7.45901 50.5023 -9.60829
   vertex -5.2112 52.5205 -7.80634
  endloop
 endfacet
 facet normal -0.138656 -0.103283 0.98494
  outer loop
   vertex 36.6653 46.94 9.62166
   vertex 35.051 52.2232 9.9484
   vertex 20.579 56.973 8.40917
  endloop
 endfacet
 facet normal -0.417864 0.818117 -0.395063
  outer loop
   vertex -5.2112 52.5205 -7.80634
   vertex -7.45901 50.5023 -9.60829
   vertex -4.82951 53.5092 -6.16259
  endloop
 endfacet
 facet normal -0.0846967 0.0641687 0.994338
  outer loop
   vertex 20.579 56.973 8.40917
   vertex 35.051 52.2232 9.9484
   vertex 34.8344 53.47 9.8495
  endloop
 endfacet
 facet normal -0.0757499 -0.0483818 0.995952
  outer loop
   vertex -6.69023 51.5611 -1.97911
   vertex -1.14689 37.6117 -2.23514
   vertex -3.06122 55.3308 -1.51997
  endloop
 endfacet
 facet normal -0.718881 0.694771 -0.0224409
  outer loop
   vertex -2.63944 55.6595 -4.8556
   vertex -6.69023 51.5611 -1.97911
   vertex -3.06122 55.3308 -1.51997
  endloop
 endfacet
 facet normal -0.705416 0.708607 0.0162348
  outer loop
   vertex -4.82951 53.5092 -6.16259
   vertex -6.69023 51.5611 -1.97911
   vertex -2.63944 55.6595 -4.8556
  endloop
 endfacet
 facet normal -0.139987 -0.0550261 0.988623
  outer loop
   vertex -1.14689 37.6117 -2.23514
   vertex 11.096 29.6378 -0.945383
   vertex -3.06122 55.3308 -1.51997
  endloop
 endfacet
 facet normal -0.483405 -0.247586 0.839655
  outer loop
   vertex -3.06122 55.3308 -1.51997
   vertex 11.096 29.6378 -0.945383
   vertex -0.960549 55.7918 -0.174643
  endloop
 endfacet
 facet normal -0.347913 0.719613 -0.600927
  outer loop
   vertex -2.63944 55.6595 -4.8556
   vertex -3.52201 53.9995 -6.33245
   vertex -4.82951 53.5092 -6.16259
  endloop
 endfacet
 facet normal -0.0952698 0.0215034 0.995219
  outer loop
   vertex 20.579 56.973 8.40917
   vertex 34.8344 53.47 9.8495
   vertex 34.168 55.0651 9.75124
  endloop
 endfacet
 facet normal -0.427489 -0.248112 0.869307
  outer loop
   vertex 11.096 29.6378 -0.945383
   vertex 6.24117 61.9619 5.89292
   vertex 0.878427 59.1767 2.46082
  endloop
 endfacet
 facet normal -0.143401 -0.199228 0.969404
  outer loop
   vertex 20.579 56.973 8.40917
   vertex 33.6326 55.2796 9.99212
   vertex 31.0293 57.4629 10.0557
  endloop
 endfacet
 facet normal -0.436414 -0.384811 0.813304
  outer loop
   vertex -3.06122 55.3308 -1.51997
   vertex -0.960549 55.7918 -0.174643
   vertex -0.725201 57.2266 0.630491
  endloop
 endfacet
 facet normal -0.574367 0.814695 -0.0798362
  outer loop
   vertex -3.06122 55.3308 -1.51997
   vertex -1.28061 56.7393 0.0424324
   vertex 0.107928 57.4177 -3.02434
  endloop
 endfacet
 facet normal -0.545397 0.838067 0.0136151
  outer loop
   vertex -2.63944 55.6595 -4.8556
   vertex -3.06122 55.3308 -1.51997
   vertex 0.107928 57.4177 -3.02434
  endloop
 endfacet
 facet normal 0.116764 -0.218004 0.968938
  outer loop
   vertex 31.0293 57.4629 10.0557
   vertex 33.565 56.4743 9.52773
   vertex 32.539 57.5964 9.90385
  endloop
 endfacet
 facet normal -0.572817 -0.286689 0.767912
  outer loop
   vertex 11.096 29.6378 -0.945383
   vertex 0.878427 59.1767 2.46082
   vertex -0.960549 55.7918 -0.174643
  endloop
 endfacet
 facet normal -0.711436 -0.14832 0.686921
  outer loop
   vertex -0.960549 55.7918 -0.174643
   vertex 0.878427 59.1767 2.46082
   vertex -0.471468 57.909 0.789033
  endloop
 endfacet
 facet normal -0.592124 0.0913287 0.800655
  outer loop
   vertex -2.63944 55.6595 -4.8556
   vertex 0.107928 57.4177 -3.02434
   vertex -1.97386 56.4138 -4.44942
  endloop
 endfacet
 facet normal 0.0933814 0.0737226 0.992897
  outer loop
   vertex 31.0293 57.4629 10.0557
   vertex 32.539 57.5964 9.90385
   vertex 30.4532 60.624 9.87522
  endloop
 endfacet
 facet normal -0.799997 0.596236 -0.0671382
  outer loop
   vertex -1.28061 56.7393 0.0424324
   vertex -0.471468 57.909 0.789033
   vertex -0.073129 58.1252 -2.03756
  endloop
 endfacet
 facet normal -0.156854 0.0277965 0.987231
  outer loop
   vertex 20.579 56.973 8.40917
   vertex 31.0293 57.4629 10.0557
   vertex 30.4532 60.624 9.87522
  endloop
 endfacet
 facet normal -0.660295 0.750158 -0.0356781
  outer loop
   vertex -0.471468 57.909 0.789033
   vertex 0.878427 59.1767 2.46082
   vertex -0.073129 58.1252 -2.03756
  endloop
 endfacet
 facet normal -0.251723 0.952844 -0.169483
  outer loop
   vertex -0.073129 58.1252 -2.03756
   vertex 0.878427 59.1767 2.46082
   vertex 1.35865 58.6339 -1.30435
  endloop
 endfacet
 facet normal -0.723904 0.663782 -0.188031
  outer loop
   vertex 1.35865 58.6339 -1.30435
   vertex 0.878427 59.1767 2.46082
   vertex 3.62367 61.878 1.42791
  endloop
 endfacet
 facet normal -0.624611 0.735327 0.262974
  outer loop
   vertex 0.878427 59.1767 2.46082
   vertex 2.61028 60.0702 4.07607
   vertex 3.62367 61.878 1.42791
  endloop
 endfacet
 facet normal -0.400723 -0.105005 0.910162
  outer loop
   vertex 2.61028 60.0702 4.07607
   vertex 6.24117 61.9619 5.89292
   vertex 4.50724 62.8947 5.23713
  endloop
 endfacet
 facet normal 0.0320298 -0.445826 0.894546
  outer loop
   vertex 20.579 56.973 8.40917
   vertex 30.4532 60.624 9.87522
   vertex 29.0256 60.8152 10.0216
  endloop
 endfacet
 facet normal 0.129599 0.229086 0.96474
  outer loop
   vertex 29.0256 60.8152 10.0216
   vertex 30.4532 60.624 9.87522
   vertex 28.7556 62.9755 9.54488
  endloop
 endfacet
 facet normal -0.838455 0.542705 0.0496407
  outer loop
   vertex 2.61028 60.0702 4.07607
   vertex 4.50724 62.8947 5.23713
   vertex 3.62367 61.878 1.42791
  endloop
 endfacet
 facet normal -0.441814 -0.207701 0.872732
  outer loop
   vertex 4.50724 62.8947 5.23713
   vertex 6.24117 61.9619 5.89292
   vertex 5.6552 63.768 6.02612
  endloop
 endfacet
 facet normal -0.193217 0.707461 -0.679828
  outer loop
   vertex 12.8035 67.0254 4.1755
   vertex 1.35865 58.6339 -1.30435
   vertex 3.62367 61.878 1.42791
  endloop
 endfacet
 facet normal -0.226831 -0.168046 0.959327
  outer loop
   vertex 6.24117 61.9619 5.89292
   vertex 20.579 56.973 8.40917
   vertex 7.95059 66.3838 7.07169
  endloop
 endfacet
 facet normal -0.674627 0.737062 -0.0402336
  outer loop
   vertex 3.62367 61.878 1.42791
   vertex 4.50724 62.8947 5.23713
   vertex 6.93858 64.9673 2.43881
  endloop
 endfacet
 facet normal -0.621863 0.782154 0.0390089
  outer loop
   vertex 6.93858 64.9673 2.43881
   vertex 4.50724 62.8947 5.23713
   vertex 5.6552 63.768 6.02612
  endloop
 endfacet
 facet normal -0.92556 0.300128 -0.230786
  outer loop
   vertex 6.93858 64.9673 2.43881
   vertex 5.6552 63.768 6.02612
   vertex 7.00404 65.6103 3.01248
  endloop
 endfacet
 facet normal -0.146476 -0.0913558 0.984987
  outer loop
   vertex 20.579 56.973 8.40917
   vertex 29.0256 60.8152 10.0216
   vertex 23.5629 67.4685 9.82635
  endloop
 endfacet
 facet normal -0.182176 -0.130973 0.974504
  outer loop
   vertex 5.6552 63.768 6.02612
   vertex 6.24117 61.9619 5.89292
   vertex 6.73108 65.5979 6.47318
  endloop
 endfacet
 facet normal -0.389281 -0.093784 0.916332
  outer loop
   vertex 6.24117 61.9619 5.89292
   vertex 7.95059 66.3838 7.07169
   vertex 6.73108 65.5979 6.47318
  endloop
 endfacet
 facet normal -0.00754392 0.0753054 0.997132
  outer loop
   vertex 29.0256 60.8152 10.0216
   vertex 27.551 64.1449 9.75898
   vertex 24.4246 67.9395 9.44875
  endloop
 endfacet
 facet normal -0.853123 0.517591 -0.0654272
  outer loop
   vertex 7.00404 65.6103 3.01248
   vertex 5.6552 63.768 6.02612
   vertex 6.73108 65.5979 6.47318
  endloop
 endfacet
 facet normal -0.958381 -0.204525 0.199187
  outer loop
   vertex -23.0767 -54.0882 -2.74518
   vertex -22.8702 -54.2423 -1.90997
   vertex -23.127 -53.5858 -2.47158
  endloop
 endfacet
 facet normal -0.527844 0.848465 -0.0385806
  outer loop
   vertex 7.00404 65.6103 3.01248
   vertex 6.73108 65.5979 6.47318
   vertex 7.95059 66.3838 7.07169
  endloop
 endfacet
 facet normal -0.156145 -0.069501 0.985286
  outer loop
   vertex 7.95059 66.3838 7.07169
   vertex 20.579 56.973 8.40917
   vertex 9.82747 69.5709 7.59395
  endloop
 endfacet
 facet normal -0.78159 0.620498 0.0640257
  outer loop
   vertex 7.00404 65.6103 3.01248
   vertex 7.95059 66.3838 7.07169
   vertex 8.3629 67.2597 3.61559
  endloop
 endfacet
 facet normal -0.163299 -0.086277 0.982797
  outer loop
   vertex 10.9389 71.119 8.04923
   vertex 20.579 56.973 8.40917
   vertex 23.5629 67.4685 9.82635
  endloop
 endfacet
 facet normal -0.863194 0.504261 0.0248286
  outer loop
   vertex 8.3629 67.2597 3.61559
   vertex 7.95059 66.3838 7.07169
   vertex 9.82747 69.5709 7.59395
  endloop
 endfacet
 facet normal 0.00484441 0.451197 0.892411
  outer loop
   vertex 10.9389 71.119 8.04923
   vertex 23.5629 67.4685 9.82635
   vertex 21.5713 73.0844 6.9978
  endloop
 endfacet
 facet normal -0.529606 -0.403712 0.746012
  outer loop
   vertex 9.82747 69.5709 7.59395
   vertex 20.579 56.973 8.40917
   vertex 10.2171 69.6193 7.89676
  endloop
 endfacet
 facet normal -0.108546 -0.048707 0.992898
  outer loop
   vertex 20.579 56.973 8.40917
   vertex 10.9389 71.119 8.04923
   vertex 10.2171 69.6193 7.89676
  endloop
 endfacet
 facet normal -0.792005 0.607428 -0.061312
  outer loop
   vertex 8.3629 67.2597 3.61559
   vertex 9.82747 69.5709 7.59395
   vertex 12.9439 73.4554 5.82078
  endloop
 endfacet
 facet normal -0.510089 0.660652 0.550771
  outer loop
   vertex 9.82747 69.5709 7.59395
   vertex 10.2171 69.6193 7.89676
   vertex 12.9439 73.4554 5.82078
  endloop
 endfacet
 facet normal -0.279197 0.948062 0.152408
  outer loop
   vertex 11.8975 70.6328 4.48047
   vertex 11.219 70.46 4.31236
   vertex 10.6481 70.2093 4.82593
  endloop
 endfacet
 facet normal -0.846545 0.438177 -0.302263
  outer loop
   vertex 12.9439 73.4554 5.82078
   vertex 10.2171 69.6193 7.89676
   vertex 10.9389 71.119 8.04923
  endloop
 endfacet
 facet normal -0.749755 -0.0715169 0.657839
  outer loop
   vertex 23.5629 67.4685 9.82635
   vertex 22.8042 70.7229 9.31543
   vertex 22.1262 72.264 8.71021
  endloop
 endfacet
 facet normal -0.176009 -0.0267562 0.984025
  outer loop
   vertex 10.9389 71.119 8.04923
   vertex 19.4875 74.7219 9.67626
   vertex 15.1664 75.8686 8.93452
  endloop
 endfacet
 facet normal -0.753266 0.657612 0.0117239
  outer loop
   vertex 12.9439 73.4554 5.82078
   vertex 10.9389 71.119 8.04923
   vertex 14.7222 75.4403 8.73449
  endloop
 endfacet
 facet normal -0.656384 0.746648 -0.108061
  outer loop
   vertex 12.9439 73.4554 5.82078
   vertex 14.7222 75.4403 8.73449
   vertex 14.6025 74.8722 5.53579
  endloop
 endfacet
 facet normal -0.13556 0.12492 0.982862
  outer loop
   vertex 19.4875 74.7219 9.67626
   vertex 19.3797 77.4669 9.3125
   vertex 15.1664 75.8686 8.93452
  endloop
 endfacet
 facet normal 0.0628047 -0.383458 0.921421
  outer loop
   vertex 15.1664 75.8686 8.93452
   vertex 19.3797 77.4669 9.3125
   vertex 18.255 77.9312 9.58238
  endloop
 endfacet
 facet normal -0.70228 0.704992 -0.0989441
  outer loop
   vertex 15.3178 75.6159 5.75853
   vertex 14.6025 74.8722 5.53579
   vertex 14.7222 75.4403 8.73449
  endloop
 endfacet
 facet normal -0.862989 0.484227 -0.144132
  outer loop
   vertex 15.3178 75.6159 5.75853
   vertex 14.7222 75.4403 8.73449
   vertex 15.6905 76.5411 6.63519
  endloop
 endfacet
 facet normal -0.182055 0.902874 0.389454
  outer loop
   vertex 15.6905 76.5411 6.63519
   vertex 14.7222 75.4403 8.73449
   vertex 16.9643 76.9715 6.23298
  endloop
 endfacet
 facet normal -0.273958 0.950136 0.148958
  outer loop
   vertex 16.2829 76.7989 6.08035
   vertex 15.6905 76.5411 6.63519
   vertex 16.9643 76.9715 6.23298
  endloop
 endfacet
 facet normal -0.704835 0.674814 -0.218709
  outer loop
   vertex 16.9643 76.9715 6.23298
   vertex 14.7222 75.4403 8.73449
   vertex 18.4194 79.0881 8.07446
  endloop
 endfacet
 facet normal -0.682572 -0.152573 0.714715
  outer loop
   vertex 16.9643 76.9715 6.23298
   vertex 18.4194 79.0881 8.07446
   vertex 17.6647 78.8443 7.30168
  endloop
 endfacet
 facet normal -0.583757 0.673671 0.453205
  outer loop
   vertex 14.7222 75.4403 8.73449
   vertex 18.255 77.9312 9.58238
   vertex 18.4194 79.0881 8.07446
  endloop
 endfacet
 facet normal -0.544456 0.69311 0.472405
  outer loop
   vertex 18.255 77.9312 9.58238
   vertex 18.7696 78.6013 9.19224
   vertex 18.4194 79.0881 8.07446
  endloop
 endfacet
 facet normal -0.147705 0.975418 -0.163531
  outer loop
   vertex 18.4194 79.0881 8.07446
   vertex 18.3478 78.916 7.11249
   vertex 17.6647 78.8443 7.30168
  endloop
 endfacet
 facet normal -0.83257 0.524228 0.178919
  outer loop
   vertex 35.1275 -27.2146 8.71457
   vertex 36.3953 -25.1305 8.50786
   vertex 34.8043 -27.6263 8.41718
  endloop
 endfacet
 facet normal -0.152605 0.242549 0.958061
  outer loop
   vertex 37.0275 -24.1198 8.49473
   vertex 25.6239 -30.0403 8.17715
   vertex 33.7126 -28.1127 8.97758
  endloop
 endfacet
 facet normal -0.102563 -0.124078 0.986958
  outer loop
   vertex -17.2317 -37.5705 -2.43785
   vertex -33.1834 -26.1197 -2.65596
   vertex -32.0718 -30.1195 -3.04329
  endloop
 endfacet
 facet normal -0.156574 0.0913651 0.983431
  outer loop
   vertex 11.3042 -4.01877 -1.0117
   vertex -17.2317 -37.5705 -2.43785
   vertex -9.201 -40.4925 -0.887812
  endloop
 endfacet
 facet normal -0.0688079 -0.122398 0.990093
  outer loop
   vertex 33.7126 -28.1127 8.97758
   vertex 25.6239 -30.0403 8.17715
   vertex 32.5179 -32.3398 8.37199
  endloop
 endfacet
 facet normal 0.0330634 0.182389 0.98267
  outer loop
   vertex 32.5179 -32.3398 8.37199
   vertex 25.6239 -30.0403 8.17715
   vertex 32.0895 -33.7162 8.64188
  endloop
 endfacet
 facet normal 0.0653487 0.20943 0.975637
  outer loop
   vertex -17.2317 -37.5705 -2.43785
   vertex -32.0718 -30.1195 -3.04329
   vertex -30.7567 -32.6645 -2.58507
  endloop
 endfacet
 facet normal -0.799075 -0.0869819 0.594906
  outer loop
   vertex -31.0268 -33.1922 -6.84205
   vertex -31.5524 -30.3932 -7.13887
   vertex -31.1578 -32.7786 -6.95753
  endloop
 endfacet
 facet normal -0.0108145 0.000192621 0.999942
  outer loop
   vertex -17.2317 -37.5705 -2.43785
   vertex -30.7567 -32.6645 -2.58507
   vertex -30.0301 -34.1283 -2.57693
  endloop
 endfacet
 facet normal -0.399284 0.227492 0.888155
  outer loop
   vertex 5.14146 -36.7379 4.59837
   vertex 11.3042 -4.01877 -1.0117
   vertex -9.201 -40.4925 -0.887812
  endloop
 endfacet
 facet normal -0.999375 -0.0351377 0.00390711
  outer loop
   vertex -29.9779 -36.1007 -6.94776
   vertex -30.0301 -34.1283 -2.57693
   vertex -30.0222 -34.8793 -7.30504
  endloop
 endfacet
 facet normal -0.0271463 0.0723251 0.997012
  outer loop
   vertex 25.6239 -30.0403 8.17715
   vertex 30.3426 -36.1924 8.75192
   vertex 31.304 -34.5398 8.65821
  endloop
 endfacet
 facet normal -0.0195965 0.0817964 0.996456
  outer loop
   vertex 25.6239 -30.0403 8.17715
   vertex 31.304 -34.5398 8.65821
   vertex 31.8822 -34.244 8.6453
  endloop
 endfacet
 facet normal 0.0336969 -0.0160697 0.999303
  outer loop
   vertex 31.304 -34.5398 8.65821
   vertex 31.099 -36.396 8.63527
   vertex 31.6628 -34.7849 8.64217
  endloop
 endfacet
 facet normal 0.174694 -0.03146 0.98412
  outer loop
   vertex 31.304 -34.5398 8.65821
   vertex 30.6614 -35.6518 8.73674
   vertex 31.099 -36.396 8.63527
  endloop
 endfacet
 facet normal 0.00850761 0.0719304 0.997373
  outer loop
   vertex -19.6455 -46.573 -1.768
   vertex -17.2317 -37.5705 -2.43785
   vertex -30.0301 -34.1283 -2.57693
  endloop
 endfacet
 facet normal 0.138071 -0.0536567 0.988968
  outer loop
   vertex 30.6614 -35.6518 8.73674
   vertex 30.3426 -36.1924 8.75192
   vertex 31.099 -36.396 8.63527
  endloop
 endfacet
 facet normal 0.062703 -0.310522 0.948496
  outer loop
   vertex 31.099 -36.396 8.63527
   vertex 30.3426 -36.1924 8.75192
   vertex 30.6107 -36.5888 8.60443
  endloop
 endfacet
 facet normal -0.144502 -0.0563658 0.987898
  outer loop
   vertex -19.6455 -46.573 -1.768
   vertex -30.0301 -34.1283 -2.57693
   vertex -29.1667 -36.6493 -2.59448
  endloop
 endfacet
 facet normal -0.442331 -0.157636 0.88289
  outer loop
   vertex -30.0301 -34.1283 -2.57693
   vertex -29.8241 -36.3868 -2.87698
   vertex -29.1667 -36.6493 -2.59448
  endloop
 endfacet
 facet normal -0.110638 -0.0182507 0.993693
  outer loop
   vertex 30.8881 -36.9303 8.63672
   vertex 25.6239 -30.0403 8.17715
   vertex 30.4708 -36.9879 8.5892
  endloop
 endfacet
 facet normal 0.118115 0.140699 0.982982
  outer loop
   vertex 30.4708 -36.9879 8.5892
   vertex 25.6239 -30.0403 8.17715
   vertex 30.0109 -37.3267 8.69295
  endloop
 endfacet
 facet normal 0.188703 0.0442606 0.981036
  outer loop
   vertex 30.4708 -36.9879 8.5892
   vertex 30.0109 -37.3267 8.69295
   vertex 30.4614 -38.0008 8.63671
  endloop
 endfacet
 facet normal -0.975626 -0.146575 0.163311
  outer loop
   vertex -29.1667 -36.6493 -2.59448
   vertex -29.9779 -36.1007 -6.94776
   vertex -28.9152 -38.7568 -2.98323
  endloop
 endfacet
 facet normal -0.282104 -0.10232 0.953912
  outer loop
   vertex 30.0109 -37.3267 8.69295
   vertex 25.6239 -30.0403 8.17715
   vertex 30.2291 -38.5182 8.62968
  endloop
 endfacet
 facet normal 0.0359194 0.0727131 0.996706
  outer loop
   vertex 25.6239 -30.0403 8.17715
   vertex 28.8277 -39.168 8.72759
   vertex 30.2291 -38.5182 8.62968
  endloop
 endfacet
 facet normal -0.562671 0.573481 -0.595417
  outer loop
   vertex 28.3234 -40.4538 5.77971
   vertex 29.8315 -38.3949 6.3375
   vertex 29.4892 -38.9651 6.11178
  endloop
 endfacet
 facet normal -0.29706 -0.207385 0.932066
  outer loop
   vertex -19.6455 -46.573 -1.768
   vertex -29.1667 -36.6493 -2.59448
   vertex -28.9152 -38.7568 -2.98323
  endloop
 endfacet
 facet normal 0.025607 0.183162 0.982749
  outer loop
   vertex -19.6455 -46.573 -1.768
   vertex -28.9152 -38.7568 -2.98323
   vertex -27.5456 -40.8948 -2.62044
  endloop
 endfacet
 facet normal -0.304049 -0.286631 0.908514
  outer loop
   vertex -19.6455 -46.573 -1.768
   vertex -27.5456 -40.8948 -2.62044
   vertex -27.6154 -42.2089 -3.05838
  endloop
 endfacet
 facet normal -0.420475 0.526344 0.739028
  outer loop
   vertex 5.14146 -36.7379 4.59837
   vertex -9.201 -40.4925 -0.887812
   vertex -20.3305 -53.9651 2.37532
  endloop
 endfacet
 facet normal 0.236715 0.646688 0.725094
  outer loop
   vertex -19.6455 -46.573 -1.768
   vertex -27.6154 -42.2089 -3.05838
   vertex -27.022 -42.9704 -2.57291
  endloop
 endfacet
 facet normal -0.485451 -0.118152 0.866243
  outer loop
   vertex 28.8277 -39.168 8.72759
   vertex 25.6239 -30.0403 8.17715
   vertex 29.0184 -41.3756 8.53336
  endloop
 endfacet
 facet normal -0.0266449 0.0234258 0.99937
  outer loop
   vertex 29.0184 -41.3756 8.53336
   vertex 25.6239 -30.0403 8.17715
   vertex 26.0402 -45.3039 8.54604
  endloop
 endfacet
 facet normal -0.998343 0.056549 -0.0106469
  outer loop
   vertex -27.5456 -40.8948 -2.62044
   vertex -27.5722 -42.2608 -7.3827
   vertex -27.6154 -42.2089 -3.05838
  endloop
 endfacet
 facet normal -0.148537 0.112928 0.982438
  outer loop
   vertex -9.201 -40.4925 -0.887812
   vertex -17.2317 -37.5705 -2.43785
   vertex -19.6455 -46.573 -1.768
  endloop
 endfacet
 facet normal 0.0846264 -0.0609465 0.994547
  outer loop
   vertex 29.0184 -41.3756 8.53336
   vertex 26.0402 -45.3039 8.54604
   vertex 26.8846 -45.1752 8.48208
  endloop
 endfacet
 facet normal -0.0977148 0.0222261 0.994966
  outer loop
   vertex -19.6455 -46.573 -1.768
   vertex -27.022 -42.9704 -2.57291
   vertex -25.6223 -45.9782 -2.36826
  endloop
 endfacet
 facet normal -0.348686 0.482636 0.803418
  outer loop
   vertex -9.201 -40.4925 -0.887812
   vertex -19.6455 -46.573 -1.768
   vertex -20.3305 -53.9651 2.37532
  endloop
 endfacet
 facet normal -0.234104 0.0171069 0.972061
  outer loop
   vertex 26.0402 -45.3039 8.54604
   vertex 25.6239 -30.0403 8.17715
   vertex 24.9 -48.1888 8.3222
  endloop
 endfacet
 facet normal -0.17683 0.0149188 0.984128
  outer loop
   vertex 25.6239 -30.0403 8.17715
   vertex 5.14146 -36.7379 4.59837
   vertex 24.9 -48.1888 8.3222
  endloop
 endfacet
 facet normal -0.115931 -0.178943 0.977005
  outer loop
   vertex -25.5814 -47.34 -2.61282
   vertex -19.6455 -46.573 -1.768
   vertex -25.6223 -45.9782 -2.36826
  endloop
 endfacet
 facet normal -0.179038 0.391385 0.902643
  outer loop
   vertex -19.6455 -46.573 -1.768
   vertex -25.5814 -47.34 -2.61282
   vertex -24.8653 -48.1496 -2.11973
  endloop
 endfacet
 facet normal -0.207617 0.182978 0.960944
  outer loop
   vertex 5.14146 -36.7379 4.59837
   vertex -20.3305 -53.9651 2.37532
   vertex -3.92167 -53.4231 5.81735
  endloop
 endfacet
 facet normal -0.108124 0.130729 0.985505
  outer loop
   vertex 5.14146 -36.7379 4.59837
   vertex -3.92167 -53.4231 5.81735
   vertex 2.61763 -59.1469 7.29407
  endloop
 endfacet
 facet normal -0.0812745 0.0469758 0.995584
  outer loop
   vertex -19.6455 -46.573 -1.768
   vertex -24.8653 -48.1496 -2.11973
   vertex -24.6411 -49.7824 -2.02438
  endloop
 endfacet
 facet normal -0.206147 -0.0377288 0.977793
  outer loop
   vertex 23.0915 -50.5409 7.85015
   vertex 24.9 -48.1888 8.3222
   vertex 5.14146 -36.7379 4.59837
  endloop
 endfacet
 facet normal -0.947877 -0.233059 0.217284
  outer loop
   vertex -25.1478 -48.3997 -6.67616
   vertex -24.135 -51.1389 -5.19623
   vertex -24.0248 -51.1123 -4.68694
  endloop
 endfacet
 facet normal -0.306165 0.407849 0.860187
  outer loop
   vertex -24.6411 -49.7824 -2.02438
   vertex -23.5198 -53.1546 -0.0264115
   vertex -19.6455 -46.573 -1.768
  endloop
 endfacet
 facet normal -0.376242 0.479301 0.792914
  outer loop
   vertex -20.3305 -53.9651 2.37532
   vertex -19.6455 -46.573 -1.768
   vertex -23.5446 -53.3849 0.499479
  endloop
 endfacet
 facet normal -0.00505587 0.223071 0.974789
  outer loop
   vertex 23.0915 -50.5409 7.85015
   vertex 5.14146 -36.7379 4.59837
   vertex 21.6099 -52.3871 8.26495
  endloop
 endfacet
 facet normal -0.16711 0.824103 0.541228
  outer loop
   vertex -20.3305 -53.9651 2.37532
   vertex -23.5446 -53.3849 0.499479
   vertex -22.7684 -53.8278 1.41359
  endloop
 endfacet
 facet normal -0.821578 0.535434 0.195757
  outer loop
   vertex -23.5446 -53.3849 0.499479
   vertex -19.6455 -46.573 -1.768
   vertex -23.5198 -53.1546 -0.0264115
  endloop
 endfacet
 facet normal -0.1111 0.13102 0.985135
  outer loop
   vertex 5.14146 -36.7379 4.59837
   vertex 2.61763 -59.1469 7.29407
   vertex 19.185 -53.7315 8.44225
  endloop
 endfacet
 facet normal -0.0351695 0.192747 0.980618
  outer loop
   vertex 5.14146 -36.7379 4.59837
   vertex 19.185 -53.7315 8.44225
   vertex 21.6099 -52.3871 8.26495
  endloop
 endfacet
 facet normal -0.36486 -0.546443 0.753841
  outer loop
   vertex 32.0895 -33.7162 8.64188
   vertex 25.6239 -30.0403 8.17715
   vertex 31.8757 -34.0302 8.31082
  endloop
 endfacet
 facet normal -0.283714 0.535307 0.795584
  outer loop
   vertex -20.3305 -53.9651 2.37532
   vertex -22.7684 -53.8278 1.41359
   vertex -22.8073 -54.4889 1.84454
  endloop
 endfacet
 facet normal 0.0320129 -0.300074 0.953379
  outer loop
   vertex 19.185 -53.7315 8.44225
   vertex 2.61763 -59.1469 7.29407
   vertex 18.5634 -55.7508 7.82756
  endloop
 endfacet
 facet normal -0.825767 0.341315 0.449012
  outer loop
   vertex -22.8073 -54.4889 1.84454
   vertex -22.7684 -53.8278 1.41359
   vertex -23.1146 -55.0667 1.71851
  endloop
 endfacet
 facet normal -0.762895 0.278545 0.583441
  outer loop
   vertex -22.8073 -54.4889 1.84454
   vertex -23.1146 -55.0667 1.71851
   vertex -22.6248 -56.1173 2.86059
  endloop
 endfacet
 facet normal -0.266145 0.347238 0.899218
  outer loop
   vertex -20.3305 -53.9651 2.37532
   vertex -22.8073 -54.4889 1.84454
   vertex -22.1092 -58.6888 3.67298
  endloop
 endfacet
 facet normal -0.0103966 0.773409 -0.633822
  outer loop
   vertex -16.1967 -55.7285 0.0956169
   vertex -21.4236 -56.4466 -0.694869
   vertex -22.329 -56.3117 -0.515498
  endloop
 endfacet
 facet normal -0.190645 0.807435 0.558304
  outer loop
   vertex 18.5634 -55.7508 7.82756
   vertex 2.61763 -59.1469 7.29407
   vertex 16.8414 -56.4889 8.307
  endloop
 endfacet
 facet normal -0.0174708 -0.273051 0.961841
  outer loop
   vertex 16.8414 -56.4889 8.307
   vertex 2.61763 -59.1469 7.29407
   vertex 16.5382 -57.5354 8.00442
  endloop
 endfacet
 facet normal -0.0960021 0.434519 0.895532
  outer loop
   vertex 16.5382 -57.5354 8.00442
   vertex 2.61763 -59.1469 7.29407
   vertex 14.9154 -58.2613 8.1827
  endloop
 endfacet
 facet normal -0.0626703 -0.123485 0.990366
  outer loop
   vertex 14.9154 -58.2613 8.1827
   vertex 2.61763 -59.1469 7.29407
   vertex 13.3499 -59.792 7.89278
  endloop
 endfacet
 facet normal -0.440009 0.388136 0.809779
  outer loop
   vertex -20.3305 -53.9651 2.37532
   vertex -22.1092 -58.6888 3.67298
   vertex -21.5561 -59.3064 4.26954
  endloop
 endfacet
 facet normal 0.0391696 0.947155 0.318375
  outer loop
   vertex 13.3499 -59.792 7.89278
   vertex 2.61763 -59.1469 7.29407
   vertex 12.7543 -59.8189 8.04613
  endloop
 endfacet
 facet normal 0.188463 0.289552 0.938425
  outer loop
   vertex -20.3305 -53.9651 2.37532
   vertex -21.5561 -59.3064 4.26954
   vertex -20.1645 -63.0406 5.14224
  endloop
 endfacet
 facet normal -0.079104 -0.0813168 0.993544
  outer loop
   vertex 2.61763 -59.1469 7.29407
   vertex 10.5932 -61.5102 7.73565
   vertex 12.7543 -59.8189 8.04613
  endloop
 endfacet
 facet normal -0.20588 0.281931 0.937085
  outer loop
   vertex -20.3305 -53.9651 2.37532
   vertex -20.1645 -63.0406 5.14224
   vertex -3.92167 -53.4231 5.81735
  endloop
 endfacet
 facet normal -0.0598337 -0.0154345 0.998089
  outer loop
   vertex 10.5932 -61.5102 7.73565
   vertex 2.61763 -59.1469 7.29407
   vertex 9.94401 -62.1795 7.68638
  endloop
 endfacet
 facet normal 0.167411 0.513332 0.841703
  outer loop
   vertex 9.94401 -62.1795 7.68638
   vertex 2.61763 -59.1469 7.29407
   vertex 8.86765 -62.273 7.95745
  endloop
 endfacet
 facet normal -0.276105 0.405132 0.87157
  outer loop
   vertex -3.92167 -53.4231 5.81735
   vertex -20.1645 -63.0406 5.14224
   vertex -19.7645 -63.3954 5.43391
  endloop
 endfacet
 facet normal -0.15489 -0.10113 0.982742
  outer loop
   vertex 8.86765 -62.273 7.95745
   vertex 2.61763 -59.1469 7.29407
   vertex 7.88744 -63.5542 7.67111
  endloop
 endfacet
 facet normal -0.160565 -0.108056 0.981093
  outer loop
   vertex 7.88744 -63.5542 7.67111
   vertex 2.61763 -59.1469 7.29407
   vertex 7.23502 -64.5287 7.45701
  endloop
 endfacet
 facet normal -0.104771 0.12853 0.986156
  outer loop
   vertex -3.92167 -53.4231 5.81735
   vertex -19.7645 -63.3954 5.43391
   vertex -18.475 -66.3972 5.96214
  endloop
 endfacet
 facet normal -0.00334407 0.0273951 0.999619
  outer loop
   vertex 7.23502 -64.5287 7.45701
   vertex 2.61763 -59.1469 7.29407
   vertex 5.74315 -66.1413 7.49621
  endloop
 endfacet
 facet normal -0.156693 0.0750557 0.984791
  outer loop
   vertex 2.61763 -59.1469 7.29407
   vertex -3.92167 -53.4231 5.81735
   vertex 0.973638 -69.7998 7.8444
  endloop
 endfacet
 facet normal 0.109132 0.0774074 0.991009
  outer loop
   vertex 5.74315 -66.1413 7.49621
   vertex 2.61763 -59.1469 7.29407
   vertex 4.36755 -66.9611 7.71173
  endloop
 endfacet
 facet normal -0.47678 -0.0598982 0.876979
  outer loop
   vertex 4.36755 -66.9611 7.71173
   vertex 2.61763 -59.1469 7.29407
   vertex 4.05524 -67.7603 7.48735
  endloop
 endfacet
 facet normal 0.0905264 0.0374409 0.99519
  outer loop
   vertex 2.61763 -59.1469 7.29407
   vertex 0.973638 -69.7998 7.8444
   vertex 4.05524 -67.7603 7.48735
  endloop
 endfacet
 facet normal -0.184632 0.217802 0.95837
  outer loop
   vertex -3.92167 -53.4231 5.81735
   vertex -18.475 -66.3972 5.96214
   vertex -17.0677 -68.5477 6.72199
  endloop
 endfacet
 facet normal -0.562456 -0.066115 0.82418
  outer loop
   vertex 0.973638 -69.7998 7.8444
   vertex -3.92167 -53.4231 5.81735
   vertex 0.877266 -71.0564 7.67782
  endloop
 endfacet
 facet normal 0.0858962 0.12763 0.988095
  outer loop
   vertex 0.877266 -71.0564 7.67782
   vertex -3.92167 -53.4231 5.81735
   vertex -0.991884 -71.4509 7.89126
  endloop
 endfacet
 facet normal -0.67679 -0.0253492 0.73574
  outer loop
   vertex -0.991884 -71.4509 7.89126
   vertex -3.92167 -53.4231 5.81735
   vertex -1.26159 -72.7818 7.59731
  endloop
 endfacet
 facet normal -0.0722759 -0.54906 0.832652
  outer loop
   vertex -15.977 -70.8055 4.50496
   vertex -15.4272 -71.7224 3.94804
   vertex -14.9553 -71.8494 3.90529
  endloop
 endfacet
 facet normal -0.0633679 0.114378 0.991414
  outer loop
   vertex -3.92167 -53.4231 5.81735
   vertex -17.0677 -68.5477 6.72199
   vertex -14.7897 -72.8546 7.36447
  endloop
 endfacet
 facet normal 0.128478 0.108293 0.985782
  outer loop
   vertex -1.26159 -72.7818 7.59731
   vertex -3.92167 -53.4231 5.81735
   vertex -3.59372 -73.5633 7.9871
  endloop
 endfacet
 facet normal -0.148446 0.160717 0.975774
  outer loop
   vertex -3.92167 -53.4231 5.81735
   vertex -14.7897 -72.8546 7.36447
   vertex -14.2787 -73.3322 7.52089
  endloop
 endfacet
 facet normal -0.618316 0.356028 0.700663
  outer loop
   vertex -3.92167 -53.4231 5.81735
   vertex -14.3306 -74.1599 7.16876
   vertex -13.9128 -74.3747 7.64655
  endloop
 endfacet
 facet normal -0.0716588 0.105684 0.991814
  outer loop
   vertex -3.59372 -73.5633 7.9871
   vertex -3.92167 -53.4231 5.81735
   vertex -6.24409 -75.4421 7.99581
  endloop
 endfacet
 facet normal 0.00123152 0.0863927 0.99626
  outer loop
   vertex -3.92167 -53.4231 5.81735
   vertex -13.9128 -74.3747 7.64655
   vertex -13.8553 -74.9162 7.69344
  endloop
 endfacet
 facet normal -0.236822 0.175545 0.955562
  outer loop
   vertex -3.92167 -53.4231 5.81735
   vertex -13.8801 -75.3764 7.38231
   vertex -12.749 -78.3318 8.20556
  endloop
 endfacet
 facet normal 0.0222089 0.0961109 0.995123
  outer loop
   vertex -6.24409 -75.4421 7.99581
   vertex -3.92167 -53.4231 5.81735
   vertex -7.65688 -76.2027 8.10081
  endloop
 endfacet
 facet normal -0.645882 0.18027 0.741848
  outer loop
   vertex -7.65688 -76.2027 8.10081
   vertex -3.92167 -53.4231 5.81735
   vertex -8.59639 -77.3426 7.55982
  endloop
 endfacet
 facet normal -0.375074 0.185168 0.908313
  outer loop
   vertex -10.3673 -77.8446 8.13427
   vertex -3.92167 -53.4231 5.81735
   vertex -11.634 -78.9198 7.83039
  endloop
 endfacet
 facet normal -0.960028 0.242193 -0.140318
  outer loop
   vertex -12.749 -78.3318 8.20556
   vertex -12.5003 -78.4984 6.2162
   vertex -12.8804 -79.0881 7.79868
  endloop
 endfacet
 facet normal -0.318344 0.934749 -0.157799
  outer loop
   vertex -12.5138 -78.9379 6.76886
   vertex -12.1318 -78.8246 6.66934
   vertex -12.5023 -79.0287 6.20768
  endloop
 endfacet
 facet normal -0.254889 -0.46838 0.845962
  outer loop
   vertex 8.79902 -1.25327 -1.75489
   vertex 12.8293 -1.306 -0.569754
   vertex 3.33812 0.918732 -2.1977
  endloop
 endfacet
 facet normal -0.0979976 0.0495194 0.993954
  outer loop
   vertex -23.653 19.6945 -2.98173
   vertex -43.0548 3.14121 -4.06993
   vertex -40.7309 -5.32803 -3.41886
  endloop
 endfacet
 facet normal -0.0243316 0.0067661 0.999681
  outer loop
   vertex -23.653 19.6945 -2.98173
   vertex -17.2317 -37.5705 -2.43785
   vertex 3.33812 0.918732 -2.1977
  endloop
 endfacet
 facet normal -0.282083 0.00228465 0.959387
  outer loop
   vertex 12.8293 -1.306 -0.569754
   vertex 8.79902 -1.25327 -1.75489
   vertex 11.3042 -4.01877 -1.0117
  endloop
 endfacet
 facet normal -0.171343 0.125946 0.977128
  outer loop
   vertex 43.7004 -0.307159 8.67826
   vertex 23.4205 -10.0474 6.37756
   vertex 42.8426 -3.57608 8.94919
  endloop
 endfacet
 facet normal 0.038541 0.291747 0.955719
  outer loop
   vertex 8.79902 -1.25327 -1.75489
   vertex 3.33812 0.918732 -2.1977
   vertex 11.3042 -4.01877 -1.0117
  endloop
 endfacet
 facet normal -0.622017 -0.111094 0.775083
  outer loop
   vertex -43.0548 3.14121 -4.06993
   vertex -41.7971 -3.38736 -3.99631
   vertex -40.7309 -5.32803 -3.41886
  endloop
 endfacet
 facet normal -0.0967945 -0.102898 0.989971
  outer loop
   vertex 42.8426 -3.57608 8.94919
   vertex 23.4205 -10.0474 6.37756
   vertex 42.8668 -6.55972 8.64143
  endloop
 endfacet
 facet normal -0.0467235 0.0144401 0.998803
  outer loop
   vertex -23.653 19.6945 -2.98173
   vertex -40.7309 -5.32803 -3.41886
   vertex -32.6643 -13.3153 -2.92603
  endloop
 endfacet
 facet normal -0.0202755 0.00722176 0.999768
  outer loop
   vertex -17.2317 -37.5705 -2.43785
   vertex -23.653 19.6945 -2.98173
   vertex -32.6643 -13.3153 -2.92603
  endloop
 endfacet
 facet normal -0.190129 0.51928 0.833186
  outer loop
   vertex 42.8668 -6.55972 8.64143
   vertex 23.4205 -10.0474 6.37756
   vertex 41.163 -7.97903 9.13722
  endloop
 endfacet
 facet normal -0.150783 -0.0251227 0.988248
  outer loop
   vertex 41.163 -7.97903 9.13722
   vertex 23.4205 -10.0474 6.37756
   vertex 41.3683 -9.05258 9.14124
  endloop
 endfacet
 facet normal -0.538482 0.703271 0.464162
  outer loop
   vertex -39.1582 -11.4745 -5.29318
   vertex -38.929 -10.1023 -7.10639
   vertex -39.3501 -10.5987 -6.84272
  endloop
 endfacet
 facet normal -0.0485562 0.0125854 0.998741
  outer loop
   vertex -32.6643 -13.3153 -2.92603
   vertex -40.7309 -5.32803 -3.41886
   vertex -38.6213 -11.9923 -3.23232
  endloop
 endfacet
 facet normal -0.698811 -0.202008 0.68619
  outer loop
   vertex -40.7309 -5.32803 -3.41886
   vertex -39.4516 -10.9491 -3.77083
   vertex -38.6213 -11.9923 -3.23232
  endloop
 endfacet
 facet normal -0.15395 0.0341235 0.987489
  outer loop
   vertex 41.3683 -9.05258 9.14124
   vertex 23.4205 -10.0474 6.37756
   vertex 40.3123 -14.037 9.14885
  endloop
 endfacet
 facet normal -0.184744 -0.103305 0.977342
  outer loop
   vertex 40.3123 -14.037 9.14885
   vertex 23.4205 -10.0474 6.37756
   vertex 40.4819 -16.1544 8.95712
  endloop
 endfacet
 facet normal -0.113822 0.0546402 0.991997
  outer loop
   vertex 3.33812 0.918732 -2.1977
   vertex -17.2317 -37.5705 -2.43785
   vertex 11.3042 -4.01877 -1.0117
  endloop
 endfacet
 facet normal -0.347088 -0.545957 0.762535
  outer loop
   vertex -39.1582 -11.4745 -5.29318
   vertex -38.238 -13.7831 -6.52728
   vertex -36.9378 -15.2995 -7.02115
  endloop
 endfacet
 facet normal -0.0465361 0.0216668 0.998682
  outer loop
   vertex -32.6643 -13.3153 -2.92603
   vertex -38.6213 -11.9923 -3.23232
   vertex -36.4966 -18.8102 -2.9854
  endloop
 endfacet
 facet normal -0.152003 -0.00718185 0.988354
  outer loop
   vertex 40.4819 -16.1544 8.95712
   vertex 23.4205 -10.0474 6.37756
   vertex 39.7226 -18.5388 8.82301
  endloop
 endfacet
 facet normal 0.0861165 0.424853 0.901157
  outer loop
   vertex 39.7226 -18.5388 8.82301
   vertex 23.4205 -10.0474 6.37756
   vertex 38.5661 -19.0902 9.19346
  endloop
 endfacet
 facet normal -0.114581 0.0692075 0.991
  outer loop
   vertex -32.6643 -13.3153 -2.92603
   vertex -36.4966 -18.8102 -2.9854
   vertex -35.8458 -19.5995 -2.85502
  endloop
 endfacet
 facet normal -0.861369 -0.139225 0.488529
  outer loop
   vertex -35.8352 -20.1795 -6.46778
   vertex -36.9378 -15.2995 -7.02115
   vertex -36.2406 -19.0978 -6.87423
  endloop
 endfacet
 facet normal -0.658095 -0.44187 0.609641
  outer loop
   vertex -35.8458 -19.5995 -2.85502
   vertex -36.4966 -18.8102 -2.9854
   vertex -36.0074 -20.0476 -3.3542
  endloop
 endfacet
 facet normal -0.445593 0.754939 -0.481158
  outer loop
   vertex -35.8352 -20.1795 -6.46778
   vertex -21.9536 -12.252 -6.88494
   vertex -35.38 -20.2288 -6.96661
  endloop
 endfacet
 facet normal -0.490264 0.189349 0.850757
  outer loop
   vertex -32.6643 -13.3153 -2.92603
   vertex -36.0074 -20.0476 -3.3542
   vertex -35.7731 -20.6218 -3.09136
  endloop
 endfacet
 facet normal -0.0462108 -0.00929754 0.998888
  outer loop
   vertex -17.2317 -37.5705 -2.43785
   vertex -32.6643 -13.3153 -2.92603
   vertex -35.3825 -21.5907 -3.12881
  endloop
 endfacet
 facet normal -0.180117 0.00462782 0.983634
  outer loop
   vertex 38.5661 -19.0902 9.19346
   vertex 23.4205 -10.0474 6.37756
   vertex 38.1655 -20.6972 9.12768
  endloop
 endfacet
 facet normal -0.248765 -0.0955289 0.963841
  outer loop
   vertex 38.1655 -20.6972 9.12768
   vertex 23.4205 -10.0474 6.37756
   vertex 37.0275 -24.1198 8.49473
  endloop
 endfacet
 facet normal 0.019327 -0.0308361 0.999338
  outer loop
   vertex -32.6643 -13.3153 -2.92603
   vertex -35.7731 -20.6218 -3.09136
   vertex -35.3825 -21.5907 -3.12881
  endloop
 endfacet
 facet normal -0.0701339 0.0817587 0.994181
  outer loop
   vertex 23.4205 -10.0474 6.37756
   vertex 25.6239 -30.0403 8.17715
   vertex 37.0275 -24.1198 8.49473
  endloop
 endfacet
 facet normal -0.538898 0.0164184 0.842211
  outer loop
   vertex 23.4205 -10.0474 6.37756
   vertex 12.8293 -1.306 -0.569754
   vertex 25.6239 -30.0403 8.17715
  endloop
 endfacet
 facet normal -0.646261 0.245609 0.722512
  outer loop
   vertex 5.14146 -36.7379 4.59837
   vertex 12.8293 -1.306 -0.569754
   vertex 11.3042 -4.01877 -1.0117
  endloop
 endfacet
 facet normal 0.0926146 0.147774 0.984675
  outer loop
   vertex -17.2317 -37.5705 -2.43785
   vertex -35.3825 -21.5907 -3.12881
   vertex -33.1834 -26.1197 -2.65596
  endloop
 endfacet
 facet normal -0.228634 0.188906 0.955008
  outer loop
   vertex 5.14146 -36.7379 4.59837
   vertex 25.6239 -30.0403 8.17715
   vertex 12.8293 -1.306 -0.569754
  endloop
 endfacet
 facet normal -0.414396 0.710134 0.569198
  outer loop
   vertex 34.1574 -26.8617 9.0385
   vertex 35.7411 -25.7752 8.83597
   vertex 36.3953 -25.1305 8.50786
  endloop
 endfacet
 facet normal -0.0699971 -0.0889488 0.993574
  outer loop
   vertex 43.7004 -0.307159 8.67826
   vertex 43.6876 2.4877 8.92756
   vertex 23.4205 -10.0474 6.37756
  endloop
 endfacet
 facet normal -0.923211 0.324876 -0.205273
  outer loop
   vertex -42.5581 2.94131 -7.35087
   vertex -42.9477 2.20071 -6.77072
   vertex -42.8698 4.36606 -3.69432
  endloop
 endfacet
 facet normal -0.978667 0.178861 -0.101094
  outer loop
   vertex -42.9477 2.20071 -6.77072
   vertex -43.0548 3.14121 -4.06993
   vertex -42.8698 4.36606 -3.69432
  endloop
 endfacet
 facet normal -0.37209 0.434779 0.820071
  outer loop
   vertex 23.4205 -10.0474 6.37756
   vertex 43.6876 2.4877 8.92756
   vertex 44.3298 4.12949 8.34851
  endloop
 endfacet
 facet normal -0.0430788 -0.020218 0.998867
  outer loop
   vertex -23.653 19.6945 -2.98173
   vertex 3.33812 0.918732 -2.1977
   vertex 11.6262 16.0631 -1.53372
  endloop
 endfacet
 facet normal -0.155001 0.06029 0.986073
  outer loop
   vertex 3.33812 0.918732 -2.1977
   vertex 12.8293 -1.306 -0.569754
   vertex 12.4865 10.2769 -1.33185
  endloop
 endfacet
 facet normal -0.154184 0.14788 0.976913
  outer loop
   vertex -42.8698 4.36606 -3.69432
   vertex -23.653 19.6945 -2.98173
   vertex -43.3937 5.51547 -3.95101
  endloop
 endfacet
 facet normal -0.112394 0.0179512 0.993502
  outer loop
   vertex 3.33812 0.918732 -2.1977
   vertex 12.4865 10.2769 -1.33185
   vertex 11.6262 16.0631 -1.53372
  endloop
 endfacet
 facet normal -0.050249 -0.0644494 0.996655
  outer loop
   vertex 44.3298 4.12949 8.34851
   vertex 44.7119 6.94394 8.54978
   vertex 23.4205 -10.0474 6.37756
  endloop
 endfacet
 facet normal -0.908936 0.365445 0.200714
  outer loop
   vertex -43.3937 5.51547 -3.95101
   vertex -42.9167 6.55954 -3.69191
   vertex -43.0806 8.14493 -7.32062
  endloop
 endfacet
 facet normal -0.906577 0.369436 0.204047
  outer loop
   vertex -43.4993 6.89462 -6.9171
   vertex -43.3937 5.51547 -3.95101
   vertex -43.0806 8.14493 -7.32062
  endloop
 endfacet
 facet normal -0.528537 0.0337622 0.848238
  outer loop
   vertex 12.8293 -1.306 -0.569754
   vertex 23.4205 -10.0474 6.37756
   vertex 28.6089 36.2171 7.76896
  endloop
 endfacet
 facet normal -0.0720645 0.0518346 0.996052
  outer loop
   vertex -42.9167 6.55954 -3.69191
   vertex -23.653 19.6945 -2.98173
   vertex -43.7653 8.29538 -3.84364
  endloop
 endfacet
 facet normal 0.050833 -0.189066 0.980648
  outer loop
   vertex 23.4205 -10.0474 6.37756
   vertex 44.7119 6.94394 8.54978
   vertex 43.8543 9.04239 8.99881
  endloop
 endfacet
 facet normal -0.099536 0.100768 0.989918
  outer loop
   vertex -43.7653 8.29538 -3.84364
   vertex -23.653 19.6945 -2.98173
   vertex -43.7354 9.53214 -3.96652
  endloop
 endfacet
 facet normal -0.538556 0.0394357 0.841666
  outer loop
   vertex 12.8293 -1.306 -0.569754
   vertex 28.6089 36.2171 7.76896
   vertex 12.4865 10.2769 -1.33185
  endloop
 endfacet
 facet normal -0.99401 -0.0743989 0.0800558
  outer loop
   vertex -43.7695 10.1363 -7.01807
   vertex -43.6781 8.91379 -7.01835
   vertex -43.6159 11.5476 -3.79824
  endloop
 endfacet
 facet normal -0.536749 -0.0513361 0.842179
  outer loop
   vertex -43.7354 9.53214 -3.96652
   vertex -43.2923 9.79105 -3.6684
   vertex -43.7874 10.5063 -3.94029
  endloop
 endfacet
 facet normal -0.160351 0.251813 0.954399
  outer loop
   vertex -43.2923 9.79105 -3.6684
   vertex -23.653 19.6945 -2.98173
   vertex -43.7874 10.5063 -3.94029
  endloop
 endfacet
 facet normal 0.0156811 -0.137682 0.990352
  outer loop
   vertex -43.7874 10.5063 -3.94029
   vertex -23.653 19.6945 -2.98173
   vertex -43.6159 11.5476 -3.79824
  endloop
 endfacet
 facet normal -0.297297 0.189739 0.935742
  outer loop
   vertex 23.4205 -10.0474 6.37756
   vertex 43.8543 9.04239 8.99881
   vertex 44.4804 11.5954 8.68008
  endloop
 endfacet
 facet normal -0.982674 0.159311 0.0947232
  outer loop
   vertex -43.8725 11.8354 -6.94418
   vertex -43.6159 11.5476 -3.79824
   vertex -43.4645 14.6028 -7.36618
  endloop
 endfacet
 facet normal 0.0285131 -0.133142 0.990687
  outer loop
   vertex 23.4205 -10.0474 6.37756
   vertex 44.4804 11.5954 8.68008
   vertex 43.7295 13.667 8.9801
  endloop
 endfacet
 facet normal -0.447513 -0.0353623 0.893578
  outer loop
   vertex 12.4865 10.2769 -1.33185
   vertex 28.6089 36.2171 7.76896
   vertex 11.6262 16.0631 -1.53372
  endloop
 endfacet
 facet normal -0.760045 0.636523 0.131033
  outer loop
   vertex 43.7295 13.667 8.9801
   vertex 44.3703 14.5076 8.61313
   vertex 23.4205 -10.0474 6.37756
  endloop
 endfacet
 facet normal -0.0311019 -0.0239354 0.99923
  outer loop
   vertex -43.6159 11.5476 -3.79824
   vertex -23.653 19.6945 -2.98173
   vertex -43.5397 19.5584 -3.60398
  endloop
 endfacet
 facet normal -0.0455951 -0.045032 0.997944
  outer loop
   vertex 11.096 29.6378 -0.945383
   vertex -23.653 19.6945 -2.98173
   vertex 11.6262 16.0631 -1.53372
  endloop
 endfacet
 facet normal -0.476548 -0.0167833 0.878988
  outer loop
   vertex -43.6159 11.5476 -3.79824
   vertex -43.5397 19.5584 -3.60398
   vertex -44.1536 15.874 -4.00717
  endloop
 endfacet
 facet normal -0.0183293 -0.0751328 0.997005
  outer loop
   vertex 23.4205 -10.0474 6.37756
   vertex 44.3703 14.5076 8.61313
   vertex 43.4365 18.3586 8.88617
  endloop
 endfacet
 facet normal -0.999884 -0.0140334 -0.00590106
  outer loop
   vertex -44.1362 15.7903 -6.75675
   vertex -44.1536 15.874 -4.00717
   vertex -44.1701 17.1411 -4.21666
  endloop
 endfacet
 facet normal -0.834275 0.079307 0.545615
  outer loop
   vertex -44.1536 15.874 -4.00717
   vertex -43.5397 19.5584 -3.60398
   vertex -44.1701 17.1411 -4.21666
  endloop
 endfacet
 facet normal -0.859542 0.364384 -0.358346
  outer loop
   vertex -43.6705 16.2813 -7.37452
   vertex -44.1362 15.7903 -6.75675
   vertex -44.1498 17.76 -4.72109
  endloop
 endfacet
 facet normal -0.999652 0.0152798 -0.0214875
  outer loop
   vertex -44.1362 15.7903 -6.75675
   vertex -44.1701 17.1411 -4.21666
   vertex -44.1498 17.76 -4.72109
  endloop
 endfacet
 facet normal -0.411988 0.0104441 0.911129
  outer loop
   vertex -44.2698 17.4404 -3.90986
   vertex -43.5397 19.5584 -3.60398
   vertex -44.3152 18.4566 -3.94203
  endloop
 endfacet
 facet normal -0.11706 -0.215082 0.969555
  outer loop
   vertex -44.3152 18.4566 -3.94203
   vertex -43.5397 19.5584 -3.60398
   vertex -43.9106 19.2708 -3.71256
  endloop
 endfacet
 facet normal -0.520098 0.295719 0.801279
  outer loop
   vertex 23.4205 -10.0474 6.37756
   vertex 43.4365 18.3586 8.88617
   vertex 43.5495 20.7127 8.09067
  endloop
 endfacet
 facet normal -0.798144 -0.241936 0.551754
  outer loop
   vertex -44.1498 17.76 -4.72109
   vertex -43.9106 19.2708 -3.71256
   vertex -44.1955 20.0642 -3.77678
  endloop
 endfacet
 facet normal -0.396455 0.753961 0.523799
  outer loop
   vertex -44.4461 19.1389 -6.9302
   vertex -44.1498 17.76 -4.72109
   vertex -44.1034 19.6067 -7.3441
  endloop
 endfacet
 facet normal -0.267857 -0.0182186 0.963286
  outer loop
   vertex -43.9106 19.2708 -3.71256
   vertex -43.5397 19.5584 -3.60398
   vertex -44.1955 20.0642 -3.77678
  endloop
 endfacet
 facet normal -0.0294551 0.364689 0.930663
  outer loop
   vertex -44.1955 20.0642 -3.77678
   vertex -23.653 19.6945 -2.98173
   vertex -44.7119 21.2233 -4.24731
  endloop
 endfacet
 facet normal -0.868105 -0.202866 0.453032
  outer loop
   vertex -44.1498 17.76 -4.72109
   vertex -44.1955 20.0642 -3.77678
   vertex -44.7119 21.2233 -4.24731
  endloop
 endfacet
 facet normal -0.0471777 -0.0247414 0.99858
  outer loop
   vertex 28.6089 36.2171 7.76896
   vertex 23.4205 -10.0474 6.37756
   vertex 43.5495 20.7127 8.09067
  endloop
 endfacet
 facet normal -0.0827098 -0.374926 0.923358
  outer loop
   vertex -44.7119 21.2233 -4.24731
   vertex -23.653 19.6945 -2.98173
   vertex -44.3761 22.5628 -3.67331
  endloop
 endfacet
 facet normal -0.987021 0.14373 -0.0716332
  outer loop
   vertex -44.1824 23.4903 -6.99486
   vertex -44.5472 21.0291 -6.90683
   vertex -44.7119 21.2233 -4.24731
  endloop
 endfacet
 facet normal -0.446745 -0.414041 0.793088
  outer loop
   vertex 28.6089 36.2171 7.76896
   vertex 43.5495 20.7127 8.09067
   vertex 42.0703 23.7772 8.85735
  endloop
 endfacet
 facet normal -0.427913 -0.0558087 0.902095
  outer loop
   vertex 11.6262 16.0631 -1.53372
   vertex 28.6089 36.2171 7.76896
   vertex 11.096 29.6378 -0.945383
  endloop
 endfacet
 facet normal -0.966474 0.255582 0.0246166
  outer loop
   vertex -44.1824 23.4903 -6.99486
   vertex -44.7119 21.2233 -4.24731
   vertex -44.0917 23.7147 -5.76178
  endloop
 endfacet
 facet normal -0.970144 0.242524 0.00163267
  outer loop
   vertex -44.7119 21.2233 -4.24731
   vertex -44.3761 22.5628 -3.67331
   vertex -44.0917 23.7147 -5.76178
  endloop
 endfacet
 facet normal -0.899895 0.421963 0.110166
  outer loop
   vertex -44.0917 23.7147 -5.76178
   vertex -44.3761 22.5628 -3.67331
   vertex -43.7146 24.0086 -3.80739
  endloop
 endfacet
 facet normal -0.0192115 0.101033 0.994698
  outer loop
   vertex -44.3761 22.5628 -3.67331
   vertex -23.653 19.6945 -2.98173
   vertex -43.7146 24.0086 -3.80739
  endloop
 endfacet
 facet normal -0.14158 -0.494214 0.857734
  outer loop
   vertex -43.7146 24.0086 -3.80739
   vertex -23.653 19.6945 -2.98173
   vertex -42.8997 24.1129 -3.61282
  endloop
 endfacet
 facet normal -0.143537 -0.0689483 0.98724
  outer loop
   vertex 28.6089 36.2171 7.76896
   vertex 42.0703 23.7772 8.85735
   vertex 40.6801 27.5821 8.92096
  endloop
 endfacet
 facet normal 0.0278686 0.259287 0.965398
  outer loop
   vertex -23.653 19.6945 -2.98173
   vertex -41.718 25.5857 -4.04249
   vertex -42.8997 24.1129 -3.61282
  endloop
 endfacet
 facet normal -0.0952045 0.986924 -0.130066
  outer loop
   vertex -44.0917 23.7147 -5.76178
   vertex -43.7146 24.0086 -3.80739
   vertex -42.8997 24.1129 -3.61282
  endloop
 endfacet
 facet normal -0.520797 0.845821 -0.115577
  outer loop
   vertex -44.1824 23.4903 -6.99486
   vertex -44.0917 23.7147 -5.76178
   vertex -42.9114 24.2223 -7.3651
  endloop
 endfacet
 facet normal -0.709759 0.649236 0.273376
  outer loop
   vertex -44.0917 23.7147 -5.76178
   vertex -42.8997 24.1129 -3.61282
   vertex -41.718 25.5857 -4.04249
  endloop
 endfacet
 facet normal -0.54739 0.824774 -0.141816
  outer loop
   vertex -42.9114 24.2223 -7.3651
   vertex -44.0917 23.7147 -5.76178
   vertex -41.718 25.5857 -4.04249
  endloop
 endfacet
 facet normal -0.748811 0.662776 -0.00299886
  outer loop
   vertex -42.9114 24.2223 -7.3651
   vertex -41.718 25.5857 -4.04249
   vertex -41.5724 25.7374 -6.86871
  endloop
 endfacet
 facet normal -0.848199 0.490431 -0.200089
  outer loop
   vertex -41.718 25.5857 -4.04249
   vertex -40.6948 26.0378 -7.27184
   vertex -40.9686 25.5656 -7.26875
  endloop
 endfacet
 facet normal -0.559291 0.826689 -0.061467
  outer loop
   vertex -40.6948 26.0378 -7.27184
   vertex -41.718 25.5857 -4.04249
   vertex -38.0338 28.1116 -3.59347
  endloop
 endfacet
 facet normal -0.0786785 -0.0621106 0.994963
  outer loop
   vertex -23.653 19.6945 -2.98173
   vertex -38.0338 28.1116 -3.59347
   vertex -41.718 25.5857 -4.04249
  endloop
 endfacet
 facet normal -0.0620225 -0.0334683 0.997513
  outer loop
   vertex -33.3832 30.8622 -3.21202
   vertex -38.0338 28.1116 -3.59347
   vertex -23.653 19.6945 -2.98173
  endloop
 endfacet
 facet normal -0.261496 -0.421655 0.868232
  outer loop
   vertex -12.3924 -78.7924 8.08923
   vertex -12.749 -78.3318 8.20556
   vertex -12.8804 -79.0881 7.79868
  endloop
 endfacet
 facet normal -0.995129 -0.0635556 0.0753564
  outer loop
   vertex -43.7695 10.1363 -7.01807
   vertex -43.6159 11.5476 -3.79824
   vertex -43.8725 11.8354 -6.94418
  endloop
 endfacet
 facet normal -0.0319242 0.285783 0.957763
  outer loop
   vertex -43.5397 19.5584 -3.60398
   vertex -23.653 19.6945 -2.98173
   vertex -44.1955 20.0642 -3.77678
  endloop
 endfacet
endsolid
