solid ascii
 facet normal 0.0698249 -0.0154966 -0.997439
  outer loop
   vertex -145.487 8.73879 -4.29329
   vertex -140.254 25.2531 -4.18358
   vertex -143.614 9.58619 -4.17539
  endloop
 endfacet
 facet normal -0.555307 -0.303922 -0.774122
  outer loop
   vertex -186.863 10.966 -3.31013
   vertex -210.637 21.83 9.47813
   vertex -186.12 13.6254 -4.88765
  endloop
 endfacet
 facet normal 0.124578 -0.826627 0.548788
  outer loop
   vertex -143.117 9.50891 -0.979556
   vertex -144.089 9.81401 -0.299226
   vertex -180.92 5.8847 2.143
  endloop
 endfacet
 facet normal 0.35672 -0.702472 -0.61586
  outer loop
   vertex -145.487 8.73879 -4.29329
   vertex -143.614 9.58619 -4.17539
   vertex -144.396 8.75422 -3.67899
  endloop
 endfacet
 facet normal 0.386095 0.073425 -0.919532
  outer loop
   vertex -182.959 7.22819 -5.46027
   vertex -178 10.406 -3.12436
   vertex -178.348 8.54202 -3.41927
  endloop
 endfacet
 facet normal 0.261393 -0.016891 -0.965085
  outer loop
   vertex -184.927 10.5018 -5.117
   vertex -184.419 13.5902 -5.03351
   vertex -184.686 8.76479 -5.02135
  endloop
 endfacet
 facet normal -0.237308 0.0106809 -0.971376
  outer loop
   vertex -184.419 13.5902 -5.03351
   vertex -182.959 7.22819 -5.46027
   vertex -184.686 8.76479 -5.02135
  endloop
 endfacet
 facet normal 0.442467 -0.452213 -0.77442
  outer loop
   vertex -146.093 7.5393 -3.93941
   vertex -145.487 8.73879 -4.29329
   vertex -144.396 8.75422 -3.67899
  endloop
 endfacet
 facet normal 0.0430235 -0.0279478 -0.998683
  outer loop
   vertex -140.254 25.2531 -4.18358
   vertex -146.093 7.5393 -3.93941
   vertex -150.822 6.42699 -4.11201
  endloop
 endfacet
 facet normal -0.0240581 0.00970406 -0.999663
  outer loop
   vertex -175.319 3.27938 -3.55301
   vertex -140.254 25.2531 -4.18358
   vertex -150.822 6.42699 -4.11201
  endloop
 endfacet
 facet normal -0.214371 0.191552 -0.957785
  outer loop
   vertex -178 10.406 -3.12436
   vertex -174.836 15.2017 -2.8734
   vertex -178.348 8.54202 -3.41927
  endloop
 endfacet
 facet normal -0.519177 -0.144543 -0.842355
  outer loop
   vertex -210.637 21.83 9.47813
   vertex -186.863 10.966 -3.31013
   vertex -184.782 5.31375 -3.62276
  endloop
 endfacet
 facet normal 0.546738 -0.651039 -0.526522
  outer loop
   vertex -146.093 7.5393 -3.93941
   vertex -144.396 8.75422 -3.67899
   vertex -147.867 5.95464 -3.82173
  endloop
 endfacet
 facet normal -0.00404609 -0.156792 -0.987623
  outer loop
   vertex -150.822 6.42699 -4.11201
   vertex -147.745 6.89529 -4.19896
   vertex -149.056 5.0684 -3.90356
  endloop
 endfacet
 facet normal 0.288977 -0.388415 -0.875001
  outer loop
   vertex -146.093 7.5393 -3.93941
   vertex -147.867 5.95464 -3.82173
   vertex -147.745 6.89529 -4.19896
  endloop
 endfacet
 facet normal -0.269823 0.00291209 -0.962906
  outer loop
   vertex -222.645 10.1129 12.8077
   vertex -210.637 21.83 9.47813
   vertex -221.376 5.03788 12.4367
  endloop
 endfacet
 facet normal 0.347698 -0.387525 -0.853775
  outer loop
   vertex -149.056 5.0684 -3.90356
   vertex -147.745 6.89529 -4.19896
   vertex -147.867 5.95464 -3.82173
  endloop
 endfacet
 facet normal 0.0511384 0.0547698 -0.997189
  outer loop
   vertex -178.348 8.54202 -3.41927
   vertex -174.836 15.2017 -2.8734
   vertex -175.319 3.27938 -3.55301
  endloop
 endfacet
 facet normal 0.599353 -0.797189 -0.0725645
  outer loop
   vertex -147.867 5.95464 -3.82173
   vertex -148.74 4.95227 -0.0207809
   vertex -149.056 5.0684 -3.90356
  endloop
 endfacet
 facet normal -0.0186496 -0.0323253 -0.999303
  outer loop
   vertex -175.319 3.27938 -3.55301
   vertex -150.822 6.42699 -4.11201
   vertex -152.724 1.77779 -3.92612
  endloop
 endfacet
 facet normal -0.283519 -0.0451176 -0.957905
  outer loop
   vertex -182.959 7.22819 -5.46027
   vertex -182.447 4.743 -5.49463
   vertex -184.686 8.76479 -5.02135
  endloop
 endfacet
 facet normal 0.142316 0.0332882 -0.989261
  outer loop
   vertex -150.342 4.31606 -4.11392
   vertex -150.822 6.42699 -4.11201
   vertex -149.056 5.0684 -3.90356
  endloop
 endfacet
 facet normal 0.00717267 0.00253684 -0.999971
  outer loop
   vertex -150.822 6.42699 -4.11201
   vertex -150.342 4.31606 -4.11392
   vertex -152.361 2.15669 -4.13388
  endloop
 endfacet
 facet normal 0.381227 0.0911927 -0.919973
  outer loop
   vertex -182.959 7.22819 -5.46027
   vertex -178.348 8.54202 -3.41927
   vertex -182.447 4.743 -5.49463
  endloop
 endfacet
 facet normal 0.294618 0.193328 -0.935855
  outer loop
   vertex -178.348 8.54202 -3.41927
   vertex -175.319 3.27938 -3.55301
   vertex -182.447 4.743 -5.49463
  endloop
 endfacet
 facet normal -0.532026 -0.199352 -0.822926
  outer loop
   vertex -180.409 -0.874199 -5.45196
   vertex -184.686 8.76479 -5.02135
   vertex -182.447 4.743 -5.49463
  endloop
 endfacet
 facet normal 0.511915 -0.856402 -0.0672272
  outer loop
   vertex -149.056 5.0684 -3.90356
   vertex -148.74 4.95227 -0.0207809
   vertex -150.342 4.31606 -4.11392
  endloop
 endfacet
 facet normal -0.136113 -0.0569151 -0.989057
  outer loop
   vertex -182.447 4.743 -5.49463
   vertex -181.448 4.24026 -5.60328
   vertex -180.409 -0.874199 -5.45196
  endloop
 endfacet
 facet normal 0.340932 0.228744 -0.911834
  outer loop
   vertex -181.448 4.24026 -5.60328
   vertex -175.319 3.27938 -3.55301
   vertex -180.678 2.68257 -5.70627
  endloop
 endfacet
 facet normal -0.311141 -0.0911985 -0.945978
  outer loop
   vertex -181.448 4.24026 -5.60328
   vertex -180.678 2.68257 -5.70627
   vertex -180.409 -0.874199 -5.45196
  endloop
 endfacet
 facet normal 0.386008 -0.910261 0.149743
  outer loop
   vertex -151.404 2.19819 -0.289186
   vertex -152.565 1.79172 0.232471
   vertex -154.497 0.328471 -3.67983
  endloop
 endfacet
 facet normal -0.517505 -0.133167 -0.845255
  outer loop
   vertex -198.48 -8.95446 6.88553
   vertex -210.637 21.83 9.47813
   vertex -180.409 -0.874199 -5.45196
  endloop
 endfacet
 facet normal -0.49903 -0.0982138 -0.861001
  outer loop
   vertex -210.637 21.83 9.47813
   vertex -184.782 5.31375 -3.62276
   vertex -180.409 -0.874199 -5.45196
  endloop
 endfacet
 facet normal -0.025464 -0.137121 -0.990227
  outer loop
   vertex -175.319 3.27938 -3.55301
   vertex -152.724 1.77779 -3.92612
   vertex -154.497 0.328471 -3.67983
  endloop
 endfacet
 facet normal -0.302059 0.0252824 -0.952954
  outer loop
   vertex -221.376 5.03788 12.4367
   vertex -210.637 21.83 9.47813
   vertex -219.803 2.30324 11.8657
  endloop
 endfacet
 facet normal 0.355096 0.144181 -0.923644
  outer loop
   vertex -180.678 2.68257 -5.70627
   vertex -175.319 3.27938 -3.55301
   vertex -179.106 -1.88818 -5.81538
  endloop
 endfacet
 facet normal -0.0802041 -0.346247 -0.934709
  outer loop
   vertex -152.55 1.28214 -0.224508
   vertex -153.939 0.429446 0.210617
   vertex -155.027 0.146966 0.408611
  endloop
 endfacet
 facet normal 0.419427 -0.90768 0.0140648
  outer loop
   vertex -154.497 0.328471 -3.67983
   vertex -152.55 1.28214 -0.224508
   vertex -155.027 0.146966 0.408611
  endloop
 endfacet
 facet normal 0.0308793 0.259371 -0.965284
  outer loop
   vertex -175.319 3.27938 -3.55301
   vertex -154.497 0.328471 -3.67983
   vertex -156.548 -0.733179 -4.03068
  endloop
 endfacet
 facet normal -0.333596 -0.0923416 -0.938183
  outer loop
   vertex -180.678 2.68257 -5.70627
   vertex -179.106 -1.88818 -5.81538
   vertex -180.409 -0.874199 -5.45196
  endloop
 endfacet
 facet normal 0.611481 -0.783577 -0.10999
  outer loop
   vertex -154.497 0.328471 -3.67983
   vertex -155.518 -0.954941 -0.209716
   vertex -160.248 -4.17889 -3.54066
  endloop
 endfacet
 facet normal -0.0205513 0.0228443 -0.999528
  outer loop
   vertex -175.319 3.27938 -3.55301
   vertex -156.548 -0.733179 -4.03068
   vertex -159.65 -3.276 -4.02501
  endloop
 endfacet
 facet normal 0.406113 -0.540896 -0.736549
  outer loop
   vertex -156.548 -0.733179 -4.03068
   vertex -154.497 0.328471 -3.67983
   vertex -160.248 -4.17889 -3.54066
  endloop
 endfacet
 facet normal 0.528278 -0.645752 -0.551295
  outer loop
   vertex -159.65 -3.276 -4.02501
   vertex -156.548 -0.733179 -4.03068
   vertex -160.248 -4.17889 -3.54066
  endloop
 endfacet
 facet normal 0.583343 -0.811064 -0.0434272
  outer loop
   vertex -160.248 -4.17889 -3.54066
   vertex -155.518 -0.954941 -0.209716
   vertex -157.482 -2.38874 0.19028
  endloop
 endfacet
 facet normal -0.204225 -0.0237857 -0.978635
  outer loop
   vertex -219.803 2.30324 11.8657
   vertex -210.637 21.83 9.47813
   vertex -218.213 -1.72372 11.6317
  endloop
 endfacet
 facet normal 0.171001 -0.931767 0.320265
  outer loop
   vertex -158.241 -2.38968 0.592981
   vertex -160.248 -4.17889 -3.54066
   vertex -157.482 -2.38874 0.19028
  endloop
 endfacet
 facet normal 0.5423 -0.839531 0.0331471
  outer loop
   vertex -158.476 -2.87321 0.530221
   vertex -159.42 -3.47804 0.652527
   vertex -160.248 -4.17889 -3.54066
  endloop
 endfacet
 facet normal -0.181694 -0.368661 -0.911634
  outer loop
   vertex -175.319 3.27938 -3.55301
   vertex -159.65 -3.276 -4.02501
   vertex -160.248 -4.17889 -3.54066
  endloop
 endfacet
 facet normal -0.465742 -0.299986 -0.832522
  outer loop
   vertex -180.409 -0.874199 -5.45196
   vertex -179.106 -1.88818 -5.81538
   vertex -180.436 -11.8734 -1.47323
  endloop
 endfacet
 facet normal -0.14454 -0.0438895 -0.988525
  outer loop
   vertex -218.213 -1.72372 11.6317
   vertex -210.637 21.83 9.47813
   vertex -217.996 -3.08055 11.6602
  endloop
 endfacet
 facet normal -0.105067 -0.0975491 -0.989669
  outer loop
   vertex -166.911 -9.21169 -3.21449
   vertex -175.319 3.27938 -3.55301
   vertex -163.909 -6.87745 -3.76327
  endloop
 endfacet
 facet normal 0.0248799 0.048622 -0.998507
  outer loop
   vertex -175.319 3.27938 -3.55301
   vertex -160.248 -4.17889 -3.54066
   vertex -163.909 -6.87745 -3.76327
  endloop
 endfacet
 facet normal 0.380142 0.231631 -0.895455
  outer loop
   vertex -175.319 3.27938 -3.55301
   vertex -166.911 -9.21169 -3.21449
   vertex -174.923 -7.65447 -6.21299
  endloop
 endfacet
 facet normal 0.2382 0.237728 -0.941672
  outer loop
   vertex -179.106 -1.88818 -5.81538
   vertex -175.319 3.27938 -3.55301
   vertex -174.923 -7.65447 -6.21299
  endloop
 endfacet
 facet normal 0.190276 -0.981731 -0.000248377
  outer loop
   vertex -160.248 -4.17889 -3.54066
   vertex -159.604 -4.05501 0.355091
   vertex -160.085 -4.1482 0.661608
  endloop
 endfacet
 facet normal -0.483704 -0.294044 -0.824359
  outer loop
   vertex -179.106 -1.88818 -5.81538
   vertex -174.923 -7.65447 -6.21299
   vertex -180.436 -11.8734 -1.47323
  endloop
 endfacet
 facet normal 0.421098 -0.201869 -0.884265
  outer loop
   vertex -217.996 -3.08055 11.6602
   vertex -210.637 21.83 9.47813
   vertex -216.087 -7.81966 13.6514
  endloop
 endfacet
 facet normal 0.507219 -0.152061 -0.848296
  outer loop
   vertex -217.566 -4.85927 12.2365
   vertex -217.996 -3.08055 11.6602
   vertex -216.087 -7.81966 13.6514
  endloop
 endfacet
 facet normal -0.244161 -0.565762 -0.78759
  outer loop
   vertex -180.436 -11.8734 -1.47323
   vertex -174.923 -7.65447 -6.21299
   vertex -173.713 -8.08984 -6.27538
  endloop
 endfacet
 facet normal 0.513734 -0.857522 0.0270619
  outer loop
   vertex -166.911 -9.21169 -3.21449
   vertex -165.656 -8.33348 0.791059
   vertex -167.332 -9.32916 1.05293
  endloop
 endfacet
 facet normal -0.361578 -0.0644478 -0.930112
  outer loop
   vertex -216.087 -7.81966 13.6514
   vertex -210.637 21.83 9.47813
   vertex -198.48 -8.95446 6.88553
  endloop
 endfacet
 facet normal -0.348741 -0.0847252 -0.933382
  outer loop
   vertex -173.713 -8.08984 -6.27538
   vertex -172.582 -10.1844 -6.50788
   vertex -173.503 -11.0345 -6.0865
  endloop
 endfacet
 facet normal 0.258498 0.405038 -0.876997
  outer loop
   vertex -172.582 -10.1844 -6.50788
   vertex -169.048 -9.97904 -5.37149
   vertex -171.155 -11.1149 -6.517
  endloop
 endfacet
 facet normal 0.69502 -0.509336 -0.507468
  outer loop
   vertex -169.048 -9.97904 -5.37149
   vertex -166.911 -9.21169 -3.21449
   vertex -170.955 -11.6128 -6.34405
  endloop
 endfacet
 facet normal 0.513204 -0.0911349 -0.853415
  outer loop
   vertex -171.155 -11.1149 -6.517
   vertex -169.048 -9.97904 -5.37149
   vertex -170.955 -11.6128 -6.34405
  endloop
 endfacet
 facet normal 0.608065 -0.769432 -0.195529
  outer loop
   vertex -170.955 -11.6128 -6.34405
   vertex -166.911 -9.21169 -3.21449
   vertex -172.203 -12.9281 -5.04768
  endloop
 endfacet
 facet normal -0.407018 -0.366898 -0.836494
  outer loop
   vertex -198.48 -8.95446 6.88553
   vertex -180.409 -0.874199 -5.45196
   vertex -182.806 -17.1913 2.87151
  endloop
 endfacet
 facet normal 0.514588 -0.854572 -0.0700405
  outer loop
   vertex -168.524 -10.5079 0.748218
   vertex -170.982 -12.0289 1.24958
   vertex -166.911 -9.21169 -3.21449
  endloop
 endfacet
 facet normal -0.231369 -0.21911 -0.947871
  outer loop
   vertex -173.503 -11.0345 -6.0865
   vertex -172.582 -10.1844 -6.50788
   vertex -172.337 -12.4205 -6.05059
  endloop
 endfacet
 facet normal -0.239465 -0.263345 -0.934508
  outer loop
   vertex -214.001 -9.0485 10.8892
   vertex -198.48 -8.95446 6.88553
   vertex -214.009 -10.6103 11.3312
  endloop
 endfacet
 facet normal -0.145342 -0.21344 -0.966084
  outer loop
   vertex -172.582 -10.1844 -6.50788
   vertex -171.155 -11.1149 -6.517
   vertex -172.337 -12.4205 -6.05059
  endloop
 endfacet
 facet normal -0.00715973 -0.330641 -0.94373
  outer loop
   vertex -171.155 -11.1149 -6.517
   vertex -170.955 -11.6128 -6.34405
   vertex -172.337 -12.4205 -6.05059
  endloop
 endfacet
 facet normal -0.40221 -0.578464 -0.709652
  outer loop
   vertex -180.436 -11.8734 -1.47323
   vertex -173.503 -11.0345 -6.0865
   vertex -173.66 -14.1983 -3.41852
  endloop
 endfacet
 facet normal 0.373922 -0.806327 -0.458278
  outer loop
   vertex -172.337 -12.4205 -6.05059
   vertex -170.955 -11.6128 -6.34405
   vertex -172.203 -12.9281 -5.04768
  endloop
 endfacet
 facet normal 0.584597 -0.810436 -0.0379348
  outer loop
   vertex -166.911 -9.21169 -3.21449
   vertex -171.21 -12.521 1.22913
   vertex -174.722 -15.0873 1.93511
  endloop
 endfacet
 facet normal 0.591217 -0.802077 -0.0844642
  outer loop
   vertex -172.143 -12.8913 -4.89421
   vertex -166.911 -9.21169 -3.21449
   vertex -173.001 -13.6201 -3.97953
  endloop
 endfacet
 facet normal -0.234536 -0.641062 -0.730775
  outer loop
   vertex -173.503 -11.0345 -6.0865
   vertex -172.143 -12.8913 -4.89421
   vertex -173.001 -13.6201 -3.97953
  endloop
 endfacet
 facet normal 0.0783763 -0.620574 -0.780221
  outer loop
   vertex -173.503 -11.0345 -6.0865
   vertex -173.001 -13.6201 -3.97953
   vertex -173.603 -13.7593 -3.92927
  endloop
 endfacet
 facet normal -0.347129 -0.257074 -0.901895
  outer loop
   vertex -180.436 -11.8734 -1.47323
   vertex -173.66 -14.1983 -3.41852
   vertex -177.373 -16.5347 -1.32352
  endloop
 endfacet
 facet normal 0.516133 -0.67712 -0.524514
  outer loop
   vertex -173.603 -13.7593 -3.92927
   vertex -166.911 -9.21169 -3.21449
   vertex -173.66 -14.1983 -3.41852
  endloop
 endfacet
 facet normal -0.271694 -0.0343079 -0.961772
  outer loop
   vertex -214.009 -10.6103 11.3312
   vertex -198.48 -8.95446 6.88553
   vertex -210.706 -19.519 10.7161
  endloop
 endfacet
 facet normal -0.383125 -0.304013 -0.872234
  outer loop
   vertex -198.48 -8.95446 6.88553
   vertex -182.806 -17.1913 2.87151
   vertex -185.743 -21.8121 5.77215
  endloop
 endfacet
 facet normal 0.589376 -0.790997 -0.164195
  outer loop
   vertex -173.66 -14.1983 -3.41852
   vertex -166.911 -9.21169 -3.21449
   vertex -176.964 -17.2293 -0.677087
  endloop
 endfacet
 facet normal 0.0115059 -0.677618 -0.735324
  outer loop
   vertex -173.66 -14.1983 -3.41852
   vertex -176.964 -17.2293 -0.677087
   vertex -177.373 -16.5347 -1.32352
  endloop
 endfacet
 facet normal -0.388618 -0.37689 -0.840791
  outer loop
   vertex -180.436 -11.8734 -1.47323
   vertex -176.964 -17.2293 -0.677087
   vertex -178.957 -18.3798 0.759512
  endloop
 endfacet
 facet normal -0.576155 -0.347597 -0.739745
  outer loop
   vertex -182.806 -17.1913 2.87151
   vertex -180.436 -11.8734 -1.47323
   vertex -181.833 -19.6981 3.29187
  endloop
 endfacet
 facet normal -0.597964 -0.378429 -0.706562
  outer loop
   vertex -180.436 -11.8734 -1.47323
   vertex -178.957 -18.3798 0.759512
   vertex -179.605 -19.0855 1.68657
  endloop
 endfacet
 facet normal -0.460762 -0.400148 -0.7922
  outer loop
   vertex -181.833 -19.6981 3.29187
   vertex -180.436 -11.8734 -1.47323
   vertex -179.605 -19.0855 1.68657
  endloop
 endfacet
 facet normal 0.454254 -0.887222 -0.0805673
  outer loop
   vertex -178.957 -18.3798 0.759512
   vertex -176.964 -17.2293 -0.677087
   vertex -178.668 -18.5249 3.98632
  endloop
 endfacet
 facet normal 0.318677 -0.942592 0.099827
  outer loop
   vertex -178.668 -18.5249 3.98632
   vertex -180.939 -19.0408 6.36502
   vertex -179.605 -19.0855 1.68657
  endloop
 endfacet
 facet normal 0.396555 -0.892029 0.21686
  outer loop
   vertex -180.939 -19.0408 6.36502
   vertex -182.223 -19.4262 7.12829
   vertex -181.862 -20.1667 3.42201
  endloop
 endfacet
 facet normal -0.0350481 -0.916529 -0.39843
  outer loop
   vertex -181.833 -19.6981 3.29187
   vertex -179.605 -19.0855 1.68657
   vertex -181.095 -19.9701 3.85249
  endloop
 endfacet
 facet normal -0.0395291 0.0472694 -0.9981
  outer loop
   vertex -198.48 -8.95446 6.88553
   vertex -185.743 -21.8121 5.77215
   vertex -188.945 -21.9839 5.89083
  endloop
 endfacet
 facet normal 0.522339 -0.257638 -0.812887
  outer loop
   vertex -181.833 -19.6981 3.29187
   vertex -181.095 -19.9701 3.85249
   vertex -181.862 -20.1667 3.42201
  endloop
 endfacet
 facet normal 0.0473601 -0.937804 0.34392
  outer loop
   vertex -181.095 -19.9701 3.85249
   vertex -180.939 -19.0408 6.36502
   vertex -181.862 -20.1667 3.42201
  endloop
 endfacet
 facet normal -0.338045 -0.23269 -0.911911
  outer loop
   vertex -181.833 -19.6981 3.29187
   vertex -181.862 -20.1667 3.42201
   vertex -182.687 -20.4846 3.80893
  endloop
 endfacet
 facet normal 0.293189 -0.944127 -0.150547
  outer loop
   vertex -182.687 -20.4846 3.80893
   vertex -181.862 -20.1667 3.42201
   vertex -183.024 -20.6958 4.4761
  endloop
 endfacet
 facet normal 0.460762 -0.880393 0.112282
  outer loop
   vertex -182.223 -19.4262 7.12829
   vertex -184.519 -20.4695 8.37177
   vertex -185.113 -21.2453 4.72292
  endloop
 endfacet
 facet normal 0.153432 -0.826366 -0.541829
  outer loop
   vertex -181.833 -19.6981 3.29187
   vertex -183.024 -20.6958 4.4761
   vertex -185.113 -21.2453 4.72292
  endloop
 endfacet
 facet normal -0.278902 -0.263086 -0.92358
  outer loop
   vertex -182.806 -17.1913 2.87151
   vertex -181.833 -19.6981 3.29187
   vertex -185.113 -21.2453 4.72292
  endloop
 endfacet
 facet normal -0.256638 -0.0529234 -0.965058
  outer loop
   vertex -210.706 -19.519 10.7161
   vertex -198.48 -8.95446 6.88553
   vertex -208.181 -24.2225 10.3026
  endloop
 endfacet
 facet normal 0.276802 -0.896638 0.345573
  outer loop
   vertex -183.024 -20.6958 4.4761
   vertex -182.223 -19.4262 7.12829
   vertex -185.113 -21.2453 4.72292
  endloop
 endfacet
 facet normal -0.514967 -0.0959939 -0.851818
  outer loop
   vertex -182.806 -17.1913 2.87151
   vertex -185.113 -21.2453 4.72292
   vertex -185.427 -21.6788 4.96155
  endloop
 endfacet
 facet normal -0.219405 -0.0863749 -0.971803
  outer loop
   vertex -207.81 -25.3201 10.4466
   vertex -198.48 -8.95446 6.88553
   vertex -188.945 -21.9839 5.89083
  endloop
 endfacet
 facet normal -0.0595347 0.521701 -0.851049
  outer loop
   vertex -188.945 -21.9839 5.89083
   vertex -185.743 -21.8121 5.77215
   vertex -187.328 -22.3171 5.57343
  endloop
 endfacet
 facet normal 0.109041 -0.34602 -0.931869
  outer loop
   vertex -191.908 -25.0029 9.77136
   vertex -187.081 -22.0766 9.24962
   vertex -188.169 -22.8276 9.40116
  endloop
 endfacet
 facet normal -0.224873 -0.179225 -0.957763
  outer loop
   vertex -188.945 -21.9839 5.89083
   vertex -187.328 -22.3171 5.57343
   vertex -189.919 -23.4219 6.38864
  endloop
 endfacet
 facet normal 0.323527 -0.859849 -0.394956
  outer loop
   vertex -187.328 -22.3171 5.57343
   vertex -185.743 -21.8121 5.77215
   vertex -191.025 -24.5914 7.49606
  endloop
 endfacet
 facet normal 0.213542 -0.913148 0.347218
  outer loop
   vertex -191.025 -24.5914 7.49606
   vertex -188.977 -23.1329 10.0717
   vertex -189.623 -23.0965 10.5651
  endloop
 endfacet
 facet normal -0.176934 -0.285644 -0.941861
  outer loop
   vertex -207.81 -25.3201 10.4466
   vertex -188.945 -21.9839 5.89083
   vertex -190.519 -24.2655 6.87839
  endloop
 endfacet
 facet normal 0.100517 -0.732551 -0.67325
  outer loop
   vertex -189.919 -23.4219 6.38864
   vertex -187.328 -22.3171 5.57343
   vertex -191.025 -24.5914 7.49606
  endloop
 endfacet
 facet normal -0.209244 0.176884 -0.961732
  outer loop
   vertex -207.81 -25.3201 10.4466
   vertex -190.519 -24.2655 6.87839
   vertex -192.673 -24.9405 7.22285
  endloop
 endfacet
 facet normal 0.244047 -0.925893 -0.288381
  outer loop
   vertex -190.519 -24.2655 6.87839
   vertex -191.025 -24.5914 7.49606
   vertex -192.673 -24.9405 7.22285
  endloop
 endfacet
 facet normal -0.0935085 -0.160497 -0.982597
  outer loop
   vertex -208.181 -24.2225 10.3026
   vertex -198.48 -8.95446 6.88553
   vertex -207.81 -25.3201 10.4466
  endloop
 endfacet
 facet normal 0.229914 -0.960047 -0.15953
  outer loop
   vertex -191.025 -24.5914 7.49606
   vertex -193.054 -25.7169 11.3463
   vertex -192.673 -24.9405 7.22285
  endloop
 endfacet
 facet normal -0.19294 -0.283445 -0.939379
  outer loop
   vertex -194.364 -26.4976 8.04015
   vertex -207.81 -25.3201 10.4466
   vertex -192.673 -24.9405 7.22285
  endloop
 endfacet
 facet normal -0.17728 -0.013291 -0.984071
  outer loop
   vertex -207.81 -25.3201 10.4466
   vertex -194.364 -26.4976 8.04015
   vertex -198.032 -28.6076 8.72929
  endloop
 endfacet
 facet normal 0.204572 -0.965211 -0.162843
  outer loop
   vertex -192.673 -24.9405 7.22285
   vertex -193.054 -25.7169 11.3463
   vertex -193.986 -25.9692 11.6704
  endloop
 endfacet
 facet normal 0.507547 -0.858604 0.0720718
  outer loop
   vertex -194.364 -26.4976 8.04015
   vertex -193.986 -25.9692 11.6704
   vertex -198.032 -28.6076 8.72929
  endloop
 endfacet
 facet normal -0.0560989 -0.795531 -0.603311
  outer loop
   vertex -195.192 -27.2099 11.4578
   vertex -196.239 -27.5613 12.0185
   vertex -196.868 -27.655 12.2007
  endloop
 endfacet
 facet normal 0.582548 -0.809298 -0.0753277
  outer loop
   vertex -198.032 -28.6076 8.72929
   vertex -193.986 -25.9692 11.6704
   vertex -201.447 -31.4365 12.7109
  endloop
 endfacet
 facet normal -0.189292 -0.0508324 -0.980604
  outer loop
   vertex -207.81 -25.3201 10.4466
   vertex -198.032 -28.6076 8.72929
   vertex -205.267 -28.9476 10.1437
  endloop
 endfacet
 facet normal -0.180772 -0.177299 -0.967412
  outer loop
   vertex -205.267 -28.9476 10.1437
   vertex -198.032 -28.6076 8.72929
   vertex -201.351 -31.4187 9.86478
  endloop
 endfacet
 facet normal -0.0674852 0.00566483 -0.997704
  outer loop
   vertex -205.267 -28.9476 10.1437
   vertex -201.351 -31.4187 9.86478
   vertex -202.979 -32.1146 9.97093
  endloop
 endfacet
 facet normal 0.393492 -0.919297 0.00748318
  outer loop
   vertex -201.351 -31.4187 9.86478
   vertex -201.447 -31.4365 12.7109
   vertex -202.979 -32.1146 9.97093
  endloop
 endfacet
 facet normal 0.130892 -0.976956 0.168596
  outer loop
   vertex -202.979 -32.1146 9.97093
   vertex -201.447 -31.4365 12.7109
   vertex -202.312 -31.4889 13.0793
  endloop
 endfacet
 facet normal -0.303651 -0.9462 0.111813
  outer loop
   vertex -203.586 -32.0818 12.7452
   vertex -203.564 -32.1683 12.0739
   vertex -202.698 -32.3875 12.5689
  endloop
 endfacet
 facet normal -0.201065 -0.976236 -0.0808516
  outer loop
   vertex -202.979 -32.1146 9.97093
   vertex -202.698 -32.3875 12.5689
   vertex -203.564 -32.1683 12.0739
  endloop
 endfacet
 facet normal 0.0312747 -0.109984 -0.993441
  outer loop
   vertex -185.55 51.2814 -3.59359
   vertex -182.188 56.0177 -4.0121
   vertex -178.674 38.0077 -1.90759
  endloop
 endfacet
 facet normal -0.253363 0.0947873 -0.962716
  outer loop
   vertex -182.188 56.0177 -4.0121
   vertex -185.55 51.2814 -3.59359
   vertex -182.112 58.5239 -3.78546
  endloop
 endfacet
 facet normal 0.260896 0.249003 -0.932701
  outer loop
   vertex -138.464 53.4103 -2.6167
   vertex -130.089 38.5731 -4.23495
   vertex -139.346 53.2916 -2.89506
  endloop
 endfacet
 facet normal 0.0294169 0.144561 -0.989059
  outer loop
   vertex -130.089 38.5731 -4.23495
   vertex -152.528 57.3244 -2.16164
   vertex -141.101 54.9563 -2.1679
  endloop
 endfacet
 facet normal 0.183362 0.54937 -0.815212
  outer loop
   vertex -138.464 53.4103 -2.6167
   vertex -139.346 53.2916 -2.89506
   vertex -141.101 54.9563 -2.1679
  endloop
 endfacet
 facet normal -0.428917 -0.40309 -0.808423
  outer loop
   vertex -190.99 53.0478 1.057
   vertex -221.172 57.3924 14.9039
   vertex -220.805 57.8462 14.4831
  endloop
 endfacet
 facet normal -0.398379 0.081048 -0.913633
  outer loop
   vertex -190.99 53.0478 1.057
   vertex -220.805 57.8462 14.4831
   vertex -220.418 58.8248 14.4009
  endloop
 endfacet
 facet normal -0.0111915 -0.0513639 -0.998617
  outer loop
   vertex -141.101 54.9563 -2.1679
   vertex -152.528 57.3244 -2.16164
   vertex -144.993 57.2072 -2.24005
  endloop
 endfacet
 facet normal -0.38095 0.162079 -0.910279
  outer loop
   vertex -215.51 71.6717 14.6347
   vertex -190.99 53.0478 1.057
   vertex -220.418 58.8248 14.4009
  endloop
 endfacet
 facet normal -0.00963459 0.0488433 -0.99876
  outer loop
   vertex -144.993 57.2072 -2.24005
   vertex -152.528 57.3244 -2.16164
   vertex -152.034 62.2405 -1.92598
  endloop
 endfacet
 facet normal 0.0925406 -0.0753712 -0.992852
  outer loop
   vertex -178.674 38.0077 -1.90759
   vertex -182.112 58.5239 -3.78546
   vertex -170.821 73.8815 -3.899
  endloop
 endfacet
 facet normal 0.380537 -0.888599 0.256095
  outer loop
   vertex -206.911 66.5431 15.6397
   vertex -188.199 73.2565 11.1302
   vertex -198.684 69.6283 14.1202
  endloop
 endfacet
 facet normal 0.317381 -0.121679 -0.940459
  outer loop
   vertex -165.089 70.2506 -1.49476
   vertex -178.674 38.0077 -1.90759
   vertex -170.821 73.8815 -3.899
  endloop
 endfacet
 facet normal 0.290283 -0.956441 -0.0309078
  outer loop
   vertex -219.412 62.6981 17.2121
   vertex -206.911 66.5431 15.6397
   vertex -218.843 62.8642 17.4157
  endloop
 endfacet
 facet normal 0.126758 0.098394 -0.987042
  outer loop
   vertex -152.509 63.0101 -1.59239
   vertex -152.528 57.3244 -2.16164
   vertex -155.361 64.7449 -1.78573
  endloop
 endfacet
 facet normal -0.0910144 0.0595604 -0.994067
  outer loop
   vertex -170.821 73.8815 -3.899
   vertex -182.112 58.5239 -3.78546
   vertex -177.858 65.9769 -3.7284
  endloop
 endfacet
 facet normal -0.288678 0.132888 -0.948159
  outer loop
   vertex -193.751 63.6501 6.88552
   vertex -215.51 71.6717 14.6347
   vertex -186.2 73.8729 6.01935
  endloop
 endfacet
 facet normal -0.0546632 0.0608819 -0.996647
  outer loop
   vertex -152.528 57.3244 -2.16164
   vertex -178.674 38.0077 -1.90759
   vertex -156.027 66.042 -1.43717
  endloop
 endfacet
 facet normal 0.0574343 -0.0296514 -0.997909
  outer loop
   vertex -157.829 67.24 -1.57648
   vertex -156.027 66.042 -1.43717
   vertex -178.674 38.0077 -1.90759
  endloop
 endfacet
 facet normal 0.208262 -0.12129 -0.970523
  outer loop
   vertex -157.887 67.577 -1.14235
   vertex -178.674 38.0077 -1.90759
   vertex -159.203 68.2977 -1.51478
  endloop
 endfacet
 facet normal -0.234989 0.188592 -0.953527
  outer loop
   vertex -170.821 73.8815 -3.899
   vertex -177.858 65.9769 -3.7284
   vertex -172.885 72.8444 -3.59558
  endloop
 endfacet
 facet normal -0.485547 -0.873718 -0.0293573
  outer loop
   vertex -162.304 70.3402 3.21618
   vertex -159.584 68.8583 2.3262
   vertex -161.014 69.6294 3.0283
  endloop
 endfacet
 facet normal -0.1885 0.13379 -0.972917
  outer loop
   vertex -159.203 68.2977 -1.51478
   vertex -178.674 38.0077 -1.90759
   vertex -160.754 69.8997 -0.994046
  endloop
 endfacet
 facet normal 0.111904 -0.0344319 -0.993122
  outer loop
   vertex -178.674 38.0077 -1.90759
   vertex -165.089 70.2506 -1.49476
   vertex -160.754 69.8997 -0.994046
  endloop
 endfacet
 facet normal 0.0621279 -0.480603 -0.874735
  outer loop
   vertex -160.754 69.8997 -0.994046
   vertex -165.089 70.2506 -1.49476
   vertex -161.955 70.4164 -1.36323
  endloop
 endfacet
 facet normal 0.0397499 0.0405498 -0.998387
  outer loop
   vertex -161.955 70.4164 -1.36323
   vertex -165.089 70.2506 -1.49476
   vertex -162.854 71.2773 -1.36408
  endloop
 endfacet
 facet normal -0.279325 0.212462 -0.936396
  outer loop
   vertex -199.779 81.4563 12.1622
   vertex -215.51 71.6717 14.6347
   vertex -215.051 72.9756 14.7936
  endloop
 endfacet
 facet normal -0.118926 0.375811 -0.919033
  outer loop
   vertex -162.854 71.2773 -1.36408
   vertex -165.089 70.2506 -1.49476
   vertex -163.103 71.8364 -1.10328
  endloop
 endfacet
 facet normal 0.259423 -0.0874901 -0.961793
  outer loop
   vertex -163.103 71.8364 -1.10328
   vertex -165.089 70.2506 -1.49476
   vertex -164.455 72.5293 -1.53085
  endloop
 endfacet
 facet normal -0.148044 -0.0400108 -0.988171
  outer loop
   vertex -199.779 81.4563 12.1622
   vertex -215.051 72.9756 14.7936
   vertex -214.298 74.0409 14.6376
  endloop
 endfacet
 facet normal 0.211662 -0.284898 -0.934897
  outer loop
   vertex -165.089 70.2506 -1.49476
   vertex -170.821 73.8815 -3.899
   vertex -169.693 74.6061 -3.86433
  endloop
 endfacet
 facet normal 0.133848 -0.052953 -0.989586
  outer loop
   vertex -164.455 72.5293 -1.53085
   vertex -165.089 70.2506 -1.49476
   vertex -166.153 74.1427 -1.84693
  endloop
 endfacet
 facet normal 0.252074 -0.243145 -0.936664
  outer loop
   vertex -168.198 75.0269 -3.57119
   vertex -165.089 70.2506 -1.49476
   vertex -169.693 74.6061 -3.86433
  endloop
 endfacet
 facet normal -0.296138 0.274415 -0.914876
  outer loop
   vertex -199.779 81.4563 12.1622
   vertex -214.298 74.0409 14.6376
   vertex -214.259 74.4456 14.7465
  endloop
 endfacet
 facet normal -0.290309 0.232155 -0.928345
  outer loop
   vertex -186.2 73.8729 6.01935
   vertex -215.51 71.6717 14.6347
   vertex -199.779 81.4563 12.1622
  endloop
 endfacet
 facet normal -0.191516 0.0339878 -0.980901
  outer loop
   vertex -199.779 81.4563 12.1622
   vertex -214.259 74.4456 14.7465
   vertex -213.662 75.2342 14.6572
  endloop
 endfacet
 facet normal 0.196426 -0.0149229 -0.980405
  outer loop
   vertex -168.198 75.0269 -3.57119
   vertex -169.693 74.6061 -3.86433
   vertex -168.667 76.2937 -3.68447
  endloop
 endfacet
 facet normal 0.078819 0.0581489 -0.995192
  outer loop
   vertex -168.667 76.2937 -3.68447
   vertex -169.693 74.6061 -3.86433
   vertex -169.533 75.9966 -3.7704
  endloop
 endfacet
 facet normal -0.128208 0.0815213 -0.988391
  outer loop
   vertex -169.693 74.6061 -3.86433
   vertex -172.885 72.8444 -3.59558
   vertex -169.533 75.9966 -3.7704
  endloop
 endfacet
 facet normal -0.223932 0.111401 -0.968217
  outer loop
   vertex -199.779 81.4563 12.1622
   vertex -213.662 75.2342 14.6572
   vertex -212.134 77.7435 14.5924
  endloop
 endfacet
 facet normal -0.316447 -0.16821 -0.933577
  outer loop
   vertex -172.364 79.4021 0.333349
   vertex -186.2 73.8729 6.01935
   vertex -173.411 79.6248 0.647919
  endloop
 endfacet
 facet normal -0.0800828 0.516969 -0.85225
  outer loop
   vertex -170.341 77.9013 -0.767122
   vertex -172.885 72.8444 -3.59558
   vertex -172.364 79.4021 0.333349
  endloop
 endfacet
 facet normal -0.264322 0.270667 -0.925675
  outer loop
   vertex -210.661 80.2623 14.9202
   vertex -199.779 81.4563 12.1622
   vertex -211.123 79.4417 14.8124
  endloop
 endfacet
 facet normal -0.264995 0.277292 -0.923519
  outer loop
   vertex -199.779 81.4563 12.1622
   vertex -212.134 77.7435 14.5924
   vertex -211.123 79.4417 14.8124
  endloop
 endfacet
 facet normal -0.253808 0.0881013 -0.963234
  outer loop
   vertex -199.779 81.4563 12.1622
   vertex -210.661 80.2623 14.9202
   vertex -207.731 82.9001 14.3894
  endloop
 endfacet
 facet normal 0.0261947 0.604091 -0.796485
  outer loop
   vertex -173.708 80.6019 2.02667
   vertex -175.269 80.4974 1.89613
   vertex -174.94 81.6761 2.80086
  endloop
 endfacet
 facet normal -0.247824 0.301923 -0.920557
  outer loop
   vertex -186.2 73.8729 6.01935
   vertex -199.779 81.4563 12.1622
   vertex -184.005 87.1244 9.77446
  endloop
 endfacet
 facet normal -0.235536 0.176978 -0.955616
  outer loop
   vertex -199.779 81.4563 12.1622
   vertex -207.731 82.9001 14.3894
   vertex -203.674 88.6172 14.4484
  endloop
 endfacet
 facet normal -0.250295 0.302124 -0.919823
  outer loop
   vertex -186.2 73.8729 6.01935
   vertex -184.005 87.1244 9.77446
   vertex -179.756 84.1631 7.64571
  endloop
 endfacet
 facet normal -0.200887 0.15137 -0.967849
  outer loop
   vertex -199.779 81.4563 12.1622
   vertex -188.031 90.3638 11.1168
   vertex -184.005 87.1244 9.77446
  endloop
 endfacet
 facet normal -0.228886 0.180878 -0.956501
  outer loop
   vertex -199.779 81.4563 12.1622
   vertex -203.674 88.6172 14.4484
   vertex -202.148 91.6229 14.6517
  endloop
 endfacet
 facet normal -0.165267 0.135847 -0.976848
  outer loop
   vertex -188.089 90.6759 11.4665
   vertex -199.779 81.4563 12.1622
   vertex -190.525 92.7269 12.1639
  endloop
 endfacet
 facet normal 0.271937 -0.851746 0.447861
  outer loop
   vertex -203.482 90.4176 16.7717
   vertex -202.635 91.0601 17.4788
   vertex -203.406 90.6919 17.2467
  endloop
 endfacet
 facet normal -0.209302 0.0826922 -0.974348
  outer loop
   vertex -188.089 90.6759 11.4665
   vertex -190.525 92.7269 12.1639
   vertex -188.807 91.3597 11.6789
  endloop
 endfacet
 facet normal -0.133822 0.20617 -0.969322
  outer loop
   vertex -199.779 81.4563 12.1622
   vertex -202.148 91.6229 14.6517
   vertex -200.753 94.5198 15.0752
  endloop
 endfacet
 facet normal 0.0189292 0.230587 -0.972868
  outer loop
   vertex -190.234 93.1399 15.7309
   vertex -189.788 92.0906 15.4909
   vertex -192.513 96.1719 16.4052
  endloop
 endfacet
 facet normal -0.191412 0.168705 -0.966902
  outer loop
   vertex -199.779 81.4563 12.1622
   vertex -192.775 95.9017 13.296
   vertex -190.607 93.2619 12.4062
  endloop
 endfacet
 facet normal -0.404005 0.17029 -0.898766
  outer loop
   vertex -199.779 81.4563 12.1622
   vertex -200.753 94.5198 15.0752
   vertex -199.286 96.4794 14.7868
  endloop
 endfacet
 facet normal -0.350314 -0.684516 -0.63931
  outer loop
   vertex -195.813 99.7249 14.7274
   vertex -198.097 98.6398 17.1412
   vertex -196.616 99.8878 14.9932
  endloop
 endfacet
 facet normal -0.0649928 0.0457584 -0.996836
  outer loop
   vertex -140.254 25.2531 -4.18358
   vertex -130.089 38.5731 -4.23495
   vertex -124.61 31.1958 -4.93078
  endloop
 endfacet
 facet normal -0.163272 -0.0198164 -0.986382
  outer loop
   vertex -118.132 31.5761 -4.40509
   vertex -118.595 42.4181 -4.54632
   vertex -115.154 35.0986 -4.96877
  endloop
 endfacet
 facet normal 0.4116 -0.38124 -0.827793
  outer loop
   vertex -188.508 37.0449 -4.00663
   vertex -186.36 39.5891 -4.11034
   vertex -183.125 39.4247 -2.42572
  endloop
 endfacet
 facet normal -0.0545185 0.0377607 -0.997799
  outer loop
   vertex -158.36 43.7706 -2.49354
   vertex -130.089 38.5731 -4.23495
   vertex -140.254 25.2531 -4.18358
  endloop
 endfacet
 facet normal 0.182525 0.223176 -0.957537
  outer loop
   vertex -178.674 38.0077 -1.90759
   vertex -188.508 37.0449 -4.00663
   vertex -183.125 39.4247 -2.42572
  endloop
 endfacet
 facet normal 0.163637 0.133332 -0.977469
  outer loop
   vertex -113.064 36.753 -4.39319
   vertex -115.154 35.0986 -4.96877
   vertex -118.595 42.4181 -4.54632
  endloop
 endfacet
 facet normal -0.0570999 0.0075095 -0.99834
  outer loop
   vertex -188.508 37.0449 -4.00663
   vertex -188.08 39.6277 -4.01169
   vertex -186.36 39.5891 -4.11034
  endloop
 endfacet
 facet normal -0.382679 0.0492003 -0.92257
  outer loop
   vertex -190.99 53.0478 1.057
   vertex -223.343 37.5129 13.6482
   vertex -223.283 39.5466 13.732
  endloop
 endfacet
 facet normal -0.390172 -0.403281 -0.827726
  outer loop
   vertex -113.064 36.753 -4.39319
   vertex -118.595 42.4181 -4.54632
   vertex -112.819 37.7208 -4.98016
  endloop
 endfacet
 facet normal -0.0574917 -0.0100361 -0.998296
  outer loop
   vertex -186.36 39.5891 -4.11034
   vertex -188.08 39.6277 -4.01169
   vertex -186.225 45.5801 -4.17838
  endloop
 endfacet
 facet normal 0.460871 -0.020513 -0.88723
  outer loop
   vertex -183.125 39.4247 -2.42572
   vertex -186.36 39.5891 -4.11034
   vertex -186.225 45.5801 -4.17838
  endloop
 endfacet
 facet normal 0.649402 -0.507752 -0.566096
  outer loop
   vertex -113.064 36.753 -4.39319
   vertex -112.819 37.7208 -4.98016
   vertex -111.932 38.4584 -4.62443
  endloop
 endfacet
 facet normal 0.0956752 -0.0627428 -0.993433
  outer loop
   vertex -183.125 39.4247 -2.42572
   vertex -183.168 41.809 -2.58048
   vertex -178.674 38.0077 -1.90759
  endloop
 endfacet
 facet normal 0.424367 -0.0750157 -0.902378
  outer loop
   vertex -111.932 38.4584 -4.62443
   vertex -112.819 37.7208 -4.98016
   vertex -112.125 39.537 -4.80472
  endloop
 endfacet
 facet normal 0.143686 0.264737 -0.953556
  outer loop
   vertex -112.819 37.7208 -4.98016
   vertex -118.595 42.4181 -4.54632
   vertex -111.959 40.5423 -4.06729
  endloop
 endfacet
 facet normal -0.0468389 0.0592687 -0.997143
  outer loop
   vertex -124.61 31.1958 -4.93078
   vertex -130.089 38.5731 -4.23495
   vertex -118.595 42.4181 -4.54632
  endloop
 endfacet
 facet normal 0.41194 -0.0515692 -0.90975
  outer loop
   vertex -183.125 39.4247 -2.42572
   vertex -186.225 45.5801 -4.17838
   vertex -183.168 41.809 -2.58048
  endloop
 endfacet
 facet normal -0.367263 -0.0438249 -0.929084
  outer loop
   vertex -190.99 53.0478 1.057
   vertex -223.938 41.6962 14.6165
   vertex -223.24 46.0487 14.1354
  endloop
 endfacet
 facet normal -0.248374 -0.939148 -0.2373
  outer loop
   vertex -111.959 40.5423 -4.06729
   vertex -118.595 42.4181 -4.54632
   vertex -112.977 40.9888 -4.76966
  endloop
 endfacet
 facet normal -0.105573 -0.980483 -0.165851
  outer loop
   vertex -113.397 41.8721 -4.62625
   vertex -118.595 42.4181 -4.54632
   vertex -113.898 41.9318 -4.66039
  endloop
 endfacet
 facet normal 0.0158999 -0.171225 -0.985104
  outer loop
   vertex -112.417 41.478 -4.2832
   vertex -118.595 42.4181 -4.54632
   vertex -113.028 42.0068 -4.38497
  endloop
 endfacet
 facet normal 0.0649985 0.55404 -0.829949
  outer loop
   vertex -113.028 42.0068 -4.38497
   vertex -118.595 42.4181 -4.54632
   vertex -113.53 42.2621 -4.25385
  endloop
 endfacet
 facet normal 0.0242721 -0.644547 -0.764179
  outer loop
   vertex -113.53 42.2621 -4.25385
   vertex -118.595 42.4181 -4.54632
   vertex -114.953 42.6192 -4.60027
  endloop
 endfacet
 facet normal -0.0301464 0.289113 -0.95682
  outer loop
   vertex -118.595 42.4181 -4.54632
   vertex -117.351 44.2141 -4.04284
   vertex -114.953 42.6192 -4.60027
  endloop
 endfacet
 facet normal -0.0504917 0.0702602 -0.99625
  outer loop
   vertex -118.595 42.4181 -4.54632
   vertex -130.089 38.5731 -4.23495
   vertex -123.393 46.5281 -4.01328
  endloop
 endfacet
 facet normal 0.165447 0.158287 -0.973433
  outer loop
   vertex -117.351 44.2141 -4.04284
   vertex -118.595 42.4181 -4.54632
   vertex -118.995 44.5106 -4.2741
  endloop
 endfacet
 facet normal 0.000405272 0.129082 -0.991634
  outer loop
   vertex -118.595 42.4181 -4.54632
   vertex -123.393 46.5281 -4.01328
   vertex -118.995 44.5106 -4.2741
  endloop
 endfacet
 facet normal 0.343676 -0.116274 -0.931862
  outer loop
   vertex -183.168 41.809 -2.58048
   vertex -186.225 45.5801 -4.17838
   vertex -184.952 48.7908 -4.10943
  endloop
 endfacet
 facet normal -0.277427 0.130456 -0.951848
  outer loop
   vertex -184.952 48.7908 -4.10943
   vertex -186.225 45.5801 -4.17838
   vertex -185.55 51.2814 -3.59359
  endloop
 endfacet
 facet normal -0.383984 0.0254918 -0.922988
  outer loop
   vertex -223.258 46.8087 14.3087
   vertex -222.951 48.2626 14.2212
   vertex -190.99 53.0478 1.057
  endloop
 endfacet
 facet normal -0.121679 0.340749 -0.932247
  outer loop
   vertex -119.28 45.0387 -4.04387
   vertex -118.995 44.5106 -4.2741
   vertex -120.386 45.477 -3.73921
  endloop
 endfacet
 facet normal -0.0527762 0.0471354 -0.997493
  outer loop
   vertex -152.528 57.3244 -2.16164
   vertex -130.089 38.5731 -4.23495
   vertex -158.36 43.7706 -2.49354
  endloop
 endfacet
 facet normal -0.0440922 -0.224449 -0.973488
  outer loop
   vertex -178.674 38.0077 -1.90759
   vertex -183.168 41.809 -2.58048
   vertex -184.952 48.7908 -4.10943
  endloop
 endfacet
 facet normal -0.394585 0.135142 -0.908867
  outer loop
   vertex -190.99 53.0478 1.057
   vertex -222.951 48.2626 14.2212
   vertex -222.799 50.2043 14.4439
  endloop
 endfacet
 facet normal -0.0391737 0.0607653 -0.997383
  outer loop
   vertex -123.393 46.5281 -4.01328
   vertex -130.089 38.5731 -4.23495
   vertex -125.195 47.0061 -3.91336
  endloop
 endfacet
 facet normal -0.0549195 0.0698507 -0.996045
  outer loop
   vertex -125.195 47.0061 -3.91336
   vertex -130.089 38.5731 -4.23495
   vertex -126.589 47.7781 -3.78237
  endloop
 endfacet
 facet normal -0.180275 0.116556 -0.976686
  outer loop
   vertex -126.589 47.7781 -3.78237
   vertex -130.089 38.5731 -4.23495
   vertex -128.627 48.8929 -3.27323
  endloop
 endfacet
 facet normal -0.221695 0.0744331 -0.972271
  outer loop
   vertex -129.339 48.6512 -3.63444
   vertex -130.089 38.5731 -4.23495
   vertex -131.53 50.0412 -3.0283
  endloop
 endfacet
 facet normal -0.391107 -0.0423262 -0.919371
  outer loop
   vertex -190.99 53.0478 1.057
   vertex -222.746 51.0974 14.6561
   vertex -222.38 52.1168 14.4532
  endloop
 endfacet
 facet normal 0.447004 0.020019 -0.894308
  outer loop
   vertex -130.089 38.5731 -4.23495
   vertex -129.339 48.6512 -3.63444
   vertex -128.627 48.8929 -3.27323
  endloop
 endfacet
 facet normal -0.391916 -0.0207383 -0.919767
  outer loop
   vertex -190.99 53.0478 1.057
   vertex -222.38 52.1168 14.4532
   vertex -222.097 52.5884 14.3219
  endloop
 endfacet
 facet normal -0.165292 0.0563651 -0.984633
  outer loop
   vertex -130.089 38.5731 -4.23495
   vertex -134.492 51.3542 -2.76415
   vertex -134.079 51.1843 -2.84307
  endloop
 endfacet
 facet normal 0.284395 0.135607 -0.949068
  outer loop
   vertex -131.53 50.0412 -3.0283
   vertex -130.089 38.5731 -4.23495
   vertex -132.735 50.223 -3.36337
  endloop
 endfacet
 facet normal -0.369892 -0.014525 -0.928961
  outer loop
   vertex -130.089 38.5731 -4.23495
   vertex -134.079 51.1843 -2.84307
   vertex -132.735 50.223 -3.36337
  endloop
 endfacet
 facet normal -0.149794 0.446074 -0.882372
  outer loop
   vertex -215.51 71.6717 14.6347
   vertex -193.751 63.6501 6.88552
   vertex -190.99 53.0478 1.057
  endloop
 endfacet
 facet normal -0.040698 0.0419577 -0.99829
  outer loop
   vertex -158.36 43.7706 -2.49354
   vertex -178.674 38.0077 -1.90759
   vertex -152.528 57.3244 -2.16164
  endloop
 endfacet
 facet normal 0.0270972 0.123488 -0.991976
  outer loop
   vertex -138.464 53.4103 -2.6167
   vertex -134.492 51.3542 -2.76415
   vertex -130.089 38.5731 -4.23495
  endloop
 endfacet
 facet normal -0.390435 0.133042 -0.910967
  outer loop
   vertex -221.547 55.4665 14.5067
   vertex -190.99 53.0478 1.057
   vertex -222.097 52.5884 14.3219
  endloop
 endfacet
 facet normal 0.636206 -0.388225 -0.666726
  outer loop
   vertex -118.599 31.8278 -4.99767
   vertex -118.132 31.5761 -4.40509
   vertex -118.958 30.8317 -4.75963
  endloop
 endfacet
 facet normal 0.0313812 0.0174154 -0.999356
  outer loop
   vertex -124.61 31.1958 -4.93078
   vertex -118.595 42.4181 -4.54632
   vertex -118.958 30.8317 -4.75963
  endloop
 endfacet
 facet normal 0.541812 -0.837001 -0.0766101
  outer loop
   vertex -118.86 30.6031 -1.5727
   vertex -120.106 29.753 -1.09801
   vertex -118.958 30.8317 -4.75963
  endloop
 endfacet
 facet normal -0.0214575 -0.0689176 -0.997392
  outer loop
   vertex -140.254 25.2531 -4.18358
   vertex -124.61 31.1958 -4.93078
   vertex -126.107 24.3921 -4.42845
  endloop
 endfacet
 facet normal 0.0294361 -0.0128367 -0.999484
  outer loop
   vertex -124.61 31.1958 -4.93078
   vertex -118.958 30.8317 -4.75963
   vertex -123.218 27.083 -4.83697
  endloop
 endfacet
 facet normal 0.210791 -0.0225096 -0.977272
  outer loop
   vertex -188.508 37.0449 -4.00663
   vertex -178.674 38.0077 -1.90759
   vertex -180.782 29.4107 -2.16435
  endloop
 endfacet
 facet normal -0.185924 -0.325925 -0.926933
  outer loop
   vertex -223.443 32.6387 15.3822
   vertex -223.343 37.5129 13.6482
   vertex -222.952 29.9102 16.243
  endloop
 endfacet
 facet normal -0.3558 -0.0399925 -0.933706
  outer loop
   vertex -222.877 31.0941 13.7458
   vertex -223.343 37.5129 13.6482
   vertex -210.637 21.83 9.47813
  endloop
 endfacet
 facet normal 0.200858 -0.0329939 -0.979065
  outer loop
   vertex -188.508 37.0449 -4.00663
   vertex -180.782 29.4107 -2.16435
   vertex -182.915 27.9642 -2.55303
  endloop
 endfacet
 facet normal -0.348551 -0.033324 -0.936697
  outer loop
   vertex -223.343 37.5129 13.6482
   vertex -190.99 53.0478 1.057
   vertex -210.637 21.83 9.47813
  endloop
 endfacet
 facet normal 0.439704 -0.898108 -0.00786457
  outer loop
   vertex -123.218 27.083 -4.83697
   vertex -121.59 27.8504 -1.4235
   vertex -122.812 27.2491 -1.10998
  endloop
 endfacet
 facet normal -0.0400438 0.0396395 -0.998411
  outer loop
   vertex -178.674 38.0077 -1.90759
   vertex -158.36 43.7706 -2.49354
   vertex -180.782 29.4107 -2.16435
  endloop
 endfacet
 facet normal -0.25749 0.0262522 -0.965924
  outer loop
   vertex -188.508 37.0449 -4.00663
   vertex -187.109 23.266 -4.75406
   vertex -188.53 25.9339 -4.30293
  endloop
 endfacet
 facet normal 0.0989153 0.0107782 -0.995037
  outer loop
   vertex -124.61 31.1958 -4.93078
   vertex -123.218 27.083 -4.83697
   vertex -124.303 26.384 -4.95233
  endloop
 endfacet
 facet normal 0.38303 0.0887664 -0.919461
  outer loop
   vertex -188.508 37.0449 -4.00663
   vertex -182.915 27.9642 -2.55303
   vertex -187.109 23.266 -4.75406
  endloop
 endfacet
 facet normal -0.265861 -0.0126749 -0.963928
  outer loop
   vertex -124.61 31.1958 -4.93078
   vertex -124.303 26.384 -4.95233
   vertex -126.107 24.3921 -4.42845
  endloop
 endfacet
 facet normal 0.544998 -0.809552 -0.218181
  outer loop
   vertex -123.218 27.083 -4.83697
   vertex -124.018 25.7055 -1.72391
   vertex -124.303 26.384 -4.95233
  endloop
 endfacet
 facet normal 0.564082 -0.796653 -0.217152
  outer loop
   vertex -124.303 26.384 -4.95233
   vertex -124.018 25.7055 -1.72391
   vertex -125.822 24.3552 -1.45604
  endloop
 endfacet
 facet normal 0.0257568 0.641338 -0.766826
  outer loop
   vertex -140.254 25.2531 -4.18358
   vertex -126.107 24.3921 -4.42845
   vertex -127.643 23.9134 -4.88037
  endloop
 endfacet
 facet normal 0.308351 -0.950373 -0.0413639
  outer loop
   vertex -126.107 24.3921 -4.42845
   vertex -125.822 24.3552 -1.45604
   vertex -127.643 23.9134 -4.88037
  endloop
 endfacet
 facet normal -0.00975716 0.0189203 -0.999773
  outer loop
   vertex -182.915 27.9642 -2.55303
   vertex -158.36 43.7706 -2.49354
   vertex -174.836 15.2017 -2.8734
  endloop
 endfacet
 facet normal -0.0500519 0.0421333 -0.997857
  outer loop
   vertex -140.254 25.2531 -4.18358
   vertex -174.836 15.2017 -2.8734
   vertex -158.36 43.7706 -2.49354
  endloop
 endfacet
 facet normal 0.575011 -0.792421 -0.203547
  outer loop
   vertex -125.822 24.3552 -1.45604
   vertex -126.966 23.5252 -1.45717
   vertex -127.643 23.9134 -4.88037
  endloop
 endfacet
 facet normal -0.257633 0.102206 -0.960822
  outer loop
   vertex -210.637 21.83 9.47813
   vertex -222.61 25.2687 13.0544
   vertex -222.877 31.0941 13.7458
  endloop
 endfacet
 facet normal 0.43933 0.0283882 -0.897877
  outer loop
   vertex -187.109 23.266 -4.75406
   vertex -182.915 27.9642 -2.55303
   vertex -183.608 24.6954 -2.99542
  endloop
 endfacet
 facet normal 0.128633 0.106174 -0.985992
  outer loop
   vertex -182.915 27.9642 -2.55303
   vertex -174.836 15.2017 -2.8734
   vertex -183.608 24.6954 -2.99542
  endloop
 endfacet
 facet normal -0.0486078 0.0609523 -0.996956
  outer loop
   vertex -129.579 23.311 -4.8228
   vertex -140.254 25.2531 -4.18358
   vertex -127.643 23.9134 -4.88037
  endloop
 endfacet
 facet normal 0.0247695 -0.173701 -0.984487
  outer loop
   vertex -129.579 23.311 -4.8228
   vertex -127.643 23.9134 -4.88037
   vertex -128.528 22.6999 -4.68854
  endloop
 endfacet
 facet normal -0.071314 -0.329503 -0.941457
  outer loop
   vertex -129.579 23.311 -4.8228
   vertex -128.528 22.6999 -4.68854
   vertex -128.968 22.1215 -4.45276
  endloop
 endfacet
 facet normal -0.123682 -0.864243 0.487634
  outer loop
   vertex -128.968 22.1215 -4.45276
   vertex -126.966 23.5252 -1.45717
   vertex -129.402 22.0106 -4.75948
  endloop
 endfacet
 facet normal 0.0424394 -0.0428344 -0.99818
  outer loop
   vertex -129.579 23.311 -4.8228
   vertex -129.402 22.0106 -4.75948
   vertex -130.527 21.0822 -4.76745
  endloop
 endfacet
 facet normal 0.0644157 -0.0521404 -0.99656
  outer loop
   vertex -129.579 23.311 -4.8228
   vertex -130.527 21.0822 -4.76745
   vertex -131.058 20.8667 -4.7905
  endloop
 endfacet
 facet normal -0.501827 -0.154583 -0.851043
  outer loop
   vertex -210.637 21.83 9.47813
   vertex -188.53 25.9339 -4.30293
   vertex -189.184 20.5638 -2.94145
  endloop
 endfacet
 facet normal 0.347818 0.155753 -0.924534
  outer loop
   vertex -183.608 24.6954 -2.99542
   vertex -181.45 22.3099 -2.58552
   vertex -186.452 19.8159 -4.8874
  endloop
 endfacet
 facet normal -0.241409 0.0354646 -0.969775
  outer loop
   vertex -188.53 25.9339 -4.30293
   vertex -187.109 23.266 -4.75406
   vertex -187.295 20.6244 -4.80443
  endloop
 endfacet
 facet normal 0.236491 -0.493251 -0.837123
  outer loop
   vertex -130.527 21.0822 -4.76745
   vertex -132.035 19.4798 -4.24941
   vertex -131.058 20.8667 -4.7905
  endloop
 endfacet
 facet normal 0.45359 -0.0149022 -0.891086
  outer loop
   vertex -187.109 23.266 -4.75406
   vertex -183.608 24.6954 -2.99542
   vertex -187.295 20.6244 -4.80443
  endloop
 endfacet
 facet normal -0.0773904 -0.0988656 -0.992087
  outer loop
   vertex -140.254 25.2531 -4.18358
   vertex -129.579 23.311 -4.8228
   vertex -132.035 19.4798 -4.24941
  endloop
 endfacet
 facet normal -0.278387 0.0291177 -0.960028
  outer loop
   vertex -222.61 25.2687 13.0544
   vertex -210.637 21.83 9.47813
   vertex -223.422 19.7886 13.1237
  endloop
 endfacet
 facet normal 0.166243 0.270757 -0.948184
  outer loop
   vertex -183.608 24.6954 -2.99542
   vertex -186.452 19.8159 -4.8874
   vertex -187.295 20.6244 -4.80443
  endloop
 endfacet
 facet normal 0.211207 0.311252 -0.92656
  outer loop
   vertex -140.254 25.2531 -4.18358
   vertex -132.035 19.4798 -4.24941
   vertex -133.312 19.0521 -4.68417
  endloop
 endfacet
 facet normal -0.0957997 -0.0269264 -0.995036
  outer loop
   vertex -135.65 16.5008 -4.39
   vertex -140.254 25.2531 -4.18358
   vertex -133.312 19.0521 -4.68417
  endloop
 endfacet
 facet normal -0.0589873 -0.00748639 -0.998231
  outer loop
   vertex -140.254 25.2531 -4.18358
   vertex -135.65 16.5008 -4.39
   vertex -137.089 15.1533 -4.29491
  endloop
 endfacet
 facet normal 0.370118 -0.908761 -0.192785
  outer loop
   vertex -133.312 19.0521 -4.68417
   vertex -132.778 19.2647 -4.66061
   vertex -132.035 19.4798 -4.24941
  endloop
 endfacet
 facet normal 0.422158 -0.475882 -0.771569
  outer loop
   vertex -135.65 16.5008 -4.39
   vertex -133.312 19.0521 -4.68417
   vertex -132.035 19.4798 -4.24941
  endloop
 endfacet
 facet normal -0.22131 -0.131734 -0.966265
  outer loop
   vertex -187.539 19.5005 -4.59531
   vertex -187.295 20.6244 -4.80443
   vertex -186.452 19.8159 -4.8874
  endloop
 endfacet
 facet normal 0.35644 0.138029 -0.924066
  outer loop
   vertex -186.452 19.8159 -4.8874
   vertex -181.45 22.3099 -2.58552
   vertex -184.419 13.5902 -5.03351
  endloop
 endfacet
 facet normal -0.243575 -0.0567815 -0.968219
  outer loop
   vertex -186.452 19.8159 -4.8874
   vertex -184.419 13.5902 -5.03351
   vertex -187.539 19.5005 -4.59531
  endloop
 endfacet
 facet normal -0.280534 0.0447583 -0.9588
  outer loop
   vertex -223.422 19.7886 13.1237
   vertex -210.637 21.83 9.47813
   vertex -223.157 14.5328 12.8008
  endloop
 endfacet
 facet normal 0.282364 0.2183 -0.934139
  outer loop
   vertex -187.539 19.5005 -4.59531
   vertex -184.419 13.5902 -5.03351
   vertex -186.742 17.1826 -4.89609
  endloop
 endfacet
 facet normal 0.346369 0.142349 -0.927235
  outer loop
   vertex -184.419 13.5902 -5.03351
   vertex -181.45 22.3099 -2.58552
   vertex -178 10.406 -3.12436
  endloop
 endfacet
 facet normal 0.0668662 0.0319521 -0.99725
  outer loop
   vertex -140.254 25.2531 -4.18358
   vertex -137.089 15.1533 -4.29491
   vertex -139.286 13.7324 -4.48781
  endloop
 endfacet
 facet normal 0.545879 -0.823154 -0.156315
  outer loop
   vertex -139.286 13.7324 -4.48781
   vertex -137.089 15.1533 -4.29491
   vertex -138.543 13.6511 -1.46324
  endloop
 endfacet
 facet normal -0.526578 -0.0941503 -0.844897
  outer loop
   vertex -186.742 17.1826 -4.89609
   vertex -186.12 13.6254 -4.88765
   vertex -210.637 21.83 9.47813
  endloop
 endfacet
 facet normal -0.0858163 -0.0173816 -0.996159
  outer loop
   vertex -186.742 17.1826 -4.89609
   vertex -184.419 13.5902 -5.03351
   vertex -186.12 13.6254 -4.88765
  endloop
 endfacet
 facet normal -0.158737 0.0127331 -0.987239
  outer loop
   vertex -140.254 25.2531 -4.18358
   vertex -139.286 13.7324 -4.48781
   vertex -140.886 11.962 -4.25353
  endloop
 endfacet
 facet normal 0.346092 0.141665 -0.927443
  outer loop
   vertex -178 10.406 -3.12436
   vertex -182.959 7.22819 -5.46027
   vertex -184.419 13.5902 -5.03351
  endloop
 endfacet
 facet normal -0.054925 0.0590444 -0.996743
  outer loop
   vertex -140.254 25.2531 -4.18358
   vertex -175.319 3.27938 -3.55301
   vertex -174.836 15.2017 -2.8734
  endloop
 endfacet
 facet normal 0.262759 -0.00739986 -0.964833
  outer loop
   vertex -140.254 25.2531 -4.18358
   vertex -140.886 11.962 -4.25353
   vertex -141.292 11.8814 -4.36353
  endloop
 endfacet
 facet normal -0.101584 0.0212656 -0.9946
  outer loop
   vertex -140.254 25.2531 -4.18358
   vertex -141.292 11.8814 -4.36353
   vertex -143.614 9.58619 -4.17539
  endloop
 endfacet
 facet normal 0.263537 -0.916305 -0.301552
  outer loop
   vertex -140.886 11.962 -4.25353
   vertex -141.807 10.687 -1.18425
   vertex -141.292 11.8814 -4.36353
  endloop
 endfacet
 facet normal 0.0074318 0.0473668 -0.99885
  outer loop
   vertex -181.45 22.3099 -2.58552
   vertex -174.836 15.2017 -2.8734
   vertex -178 10.406 -3.12436
  endloop
 endfacet
 facet normal -0.240378 -0.029348 -0.970236
  outer loop
   vertex -210.637 21.83 9.47813
   vertex -222.645 10.1129 12.8077
   vertex -223.157 14.5328 12.8008
  endloop
 endfacet
 facet normal -0.0845603 0.0408194 -0.995582
  outer loop
   vertex -184.927 10.5018 -5.117
   vertex -186.12 13.6254 -4.88765
   vertex -184.419 13.5902 -5.03351
  endloop
 endfacet
endsolid
