solid ascii
 facet normal -0.213057 0.139015 0.967099
  outer loop
   vertex -41.882 -88.5999 2.76478
   vertex -35.5937 -103.3 6.26321
   vertex -24.7045 -82.2259 5.63285
  endloop
 endfacet
 facet normal -0.0166049 0.0719397 0.997271
  outer loop
   vertex -35.5937 -103.3 6.26321
   vertex -21.4019 -105.337 6.64646
   vertex -18.4354 -100.515 6.34796
  endloop
 endfacet
 facet normal -0.0106849 0.0354118 0.999316
  outer loop
   vertex -35.5937 -103.3 6.26321
   vertex -18.4354 -100.515 6.34796
   vertex -24.7045 -82.2259 5.63285
  endloop
 endfacet
 facet normal -0.0285413 0.096019 0.99497
  outer loop
   vertex -52.4834 -81.6409 -0.776125
   vertex -47.4639 -89.4278 0.11934
   vertex -43.9634 -80.2518 -0.665775
  endloop
 endfacet
 facet normal 0.0789437 -0.0598317 0.995082
  outer loop
   vertex -101.83 -48.9189 4.16104
   vertex -90.7369 -46.6944 3.4147
   vertex -102.49 -44.3193 4.48995
  endloop
 endfacet
 facet normal -0.444635 0.243375 0.862014
  outer loop
   vertex -47.4639 -89.4278 0.11934
   vertex -41.882 -88.5999 2.76478
   vertex -43.9634 -80.2518 -0.665775
  endloop
 endfacet
 facet normal 0.0286548 -0.252589 0.967149
  outer loop
   vertex -61.3421 -78.9825 0.180618
   vertex -52.4834 -81.6409 -0.776125
   vertex -43.9634 -80.2518 -0.665775
  endloop
 endfacet
 facet normal -0.0274432 0.0212078 0.999398
  outer loop
   vertex -102.906 -41.7632 4.58041
   vertex -102.235 -43.8166 4.64243
   vertex -99.9037 -38.8541 4.60113
  endloop
 endfacet
 facet normal 0.026092 -0.302261 0.952868
  outer loop
   vertex -102.49 -44.3193 4.48995
   vertex -90.7369 -46.6944 3.4147
   vertex -102.235 -43.8166 4.64243
  endloop
 endfacet
 facet normal -0.222945 -0.0642445 0.972712
  outer loop
   vertex -103.17 -40.7545 4.65734
   vertex -102.662 -41.2732 4.73936
   vertex -102.884 -40.0033 4.77254
  endloop
 endfacet
 facet normal 0.0632135 -0.0150713 0.997886
  outer loop
   vertex -102.662 -41.2732 4.73936
   vertex -99.9037 -38.8541 4.60113
   vertex -102.884 -40.0033 4.77254
  endloop
 endfacet
 facet normal 0.061932 -0.0285629 0.997672
  outer loop
   vertex -91.5816 -57.0916 3.00677
   vertex -96.3937 -76.1639 2.75946
   vertex -83.7773 -51.6618 2.67776
  endloop
 endfacet
 facet normal 0.0471454 0.0598989 0.99709
  outer loop
   vertex -24.7045 -82.2259 5.63285
   vertex -18.5232 -100.016 6.40929
   vertex -16.343 -97.5699 6.15927
  endloop
 endfacet
 facet normal 0.0436268 -0.0143709 0.998945
  outer loop
   vertex -90.1239 -47.1327 3.08637
   vertex -91.5816 -57.0916 3.00677
   vertex -84.6574 -51.4353 2.78574
  endloop
 endfacet
 facet normal 0.10009 -0.0837854 0.991444
  outer loop
   vertex -91.5816 -57.0916 3.00677
   vertex -83.7773 -51.6618 2.67776
   vertex -84.6574 -51.4353 2.78574
  endloop
 endfacet
 facet normal 0.0648435 -0.0300628 0.997443
  outer loop
   vertex -83.7773 -51.6618 2.67776
   vertex -96.3937 -76.1639 2.75946
   vertex -77.2417 -55.6626 2.13229
  endloop
 endfacet
 facet normal -0.173737 0.381736 0.907796
  outer loop
   vertex -102.962 -39.4255 4.51463
   vertex -102.884 -40.0033 4.77254
   vertex -100.784 -37.9772 4.32238
  endloop
 endfacet
 facet normal 0.102607 -0.0143762 0.994618
  outer loop
   vertex -102.235 -43.8166 4.64243
   vertex -90.7369 -46.6944 3.4147
   vertex -97.625 -40.9541 4.20827
  endloop
 endfacet
 facet normal 0.0732669 -0.0261172 0.99697
  outer loop
   vertex -99.9037 -38.8541 4.60113
   vertex -102.235 -43.8166 4.64243
   vertex -98.2056 -40.8294 4.42459
  endloop
 endfacet
 facet normal -0.0452252 0.261103 0.964251
  outer loop
   vertex -102.884 -40.0033 4.77254
   vertex -99.9037 -38.8541 4.60113
   vertex -100.784 -37.9772 4.32238
  endloop
 endfacet
 facet normal -0.472723 0.76812 0.431885
  outer loop
   vertex -102.962 -39.4255 4.51463
   vertex -100.784 -37.9772 4.32238
   vertex -100.864 -37.3759 3.16546
  endloop
 endfacet
 facet normal 0.071253 -0.0262052 0.997114
  outer loop
   vertex -96.3937 -76.1639 2.75946
   vertex -61.3421 -78.9825 0.180618
   vertex -76.7776 -55.5995 1.89815
  endloop
 endfacet
 facet normal -0.282525 0.712184 0.642631
  outer loop
   vertex -101.855 -37.5035 2.87125
   vertex -102.962 -39.4255 4.51463
   vertex -100.864 -37.3759 3.16546
  endloop
 endfacet
 facet normal -0.117995 0.208901 0.970792
  outer loop
   vertex -88.0531 -49.4073 -0.99
   vertex -77.2105 -55.214 1.57739
   vertex -85.1635 -50.6161 -0.37866
  endloop
 endfacet
 facet normal 0.211038 0.754345 0.621633
  outer loop
   vertex -77.2417 -55.6626 2.13229
   vertex -76.7776 -55.5995 1.89815
   vertex -77.2105 -55.214 1.57739
  endloop
 endfacet
 facet normal -0.266865 -0.168426 0.948902
  outer loop
   vertex -61.3421 -78.9825 0.180618
   vertex -68.6714 -59.8546 1.51449
   vertex -69.59 -58.9762 1.41206
  endloop
 endfacet
 facet normal -0.0378792 -0.09805 0.99446
  outer loop
   vertex -76.7776 -55.5995 1.89815
   vertex -61.3421 -78.9825 0.180618
   vertex -73.3171 -57.5768 1.83501
  endloop
 endfacet
 facet normal 0.222124 0.0315898 0.974507
  outer loop
   vertex -61.3421 -78.9825 0.180618
   vertex -69.59 -58.9762 1.41206
   vertex -70.6337 -58.9123 1.64789
  endloop
 endfacet
 facet normal 0.0613513 -0.0444938 0.997124
  outer loop
   vertex -61.3421 -78.9825 0.180618
   vertex -70.6337 -58.9123 1.64789
   vertex -72.057 -58.1493 1.76951
  endloop
 endfacet
 facet normal 0.0225648 -0.0644834 0.997664
  outer loop
   vertex -73.3171 -57.5768 1.83501
   vertex -61.3421 -78.9825 0.180618
   vertex -72.057 -58.1493 1.76951
  endloop
 endfacet
 facet normal -0.200675 -0.0758459 0.976717
  outer loop
   vertex -16.343 -97.5699 6.15927
   vertex -16.2881 -96.3585 6.26461
   vertex -24.7045 -82.2259 5.63285
  endloop
 endfacet
 facet normal 0.278084 0.519707 0.80782
  outer loop
   vertex -73.3171 -57.5768 1.83501
   vertex -72.057 -58.1493 1.76951
   vertex -72.8284 -57.4431 1.58077
  endloop
 endfacet
 facet normal 0.0996818 -0.0311579 0.994531
  outer loop
   vertex -68.6714 -59.8546 1.51449
   vertex -61.3421 -78.9825 0.180618
   vertex -67.7033 -60.1552 1.40804
  endloop
 endfacet
 facet normal 0.0886081 0.863746 0.496076
  outer loop
   vertex -101.41 -37.1858 2.23863
   vertex -101.855 -37.5035 2.87125
   vertex -100.834 -37.4102 2.52638
  endloop
 endfacet
 facet normal -0.110429 0.99216 -0.0585118
  outer loop
   vertex -101.855 -37.5035 2.87125
   vertex -100.864 -37.3759 3.16546
   vertex -100.834 -37.4102 2.52638
  endloop
 endfacet
 facet normal -0.0357008 0.93978 0.339911
  outer loop
   vertex -99.1174 -39.2199 0.978228
   vertex -99.5873 -39.1225 0.659634
   vertex -97.8484 -40.1163 3.58994
  endloop
 endfacet
 facet normal 0.168223 0.907257 0.385468
  outer loop
   vertex -77.2571 -55.216 -2.00191
   vertex -73.3171 -57.5768 1.83501
   vertex -75.6107 -55.7721 -1.41161
  endloop
 endfacet
 facet normal -0.0364676 -0.0772769 0.996343
  outer loop
   vertex -67.7033 -60.1552 1.40804
   vertex -61.3421 -78.9825 0.180618
   vertex -67.4029 -60.4342 1.3974
  endloop
 endfacet
 facet normal 0.0693548 -0.0434795 0.996644
  outer loop
   vertex -66.7053 -60.8211 1.34614
   vertex -61.3421 -78.9825 0.180618
   vertex -62.9589 -62.5639 1.0094
  endloop
 endfacet
 facet normal 0.0743829 0.99546 0.0593859
  outer loop
   vertex -70.6337 -58.9123 1.64789
   vertex -69.59 -58.9762 1.41206
   vertex -69.558 -58.7518 -2.38914
  endloop
 endfacet
 facet normal 0.106081 0.715762 0.69024
  outer loop
   vertex -67.4029 -60.4342 1.3974
   vertex -66.915 -60.33 1.21442
   vertex -67.7479 -59.745 0.735781
  endloop
 endfacet
 facet normal 0.307828 0.821102 0.48066
  outer loop
   vertex -68.6714 -59.8546 1.51449
   vertex -67.7033 -60.1552 1.40804
   vertex -67.7479 -59.745 0.735781
  endloop
 endfacet
 facet normal 0.0966297 0.963357 0.250212
  outer loop
   vertex -68.6714 -59.8546 1.51449
   vertex -67.7479 -59.745 0.735781
   vertex -69.558 -58.7518 -2.38914
  endloop
 endfacet
 facet normal -0.353382 0.0080767 0.935444
  outer loop
   vertex -61.3421 -78.9825 0.180618
   vertex -59.6264 -64.328 0.702249
   vertex -60.4752 -63.2845 0.372582
  endloop
 endfacet
 facet normal 0.226777 -0.0244302 0.97364
  outer loop
   vertex -61.3421 -78.9825 0.180618
   vertex -60.4752 -63.2845 0.372582
   vertex -62.4634 -62.4852 0.855722
  endloop
 endfacet
 facet normal -0.0245945 0.91976 0.391709
  outer loop
   vertex -62.9589 -62.5639 1.0094
   vertex -62.4634 -62.4852 0.855722
   vertex -66.2554 -60.8347 -3.25785
  endloop
 endfacet
 facet normal -0.0207558 0.0323089 0.999262
  outer loop
   vertex -24.7045 -82.2259 5.63285
   vertex -16.2881 -96.3585 6.26461
   vertex -13.3057 -89.9199 6.11838
  endloop
 endfacet
 facet normal 0.0460349 -0.0354033 0.998312
  outer loop
   vertex -61.3421 -78.9825 0.180618
   vertex -43.9634 -80.2518 -0.665775
   vertex -57.793 -65.0859 0.509777
  endloop
 endfacet
 facet normal 0.275293 0.164195 0.947235
  outer loop
   vertex -55.5002 -66.0582 0.226813
   vertex -43.9634 -80.2518 -0.665775
   vertex -51.5537 -67.7397 -0.628691
  endloop
 endfacet
 facet normal 0.189994 -0.0571321 0.980122
  outer loop
   vertex -59.6264 -64.328 0.702249
   vertex -61.3421 -78.9825 0.180618
   vertex -58.0183 -64.5867 0.375448
  endloop
 endfacet
 facet normal -0.381665 0.0756548 0.921199
  outer loop
   vertex -61.3421 -78.9825 0.180618
   vertex -57.793 -65.0859 0.509777
   vertex -58.0183 -64.5867 0.375448
  endloop
 endfacet
 facet normal 0.247754 0.469319 0.84756
  outer loop
   vertex -60.4752 -63.2845 0.372582
   vertex -59.6264 -64.328 0.702249
   vertex -58.0183 -64.5867 0.375448
  endloop
 endfacet
 facet normal 0.138114 0.973509 -0.182223
  outer loop
   vertex -57.793 -65.0859 0.509777
   vertex -56.2902 -65.3875 0.0373634
   vertex -55.0999 -66.4795 -4.89428
  endloop
 endfacet
 facet normal -0.047524 -0.00737483 0.998843
  outer loop
   vertex -24.7045 -82.2259 5.63285
   vertex -13.3057 -89.9199 6.11838
   vertex -20.3115 -82.7081 5.8383
  endloop
 endfacet
 facet normal -0.128353 0.055683 0.990164
  outer loop
   vertex -43.9634 -80.2518 -0.665775
   vertex -41.7329 -73.9991 -0.728265
   vertex -41.9106 -72.5924 -0.830412
  endloop
 endfacet
 facet normal -0.345683 0.927485 -0.142392
  outer loop
   vertex -57.5359 -65.1563 -4.50585
   vertex -58.0183 -64.5867 0.375448
   vertex -57.1797 -64.9593 -4.08755
  endloop
 endfacet
 facet normal 0.24249 0.110171 0.963878
  outer loop
   vertex -50.7326 -68.5762 -0.297307
   vertex -43.9634 -80.2518 -0.665775
   vertex -50.0451 -68.6296 -0.464162
  endloop
 endfacet
 facet normal -0.00132158 0.0218439 0.999761
  outer loop
   vertex -43.7724 -71.8389 -0.849336
   vertex -43.9634 -80.2518 -0.665775
   vertex -41.9106 -72.5924 -0.830412
  endloop
 endfacet
 facet normal -0.07633 0.00154297 0.997081
  outer loop
   vertex -48.899 -69.0134 -1.061
   vertex -43.9634 -80.2518 -0.665775
   vertex -45.7637 -70.9075 -0.818056
  endloop
 endfacet
 facet normal 0.109304 0.984781 0.135124
  outer loop
   vertex -50.7326 -68.5762 -0.297307
   vertex -50.0451 -68.6296 -0.464162
   vertex -51.8069 -67.7504 -5.44663
  endloop
 endfacet
 facet normal -0.237014 0.120411 0.964015
  outer loop
   vertex -41.882 -88.5999 2.76478
   vertex -27.8728 -80.166 5.15564
   vertex -29.4796 -79.1365 4.63201
  endloop
 endfacet
 facet normal -0.342181 0.0282611 0.939209
  outer loop
   vertex -43.9634 -80.2518 -0.665775
   vertex -43.7724 -71.8389 -0.849336
   vertex -44.7665 -70.9877 -1.23712
  endloop
 endfacet
 facet normal -0.242664 0.096213 0.965328
  outer loop
   vertex -41.7329 -73.9991 -0.728265
   vertex -43.9634 -80.2518 -0.665775
   vertex -38.7349 -73.9887 0.0243328
  endloop
 endfacet
 facet normal -0.158957 -0.0158062 0.987159
  outer loop
   vertex -41.882 -88.5999 2.76478
   vertex -24.7045 -82.2259 5.63285
   vertex -27.8728 -80.166 5.15564
  endloop
 endfacet
 facet normal -0.239764 0.196373 0.950763
  outer loop
   vertex -41.7329 -73.9991 -0.728265
   vertex -39.7367 -73.4293 -0.342547
   vertex -40.7655 -72.9565 -0.699646
  endloop
 endfacet
 facet normal -0.0943218 0.0602411 0.993717
  outer loop
   vertex -41.9106 -72.5924 -0.830412
   vertex -41.7329 -73.9991 -0.728265
   vertex -40.7655 -72.9565 -0.699646
  endloop
 endfacet
 facet normal -0.301351 0.51065 0.805248
  outer loop
   vertex -41.7329 -73.9991 -0.728265
   vertex -39.4322 -73.8979 0.0685908
   vertex -39.7367 -73.4293 -0.342547
  endloop
 endfacet
 facet normal -0.407264 0.133925 0.903438
  outer loop
   vertex -43.9634 -80.2518 -0.665775
   vertex -33.0018 -77.7759 3.90861
   vertex -35.2092 -76.2245 2.68354
  endloop
 endfacet
 facet normal -0.402185 0.260421 0.87774
  outer loop
   vertex -43.9634 -80.2518 -0.665775
   vertex -41.882 -88.5999 2.76478
   vertex -32.1922 -78.1197 4.09527
  endloop
 endfacet
 facet normal -0.0979762 0.976752 -0.190675
  outer loop
   vertex -48.1017 -69.7771 -8.27387
   vertex -48.5131 -69.8063 -8.21189
   vertex -47.6311 -69.6035 -7.62629
  endloop
 endfacet
 facet normal -0.148184 0.982029 -0.116883
  outer loop
   vertex -48.5131 -69.8063 -8.21189
   vertex -48.899 -69.0134 -1.061
   vertex -47.6311 -69.6035 -7.62629
  endloop
 endfacet
 facet normal -0.498489 0.327713 0.802566
  outer loop
   vertex -43.9634 -80.2518 -0.665775
   vertex -36.2153 -75.6886 2.28341
   vertex -38.7349 -73.9887 0.0243328
  endloop
 endfacet
 facet normal -0.371046 0.708773 0.599972
  outer loop
   vertex -43.9634 -80.2518 -0.665775
   vertex -32.1922 -78.1197 4.09527
   vertex -32.3517 -77.8768 3.70966
  endloop
 endfacet
 facet normal -0.0472376 0.880209 -0.472229
  outer loop
   vertex -47.0855 -69.8086 -8.06308
   vertex -47.6375 -70.0524 -8.46237
   vertex -47.6311 -69.6035 -7.62629
  endloop
 endfacet
 facet normal 0.235969 0.885676 0.399872
  outer loop
   vertex -41.9106 -72.5924 -0.830412
   vertex -40.7655 -72.9565 -0.699646
   vertex -41.2458 -72.6452 -1.10584
  endloop
 endfacet
 facet normal -0.36299 0.014195 0.931685
  outer loop
   vertex -36.2153 -75.6886 2.28341
   vertex -43.9634 -80.2518 -0.665775
   vertex -35.2092 -76.2245 2.68354
  endloop
 endfacet
 facet normal -0.179178 0.040873 0.982967
  outer loop
   vertex -32.1922 -78.1197 4.09527
   vertex -41.882 -88.5999 2.76478
   vertex -29.4796 -79.1365 4.63201
  endloop
 endfacet
 facet normal 0.141187 0.951119 0.274661
  outer loop
   vertex -39.4322 -73.8979 0.0685908
   vertex -38.7349 -73.9887 0.0243328
   vertex -39.7922 -73.2531 -1.97922
  endloop
 endfacet
 facet normal -0.0510428 0.963536 -0.262666
  outer loop
   vertex -46.3911 -70.7473 -7.90871
   vertex -48.899 -69.0134 -1.061
   vertex -45.6838 -70.4053 -6.7918
  endloop
 endfacet
 facet normal 0.283092 0.809245 0.514763
  outer loop
   vertex -35.2092 -76.2245 2.68354
   vertex -33.0018 -77.7759 3.90861
   vertex -32.3517 -77.8768 3.70966
  endloop
 endfacet
 facet normal 0.137837 0.419826 0.897077
  outer loop
   vertex -27.8728 -80.166 5.15564
   vertex -24.7045 -82.2259 5.63285
   vertex -27.1612 -80.1839 5.0547
  endloop
 endfacet
 facet normal 0.0136222 0.993571 0.112391
  outer loop
   vertex -41.8623 -72.8372 -5.40506
   vertex -39.7922 -73.2531 -1.97922
   vertex -40.1682 -73.0166 -4.02447
  endloop
 endfacet
 facet normal 0.0537346 -0.450132 0.891344
  outer loop
   vertex -13.3057 -89.9199 6.11838
   vertex -12.7865 -90.8675 5.60854
   vertex -12.78 -90.2493 5.92036
  endloop
 endfacet
 facet normal 0.0281507 0.0218058 0.999366
  outer loop
   vertex -24.7045 -82.2259 5.63285
   vertex -22.3916 -81.7759 5.55788
   vertex -24.218 -81.345 5.59993
  endloop
 endfacet
 facet normal -0.133144 0.118411 0.983998
  outer loop
   vertex -27.1612 -80.1839 5.0547
   vertex -24.7045 -82.2259 5.63285
   vertex -25.01 -81.0391 5.4487
  endloop
 endfacet
 facet normal 0.248327 0.951632 0.180916
  outer loop
   vertex -38.2366 -73.8626 -2.63368
   vertex -38.4528 -73.6922 -3.23301
   vertex -39.1371 -73.4488 -3.57399
  endloop
 endfacet
 facet normal 0.134173 0.168266 0.976568
  outer loop
   vertex -20.3115 -82.7081 5.8383
   vertex -13.3057 -89.9199 6.11838
   vertex -12.1909 -89.0131 5.80897
  endloop
 endfacet
 facet normal 0.0571864 0.971399 0.230462
  outer loop
   vertex -27.1612 -80.1839 5.0547
   vertex -28.33 -79.2477 1.39879
   vertex -27.8728 -80.166 5.15564
  endloop
 endfacet
 facet normal -0.0213411 0.980135 -0.197182
  outer loop
   vertex -32.1922 -78.1197 4.09527
   vertex -29.707 -78.6611 1.13543
   vertex -30.5422 -78.8243 0.414307
  endloop
 endfacet
 facet normal -0.0220423 0.979944 0.198049
  outer loop
   vertex -37.3088 -74.7304 -2.57914
   vertex -36.2153 -75.6886 2.28341
   vertex -36.1133 -74.9834 -1.19433
  endloop
 endfacet
 facet normal 0.0253083 0.57805 0.815609
  outer loop
   vertex -24.7045 -82.2259 5.63285
   vertex -20.3115 -82.7081 5.8383
   vertex -21.8505 -81.8588 5.28411
  endloop
 endfacet
 facet normal 0.194025 0.964081 0.181387
  outer loop
   vertex -23.5974 -81.5848 5.69678
   vertex -21.8505 -81.8588 5.28411
   vertex -24.3575 -80.7329 1.98178
  endloop
 endfacet
 facet normal -0.244183 -0.064406 0.967588
  outer loop
   vertex -12.1909 -89.0131 5.80897
   vertex -12.3215 -86.3641 5.95234
   vertex -14.003 -84.9284 5.62356
  endloop
 endfacet
 facet normal 0.150227 -0.0460451 0.987579
  outer loop
   vertex -12.1909 -89.0131 5.80897
   vertex -11.4435 -87.2428 5.77781
   vertex -12.3215 -86.3641 5.95234
  endloop
 endfacet
 facet normal -0.0860277 -0.115403 0.989586
  outer loop
   vertex -20.3115 -82.7081 5.8383
   vertex -12.1909 -89.0131 5.80897
   vertex -17.7845 -83.7965 5.93105
  endloop
 endfacet
 facet normal 0.0315399 0.0104298 0.999448
  outer loop
   vertex -17.7845 -83.7965 5.93105
   vertex -12.1909 -89.0131 5.80897
   vertex -16.9614 -83.8763 5.90591
  endloop
 endfacet
 facet normal 0.265828 0.67577 0.68751
  outer loop
   vertex -20.3115 -82.7081 5.8383
   vertex -17.7845 -83.7965 5.93105
   vertex -17.8293 -83.1593 5.32205
  endloop
 endfacet
 facet normal 0.0889188 0.691456 0.716925
  outer loop
   vertex -17.7845 -83.7965 5.93105
   vertex -16.9614 -83.8763 5.90591
   vertex -17.8293 -83.1593 5.32205
  endloop
 endfacet
 facet normal 0.130638 0.102713 0.986095
  outer loop
   vertex -12.1909 -89.0131 5.80897
   vertex -14.003 -84.9284 5.62356
   vertex -16.9614 -83.8763 5.90591
  endloop
 endfacet
 facet normal 0.151138 0.979958 -0.129769
  outer loop
   vertex -17.0135 -83.6781 2.35462
   vertex -20.3115 -82.7081 5.8383
   vertex -17.8293 -83.1593 5.32205
  endloop
 endfacet
 facet normal 0.105502 0.337736 0.935309
  outer loop
   vertex -14.003 -84.9284 5.62356
   vertex -12.3215 -86.3641 5.95234
   vertex -13.3585 -85.2839 5.67924
  endloop
 endfacet
 facet normal 0.0349223 0.986044 -0.162783
  outer loop
   vertex -17.0135 -83.6781 2.35462
   vertex -17.8293 -83.1593 5.32205
   vertex -16.1194 -83.6109 2.95335
  endloop
 endfacet
 facet normal -0.13592 0.942417 0.305573
  outer loop
   vertex -15.0208 -84.5003 2.52322
   vertex -13.3585 -85.2839 5.67924
   vertex -13.7763 -84.5878 3.34651
  endloop
 endfacet
 facet normal 0.126687 0.882453 0.45302
  outer loop
   vertex -11.8018 -85.8677 5.28757
   vertex -11.2574 -85.8446 5.09039
   vertex -13.7763 -84.5878 3.34651
  endloop
 endfacet
 facet normal 0.172047 0.900118 0.400235
  outer loop
   vertex -11.2574 -85.8446 5.09039
   vertex -11.2099 -85.5982 4.5158
   vertex -13.7763 -84.5878 3.34651
  endloop
 endfacet
 facet normal -0.0683187 -0.392299 0.917297
  outer loop
   vertex -92.971 -102.058 2.05154
   vertex -99.674 -99.5969 2.60474
   vertex -100.131 -100.732 2.08505
  endloop
 endfacet
 facet normal 0.0262952 0.0257859 0.999322
  outer loop
   vertex -48.9722 -133.333 8.23002
   vertex -63.7498 -131.137 8.5622
   vertex -57.2425 -137.612 8.55803
  endloop
 endfacet
 facet normal 0.150778 0.324108 0.933927
  outer loop
   vertex -63.7498 -131.137 8.5622
   vertex -72.6316 -118.332 5.55221
   vertex -72.6841 -121.492 6.65724
  endloop
 endfacet
 facet normal 0.0324426 0.150288 0.98811
  outer loop
   vertex -92.971 -102.058 2.05154
   vertex -100.131 -100.732 2.08505
   vertex -99.0189 -103.859 2.52412
  endloop
 endfacet
 facet normal 0.0551278 0.027186 0.998109
  outer loop
   vertex -74.7331 -111.581 1.30359
   vertex -92.971 -102.058 2.05154
   vertex -96.2573 -117.343 2.64938
  endloop
 endfacet
 facet normal 0.108657 -0.105462 0.988469
  outer loop
   vertex -99.0189 -103.859 2.52412
   vertex -100.165 -106.292 2.39055
   vertex -92.971 -102.058 2.05154
  endloop
 endfacet
 facet normal -0.229606 0.0548111 0.971739
  outer loop
   vertex -99.0189 -103.859 2.52412
   vertex -100.131 -100.732 2.08505
   vertex -100.165 -106.292 2.39055
  endloop
 endfacet
 facet normal 0.0051291 0.198322 0.980124
  outer loop
   vertex -63.7498 -131.137 8.5622
   vertex -72.6841 -121.492 6.65724
   vertex -89.4852 -126.811 7.8215
  endloop
 endfacet
 facet normal -0.0687377 0.463103 0.883635
  outer loop
   vertex -72.6841 -121.492 6.65724
   vertex -74.7331 -111.581 1.30359
   vertex -96.2573 -117.343 2.64938
  endloop
 endfacet
 facet normal 0.0873583 -0.0688502 0.993795
  outer loop
   vertex -92.971 -102.058 2.05154
   vertex -100.165 -106.292 2.39055
   vertex -100.376 -109.612 2.1791
  endloop
 endfacet
 facet normal 0.0850687 0.0848629 0.992755
  outer loop
   vertex -57.2425 -137.612 8.55803
   vertex -63.7498 -131.137 8.5622
   vertex -58.2064 -137.882 8.66371
  endloop
 endfacet
 facet normal -0.205992 -0.154767 0.966237
  outer loop
   vertex -58.2064 -137.882 8.66371
   vertex -63.7498 -131.137 8.5622
   vertex -59.1316 -138.675 8.33946
  endloop
 endfacet
 facet normal -0.0804212 0.0955855 0.992167
  outer loop
   vertex -92.971 -102.058 2.05154
   vertex -100.376 -109.612 2.1791
   vertex -99.8434 -111.673 2.42086
  endloop
 endfacet
 facet normal -0.0319069 0.0459101 0.998436
  outer loop
   vertex -96.2573 -117.343 2.64938
   vertex -92.971 -102.058 2.05154
   vertex -100.162 -115.085 2.42077
  endloop
 endfacet
 facet normal 0.0617415 -0.00579185 0.998075
  outer loop
   vertex -92.971 -102.058 2.05154
   vertex -99.8434 -111.673 2.42086
   vertex -100.162 -115.085 2.42077
  endloop
 endfacet
 facet normal 0.100443 0.0321549 0.994423
  outer loop
   vertex -59.1316 -138.675 8.33946
   vertex -63.7498 -131.137 8.5622
   vertex -61.91 -139.407 8.64376
  endloop
 endfacet
 facet normal -0.0179126 0.00587647 0.999822
  outer loop
   vertex -61.91 -139.407 8.64376
   vertex -63.7498 -131.137 8.5622
   vertex -65.7085 -140.992 8.58503
  endloop
 endfacet
 facet normal 0.126099 -0.0227669 0.991756
  outer loop
   vertex -63.7498 -131.137 8.5622
   vertex -69.6941 -137.455 9.17299
   vertex -65.7085 -140.992 8.58503
  endloop
 endfacet
 facet normal 0.0382328 0.165872 0.985406
  outer loop
   vertex -96.2573 -117.343 2.64938
   vertex -100.162 -115.085 2.42077
   vertex -99.8363 -117.766 2.85935
  endloop
 endfacet
 facet normal -0.0758058 0.435733 0.896878
  outer loop
   vertex -72.6841 -121.492 6.65724
   vertex -96.2573 -117.343 2.64938
   vertex -89.4852 -126.811 7.8215
  endloop
 endfacet
 facet normal -0.0430403 0.455088 0.889406
  outer loop
   vertex -96.2573 -117.343 2.64938
   vertex -97.7711 -129.809 8.95438
   vertex -89.4852 -126.811 7.8215
  endloop
 endfacet
 facet normal -0.0107558 0.106251 0.994281
  outer loop
   vertex -69.6941 -137.455 9.17299
   vertex -63.7498 -131.137 8.5622
   vertex -89.4852 -126.811 7.8215
  endloop
 endfacet
 facet normal -0.0458177 -0.0129616 0.998866
  outer loop
   vertex -67.0648 -140.949 9.24826
   vertex -69.6941 -137.455 9.17299
   vertex -69.3688 -142.822 9.11827
  endloop
 endfacet
 facet normal 0.0493886 0.0765342 0.995843
  outer loop
   vertex -96.2573 -117.343 2.64938
   vertex -99.8363 -117.766 2.85935
   vertex -100.109 -119.419 2.99995
  endloop
 endfacet
 facet normal -0.207048 0.523726 0.826342
  outer loop
   vertex -96.2573 -117.343 2.64938
   vertex -100.109 -119.419 2.99995
   vertex -100.021 -121.122 4.10101
  endloop
 endfacet
 facet normal 0.0850761 0.441466 0.893235
  outer loop
   vertex -96.2573 -117.343 2.64938
   vertex -100.385 -123.653 6.16119
   vertex -97.7711 -129.809 8.95438
  endloop
 endfacet
 facet normal -0.463363 0.642683 0.610126
  outer loop
   vertex -100.385 -123.653 6.16119
   vertex -96.2573 -117.343 2.64938
   vertex -100.162 -121.714 4.28725
  endloop
 endfacet
 facet normal 0.0879161 0.279749 0.956039
  outer loop
   vertex -96.2573 -117.343 2.64938
   vertex -100.021 -121.122 4.10101
   vertex -100.162 -121.714 4.28725
  endloop
 endfacet
 facet normal -0.0169066 0.0949481 0.995339
  outer loop
   vertex -69.6941 -137.455 9.17299
   vertex -89.4852 -126.811 7.8215
   vertex -72.7701 -143.795 9.72557
  endloop
 endfacet
 facet normal 0.175599 0.000608605 0.984462
  outer loop
   vertex -69.6941 -137.455 9.17299
   vertex -72.7701 -143.795 9.72557
   vertex -69.3688 -142.822 9.11827
  endloop
 endfacet
 facet normal -0.0392872 0.364056 0.930548
  outer loop
   vertex -100.92 -124.838 6.87656
   vertex -97.7711 -129.809 8.95438
   vertex -100.151 -124.235 6.67333
  endloop
 endfacet
 facet normal -0.340317 0.660444 0.669327
  outer loop
   vertex -100.151 -124.235 6.67333
   vertex -100.252 -122.298 4.71013
   vertex -100.92 -124.838 6.87656
  endloop
 endfacet
 facet normal -0.0823607 0.0306196 0.996132
  outer loop
   vertex -72.7701 -143.795 9.72557
   vertex -89.4852 -126.811 7.8215
   vertex -74.4175 -145.401 9.63873
  endloop
 endfacet
 facet normal 0.0461423 0.409975 0.910929
  outer loop
   vertex -97.7711 -129.809 8.95438
   vertex -100.92 -124.838 6.87656
   vertex -101.561 -126.428 7.62491
  endloop
 endfacet
 facet normal 0.168073 0.229934 0.958583
  outer loop
   vertex -74.4175 -145.401 9.63873
   vertex -89.4852 -126.811 7.8215
   vertex -76.0462 -145.739 10.0054
  endloop
 endfacet
 facet normal 0.0578232 0.154848 0.986245
  outer loop
   vertex -76.0462 -145.739 10.0054
   vertex -89.4852 -126.811 7.8215
   vertex -78.9436 -146.229 10.2522
  endloop
 endfacet
 facet normal 0.0677839 0.43004 0.900262
  outer loop
   vertex -97.7711 -129.809 8.95438
   vertex -101.561 -126.428 7.62491
   vertex -101.546 -128.57 8.64706
  endloop
 endfacet
 facet normal 0.129224 -0.286434 0.949345
  outer loop
   vertex -78.1941 -147.157 9.87013
   vertex -76.0462 -145.739 10.0054
   vertex -78.9436 -146.229 10.2522
  endloop
 endfacet
 facet normal 0.00441662 0.253533 0.967317
  outer loop
   vertex -97.7711 -129.809 8.95438
   vertex -101.546 -128.57 8.64706
   vertex -102.343 -132.696 9.73196
  endloop
 endfacet
 facet normal -0.154092 0.039928 0.987249
  outer loop
   vertex -78.9436 -146.229 10.2522
   vertex -89.4852 -126.811 7.8215
   vertex -79.4117 -147.183 10.2177
  endloop
 endfacet
 facet normal -0.106577 0.412454 0.904723
  outer loop
   vertex -97.7711 -129.809 8.95438
   vertex -102.343 -132.696 9.73196
   vertex -102.003 -133.262 10.03
  endloop
 endfacet
 facet normal 0.0867598 0.133295 0.987272
  outer loop
   vertex -89.4852 -126.811 7.8215
   vertex -97.7711 -129.809 8.95438
   vertex -98.2586 -150.012 11.7249
  endloop
 endfacet
 facet normal 0.0564872 0.144136 0.987944
  outer loop
   vertex -79.4117 -147.183 10.2177
   vertex -89.4852 -126.811 7.8215
   vertex -84.1075 -148.301 10.6494
  endloop
 endfacet
 facet normal 0.0417468 0.134755 0.989999
  outer loop
   vertex -97.7711 -129.809 8.95438
   vertex -102.695 -134.783 9.83905
   vertex -98.2586 -150.012 11.7249
  endloop
 endfacet
 facet normal 0.0355986 0.152702 0.987631
  outer loop
   vertex -89.4852 -126.811 7.8215
   vertex -98.2586 -150.012 11.7249
   vertex -90.0672 -148.012 11.1205
  endloop
 endfacet
 facet normal 0.0945421 0.153097 0.983678
  outer loop
   vertex -84.1075 -148.301 10.6494
   vertex -89.4852 -126.811 7.8215
   vertex -87.8829 -148.331 11.0168
  endloop
 endfacet
 facet normal 0.0689174 0.151541 0.986045
  outer loop
   vertex -89.4852 -126.811 7.8215
   vertex -90.0672 -148.012 11.1205
   vertex -87.8829 -148.331 11.0168
  endloop
 endfacet
 facet normal 0.0962896 -0.214657 0.971931
  outer loop
   vertex -84.1075 -148.301 10.6494
   vertex -87.8829 -148.331 11.0168
   vertex -86.2921 -148.968 10.7187
  endloop
 endfacet
 facet normal -0.208645 -0.000230902 0.977991
  outer loop
   vertex -98.2586 -150.012 11.7249
   vertex -102.267 -137.337 10.8728
   vertex -102.971 -138.083 10.7223
  endloop
 endfacet
 facet normal -0.461475 0.265143 0.846605
  outer loop
   vertex -102.695 -134.783 9.83905
   vertex -102.971 -138.083 10.7223
   vertex -102.267 -137.337 10.8728
  endloop
 endfacet
 facet normal -0.0366869 -0.497655 0.866599
  outer loop
   vertex -86.2921 -148.968 10.7187
   vertex -87.8829 -148.331 11.0168
   vertex -87.8105 -149.621 10.2791
  endloop
 endfacet
 facet normal 0.0170517 -0.201664 0.979306
  outer loop
   vertex -87.8829 -148.331 11.0168
   vertex -90.0672 -148.012 11.1205
   vertex -89.2218 -149.902 10.7166
  endloop
 endfacet
 facet normal 0.138783 0.137261 0.980764
  outer loop
   vertex -98.2586 -150.012 11.7249
   vertex -102.971 -138.083 10.7223
   vertex -103.143 -143.865 11.5559
  endloop
 endfacet
 facet normal 0.131671 -0.150505 0.979802
  outer loop
   vertex -92.4773 -150.137 11.118
   vertex -89.2218 -149.902 10.7166
   vertex -90.0672 -148.012 11.1205
  endloop
 endfacet
 facet normal 0.113163 -0.12952 0.985098
  outer loop
   vertex -92.4773 -150.137 11.118
   vertex -90.0672 -148.012 11.1205
   vertex -93.6509 -150.298 11.2317
  endloop
 endfacet
 facet normal -0.271448 0.466636 0.841764
  outer loop
   vertex -93.6509 -150.298 11.2317
   vertex -90.0672 -148.012 11.1205
   vertex -94.8216 -150.681 11.0664
  endloop
 endfacet
 facet normal 0.133343 -0.257007 0.957166
  outer loop
   vertex -90.0672 -148.012 11.1205
   vertex -98.2586 -150.012 11.7249
   vertex -94.8216 -150.681 11.0664
  endloop
 endfacet
 facet normal -0.0919698 -0.0457436 0.994711
  outer loop
   vertex -98.2586 -150.012 11.7249
   vertex -103.143 -143.865 11.5559
   vertex -103.545 -146.134 11.4145
  endloop
 endfacet
 facet normal 0.167207 -0.105734 0.980236
  outer loop
   vertex -94.8216 -150.681 11.0664
   vertex -98.2586 -150.012 11.7249
   vertex -97.3585 -150.64 11.5036
  endloop
 endfacet
 facet normal 0.0418432 0.136268 0.989788
  outer loop
   vertex -98.2586 -150.012 11.7249
   vertex -103.545 -146.134 11.4145
   vertex -103.226 -150.288 11.9729
  endloop
 endfacet
 facet normal -0.0334284 -0.374376 0.926674
  outer loop
   vertex -97.3585 -150.64 11.5036
   vertex -98.2586 -150.012 11.7249
   vertex -98.4473 -151.076 11.2882
  endloop
 endfacet
 facet normal 0.120896 -0.395709 0.910384
  outer loop
   vertex -98.9573 -151.094 11.0557
   vertex -103.226 -150.288 11.9729
   vertex -103.234 -151.247 11.5571
  endloop
 endfacet
 facet normal 0.235746 0.163344 0.957989
  outer loop
   vertex -51.3821 -106.82 5.25632
   vertex -49.7395 -124.198 7.81518
   vertex -49.3056 -99.3794 3.47663
  endloop
 endfacet
 facet normal 0.0858033 0.0454214 0.995276
  outer loop
   vertex -96.3937 -76.1639 2.75946
   vertex -57.0667 -100.122 0.462441
   vertex -52.4834 -81.6409 -0.776125
  endloop
 endfacet
 facet normal -0.226368 0.432537 0.872736
  outer loop
   vertex -51.3821 -106.82 5.25632
   vertex -57.0667 -100.122 0.462441
   vertex -57.7718 -109.069 4.7138
  endloop
 endfacet
 facet normal -0.0139893 0.0725448 0.997267
  outer loop
   vertex -31.8933 -116.445 7.50155
   vertex -49.7395 -124.198 7.81518
   vertex -35.6082 -121.413 7.81079
  endloop
 endfacet
 facet normal -0.0179368 0.0372353 0.999146
  outer loop
   vertex -67.3846 -106.06 0.498478
   vertex -57.0667 -100.122 0.462441
   vertex -70.8082 -103.017 0.323627
  endloop
 endfacet
 facet normal 0.0599195 0.0247556 0.997896
  outer loop
   vertex -96.3937 -76.1639 2.75946
   vertex -101.257 -69.3538 2.88255
   vertex -100.316 -76.8817 3.0128
  endloop
 endfacet
 facet normal -0.245422 0.431767 0.867955
  outer loop
   vertex -57.0667 -100.122 0.462441
   vertex -67.3846 -106.06 0.498478
   vertex -57.7718 -109.069 4.7138
  endloop
 endfacet
 facet normal 0.00747448 -0.0832701 0.996499
  outer loop
   vertex -57.0667 -100.122 0.462441
   vertex -96.3937 -76.1639 2.75946
   vertex -70.8082 -103.017 0.323627
  endloop
 endfacet
 facet normal 0.0114673 -0.0565998 0.998331
  outer loop
   vertex -36.4864 -122.345 7.76801
   vertex -35.6082 -121.413 7.81079
   vertex -49.7395 -124.198 7.81518
  endloop
 endfacet
 facet normal -0.13004 0.132398 0.982629
  outer loop
   vertex -49.7395 -124.198 7.81518
   vertex -51.3821 -106.82 5.25632
   vertex -57.7718 -109.069 4.7138
  endloop
 endfacet
 facet normal 0.0698458 -0.477238 0.875994
  outer loop
   vertex -36.4864 -122.345 7.76801
   vertex -49.7395 -124.198 7.81518
   vertex -36.6099 -123.018 7.41129
  endloop
 endfacet
 facet normal -0.174403 0.284513 0.942675
  outer loop
   vertex -96.3937 -76.1639 2.75946
   vertex -100.749 -77.612 2.39082
   vertex -100.206 -79.2001 2.97061
  endloop
 endfacet
 facet normal -0.0636348 0.873254 0.483093
  outer loop
   vertex -36.6099 -123.018 7.41129
   vertex -49.7395 -124.198 7.81518
   vertex -37.1406 -123.291 7.83527
  endloop
 endfacet
 facet normal -0.0405983 0.0564122 0.997582
  outer loop
   vertex -96.3937 -76.1639 2.75946
   vertex -100.487 -79.9526 2.80712
   vertex -100.339 -80.9991 2.87232
  endloop
 endfacet
 facet normal 0.0256911 -0.377371 0.925706
  outer loop
   vertex -37.1406 -123.291 7.83527
   vertex -49.7395 -124.198 7.81518
   vertex -37.9578 -124.627 7.31333
  endloop
 endfacet
 facet normal 0.0546248 0.46897 0.881523
  outer loop
   vertex -49.7395 -124.198 7.81518
   vertex -39.1372 -125.525 7.86424
   vertex -37.9578 -124.627 7.31333
  endloop
 endfacet
 facet normal 0.0855536 -0.015927 0.996206
  outer loop
   vertex -92.971 -102.058 2.05154
   vertex -96.3937 -76.1639 2.75946
   vertex -99.6427 -86.1645 2.87859
  endloop
 endfacet
 facet normal 0.202247 0.281469 0.938015
  outer loop
   vertex -67.3846 -106.06 0.498478
   vertex -70.8082 -103.017 0.323627
   vertex -67.7487 -109.101 1.48959
  endloop
 endfacet
 facet normal 0.0232645 0.00435115 0.99972
  outer loop
   vertex -99.6427 -86.1645 2.87859
   vertex -96.3937 -76.1639 2.75946
   vertex -100.339 -80.9991 2.87232
  endloop
 endfacet
 facet normal 0.00226616 0.0550113 0.998483
  outer loop
   vertex -39.1372 -125.525 7.86424
   vertex -49.7395 -124.198 7.81518
   vertex -40.5127 -126.861 7.94096
  endloop
 endfacet
 facet normal -0.313896 0.373342 0.872974
  outer loop
   vertex -40.0475 -126.513 7.95921
   vertex -39.1372 -125.525 7.86424
   vertex -40.5127 -126.861 7.94096
  endloop
 endfacet
 facet normal 0.0286971 -0.0235273 0.999311
  outer loop
   vertex -96.3937 -76.1639 2.75946
   vertex -92.971 -102.058 2.05154
   vertex -74.7331 -111.581 1.30359
  endloop
 endfacet
 facet normal 0.00195804 0.0539465 0.998542
  outer loop
   vertex -40.5127 -126.861 7.94096
   vertex -49.7395 -124.198 7.81518
   vertex -41.4525 -127.581 7.98172
  endloop
 endfacet
 facet normal 0.143702 0.0472538 0.988492
  outer loop
   vertex -70.8082 -103.017 0.323627
   vertex -96.3937 -76.1639 2.75946
   vertex -74.7331 -111.581 1.30359
  endloop
 endfacet
 facet normal -0.291465 0.327748 0.898682
  outer loop
   vertex -57.7718 -109.069 4.7138
   vertex -67.3846 -106.06 0.498478
   vertex -67.7487 -109.101 1.48959
  endloop
 endfacet
 facet normal -0.00220442 0.0437755 0.999039
  outer loop
   vertex -41.4525 -127.581 7.98172
   vertex -49.7395 -124.198 7.81518
   vertex -42.7949 -128.883 8.03578
  endloop
 endfacet
 facet normal 0.0286192 -0.0399614 0.998791
  outer loop
   vertex -92.971 -102.058 2.05154
   vertex -99.6427 -86.1645 2.87859
   vertex -99.7106 -90.2974 2.71518
  endloop
 endfacet
 facet normal -0.241764 0.625326 0.741969
  outer loop
   vertex -57.7718 -109.069 4.7138
   vertex -67.7487 -109.101 1.48959
   vertex -74.7331 -111.581 1.30359
  endloop
 endfacet
 facet normal -0.240349 0.47002 0.849302
  outer loop
   vertex -57.7718 -109.069 4.7138
   vertex -74.7331 -111.581 1.30359
   vertex -73.0483 -116.269 4.37497
  endloop
 endfacet
 facet normal -0.065673 -0.0504264 0.996566
  outer loop
   vertex -42.7949 -128.883 8.03578
   vertex -49.7395 -124.198 7.81518
   vertex -44.0793 -130.195 7.88475
  endloop
 endfacet
 facet normal -0.014484 -0.620512 0.784063
  outer loop
   vertex -100.569 -90.8932 -1.18668
   vertex -100.169 -91.3533 -1.54343
   vertex -100.53 -90.4509 -0.835958
  endloop
 endfacet
 facet normal -0.0936506 -0.10951 0.989564
  outer loop
   vertex -92.971 -102.058 2.05154
   vertex -99.7106 -90.2974 2.71518
   vertex -100.001 -92.3211 2.4637
  endloop
 endfacet
 facet normal -0.0791748 0.149079 0.98565
  outer loop
   vertex -67.7487 -109.101 1.48959
   vertex -70.8082 -103.017 0.323627
   vertex -74.7331 -111.581 1.30359
  endloop
 endfacet
 facet normal -0.0614975 -0.0114251 0.998042
  outer loop
   vertex -44.3634 -130.245 8.07723
   vertex -49.7395 -124.198 7.81518
   vertex -46.6587 -132.254 7.9128
  endloop
 endfacet
 facet normal -0.0375153 0.18153 0.98267
  outer loop
   vertex -49.7395 -124.198 7.81518
   vertex -57.7718 -109.069 4.7138
   vertex -63.7498 -131.137 8.5622
  endloop
 endfacet
 facet normal 0.0656353 -0.00965402 0.997797
  outer loop
   vertex -92.971 -102.058 2.05154
   vertex -99.757 -92.8719 2.5868
   vertex -99.9709 -94.1591 2.58841
  endloop
 endfacet
 facet normal -0.360292 -0.0138948 0.932736
  outer loop
   vertex -99.5528 -94.6951 2.74193
   vertex -99.9709 -94.1591 2.58841
   vertex -99.7061 -96.7538 2.65207
  endloop
 endfacet
 facet normal -0.116365 0.201138 0.972627
  outer loop
   vertex -63.7498 -131.137 8.5622
   vertex -57.7718 -109.069 4.7138
   vertex -73.0483 -116.269 4.37497
  endloop
 endfacet
 facet normal 0.171497 0.0774896 0.982132
  outer loop
   vertex -46.6587 -132.254 7.9128
   vertex -49.7395 -124.198 7.81518
   vertex -47.4151 -132.729 8.0824
  endloop
 endfacet
 facet normal 0.0516345 -0.0473809 0.997541
  outer loop
   vertex -92.971 -102.058 2.05154
   vertex -99.5528 -94.6951 2.74193
   vertex -99.7061 -96.7538 2.65207
  endloop
 endfacet
 facet normal 0.0765012 -0.0157371 0.996945
  outer loop
   vertex -92.971 -102.058 2.05154
   vertex -99.7061 -96.7538 2.65207
   vertex -99.674 -99.5969 2.60474
  endloop
 endfacet
 facet normal 0.0744479 0.0514785 0.995895
  outer loop
   vertex -47.4151 -132.729 8.0824
   vertex -49.7395 -124.198 7.81518
   vertex -48.9722 -133.333 8.23002
  endloop
 endfacet
 facet normal 0.0295492 0.0478217 0.998419
  outer loop
   vertex -49.7395 -124.198 7.81518
   vertex -63.7498 -131.137 8.5622
   vertex -48.9722 -133.333 8.23002
  endloop
 endfacet
 facet normal -0.020722 0.0879876 0.995906
  outer loop
   vertex -35.5937 -103.3 6.26321
   vertex -49.7395 -124.198 7.81518
   vertex -31.8933 -116.445 7.50155
  endloop
 endfacet
 facet normal -0.395722 0.288247 0.871962
  outer loop
   vertex -57.0667 -100.122 0.462441
   vertex -51.3821 -106.82 5.25632
   vertex -55.3845 -95.1807 -0.407717
  endloop
 endfacet
 facet normal -0.148466 0.172808 0.973702
  outer loop
   vertex -49.3056 -99.3794 3.47663
   vertex -49.7395 -124.198 7.81518
   vertex -35.5937 -103.3 6.26321
  endloop
 endfacet
 facet normal -0.351052 0.309357 0.883776
  outer loop
   vertex -55.3845 -95.1807 -0.407717
   vertex -51.3821 -106.82 5.25632
   vertex -49.3056 -99.3794 3.47663
  endloop
 endfacet
 facet normal -0.0192729 0.0384174 0.999076
  outer loop
   vertex -101.45 -66.4045 3.1745
   vertex -100.831 -68.9212 3.28322
   vertex -91.5816 -57.0916 3.00677
  endloop
 endfacet
 facet normal 0.0684205 -0.0301938 0.9972
  outer loop
   vertex -100.831 -68.9212 3.28322
   vertex -96.3937 -76.1639 2.75946
   vertex -91.5816 -57.0916 3.00677
  endloop
 endfacet
 facet normal 0.0123431 0.097228 0.995186
  outer loop
   vertex -35.5937 -103.3 6.26321
   vertex -31.8933 -116.445 7.50155
   vertex -29.4273 -113.699 7.20267
  endloop
 endfacet
 facet normal 0.0548937 -0.0402015 0.997683
  outer loop
   vertex -101.45 -66.4045 3.1745
   vertex -91.5816 -57.0916 3.00677
   vertex -101.726 -58.5966 3.50428
  endloop
 endfacet
 facet normal -0.200305 0.0695084 0.977265
  outer loop
   vertex -52.4834 -81.6409 -0.776125
   vertex -55.3845 -95.1807 -0.407717
   vertex -52.7795 -95.349 0.138172
  endloop
 endfacet
 facet normal 0.0601256 -0.154554 0.986153
  outer loop
   vertex -96.3937 -76.1639 2.75946
   vertex -52.4834 -81.6409 -0.776125
   vertex -61.3421 -78.9825 0.180618
  endloop
 endfacet
 facet normal -0.0371354 0.0680502 0.996991
  outer loop
   vertex -35.5937 -103.3 6.26321
   vertex -29.4273 -113.699 7.20267
   vertex -28.7094 -112.874 7.17308
  endloop
 endfacet
 facet normal -0.135031 0.560443 0.817111
  outer loop
   vertex -55.3845 -95.1807 -0.407717
   vertex -49.3056 -99.3794 3.47663
   vertex -52.7795 -95.349 0.138172
  endloop
 endfacet
 facet normal 0.0361486 0.120282 0.992081
  outer loop
   vertex -35.5937 -103.3 6.26321
   vertex -28.7094 -112.874 7.17308
   vertex -28.271 -112.256 7.08218
  endloop
 endfacet
 facet normal -0.0403988 0.0581852 0.997488
  outer loop
   vertex -35.5937 -103.3 6.26321
   vertex -28.271 -112.256 7.08218
   vertex -27.7664 -112.162 7.09714
  endloop
 endfacet
 facet normal -0.0645991 0.0367856 0.997233
  outer loop
   vertex -35.5937 -103.3 6.26321
   vertex -27.7664 -112.162 7.09714
   vertex -27.3489 -111.565 7.10216
  endloop
 endfacet
 facet normal -0.364322 0.387442 0.846852
  outer loop
   vertex -49.3056 -99.3794 3.47663
   vertex -41.0664 -93.138 4.16574
   vertex -52.7795 -95.349 0.138172
  endloop
 endfacet
 facet normal -0.363995 0.376445 0.851937
  outer loop
   vertex -52.7795 -95.349 0.138172
   vertex -41.0664 -93.138 4.16574
   vertex -50.1248 -93.1451 0.298598
  endloop
 endfacet
 facet normal 0.00732034 0.108217 0.9941
  outer loop
   vertex -35.5937 -103.3 6.26321
   vertex -27.3489 -111.565 7.10216
   vertex -25.739 -109.902 6.90932
  endloop
 endfacet
 facet normal 0.0699783 -0.145444 0.986889
  outer loop
   vertex -101.726 -58.5966 3.50428
   vertex -91.5816 -57.0916 3.00677
   vertex -101.433 -55.5629 3.93061
  endloop
 endfacet
 facet normal -0.218237 0.193252 0.95657
  outer loop
   vertex -52.7795 -95.349 0.138172
   vertex -50.1248 -93.1451 0.298598
   vertex -52.2588 -90.9344 -0.634869
  endloop
 endfacet
 facet normal 0.0225512 0.130665 0.99117
  outer loop
   vertex -35.5937 -103.3 6.26321
   vertex -25.739 -109.902 6.90932
   vertex -25.4884 -109.576 6.86061
  endloop
 endfacet
 facet normal -0.392619 0.00932634 0.919654
  outer loop
   vertex -50.1248 -93.1451 0.298598
   vertex -41.0664 -93.138 4.16574
   vertex -52.2588 -90.9344 -0.634869
  endloop
 endfacet
 facet normal 0.0294641 0.141636 0.98948
  outer loop
   vertex -35.5937 -103.3 6.26321
   vertex -25.4884 -109.576 6.86061
   vertex -22.9983 -107.653 6.51119
  endloop
 endfacet
 facet normal 0.0842986 -0.0579106 0.994756
  outer loop
   vertex -101.433 -55.5629 3.93061
   vertex -91.5816 -57.0916 3.00677
   vertex -101.289 -53.5092 4.03798
  endloop
 endfacet
 facet normal -0.166968 0.112262 0.97955
  outer loop
   vertex -49.3056 -99.3794 3.47663
   vertex -35.5937 -103.3 6.26321
   vertex -41.0664 -93.138 4.16574
  endloop
 endfacet
 facet normal -0.158797 0.0111673 0.987248
  outer loop
   vertex -52.4834 -81.6409 -0.776125
   vertex -52.2588 -90.9344 -0.634869
   vertex -47.4639 -89.4278 0.11934
  endloop
 endfacet
 facet normal 0.120202 0.0401945 0.991935
  outer loop
   vertex -101.289 -53.5092 4.03798
   vertex -91.5816 -57.0916 3.00677
   vertex -101.691 -51.7019 4.0134
  endloop
 endfacet
 facet normal -0.300208 0.898725 0.319638
  outer loop
   vertex -56.361 -86.6269 -8.42906
   vertex -64.7537 -90.3348 -5.88606
   vertex -55.1276 -86.2542 -8.31855
  endloop
 endfacet
 facet normal -0.347911 0.218895 0.911616
  outer loop
   vertex -41.882 -88.5999 2.76478
   vertex -52.2588 -90.9344 -0.634869
   vertex -41.0664 -93.138 4.16574
  endloop
 endfacet
 facet normal 0.259117 0.327111 0.908767
  outer loop
   vertex -35.5937 -103.3 6.26321
   vertex -41.882 -88.5999 2.76478
   vertex -41.0664 -93.138 4.16574
  endloop
 endfacet
 facet normal 0.0905532 -0.0793971 0.992722
  outer loop
   vertex -101.691 -51.7019 4.0134
   vertex -90.7369 -46.6944 3.4147
   vertex -101.566 -50.6865 4.08321
  endloop
 endfacet
 facet normal -0.331462 0.835726 0.437829
  outer loop
   vertex -52.2588 -90.9344 -0.634869
   vertex -41.882 -88.5999 2.76478
   vertex -47.4639 -89.4278 0.11934
  endloop
 endfacet
 facet normal -0.0241396 -0.0129029 0.999625
  outer loop
   vertex -22.9983 -107.653 6.51119
   vertex -22.0663 -106.069 6.55414
   vertex -35.5937 -103.3 6.26321
  endloop
 endfacet
 facet normal 0.0751014 -0.0451858 0.996152
  outer loop
   vertex -91.5816 -57.0916 3.00677
   vertex -90.7369 -46.6944 3.4147
   vertex -101.691 -51.7019 4.0134
  endloop
 endfacet
 facet normal 0.121831 0.671915 0.730539
  outer loop
   vertex -35.5937 -103.3 6.26321
   vertex -22.0663 -106.069 6.55414
   vertex -21.37 -105.736 6.13122
  endloop
 endfacet
 facet normal 0.0736488 -0.0328685 0.996742
  outer loop
   vertex -90.7369 -46.6944 3.4147
   vertex -101.83 -48.9189 4.16104
   vertex -101.566 -50.6865 4.08321
  endloop
 endfacet
 facet normal -0.0964905 0.812241 -0.575286
  outer loop
   vertex -37.7004 -122.841 4.7225
   vertex -38.3147 -123.209 4.30615
   vertex -46.6845 -124.24 4.25384
  endloop
 endfacet
endsolid
