solid ascii
 facet normal 0.221582 0.0917822 0.970813
  outer loop
   vertex 0.216942 0 1.45048
   vertex 0.153401 0.153401 1.45048
   vertex 0 0 1.5
  endloop
 endfacet
 facet normal 0.0917822 0.221582 0.970813
  outer loop
   vertex 0.153401 0.153401 1.45048
   vertex 1.32839e-017 0.216942 1.45048
   vertex 0 0 1.5
  endloop
 endfacet
 facet normal -0.0917822 0.221582 0.970813
  outer loop
   vertex 1.32839e-017 0.216942 1.45048
   vertex -0.153401 0.153401 1.45048
   vertex 0 0 1.5
  endloop
 endfacet
 facet normal -0.221582 0.0917822 0.970813
  outer loop
   vertex -0.153401 0.153401 1.45048
   vertex -0.216942 2.65677e-017 1.45048
   vertex 0 0 1.5
  endloop
 endfacet
 facet normal -0.221582 -0.0917822 0.970813
  outer loop
   vertex -0.216942 2.65677e-017 1.45048
   vertex -0.153401 -0.153401 1.45048
   vertex 0 0 1.5
  endloop
 endfacet
 facet normal -0.0917822 -0.221582 0.970813
  outer loop
   vertex -0.153401 -0.153401 1.45048
   vertex -3.98516e-017 -0.216942 1.45048
   vertex 0 0 1.5
  endloop
 endfacet
 facet normal 0.0917822 -0.221582 0.970813
  outer loop
   vertex -3.98516e-017 -0.216942 1.45048
   vertex 0.153401 -0.153401 1.45048
   vertex 0 0 1.5
  endloop
 endfacet
 facet normal 0.221582 -0.0917822 0.970813
  outer loop
   vertex 0.153401 -0.153401 1.45048
   vertex 0.216942 0 1.45048
   vertex 0 0 1.5
  endloop
 endfacet
 facet normal 0.221582 0.0917821 -0.970813
  outer loop
   vertex 0.216942 0 0.549516
   vertex 0 0 0.5
   vertex 0.153401 0.153401 0.549516
  endloop
 endfacet
 facet normal 0.0917821 0.221582 -0.970813
  outer loop
   vertex 0.153401 0.153401 0.549516
   vertex 0 0 0.5
   vertex 1.32839e-017 0.216942 0.549516
  endloop
 endfacet
 facet normal -0.0917821 0.221582 -0.970813
  outer loop
   vertex 1.32839e-017 0.216942 0.549516
   vertex 0 0 0.5
   vertex -0.153401 0.153401 0.549516
  endloop
 endfacet
 facet normal -0.221582 0.0917821 -0.970813
  outer loop
   vertex -0.153401 0.153401 0.549516
   vertex 0 0 0.5
   vertex -0.216942 2.65677e-017 0.549516
  endloop
 endfacet
 facet normal -0.221582 -0.0917821 -0.970813
  outer loop
   vertex -0.216942 2.65677e-017 0.549516
   vertex 0 0 0.5
   vertex -0.153401 -0.153401 0.549516
  endloop
 endfacet
 facet normal -0.0917821 -0.221582 -0.970813
  outer loop
   vertex -0.153401 -0.153401 0.549516
   vertex 0 0 0.5
   vertex -3.98516e-017 -0.216942 0.549516
  endloop
 endfacet
 facet normal 0.0917821 -0.221582 -0.970813
  outer loop
   vertex -3.98516e-017 -0.216942 0.549516
   vertex 0 0 0.5
   vertex 0.153401 -0.153401 0.549516
  endloop
 endfacet
 facet normal 0.221582 -0.0917821 -0.970813
  outer loop
   vertex 0.153401 -0.153401 0.549516
   vertex 0 0 0.5
   vertex 0.216942 0 0.549516
  endloop
 endfacet
 facet normal 0.603683 0.250054 0.756994
  outer loop
   vertex 0.216942 0 1.45048
   vertex 0.390916 0 1.31174
   vertex 0.276419 0.276419 1.31174
  endloop
 endfacet
 facet normal 0.603683 0.250054 0.756994
  outer loop
   vertex 0.216942 0 1.45048
   vertex 0.276419 0.276419 1.31174
   vertex 0.153401 0.153401 1.45048
  endloop
 endfacet
 facet normal 0.844104 0.349639 0.406499
  outer loop
   vertex 0.390916 0 1.31174
   vertex 0.487464 0 1.11126
   vertex 0.344689 0.344689 1.11126
  endloop
 endfacet
 facet normal 0.844104 0.349639 0.406499
  outer loop
   vertex 0.390916 0 1.31174
   vertex 0.344689 0.344689 1.11126
   vertex 0.276419 0.276419 1.31174
  endloop
 endfacet
 facet normal 0.92388 0.382683 -0
  outer loop
   vertex 0.487464 0 1.11126
   vertex 0.487464 0 0.88874
   vertex 0.344689 0.344689 0.88874
  endloop
 endfacet
 facet normal 0.92388 0.382683 -0
  outer loop
   vertex 0.487464 0 1.11126
   vertex 0.344689 0.344689 0.88874
   vertex 0.344689 0.344689 1.11126
  endloop
 endfacet
 facet normal 0.844104 0.349639 -0.406499
  outer loop
   vertex 0.487464 0 0.88874
   vertex 0.390916 0 0.688255
   vertex 0.276419 0.276419 0.688255
  endloop
 endfacet
 facet normal 0.844104 0.349639 -0.406499
  outer loop
   vertex 0.487464 0 0.88874
   vertex 0.276419 0.276419 0.688255
   vertex 0.344689 0.344689 0.88874
  endloop
 endfacet
 facet normal 0.603683 0.250054 -0.756994
  outer loop
   vertex 0.390916 0 0.688255
   vertex 0.216942 0 0.549516
   vertex 0.153401 0.153401 0.549516
  endloop
 endfacet
 facet normal 0.603683 0.250054 -0.756994
  outer loop
   vertex 0.390916 0 0.688255
   vertex 0.153401 0.153401 0.549516
   vertex 0.276419 0.276419 0.688255
  endloop
 endfacet
 facet normal 0.250054 0.603683 0.756994
  outer loop
   vertex 0.153401 0.153401 1.45048
   vertex 0.276419 0.276419 1.31174
   vertex 2.39367e-017 0.390916 1.31174
  endloop
 endfacet
 facet normal 0.250054 0.603683 0.756994
  outer loop
   vertex 0.153401 0.153401 1.45048
   vertex 2.39367e-017 0.390916 1.31174
   vertex 1.32839e-017 0.216942 1.45048
  endloop
 endfacet
 facet normal 0.349639 0.844104 0.406499
  outer loop
   vertex 0.276419 0.276419 1.31174
   vertex 0.344689 0.344689 1.11126
   vertex 2.98486e-017 0.487464 1.11126
  endloop
 endfacet
 facet normal 0.349639 0.844104 0.406499
  outer loop
   vertex 0.276419 0.276419 1.31174
   vertex 2.98486e-017 0.487464 1.11126
   vertex 2.39367e-017 0.390916 1.31174
  endloop
 endfacet
 facet normal 0.382683 0.92388 -0
  outer loop
   vertex 0.344689 0.344689 1.11126
   vertex 0.344689 0.344689 0.88874
   vertex 2.98486e-017 0.487464 0.88874
  endloop
 endfacet
 facet normal 0.382683 0.92388 -0
  outer loop
   vertex 0.344689 0.344689 1.11126
   vertex 2.98486e-017 0.487464 0.88874
   vertex 2.98486e-017 0.487464 1.11126
  endloop
 endfacet
 facet normal 0.349639 0.844104 -0.406499
  outer loop
   vertex 0.344689 0.344689 0.88874
   vertex 0.276419 0.276419 0.688255
   vertex 2.39367e-017 0.390916 0.688255
  endloop
 endfacet
 facet normal 0.349639 0.844104 -0.406499
  outer loop
   vertex 0.344689 0.344689 0.88874
   vertex 2.39367e-017 0.390916 0.688255
   vertex 2.98486e-017 0.487464 0.88874
  endloop
 endfacet
 facet normal 0.250054 0.603683 -0.756994
  outer loop
   vertex 0.276419 0.276419 0.688255
   vertex 0.153401 0.153401 0.549516
   vertex 1.32839e-017 0.216942 0.549516
  endloop
 endfacet
 facet normal 0.250054 0.603683 -0.756994
  outer loop
   vertex 0.276419 0.276419 0.688255
   vertex 1.32839e-017 0.216942 0.549516
   vertex 2.39367e-017 0.390916 0.688255
  endloop
 endfacet
 facet normal -0.250054 0.603683 0.756994
  outer loop
   vertex 1.32839e-017 0.216942 1.45048
   vertex 2.39367e-017 0.390916 1.31174
   vertex -0.276419 0.276419 1.31174
  endloop
 endfacet
 facet normal -0.250054 0.603683 0.756994
  outer loop
   vertex 1.32839e-017 0.216942 1.45048
   vertex -0.276419 0.276419 1.31174
   vertex -0.153401 0.153401 1.45048
  endloop
 endfacet
 facet normal -0.349639 0.844104 0.406499
  outer loop
   vertex 2.39367e-017 0.390916 1.31174
   vertex 2.98486e-017 0.487464 1.11126
   vertex -0.344689 0.344689 1.11126
  endloop
 endfacet
 facet normal -0.349639 0.844104 0.406499
  outer loop
   vertex 2.39367e-017 0.390916 1.31174
   vertex -0.344689 0.344689 1.11126
   vertex -0.276419 0.276419 1.31174
  endloop
 endfacet
 facet normal -0.382683 0.92388 0
  outer loop
   vertex 2.98486e-017 0.487464 1.11126
   vertex 2.98486e-017 0.487464 0.88874
   vertex -0.344689 0.344689 0.88874
  endloop
 endfacet
 facet normal -0.382683 0.92388 0
  outer loop
   vertex 2.98486e-017 0.487464 1.11126
   vertex -0.344689 0.344689 0.88874
   vertex -0.344689 0.344689 1.11126
  endloop
 endfacet
 facet normal -0.349639 0.844104 -0.406499
  outer loop
   vertex 2.98486e-017 0.487464 0.88874
   vertex 2.39367e-017 0.390916 0.688255
   vertex -0.276419 0.276419 0.688255
  endloop
 endfacet
 facet normal -0.349639 0.844104 -0.406499
  outer loop
   vertex 2.98486e-017 0.487464 0.88874
   vertex -0.276419 0.276419 0.688255
   vertex -0.344689 0.344689 0.88874
  endloop
 endfacet
 facet normal -0.250054 0.603683 -0.756994
  outer loop
   vertex 2.39367e-017 0.390916 0.688255
   vertex 1.32839e-017 0.216942 0.549516
   vertex -0.153401 0.153401 0.549516
  endloop
 endfacet
 facet normal -0.250054 0.603683 -0.756994
  outer loop
   vertex 2.39367e-017 0.390916 0.688255
   vertex -0.153401 0.153401 0.549516
   vertex -0.276419 0.276419 0.688255
  endloop
 endfacet
 facet normal -0.603683 0.250054 0.756994
  outer loop
   vertex -0.153401 0.153401 1.45048
   vertex -0.276419 0.276419 1.31174
   vertex -0.390916 4.78734e-017 1.31174
  endloop
 endfacet
 facet normal -0.603683 0.250054 0.756994
  outer loop
   vertex -0.153401 0.153401 1.45048
   vertex -0.390916 4.78734e-017 1.31174
   vertex -0.216942 2.65677e-017 1.45048
  endloop
 endfacet
 facet normal -0.844104 0.349639 0.406499
  outer loop
   vertex -0.276419 0.276419 1.31174
   vertex -0.344689 0.344689 1.11126
   vertex -0.487464 5.96971e-017 1.11126
  endloop
 endfacet
 facet normal -0.844104 0.349639 0.406499
  outer loop
   vertex -0.276419 0.276419 1.31174
   vertex -0.487464 5.96971e-017 1.11126
   vertex -0.390916 4.78734e-017 1.31174
  endloop
 endfacet
 facet normal -0.92388 0.382683 0
  outer loop
   vertex -0.344689 0.344689 1.11126
   vertex -0.344689 0.344689 0.88874
   vertex -0.487464 5.96971e-017 0.88874
  endloop
 endfacet
 facet normal -0.92388 0.382683 0
  outer loop
   vertex -0.344689 0.344689 1.11126
   vertex -0.487464 5.96971e-017 0.88874
   vertex -0.487464 5.96971e-017 1.11126
  endloop
 endfacet
 facet normal -0.844104 0.349639 -0.406499
  outer loop
   vertex -0.344689 0.344689 0.88874
   vertex -0.276419 0.276419 0.688255
   vertex -0.390916 4.78734e-017 0.688255
  endloop
 endfacet
 facet normal -0.844104 0.349639 -0.406499
  outer loop
   vertex -0.344689 0.344689 0.88874
   vertex -0.390916 4.78734e-017 0.688255
   vertex -0.487464 5.96971e-017 0.88874
  endloop
 endfacet
 facet normal -0.603683 0.250054 -0.756994
  outer loop
   vertex -0.276419 0.276419 0.688255
   vertex -0.153401 0.153401 0.549516
   vertex -0.216942 2.65677e-017 0.549516
  endloop
 endfacet
 facet normal -0.603683 0.250054 -0.756994
  outer loop
   vertex -0.276419 0.276419 0.688255
   vertex -0.216942 2.65677e-017 0.549516
   vertex -0.390916 4.78734e-017 0.688255
  endloop
 endfacet
 facet normal -0.603683 -0.250054 0.756994
  outer loop
   vertex -0.216942 2.65677e-017 1.45048
   vertex -0.390916 4.78734e-017 1.31174
   vertex -0.276419 -0.276419 1.31174
  endloop
 endfacet
 facet normal -0.603683 -0.250054 0.756994
  outer loop
   vertex -0.216942 2.65677e-017 1.45048
   vertex -0.276419 -0.276419 1.31174
   vertex -0.153401 -0.153401 1.45048
  endloop
 endfacet
 facet normal -0.844104 -0.349639 0.406499
  outer loop
   vertex -0.390916 4.78734e-017 1.31174
   vertex -0.487464 5.96971e-017 1.11126
   vertex -0.344689 -0.344689 1.11126
  endloop
 endfacet
 facet normal -0.844104 -0.349639 0.406499
  outer loop
   vertex -0.390916 4.78734e-017 1.31174
   vertex -0.344689 -0.344689 1.11126
   vertex -0.276419 -0.276419 1.31174
  endloop
 endfacet
 facet normal -0.92388 -0.382683 0
  outer loop
   vertex -0.487464 5.96971e-017 1.11126
   vertex -0.487464 5.96971e-017 0.88874
   vertex -0.344689 -0.344689 0.88874
  endloop
 endfacet
 facet normal -0.92388 -0.382683 0
  outer loop
   vertex -0.487464 5.96971e-017 1.11126
   vertex -0.344689 -0.344689 0.88874
   vertex -0.344689 -0.344689 1.11126
  endloop
 endfacet
 facet normal -0.844104 -0.349639 -0.406499
  outer loop
   vertex -0.487464 5.96971e-017 0.88874
   vertex -0.390916 4.78734e-017 0.688255
   vertex -0.276419 -0.276419 0.688255
  endloop
 endfacet
 facet normal -0.844104 -0.349639 -0.406499
  outer loop
   vertex -0.487464 5.96971e-017 0.88874
   vertex -0.276419 -0.276419 0.688255
   vertex -0.344689 -0.344689 0.88874
  endloop
 endfacet
 facet normal -0.603683 -0.250054 -0.756994
  outer loop
   vertex -0.390916 4.78734e-017 0.688255
   vertex -0.216942 2.65677e-017 0.549516
   vertex -0.153401 -0.153401 0.549516
  endloop
 endfacet
 facet normal -0.603683 -0.250054 -0.756994
  outer loop
   vertex -0.390916 4.78734e-017 0.688255
   vertex -0.153401 -0.153401 0.549516
   vertex -0.276419 -0.276419 0.688255
  endloop
 endfacet
 facet normal -0.250054 -0.603683 0.756994
  outer loop
   vertex -0.153401 -0.153401 1.45048
   vertex -0.276419 -0.276419 1.31174
   vertex -7.18101e-017 -0.390916 1.31174
  endloop
 endfacet
 facet normal -0.250054 -0.603683 0.756994
  outer loop
   vertex -0.153401 -0.153401 1.45048
   vertex -7.18101e-017 -0.390916 1.31174
   vertex -3.98516e-017 -0.216942 1.45048
  endloop
 endfacet
 facet normal -0.349639 -0.844104 0.406499
  outer loop
   vertex -0.276419 -0.276419 1.31174
   vertex -0.344689 -0.344689 1.11126
   vertex -8.95457e-017 -0.487464 1.11126
  endloop
 endfacet
 facet normal -0.349639 -0.844104 0.406499
  outer loop
   vertex -0.276419 -0.276419 1.31174
   vertex -8.95457e-017 -0.487464 1.11126
   vertex -7.18101e-017 -0.390916 1.31174
  endloop
 endfacet
 facet normal -0.382683 -0.92388 0
  outer loop
   vertex -0.344689 -0.344689 1.11126
   vertex -0.344689 -0.344689 0.88874
   vertex -8.95457e-017 -0.487464 0.88874
  endloop
 endfacet
 facet normal -0.382683 -0.92388 0
  outer loop
   vertex -0.344689 -0.344689 1.11126
   vertex -8.95457e-017 -0.487464 0.88874
   vertex -8.95457e-017 -0.487464 1.11126
  endloop
 endfacet
 facet normal -0.349639 -0.844104 -0.406499
  outer loop
   vertex -0.344689 -0.344689 0.88874
   vertex -0.276419 -0.276419 0.688255
   vertex -7.18101e-017 -0.390916 0.688255
  endloop
 endfacet
 facet normal -0.349639 -0.844104 -0.406499
  outer loop
   vertex -0.344689 -0.344689 0.88874
   vertex -7.18101e-017 -0.390916 0.688255
   vertex -8.95457e-017 -0.487464 0.88874
  endloop
 endfacet
 facet normal -0.250054 -0.603683 -0.756994
  outer loop
   vertex -0.276419 -0.276419 0.688255
   vertex -0.153401 -0.153401 0.549516
   vertex -3.98516e-017 -0.216942 0.549516
  endloop
 endfacet
 facet normal -0.250054 -0.603683 -0.756994
  outer loop
   vertex -0.276419 -0.276419 0.688255
   vertex -3.98516e-017 -0.216942 0.549516
   vertex -7.18101e-017 -0.390916 0.688255
  endloop
 endfacet
 facet normal 0.250054 -0.603683 0.756994
  outer loop
   vertex -3.98516e-017 -0.216942 1.45048
   vertex -7.18101e-017 -0.390916 1.31174
   vertex 0.276419 -0.276419 1.31174
  endloop
 endfacet
 facet normal 0.250054 -0.603683 0.756994
  outer loop
   vertex -3.98516e-017 -0.216942 1.45048
   vertex 0.276419 -0.276419 1.31174
   vertex 0.153401 -0.153401 1.45048
  endloop
 endfacet
 facet normal 0.349639 -0.844104 0.406499
  outer loop
   vertex -7.18101e-017 -0.390916 1.31174
   vertex -8.95457e-017 -0.487464 1.11126
   vertex 0.344689 -0.344689 1.11126
  endloop
 endfacet
 facet normal 0.349639 -0.844104 0.406499
  outer loop
   vertex -7.18101e-017 -0.390916 1.31174
   vertex 0.344689 -0.344689 1.11126
   vertex 0.276419 -0.276419 1.31174
  endloop
 endfacet
 facet normal 0.382683 -0.92388 0
  outer loop
   vertex -8.95457e-017 -0.487464 1.11126
   vertex -8.95457e-017 -0.487464 0.88874
   vertex 0.344689 -0.344689 0.88874
  endloop
 endfacet
 facet normal 0.382683 -0.92388 0
  outer loop
   vertex -8.95457e-017 -0.487464 1.11126
   vertex 0.344689 -0.344689 0.88874
   vertex 0.344689 -0.344689 1.11126
  endloop
 endfacet
 facet normal 0.349639 -0.844104 -0.406499
  outer loop
   vertex -8.95457e-017 -0.487464 0.88874
   vertex -7.18101e-017 -0.390916 0.688255
   vertex 0.276419 -0.276419 0.688255
  endloop
 endfacet
 facet normal 0.349639 -0.844104 -0.406499
  outer loop
   vertex -8.95457e-017 -0.487464 0.88874
   vertex 0.276419 -0.276419 0.688255
   vertex 0.344689 -0.344689 0.88874
  endloop
 endfacet
 facet normal 0.250054 -0.603683 -0.756994
  outer loop
   vertex -7.18101e-017 -0.390916 0.688255
   vertex -3.98516e-017 -0.216942 0.549516
   vertex 0.153401 -0.153401 0.549516
  endloop
 endfacet
 facet normal 0.250054 -0.603683 -0.756994
  outer loop
   vertex -7.18101e-017 -0.390916 0.688255
   vertex 0.153401 -0.153401 0.549516
   vertex 0.276419 -0.276419 0.688255
  endloop
 endfacet
 facet normal 0.603683 -0.250054 0.756994
  outer loop
   vertex 0.153401 -0.153401 1.45048
   vertex 0.276419 -0.276419 1.31174
   vertex 0.390916 0 1.31174
  endloop
 endfacet
 facet normal 0.603683 -0.250054 0.756994
  outer loop
   vertex 0.153401 -0.153401 1.45048
   vertex 0.390916 0 1.31174
   vertex 0.216942 0 1.45048
  endloop
 endfacet
 facet normal 0.844104 -0.349639 0.406499
  outer loop
   vertex 0.276419 -0.276419 1.31174
   vertex 0.344689 -0.344689 1.11126
   vertex 0.487464 0 1.11126
  endloop
 endfacet
 facet normal 0.844104 -0.349639 0.406499
  outer loop
   vertex 0.276419 -0.276419 1.31174
   vertex 0.487464 0 1.11126
   vertex 0.390916 0 1.31174
  endloop
 endfacet
 facet normal 0.92388 -0.382683 0
  outer loop
   vertex 0.344689 -0.344689 1.11126
   vertex 0.344689 -0.344689 0.88874
   vertex 0.487464 0 0.88874
  endloop
 endfacet
 facet normal 0.92388 -0.382683 0
  outer loop
   vertex 0.344689 -0.344689 1.11126
   vertex 0.487464 0 0.88874
   vertex 0.487464 0 1.11126
  endloop
 endfacet
 facet normal 0.844104 -0.349639 -0.406499
  outer loop
   vertex 0.344689 -0.344689 0.88874
   vertex 0.276419 -0.276419 0.688255
   vertex 0.390916 0 0.688255
  endloop
 endfacet
 facet normal 0.844104 -0.349639 -0.406499
  outer loop
   vertex 0.344689 -0.344689 0.88874
   vertex 0.390916 0 0.688255
   vertex 0.487464 0 0.88874
  endloop
 endfacet
 facet normal 0.603683 -0.250054 -0.756994
  outer loop
   vertex 0.276419 -0.276419 0.688255
   vertex 0.153401 -0.153401 0.549516
   vertex 0.216942 0 0.549516
  endloop
 endfacet
 facet normal 0.603683 -0.250054 -0.756994
  outer loop
   vertex 0.276419 -0.276419 0.688255
   vertex 0.216942 0 0.549516
   vertex 0.390916 0 0.688255
  endloop
 endfacet
endsolid
