solid ascii
 facet normal 0.866458 -0.15727 -0.473833
  outer loop
   vertex -86.6424 139.283 -3.61268
   vertex -89.1815 135.152 -6.88458
   vertex -88.7545 136.62 -6.59113
  endloop
 endfacet
 facet normal 0.0308885 0.264997 -0.963754
  outer loop
   vertex -76.0133 170.855 11.5524
   vertex -80.2932 162.671 9.16511
   vertex -81.4946 170.167 11.1877
  endloop
 endfacet
 facet normal -0.00674605 -0.124558 -0.992189
  outer loop
   vertex -74.1141 102.732 -5.49633
   vertex -98.0112 104.273 -5.52731
   vertex -98.6447 105.94 -5.73221
  endloop
 endfacet
 facet normal 0.135717 0.156061 -0.978379
  outer loop
   vertex -88.7545 136.62 -6.59113
   vertex -89.1815 135.152 -6.88458
   vertex -90.1133 136.123 -6.85891
  endloop
 endfacet
 facet normal -0.0862456 -0.359779 -0.929043
  outer loop
   vertex -89.1815 135.152 -6.88458
   vertex -89.3666 129.186 -4.55712
   vertex -92.6696 131.155 -5.01293
  endloop
 endfacet
 facet normal 0.468099 -0.041003 -0.882724
  outer loop
   vertex -86.6424 139.283 -3.61268
   vertex -88.5837 138.201 -4.59191
   vertex -82.4476 142.471 -1.53636
  endloop
 endfacet
 facet normal 0.0923354 0.650741 -0.753664
  outer loop
   vertex -74.1141 102.732 -5.49633
   vertex -98.6447 105.94 -5.73221
   vertex -99.8531 106.786 -5.14911
  endloop
 endfacet
 facet normal -0.254346 -0.219127 -0.941962
  outer loop
   vertex -90.1133 136.123 -6.85891
   vertex -89.1815 135.152 -6.88458
   vertex -92.6696 131.155 -5.01293
  endloop
 endfacet
 facet normal -0.0670406 -0.345445 -0.936041
  outer loop
   vertex -74.1141 102.732 -5.49633
   vertex -99.8531 106.786 -5.14911
   vertex -100.157 108.183 -5.64282
  endloop
 endfacet
 facet normal -0.01183 0.540554 -0.841226
  outer loop
   vertex -76.0133 170.855 11.5524
   vertex -81.4946 170.167 11.1877
   vertex -81.0009 172.437 12.6391
  endloop
 endfacet
 facet normal -0.020664 0.656606 -0.753951
  outer loop
   vertex -89.354 148.164 3.611
   vertex -82.4476 142.471 -1.53636
   vertex -98.5015 148.107 3.81159
  endloop
 endfacet
 facet normal -0.0426167 0.621174 -0.782513
  outer loop
   vertex -98.5015 148.107 3.81159
   vertex -82.4476 142.471 -1.53636
   vertex -88.5837 138.201 -4.59191
  endloop
 endfacet
 facet normal 0.0188265 0.0631308 -0.997828
  outer loop
   vertex -74.1141 102.732 -5.49633
   vertex -100.157 108.183 -5.64282
   vertex -102.071 110.756 -5.51613
  endloop
 endfacet
 facet normal -0.43559 -0.281884 -0.85487
  outer loop
   vertex -100.157 108.183 -5.64282
   vertex -101.492 109.233 -5.30867
   vertex -102.071 110.756 -5.51613
  endloop
 endfacet
 facet normal 0.236023 0.486588 -0.841145
  outer loop
   vertex -83.3306 172.328 11.9222
   vertex -81.0009 172.437 12.6391
   vertex -81.4946 170.167 11.1877
  endloop
 endfacet
 facet normal -0.0173623 0.366938 -0.930083
  outer loop
   vertex -80.2932 162.671 9.16511
   vertex -89.354 148.164 3.611
   vertex -100.312 159.407 8.25088
  endloop
 endfacet
 facet normal 0.0864291 -0.385767 -0.918539
  outer loop
   vertex -90.1133 136.123 -6.85891
   vertex -92.6696 131.155 -5.01293
   vertex -98.3276 134.82 -7.08474
  endloop
 endfacet
 facet normal 0.0139461 0.0461244 -0.998838
  outer loop
   vertex -74.1141 102.732 -5.49633
   vertex -102.071 110.756 -5.51613
   vertex -103.419 113.192 -5.42247
  endloop
 endfacet
 facet normal 0.0341332 0.666193 -0.744998
  outer loop
   vertex -98.5015 148.107 3.81159
   vertex -88.5837 138.201 -4.59191
   vertex -99.6427 142.307 -1.42737
  endloop
 endfacet
 facet normal 0.0158496 0.0514551 -0.99855
  outer loop
   vertex -103.879 114.25 -5.37528
   vertex -74.1141 102.732 -5.49633
   vertex -103.419 113.192 -5.42247
  endloop
 endfacet
 facet normal 0.106448 -0.359647 -0.926997
  outer loop
   vertex -98.3276 134.82 -7.08474
   vertex -92.6696 131.155 -5.01293
   vertex -103.598 127.853 -4.98687
  endloop
 endfacet
 facet normal -0.0539012 0.195975 -0.979126
  outer loop
   vertex -83.7326 172.007 11.6792
   vertex -81.4946 170.167 11.1877
   vertex -85.0661 172.243 11.7998
  endloop
 endfacet
 facet normal 0.0408822 0.34666 -0.9371
  outer loop
   vertex -85.0661 172.243 11.7998
   vertex -81.4946 170.167 11.1877
   vertex -87.081 172.047 11.6394
  endloop
 endfacet
 facet normal -0.00479297 0.602355 -0.798214
  outer loop
   vertex -88.5837 138.201 -4.59191
   vertex -98.3276 134.82 -7.08474
   vertex -99.6427 142.307 -1.42737
  endloop
 endfacet
 facet normal 0.0101404 0.262011 -0.965012
  outer loop
   vertex -81.4946 170.167 11.1877
   vertex -80.2932 162.671 9.16511
   vertex -87.081 172.047 11.6394
  endloop
 endfacet
 facet normal -0.175894 0.224159 -0.958548
  outer loop
   vertex -100.312 159.407 8.25088
   vertex -89.354 148.164 3.611
   vertex -96.8096 154.514 6.46406
  endloop
 endfacet
 facet normal -0.00628285 0.0129041 -0.999897
  outer loop
   vertex -92.6696 131.155 -5.01293
   vertex -74.1141 102.732 -5.49633
   vertex -103.598 127.853 -4.98687
  endloop
 endfacet
 facet normal -0.0226469 0.387488 -0.921597
  outer loop
   vertex -89.354 148.164 3.611
   vertex -98.5015 148.107 3.81159
   vertex -96.8096 154.514 6.46406
  endloop
 endfacet
 facet normal -0.254707 -0.597064 -0.760683
  outer loop
   vertex -74.1141 102.732 -5.49633
   vertex -104.571 114.578 -4.59588
   vertex -104.767 114.962 -4.83231
  endloop
 endfacet
 facet normal -0.286599 -0.681749 -0.673111
  outer loop
   vertex -74.1141 102.732 -5.49633
   vertex -104.767 114.962 -4.83231
   vertex -104.352 115.293 -5.34334
  endloop
 endfacet
 facet normal 0.0119023 0.0408217 -0.999096
  outer loop
   vertex -74.1141 102.732 -5.49633
   vertex -104.352 115.293 -5.34334
   vertex -105.88 117.541 -5.26969
  endloop
 endfacet
 facet normal 0.00512064 0.0262829 -0.999641
  outer loop
   vertex -103.598 127.853 -4.98687
   vertex -74.1141 102.732 -5.49633
   vertex -105.88 117.541 -5.26969
  endloop
 endfacet
 facet normal -0.146206 0.152113 -0.977489
  outer loop
   vertex -87.081 172.047 11.6394
   vertex -80.2932 162.671 9.16511
   vertex -90.8213 172.4 12.2537
  endloop
 endfacet
 facet normal 0.114776 -0.365014 -0.9239
  outer loop
   vertex -98.3276 134.82 -7.08474
   vertex -103.598 127.853 -4.98687
   vertex -107.512 132.655 -7.37041
  endloop
 endfacet
 facet normal -0.203225 0.419835 -0.884555
  outer loop
   vertex -96.8096 154.514 6.46406
   vertex -98.5015 148.107 3.81159
   vertex -98.4187 150.438 4.89883
  endloop
 endfacet
 facet normal 0.165079 -0.189543 -0.967896
  outer loop
   vertex -105.793 129.464 -5.67669
   vertex -103.598 127.853 -4.98687
   vertex -109.228 123.278 -5.05117
  endloop
 endfacet
 facet normal -0.0284883 0.0337015 -0.999026
  outer loop
   vertex -103.598 127.853 -4.98687
   vertex -105.88 117.541 -5.26969
   vertex -107.225 119.976 -5.14915
  endloop
 endfacet
 facet normal -0.415464 -0.866504 -0.276694
  outer loop
   vertex -106.369 118.094 -0.538739
   vertex -107.239 118.693 -1.108
   vertex -107.225 119.976 -5.14915
  endloop
 endfacet
 facet normal -0.275058 0.146235 -0.950241
  outer loop
   vertex -103.598 127.853 -4.98687
   vertex -107.225 119.976 -5.14915
   vertex -108.507 121.453 -4.55072
  endloop
 endfacet
 facet normal 0.307715 -0.934717 -0.17781
  outer loop
   vertex -65.9256 78.0142 -3.0766
   vertex -68.5553 77.2571 -3.64784
   vertex -68.6327 77.8858 -7.08654
  endloop
 endfacet
 facet normal 0.171193 -0.197103 -0.96532
  outer loop
   vertex -109.228 123.278 -5.05117
   vertex -103.598 127.853 -4.98687
   vertex -108.507 121.453 -4.55072
  endloop
 endfacet
 facet normal 0.0422684 0.343599 -0.938165
  outer loop
   vertex -90.8213 172.4 12.2537
   vertex -80.2932 162.671 9.16511
   vertex -92.9951 172.133 12.0582
  endloop
 endfacet
 facet normal 0.177011 0.410885 -0.894338
  outer loop
   vertex -98.4187 150.438 4.89883
   vertex -98.5015 148.107 3.81159
   vertex -100.128 146.43 2.71929
  endloop
 endfacet
 facet normal 0.0754849 0.382855 -0.920719
  outer loop
   vertex -92.9951 172.133 12.0582
   vertex -80.2932 162.671 9.16511
   vertex -94.4851 171.02 11.4731
  endloop
 endfacet
 facet normal -0.105966 -0.510027 -0.853606
  outer loop
   vertex -103.598 127.853 -4.98687
   vertex -105.793 129.464 -5.67669
   vertex -107.512 132.655 -7.37041
  endloop
 endfacet
 facet normal 0.936217 -0.298022 -0.186229
  outer loop
   vertex -96.8096 154.514 6.46406
   vertex -98.4187 150.438 4.89883
   vertex -100.128 146.43 2.71929
  endloop
 endfacet
 facet normal 0.321945 -0.940808 -0.105978
  outer loop
   vertex -92.8627 172.185 14.5813
   vertex -93.484 171.959 14.7059
   vertex -94.8844 171.543 14.1458
  endloop
 endfacet
 facet normal 0.109597 -0.419233 -0.901239
  outer loop
   vertex -107.512 132.655 -7.37041
   vertex -105.793 129.464 -5.67669
   vertex -111.534 131.746 -7.43652
  endloop
 endfacet
 facet normal -0.166211 -0.00994703 -0.98604
  outer loop
   vertex -94.4851 171.02 11.4731
   vertex -80.2932 162.671 9.16511
   vertex -95.9436 170.807 11.7211
  endloop
 endfacet
 facet normal -0.0860846 -0.0528073 -0.994887
  outer loop
   vertex -105.793 129.464 -5.67669
   vertex -109.228 123.278 -5.05117
   vertex -111.524 126.336 -5.0148
  endloop
 endfacet
 facet normal 0.0797315 0.391841 -0.916571
  outer loop
   vertex -100.312 159.407 8.25088
   vertex -96.8096 154.514 6.46406
   vertex -100.128 146.43 2.71929
  endloop
 endfacet
 facet normal 0.0979524 0.464905 -0.879925
  outer loop
   vertex -95.9436 170.807 11.7211
   vertex -80.2932 162.671 9.16511
   vertex -97.1489 170.21 11.2718
  endloop
 endfacet
 facet normal -0.083292 0.433643 -0.897227
  outer loop
   vertex -107.512 132.655 -7.37041
   vertex -111.534 131.746 -7.43652
   vertex -109.559 133.327 -6.85587
  endloop
 endfacet
 facet normal 0.170396 -0.492832 -0.853277
  outer loop
   vertex -105.793 129.464 -5.67669
   vertex -111.524 126.336 -5.0148
   vertex -112.226 127.975 -6.10131
  endloop
 endfacet
 facet normal 0.188675 -0.591605 -0.78384
  outer loop
   vertex -105.793 129.464 -5.67669
   vertex -112.226 127.975 -6.10131
   vertex -112.287 128.545 -6.54657
  endloop
 endfacet
 facet normal 0.168275 -0.300604 -0.938787
  outer loop
   vertex -111.534 131.746 -7.43652
   vertex -105.793 129.464 -5.67669
   vertex -112.287 128.545 -6.54657
  endloop
 endfacet
 facet normal 0.0193963 0.64478 -0.764122
  outer loop
   vertex -109.587 144.762 2.79238
   vertex -107.512 132.655 -7.37041
   vertex -109.559 133.327 -6.85587
  endloop
 endfacet
 facet normal -0.0562903 0.149983 -0.987085
  outer loop
   vertex -97.1489 170.21 11.2718
   vertex -80.2932 162.671 9.16511
   vertex -108.11 168.101 11.5765
  endloop
 endfacet
 facet normal 0.45836 -0.336539 -0.822586
  outer loop
   vertex -111.534 131.746 -7.43652
   vertex -112.287 128.545 -6.54657
   vertex -112.821 130.328 -7.57351
  endloop
 endfacet
 facet normal -0.0392006 -0.507502 -0.860759
  outer loop
   vertex -112.821 130.328 -7.57351
   vertex -112.287 128.545 -6.54657
   vertex -113.402 129.989 -7.34684
  endloop
 endfacet
 facet normal -0.0136696 0.346497 -0.937952
  outer loop
   vertex -108.11 168.101 11.5765
   vertex -80.2932 162.671 9.16511
   vertex -100.312 159.407 8.25088
  endloop
 endfacet
 facet normal 0.067902 0.571658 -0.817678
  outer loop
   vertex -114.077 131.975 -6.52665
   vertex -112.821 130.328 -7.57351
   vertex -113.996 131.189 -7.06927
  endloop
 endfacet
 facet normal -0.376974 0.0277868 -0.925807
  outer loop
   vertex -112.821 130.328 -7.57351
   vertex -113.402 129.989 -7.34684
   vertex -113.996 131.189 -7.06927
  endloop
 endfacet
 facet normal -0.0687798 0.390376 -0.918083
  outer loop
   vertex -100.312 159.407 8.25088
   vertex -100.128 146.43 2.71929
   vertex -114.489 154.418 7.19162
  endloop
 endfacet
 facet normal -0.074477 0.381881 -0.921206
  outer loop
   vertex -114.489 154.418 7.19162
   vertex -100.128 146.43 2.71929
   vertex -109.587 144.762 2.79238
  endloop
 endfacet
 facet normal -0.374066 -0.194986 -0.906672
  outer loop
   vertex -97.7325 170.646 12.0324
   vertex -103.297 169.045 14.6724
   vertex -102.7 169.894 14.2436
  endloop
 endfacet
 facet normal 0.677199 -0.735622 0.0161927
  outer loop
   vertex -116.209 133.575 0.802872
   vertex -112.16 137.326 1.84175
   vertex -115.799 133.961 1.15067
  endloop
 endfacet
 facet normal 0.0633793 -0.950903 -0.302929
  outer loop
   vertex -116.345 135.73 -3.06666
   vertex -116.77 134.459 0.835263
   vertex -116.94 135.545 -2.60991
  endloop
 endfacet
 facet normal -0.335641 -0.707894 -0.621475
  outer loop
   vertex -118.317 138.639 -0.488951
   vertex -117.556 136.049 2.04966
   vertex -118.242 136.612 1.77889
  endloop
 endfacet
 facet normal 0.178169 0.486858 -0.855117
  outer loop
   vertex -108.11 168.101 11.5765
   vertex -100.312 159.407 8.25088
   vertex -108.884 167.842 11.2674
  endloop
 endfacet
 facet normal -0.168029 0.176103 -0.969925
  outer loop
   vertex -108.884 167.842 11.2674
   vertex -100.312 159.407 8.25088
   vertex -111.581 167.929 11.7502
  endloop
 endfacet
 facet normal -0.0449408 0.328049 -0.943591
  outer loop
   vertex -111.581 167.929 11.7502
   vertex -100.312 159.407 8.25088
   vertex -114.489 154.418 7.19162
  endloop
 endfacet
 facet normal 0.0778425 0.303643 -0.949601
  outer loop
   vertex -111.581 167.929 11.7502
   vertex -114.489 154.418 7.19162
   vertex -115.515 167.351 11.243
  endloop
 endfacet
 facet normal -0.130735 0.438625 -0.88911
  outer loop
   vertex -109.587 144.762 2.79238
   vertex -120.646 140.372 2.25325
   vertex -124.257 144.707 4.92248
  endloop
 endfacet
 facet normal -0.135741 0.352861 -0.925777
  outer loop
   vertex -109.587 144.762 2.79238
   vertex -124.257 144.707 4.92248
   vertex -114.489 154.418 7.19162
  endloop
 endfacet
 facet normal 0.15798 -0.813904 0.559109
  outer loop
   vertex -123.069 143.173 4.18127
   vertex -124.786 144.735 6.93947
   vertex -123.525 143.486 4.7653
  endloop
 endfacet
 facet normal -0.149982 0.284708 -0.946809
  outer loop
   vertex -115.515 167.351 11.243
   vertex -114.489 154.418 7.19162
   vertex -117.881 167.355 11.6193
  endloop
 endfacet
 facet normal 0.147126 0.0823476 -0.985684
  outer loop
   vertex -114.489 154.418 7.19162
   vertex -124.257 144.707 4.92248
   vertex -124.366 145.393 4.96352
  endloop
 endfacet
 facet normal 0.577432 -0.400943 -0.711208
  outer loop
   vertex -117.881 167.355 11.6193
   vertex -119.045 166.726 11.0297
   vertex -118.318 167.191 11.3575
  endloop
 endfacet
 facet normal -0.0858873 0.326387 -0.941326
  outer loop
   vertex -114.489 154.418 7.19162
   vertex -124.366 145.393 4.96352
   vertex -126.185 148.391 6.16916
  endloop
 endfacet
 facet normal 0.0924451 0.34402 -0.9344
  outer loop
   vertex -117.881 167.355 11.6193
   vertex -114.489 154.418 7.19162
   vertex -120.595 166.6 11.0725
  endloop
 endfacet
 facet normal -0.101145 0.354032 -0.929748
  outer loop
   vertex -114.489 154.418 7.19162
   vertex -126.185 148.391 6.16916
   vertex -126.546 148.708 6.32893
  endloop
 endfacet
 facet normal -0.0655148 0.282905 -0.956908
  outer loop
   vertex -127.321 150.903 7.03103
   vertex -114.489 154.418 7.19162
   vertex -126.546 148.708 6.32893
  endloop
 endfacet
 facet normal -0.0755172 0.268121 -0.960421
  outer loop
   vertex -120.595 166.6 11.0725
   vertex -114.489 154.418 7.19162
   vertex -125.525 165.354 11.1123
  endloop
 endfacet
 facet normal -0.0797301 0.333994 -0.939197
  outer loop
   vertex -114.489 154.418 7.19162
   vertex -127.321 150.903 7.03103
   vertex -129.116 153.745 8.19394
  endloop
 endfacet
 facet normal 0.0088882 0.345401 -0.938413
  outer loop
   vertex -125.525 165.354 11.1123
   vertex -114.489 154.418 7.19162
   vertex -127.982 164.124 10.6362
  endloop
 endfacet
 facet normal -0.017083 0.31324 -0.94952
  outer loop
   vertex -114.489 154.418 7.19162
   vertex -128.631 163.303 10.3771
   vertex -127.982 164.124 10.6362
  endloop
 endfacet
 facet normal -0.0927357 -0.0202756 -0.995484
  outer loop
   vertex -114.489 154.418 7.19162
   vertex -129.345 153.899 8.58608
   vertex -129.75 155.284 8.59558
  endloop
 endfacet
 facet normal -0.0881965 0.0579581 -0.994416
  outer loop
   vertex -114.489 154.418 7.19162
   vertex -129.75 155.284 8.59558
   vertex -129.609 155.835 8.61516
  endloop
 endfacet
 facet normal -0.0437891 0.435861 -0.898948
  outer loop
   vertex -114.489 154.418 7.19162
   vertex -129.609 155.835 8.61516
   vertex -130.454 157.322 9.37764
  endloop
 endfacet
 facet normal -0.0985234 0.193186 -0.976203
  outer loop
   vertex -128.631 163.303 10.3771
   vertex -114.489 154.418 7.19162
   vertex -130.454 157.322 9.37764
  endloop
 endfacet
 facet normal -0.0494357 0.179285 -0.982554
  outer loop
   vertex -128.631 163.303 10.3771
   vertex -130.454 157.322 9.37764
   vertex -131.828 161.817 10.2669
  endloop
 endfacet
 facet normal -0.0358315 -0.649506 -0.759512
  outer loop
   vertex -130.964 159.55 13.1223
   vertex -131.507 160.048 12.7218
   vertex -132.171 162.343 10.7906
  endloop
 endfacet
 facet normal -0.0177833 -0.816307 -0.577344
  outer loop
   vertex -132.203 162.737 11.7232
   vertex -132.086 161.496 13.4743
   vertex -132.463 161.638 13.2841
  endloop
 endfacet
 facet normal 0.49269 0.474973 -0.729148
  outer loop
   vertex -44.3305 133.532 2.94545
   vertex -36.7439 110.076 -7.20769
   vertex -45.542 119.528 -6.99554
  endloop
 endfacet
 facet normal -0.161972 -0.986333 -0.0301999
  outer loop
   vertex -46.8883 80.0628 -2.22413
   vertex -46.223 80.0761 -6.22568
   vertex -46.4543 79.9987 -2.4559
  endloop
 endfacet
 facet normal -0.0991794 0.0778657 -0.992018
  outer loop
   vertex -49.3579 79.7618 -5.93694
   vertex -40.9762 94.1407 -5.64628
   vertex -46.223 80.0761 -6.22568
  endloop
 endfacet
 facet normal 0.465887 -0.884783 0.0103971
  outer loop
   vertex -46.4543 79.9987 -2.4559
   vertex -46.223 80.0761 -6.22568
   vertex -45.5503 80.4796 -2.03458
  endloop
 endfacet
 facet normal -0.460402 -0.38087 -0.801853
  outer loop
   vertex -33.5126 97.5254 -6.85354
   vertex -37.2273 99.5136 -5.66504
   vertex -58.0542 123.9 -5.29015
  endloop
 endfacet
 facet normal 0.0965357 -0.423001 -0.900972
  outer loop
   vertex -46.223 80.0761 -6.22568
   vertex -45.9573 80.6194 -6.45228
   vertex -43.332 80.2581 -6.00138
  endloop
 endfacet
 facet normal -0.221581 -0.9429 0.24868
  outer loop
   vertex -24.7443 148.887 14.1225
   vertex -45.0814 153.462 13.3448
   vertex -22.9516 148.239 13.2621
  endloop
 endfacet
 facet normal 0.0558967 -0.994657 0.086789
  outer loop
   vertex -45.5503 80.4796 -2.03458
   vertex -46.223 80.0761 -6.22568
   vertex -43.332 80.2581 -6.00138
  endloop
 endfacet
 facet normal 0.168814 -0.00343526 -0.985642
  outer loop
   vertex -45.9573 80.6194 -6.45228
   vertex -40.9762 94.1407 -5.64628
   vertex -43.332 80.2581 -6.00138
  endloop
 endfacet
 facet normal -0.0634645 0.0404821 -0.997163
  outer loop
   vertex -58.0542 123.9 -5.29015
   vertex -36.7439 110.076 -7.20769
   vertex -32.0693 99.576 -7.93146
  endloop
 endfacet
 facet normal -0.326313 -0.249589 -0.911715
  outer loop
   vertex -58.0542 123.9 -5.29015
   vertex -32.0693 99.576 -7.93146
   vertex -33.5126 97.5254 -6.85354
  endloop
 endfacet
 facet normal 0.155598 0.136713 -0.978314
  outer loop
   vertex -36.7439 110.076 -7.20769
   vertex -35.5754 108.557 -7.23401
   vertex -32.0693 99.576 -7.93146
  endloop
 endfacet
 facet normal 0.0523596 0.0976178 -0.993846
  outer loop
   vertex -32.0693 99.576 -7.93146
   vertex -35.5754 108.557 -7.23401
   vertex -31.3644 100.847 -7.76951
  endloop
 endfacet
 facet normal -0.195237 0.0581733 -0.979029
  outer loop
   vertex -43.332 80.2581 -6.00138
   vertex -40.9762 94.1407 -5.64628
   vertex -40.981 80.9113 -6.43141
  endloop
 endfacet
 facet normal 0.102257 0.568753 -0.816127
  outer loop
   vertex -20.2731 144.377 10.906
   vertex -22.9516 148.239 13.2621
   vertex -20.4472 145.433 11.6199
  endloop
 endfacet
 facet normal 0.298107 -0.92917 0.218577
  outer loop
   vertex -43.332 80.2581 -6.00138
   vertex -40.981 80.9113 -6.43141
   vertex -45.5503 80.4796 -2.03458
  endloop
 endfacet
 facet normal 0.594159 0.373946 -0.712137
  outer loop
   vertex -35.5754 108.557 -7.23401
   vertex -16.0926 93.8457 1.29595
   vertex -31.3644 100.847 -7.76951
  endloop
 endfacet
 facet normal -0.225414 0.153925 -0.962027
  outer loop
   vertex -37.2273 99.5136 -5.66504
   vertex -33.5126 97.5254 -6.85354
   vertex -40.9762 94.1407 -5.64628
  endloop
 endfacet
 facet normal -0.152533 -0.955545 -0.252324
  outer loop
   vertex -45.5503 80.4796 -2.03458
   vertex -40.981 80.9113 -6.43141
   vertex -40.2876 80.6968 -6.03822
  endloop
 endfacet
 facet normal 0.504523 0.0509683 -0.861892
  outer loop
   vertex -40.981 80.9113 -6.43141
   vertex -40.9762 94.1407 -5.64628
   vertex -40.2876 80.6968 -6.03822
  endloop
 endfacet
 facet normal -0.0583513 0.0261054 -0.997955
  outer loop
   vertex -40.9762 94.1407 -5.64628
   vertex -38.1801 81.0807 -6.15141
   vertex -40.2876 80.6968 -6.03822
  endloop
 endfacet
 facet normal 0.339795 0.285804 -0.896022
  outer loop
   vertex -10.0669 124.674 8.49198
   vertex -20.2731 144.377 10.906
   vertex -19.2243 143.378 10.9851
  endloop
 endfacet
 facet normal -0.0466401 0.282148 -0.958237
  outer loop
   vertex -40.9762 94.1407 -5.64628
   vertex -34.6678 94.0334 -5.98492
   vertex -26.552 86.1101 -8.71292
  endloop
 endfacet
 facet normal 0.0705129 -0.996763 0.0386244
  outer loop
   vertex -39.1666 80.9274 -2.13296
   vertex -45.5503 80.4796 -2.03458
   vertex -40.2876 80.6968 -6.03822
  endloop
 endfacet
 facet normal -0.0560357 -0.223515 -0.973088
  outer loop
   vertex -40.9762 94.1407 -5.64628
   vertex -33.5126 97.5254 -6.85354
   vertex -34.6678 94.0334 -5.98492
  endloop
 endfacet
 facet normal 0.342479 -0.938547 -0.0428801
  outer loop
   vertex -39.1666 80.9274 -2.13296
   vertex -40.2876 80.6968 -6.03822
   vertex -38.6113 81.1132 -1.76401
  endloop
 endfacet
 facet normal 0.59196 0.353204 -0.724452
  outer loop
   vertex -31.3644 100.847 -7.76951
   vertex -16.0926 93.8457 1.29595
   vertex -30.2195 100.004 -7.24493
  endloop
 endfacet
 facet normal 0.180468 -0.983263 0.0250175
  outer loop
   vertex -38.6113 81.1132 -1.76401
   vertex -40.2876 80.6968 -6.03822
   vertex -38.1801 81.0807 -6.15141
  endloop
 endfacet
 facet normal -0.16116 0.00366761 -0.986921
  outer loop
   vertex -38.1801 81.0807 -6.15141
   vertex -40.9762 94.1407 -5.64628
   vertex -36.8225 81.7644 -6.37055
  endloop
 endfacet
 facet normal 0.455819 -0.888589 0.0513761
  outer loop
   vertex -38.6113 81.1132 -1.76401
   vertex -38.1801 81.0807 -6.15141
   vertex -36.8225 81.7644 -6.37055
  endloop
 endfacet
 facet normal 0.212428 0.226509 -0.950562
  outer loop
   vertex -20.2731 144.377 10.906
   vertex -10.0669 124.674 8.49198
   vertex -44.3305 133.532 2.94545
  endloop
 endfacet
 facet normal 0.363638 -0.0834796 -0.927792
  outer loop
   vertex -32.0693 99.576 -7.93146
   vertex -31.3644 100.847 -7.76951
   vertex -30.2195 100.004 -7.24493
  endloop
 endfacet
 facet normal -0.441311 -0.84874 -0.29135
  outer loop
   vertex -38.6113 81.1132 -1.76401
   vertex -36.8225 81.7644 -6.37055
   vertex -36.3588 81.404 -6.02293
  endloop
 endfacet
 facet normal -0.272659 -0.00525365 -0.962096
  outer loop
   vertex -10.0669 124.674 8.49198
   vertex -19.2243 143.378 10.9851
   vertex -16.845 139.026 10.3345
  endloop
 endfacet
 facet normal 0.061664 -0.650634 -0.756884
  outer loop
   vertex -36.3588 81.404 -6.02293
   vertex -36.8225 81.7644 -6.37055
   vertex -34.4724 82.0254 -6.40345
  endloop
 endfacet
 facet normal -0.0197311 0.0518088 -0.998462
  outer loop
   vertex -36.8225 81.7644 -6.37055
   vertex -40.9762 94.1407 -5.64628
   vertex -34.4724 82.0254 -6.40345
  endloop
 endfacet
 facet normal 0.331102 -0.937027 0.111136
  outer loop
   vertex -38.6113 81.1132 -1.76401
   vertex -36.3588 81.404 -6.02293
   vertex -34.4724 82.0254 -6.40345
  endloop
 endfacet
 facet normal 0.400553 -0.465168 -0.789415
  outer loop
   vertex -32.0693 99.576 -7.93146
   vertex -30.2195 100.004 -7.24493
   vertex -32.4422 98.9423 -7.74727
  endloop
 endfacet
 facet normal 0.13812 0.172332 -0.975307
  outer loop
   vertex -32.4422 98.9423 -7.74727
   vertex -30.2195 100.004 -7.24493
   vertex -28.1702 93.5075 -8.10258
  endloop
 endfacet
 facet normal 0.111182 0.121331 -0.986366
  outer loop
   vertex -34.4724 82.0254 -6.40345
   vertex -40.9762 94.1407 -5.64628
   vertex -33.224 81.9464 -6.27245
  endloop
 endfacet
 facet normal -0.271825 -0.123802 -0.95435
  outer loop
   vertex -33.224 81.9464 -6.27245
   vertex -40.9762 94.1407 -5.64628
   vertex -26.552 86.1101 -8.71292
  endloop
 endfacet
 facet normal 0.345197 0.278107 -0.896379
  outer loop
   vertex -10.0669 124.674 8.49198
   vertex -16.845 139.026 10.3345
   vertex -11.9327 134.643 10.8661
  endloop
 endfacet
 facet normal -0.0379559 -0.973553 -0.225287
  outer loop
   vertex -38.6113 81.1132 -1.76401
   vertex -34.4724 82.0254 -6.40345
   vertex -33.224 81.9464 -6.27245
  endloop
 endfacet
 facet normal 0.319751 -0.805151 -0.499491
  outer loop
   vertex -33.224 81.9464 -6.27245
   vertex -26.552 86.1101 -8.71292
   vertex -32.6852 82.0026 -6.01816
  endloop
 endfacet
 facet normal 0.121476 -0.991861 -0.0381589
  outer loop
   vertex -38.6113 81.1132 -1.76401
   vertex -33.224 81.9464 -6.27245
   vertex -32.6852 82.0026 -6.01816
  endloop
 endfacet
 facet normal 0.583777 0.284547 -0.760419
  outer loop
   vertex -30.2195 100.004 -7.24493
   vertex -16.0926 93.8457 1.29595
   vertex -28.1702 93.5075 -8.10258
  endloop
 endfacet
 facet normal 0.689342 -0.384787 -0.613797
  outer loop
   vertex -15.1086 138.133 12.8447
   vertex -15.2554 136.977 13.4049
   vertex -16.845 139.026 10.3345
  endloop
 endfacet
 facet normal -0.402073 -0.000328751 -0.915608
  outer loop
   vertex -32.6852 82.0026 -6.01816
   vertex -26.552 86.1101 -8.71292
   vertex -30.0698 82.8656 -7.16698
  endloop
 endfacet
 facet normal 0.139985 -0.964548 -0.223721
  outer loop
   vertex -38.6113 81.1132 -1.76401
   vertex -24.0068 83.4146 -2.54825
   vertex -28.6887 82.4962 -1.5181
  endloop
 endfacet
 facet normal -0.426216 -0.128253 -0.895484
  outer loop
   vertex -34.6678 94.0334 -5.98492
   vertex -32.4422 98.9423 -7.74727
   vertex -26.552 86.1101 -8.71292
  endloop
 endfacet
 facet normal 0.458158 -0.746786 0.48208
  outer loop
   vertex -38.6113 81.1132 -1.76401
   vertex -32.6852 82.0026 -6.01816
   vertex -30.0698 82.8656 -7.16698
  endloop
 endfacet
 facet normal 0.118524 -0.528923 -0.840353
  outer loop
   vertex -30.0698 82.8656 -7.16698
   vertex -26.552 86.1101 -8.71292
   vertex -29.5228 82.5862 -6.91399
  endloop
 endfacet
 facet normal 0.0300642 0.088721 -0.995603
  outer loop
   vertex -26.552 86.1101 -8.71292
   vertex -32.4422 98.9423 -7.74727
   vertex -28.1702 93.5075 -8.10258
  endloop
 endfacet
 facet normal 0.150909 -0.985225 -0.0809814
  outer loop
   vertex -38.6113 81.1132 -1.76401
   vertex -30.0698 82.8656 -7.16698
   vertex -24.0068 83.4146 -2.54825
  endloop
 endfacet
 facet normal -0.317545 0.163045 -0.934121
  outer loop
   vertex -10.0669 124.674 8.49198
   vertex -11.9327 134.643 10.8661
   vertex -10.3166 132.036 9.86174
  endloop
 endfacet
 facet normal 0.232574 -0.966282 -0.110495
  outer loop
   vertex -24.0068 83.4146 -2.54825
   vertex -29.5228 82.5862 -6.91399
   vertex -26.7216 83.4792 -8.82742
  endloop
 endfacet
 facet normal 0.421816 0.541684 -0.727083
  outer loop
   vertex -10.3166 132.036 9.86174
   vertex -11.9327 134.643 10.8661
   vertex -10.1553 132.928 10.6197
  endloop
 endfacet
 facet normal 0.116738 0.03567 -0.992522
  outer loop
   vertex -26.552 86.1101 -8.71292
   vertex -25.7201 83.6566 -8.70325
   vertex -26.7216 83.4792 -8.82742
  endloop
 endfacet
 facet normal 0.252277 -0.906593 0.338298
  outer loop
   vertex -28.6887 82.4962 -1.5181
   vertex -24.0068 83.4146 -2.54825
   vertex -26.4638 83.3224 -0.963126
  endloop
 endfacet
 facet normal 0.184435 -0.978733 -0.0898104
  outer loop
   vertex -25.7201 83.6566 -8.70325
   vertex -24.0068 83.4146 -2.54825
   vertex -26.7216 83.4792 -8.82742
  endloop
 endfacet
 facet normal -0.349649 -0.732148 -0.584555
  outer loop
   vertex -26.4638 83.3224 -0.963126
   vertex -24.0068 83.4146 -2.54825
   vertex -25.5222 83.0389 -1.17117
  endloop
 endfacet
 facet normal 0.59893 0.195094 -0.776673
  outer loop
   vertex -26.552 86.1101 -8.71292
   vertex -28.1702 93.5075 -8.10258
   vertex -16.0926 93.8457 1.29595
  endloop
 endfacet
 facet normal 0.299731 -0.946366 -0.120632
  outer loop
   vertex -24.0068 83.4146 -2.54825
   vertex -25.7201 83.6566 -8.70325
   vertex -19.0772 85.1166 -3.65169
  endloop
 endfacet
 facet normal 0.56766 0.189311 -0.801201
  outer loop
   vertex -25.7201 83.6566 -8.70325
   vertex -26.552 86.1101 -8.71292
   vertex -19.0772 85.1166 -3.65169
  endloop
 endfacet
 facet normal 0.565324 0.251907 -0.785463
  outer loop
   vertex -26.552 86.1101 -8.71292
   vertex -16.0926 93.8457 1.29595
   vertex -19.0772 85.1166 -3.65169
  endloop
 endfacet
 facet normal 0.325842 -0.939897 0.102086
  outer loop
   vertex -25.5222 83.0389 -1.17117
   vertex -24.0068 83.4146 -2.54825
   vertex -23.2118 83.9103 -0.522602
  endloop
 endfacet
 facet normal 0.13434 0.185676 -0.973384
  outer loop
   vertex -10.0669 124.674 8.49198
   vertex -10.3166 132.036 9.86174
   vertex -7.68737 129.811 9.80017
  endloop
 endfacet
 facet normal 0.524894 -0.0264861 -0.850755
  outer loop
   vertex -10.0669 124.674 8.49198
   vertex -7.68737 129.811 9.80017
   vertex -6.87648 129.801 10.3008
  endloop
 endfacet
 facet normal 0.0518461 -0.974547 0.218104
  outer loop
   vertex -23.2118 83.9103 -0.522602
   vertex -24.0068 83.4146 -2.54825
   vertex -22.048 83.9879 -0.45225
  endloop
 endfacet
 facet normal 0.318396 -0.947176 -0.0384912
  outer loop
   vertex -22.048 83.9879 -0.45225
   vertex -24.0068 83.4146 -2.54825
   vertex -19.0772 85.1166 -3.65169
  endloop
 endfacet
 facet normal 0.233263 -0.964519 -0.123658
  outer loop
   vertex -20.4179 84.3278 -0.0279418
   vertex -22.048 83.9879 -0.45225
   vertex -19.0772 85.1166 -3.65169
  endloop
 endfacet
 facet normal 0.670964 -0.736253 0.0879685
  outer loop
   vertex -19.7601 84.9928 0.520826
   vertex -20.4179 84.3278 -0.0279418
   vertex -19.0772 85.1166 -3.65169
  endloop
 endfacet
 facet normal 0.237108 0.290669 -0.92698
  outer loop
   vertex -6.87648 129.801 10.3008
   vertex -4.94428 127.787 10.1636
   vertex -3.49656 124.902 9.62932
  endloop
 endfacet
 facet normal 0.157495 0.239978 -0.957917
  outer loop
   vertex -10.0669 124.674 8.49198
   vertex -6.87648 129.801 10.3008
   vertex -3.49656 124.902 9.62932
  endloop
 endfacet
 facet normal 0.110887 -0.993768 -0.0113424
  outer loop
   vertex -19.7601 84.9928 0.520826
   vertex -19.0772 85.1166 -3.65169
   vertex -16.1635 85.3638 3.17071
  endloop
 endfacet
 facet normal 0.629013 0.209289 -0.748693
  outer loop
   vertex -19.0772 85.1166 -3.65169
   vertex -16.0926 93.8457 1.29595
   vertex -16.0885 86.1495 -0.851985
  endloop
 endfacet
 facet normal -0.0705152 -0.995312 0.0661873
  outer loop
   vertex -16.1635 85.3638 3.17071
   vertex -19.0772 85.1166 -3.65169
   vertex -16.672 85.1239 -0.979608
  endloop
 endfacet
 facet normal 0.704142 -0.321811 -0.632947
  outer loop
   vertex -19.0772 85.1166 -3.65169
   vertex -16.0885 86.1495 -0.851985
   vertex -16.672 85.1239 -0.979608
  endloop
 endfacet
 facet normal 0.87068 -0.485529 -0.0786006
  outer loop
   vertex -16.1635 85.3638 3.17071
   vertex -16.672 85.1239 -0.979608
   vertex -16.0885 86.1495 -0.851985
  endloop
 endfacet
 facet normal 0.165261 0.120547 -0.978855
  outer loop
   vertex 1.09435 97.8958 7.07853
   vertex -10.0669 124.674 8.49198
   vertex -3.49656 124.902 9.62932
  endloop
 endfacet
 facet normal 0.191352 0.131098 -0.972727
  outer loop
   vertex -10.0669 124.674 8.49198
   vertex 1.09435 97.8958 7.07853
   vertex -44.3305 133.532 2.94545
  endloop
 endfacet
 facet normal 0.111402 -0.993229 0.0329662
  outer loop
   vertex -15.0719 85.4792 2.9576
   vertex -16.1635 85.3638 3.17071
   vertex -15.8717 85.2825 -0.265848
  endloop
 endfacet
 facet normal 0.275487 0.179358 -0.944425
  outer loop
   vertex -16.0926 93.8457 1.29595
   vertex 1.09435 97.8958 7.07853
   vertex -15.8717 85.2825 -0.265848
  endloop
 endfacet
 facet normal 0.274899 -0.961427 0.00938068
  outer loop
   vertex -12.354 86.2845 5.84629
   vertex -15.0719 85.4792 2.9576
   vertex -10.4375 86.8422 6.84698
  endloop
 endfacet
 facet normal 0.266125 -0.963911 -0.00721151
  outer loop
   vertex -15.0719 85.4792 2.9576
   vertex -15.8717 85.2825 -0.265848
   vertex -11.7355 86.4038 2.49262
  endloop
 endfacet
 facet normal 0.583206 -0.360638 -0.727882
  outer loop
   vertex -15.8717 85.2825 -0.265848
   vertex 1.09435 97.8958 7.07853
   vertex -11.7355 86.4038 2.49262
  endloop
 endfacet
 facet normal 0.262453 0.225738 -0.938169
  outer loop
   vertex -16.0926 93.8457 1.29595
   vertex -44.3305 133.532 2.94545
   vertex 1.09435 97.8958 7.07853
  endloop
 endfacet
 facet normal 0.1977 0.125433 -0.972204
  outer loop
   vertex 1.09435 97.8958 7.07853
   vertex -3.49656 124.902 9.62932
   vertex 1.07634 118.156 9.68877
  endloop
 endfacet
 facet normal 0.318157 -0.946859 -0.0472685
  outer loop
   vertex -10.4375 86.8422 6.84698
   vertex -15.0719 85.4792 2.9576
   vertex -10.7732 86.9417 2.59551
  endloop
 endfacet
 facet normal -0.0235414 -0.999491 -0.021523
  outer loop
   vertex -10.4375 86.8422 6.84698
   vertex -10.7732 86.9417 2.59551
   vertex -9.74725 86.8294 6.69035
  endloop
 endfacet
 facet normal 0.280683 -0.954935 -0.0965227
  outer loop
   vertex -9.74725 86.8294 6.69035
   vertex -10.7732 86.9417 2.59551
   vertex -8.2995 87.5697 3.57542
  endloop
 endfacet
 facet normal 0.373751 -0.0254638 -0.92718
  outer loop
   vertex -8.2995 87.5697 3.57542
   vertex -10.7732 86.9417 2.59551
   vertex 1.09435 97.8958 7.07853
  endloop
 endfacet
 facet normal 0.501206 -0.856093 0.126088
  outer loop
   vertex -8.48325 87.722 7.72678
   vertex -9.74725 86.8294 6.69035
   vertex -7.94142 87.4917 4.0091
  endloop
 endfacet
 facet normal 0.237998 0.223017 -0.945315
  outer loop
   vertex 1.07634 118.156 9.68877
   vertex 1.4939 117.865 9.72534
   vertex 2.57194 113.742 9.02411
  endloop
 endfacet
 facet normal -0.0637293 0.127467 -0.989793
  outer loop
   vertex 1.09435 97.8958 7.07853
   vertex 1.07634 118.156 9.68877
   vertex 2.57194 113.742 9.02411
  endloop
 endfacet
 facet normal 0.0436603 -0.976343 -0.211774
  outer loop
   vertex -9.74725 86.8294 6.69035
   vertex -8.2995 87.5697 3.57542
   vertex -7.94142 87.4917 4.0091
  endloop
 endfacet
 facet normal 0.670919 -0.398115 -0.625597
  outer loop
   vertex -8.2995 87.5697 3.57542
   vertex 1.09435 97.8958 7.07853
   vertex -7.94142 87.4917 4.0091
  endloop
 endfacet
 facet normal 0.251993 -0.21117 -0.944408
  outer loop
   vertex 0.941741 118.878 11.0683
   vertex 1.78332 117.014 11.7095
   vertex 1.92129 116.543 11.8518
  endloop
 endfacet
 facet normal 0.0548647 -0.996058 0.0697078
  outer loop
   vertex -8.48325 87.722 7.72678
   vertex -7.94142 87.4917 4.0091
   vertex -7.31084 87.7967 7.87161
  endloop
 endfacet
 facet normal 0.39861 -0.0765604 -0.913919
  outer loop
   vertex -4.86137 88.6445 5.25591
   vertex -7.94142 87.4917 4.0091
   vertex 1.09435 97.8958 7.07853
  endloop
 endfacet
 facet normal 0.320972 -0.946824 0.0223755
  outer loop
   vertex -7.31084 87.7967 7.87161
   vertex -7.94142 87.4917 4.0091
   vertex -5.3543 88.467 8.16725
  endloop
 endfacet
 facet normal 0.676116 -0.296604 -0.674458
  outer loop
   vertex 1.4939 117.865 9.72534
   vertex 2.4851 115.494 11.7616
   vertex 2.38397 114.714 12.0035
  endloop
 endfacet
 facet normal 0.311203 -0.944569 0.104605
  outer loop
   vertex -7.94142 87.4917 4.0091
   vertex -4.86137 88.6445 5.25591
   vertex -4.91469 89.0233 8.83477
  endloop
 endfacet
 facet normal 0.85334 -0.0518601 -0.518768
  outer loop
   vertex -5.3543 88.467 8.16725
   vertex -7.94142 87.4917 4.0091
   vertex -4.91469 89.0233 8.83477
  endloop
 endfacet
 facet normal 0.13338 0.108512 -0.985106
  outer loop
   vertex 1.09435 97.8958 7.07853
   vertex 2.57194 113.742 9.02411
   vertex 3.65816 110.713 8.83749
  endloop
 endfacet
 facet normal 0.585608 0.257328 -0.768665
  outer loop
   vertex 3.65816 110.713 8.83749
   vertex 2.57194 113.742 9.02411
   vertex 3.29696 113.883 9.62358
  endloop
 endfacet
 facet normal 0.597722 -0.162181 -0.785128
  outer loop
   vertex -3.83658 89.2335 5.11394
   vertex 1.09435 97.8958 7.07853
   vertex -2.60411 89.515 5.99407
  endloop
 endfacet
 facet normal 0.506051 -0.856892 0.0982286
  outer loop
   vertex -4.91469 89.0233 8.83477
   vertex -4.86137 88.6445 5.25591
   vertex -3.83658 89.2335 5.11394
  endloop
 endfacet
 facet normal 0.289347 -0.95676 0.0297974
  outer loop
   vertex -4.91469 89.0233 8.83477
   vertex -3.83658 89.2335 5.11394
   vertex -1.78321 89.9801 9.14685
  endloop
 endfacet
 facet normal 0.138446 -0.133018 -0.981396
  outer loop
   vertex -4.91469 89.0233 8.83477
   vertex -1.78321 89.9801 9.14685
   vertex -3.1027 89.4174 9.03697
  endloop
 endfacet
 facet normal 0.148669 -0.983156 0.106311
  outer loop
   vertex -1.78321 89.9801 9.14685
   vertex -3.83658 89.2335 5.11394
   vertex -2.60411 89.515 5.99407
  endloop
 endfacet
 facet normal 0.450752 -0.892535 0.014289
  outer loop
   vertex 0.914908 91.3014 6.56979
   vertex -1.78321 89.9801 9.14685
   vertex -2.60411 89.515 5.99407
  endloop
 endfacet
 facet normal 0.598323 0.259313 -0.758134
  outer loop
   vertex 3.65816 110.713 8.83749
   vertex 4.88315 109.953 9.54431
   vertex 4.55628 108.504 8.79069
  endloop
 endfacet
 facet normal 0.187031 0.0967472 -0.977578
  outer loop
   vertex 3.65816 110.713 8.83749
   vertex 4.55628 108.504 8.79069
   vertex 1.09435 97.8958 7.07853
  endloop
 endfacet
 facet normal 0.546703 -0.823782 0.149999
  outer loop
   vertex -1.78321 89.9801 9.14685
   vertex 0.914908 91.3014 6.56979
   vertex -1.50716 90.2515 9.63142
  endloop
 endfacet
 facet normal 0.329597 -0.942063 -0.0623164
  outer loop
   vertex -1.50716 90.2515 9.63142
   vertex 0.914908 91.3014 6.56979
   vertex 1.04237 91.1299 9.83743
  endloop
 endfacet
 facet normal 0.124856 0.0729389 -0.98949
  outer loop
   vertex -2.60411 89.515 5.99407
   vertex 1.09435 97.8958 7.07853
   vertex 0.914908 91.3014 6.56979
  endloop
 endfacet
 facet normal 0.362596 0.0319968 -0.931397
  outer loop
   vertex 1.09435 97.8958 7.07853
   vertex 4.55628 108.504 8.79069
   vertex 6.66014 105.576 9.50916
  endloop
 endfacet
 facet normal 0.606077 0.044774 -0.794145
  outer loop
   vertex 0.914908 91.3014 6.56979
   vertex 1.09435 97.8958 7.07853
   vertex 1.46863 91.3357 6.99432
  endloop
 endfacet
 facet normal 0.104562 -0.992929 -0.0562085
  outer loop
   vertex 1.04237 91.1299 9.83743
   vertex 0.914908 91.3014 6.56979
   vertex 1.46863 91.3357 6.99432
  endloop
 endfacet
 facet normal 0.486214 -0.873787 0.00963693
  outer loop
   vertex 1.84644 91.5819 10.2547
   vertex 1.04237 91.1299 9.83743
   vertex 1.46863 91.3357 6.99432
  endloop
 endfacet
 facet normal 0.0468526 0.270374 -0.961615
  outer loop
   vertex 1.09435 97.8958 7.07853
   vertex 6.66014 105.576 9.50916
   vertex 6.61137 102.736 8.70813
  endloop
 endfacet
 facet normal 0.374939 -0.926117 -0.0415725
  outer loop
   vertex 3.67736 92.2997 10.7776
   vertex 1.84644 91.5819 10.2547
   vertex 5.22489 93.0648 7.69025
  endloop
 endfacet
 facet normal 0.414902 -0.909633 0.0206069
  outer loop
   vertex 1.84644 91.5819 10.2547
   vertex 1.46863 91.3357 6.99432
   vertex 5.22489 93.0648 7.69025
  endloop
 endfacet
 facet normal 0.439419 -0.20655 -0.874213
  outer loop
   vertex 1.09435 97.8958 7.07853
   vertex 6.61137 102.736 8.70813
   vertex 7.70077 101.95 9.44127
  endloop
 endfacet
 facet normal 0.172121 0.0224626 -0.98482
  outer loop
   vertex 1.46863 91.3357 6.99432
   vertex 1.09435 97.8958 7.07853
   vertex 5.22489 93.0648 7.69025
  endloop
 endfacet
 facet normal -0.251768 -0.90235 -0.349824
  outer loop
   vertex 3.67736 92.2997 10.7776
   vertex 5.22489 93.0648 7.69025
   vertex 4.1028 92.2422 10.6196
  endloop
 endfacet
 facet normal 0.265207 0.125006 -0.956054
  outer loop
   vertex 1.09435 97.8958 7.07853
   vertex 7.70077 101.95 9.44127
   vertex 8.57246 99.132 9.31458
  endloop
 endfacet
 facet normal 0.252361 0.0938215 -0.963074
  outer loop
   vertex 5.22489 93.0648 7.69025
   vertex 1.09435 97.8958 7.07853
   vertex 6.42448 93.4089 8.03811
  endloop
 endfacet
 facet normal 0.259904 0.152499 -0.953517
  outer loop
   vertex 1.09435 97.8958 7.07853
   vertex 8.57246 99.132 9.31458
   vertex 8.9108 97.0111 9.0676
  endloop
 endfacet
 facet normal 0.372279 -0.761568 -0.530493
  outer loop
   vertex 5.22489 93.0648 7.69025
   vertex 6.42448 93.4089 8.03811
   vertex 6.92841 93.247 8.6241
  endloop
 endfacet
 facet normal -0.111584 -0.917183 0.382524
  outer loop
   vertex 9.44348 94.155 11.5349
   vertex 5.22489 93.0648 7.69025
   vertex 6.92841 93.247 8.6241
  endloop
 endfacet
 facet normal 0.258672 0.134919 -0.956496
  outer loop
   vertex 7.05051 93.8788 8.12267
   vertex 1.09435 97.8958 7.07853
   vertex 8.9108 97.0111 9.0676
  endloop
 endfacet
 facet normal -0.248864 -0.572132 -0.781493
  outer loop
   vertex 1.09435 97.8958 7.07853
   vertex 7.05051 93.8788 8.12267
   vertex 6.92841 93.247 8.6241
  endloop
 endfacet
 facet normal 0.353448 -0.927073 -0.124939
  outer loop
   vertex 4.1028 92.2422 10.6196
   vertex 5.22489 93.0648 7.69025
   vertex 9.44348 94.155 11.5349
  endloop
 endfacet
 facet normal 0.330962 -0.561021 -0.758762
  outer loop
   vertex 8.85886 93.7385 11.5878
   vertex 4.1028 92.2422 10.6196
   vertex 9.44348 94.155 11.5349
  endloop
 endfacet
 facet normal 0.582365 -0.102594 -0.806428
  outer loop
   vertex 7.05051 93.8788 8.12267
   vertex 8.9108 97.0111 9.0676
   vertex 7.48685 93.414 8.49691
  endloop
 endfacet
 facet normal 0.00799427 -0.62258 -0.782516
  outer loop
   vertex 6.92841 93.247 8.6241
   vertex 7.05051 93.8788 8.12267
   vertex 7.48685 93.414 8.49691
  endloop
 endfacet
 facet normal 0.295214 -0.954478 0.0426602
  outer loop
   vertex 9.44348 94.155 11.5349
   vertex 6.92841 93.247 8.6241
   vertex 7.48685 93.414 8.49691
  endloop
 endfacet
 facet normal 0.198508 -0.973942 0.109692
  outer loop
   vertex 9.44348 94.155 11.5349
   vertex 7.48685 93.414 8.49691
   vertex 9.09779 93.8201 9.18677
  endloop
 endfacet
 facet normal 0.089149 0.121548 -0.988574
  outer loop
   vertex 7.48685 93.414 8.49691
   vertex 8.9108 97.0111 9.0676
   vertex 8.99353 94.5016 8.7665
  endloop
 endfacet
 facet normal 0.444647 -0.41987 -0.791201
  outer loop
   vertex 7.48685 93.414 8.49691
   vertex 8.99353 94.5016 8.7665
   vertex 9.09779 93.8201 9.18677
  endloop
 endfacet
 facet normal 0.862501 0.0882185 -0.498307
  outer loop
   vertex 8.9108 97.0111 9.0676
   vertex 9.53372 94.4009 9.68368
   vertex 8.99353 94.5016 8.7665
  endloop
 endfacet
 facet normal 0.836975 -0.188714 -0.513672
  outer loop
   vertex 8.99353 94.5016 8.7665
   vertex 9.53372 94.4009 9.68368
   vertex 9.09779 93.8201 9.18677
  endloop
 endfacet
 facet normal 0.814294 -0.579256 -0.0372594
  outer loop
   vertex 9.53372 94.4009 9.68368
   vertex 9.44348 94.155 11.5349
   vertex 9.09779 93.8201 9.18677
  endloop
 endfacet
 facet normal -0.359247 0.0891309 -0.928976
  outer loop
   vertex -74.1141 102.732 -5.49633
   vertex -75.3904 81.7724 -7.01376
   vertex -75.8738 81.9989 -6.80506
  endloop
 endfacet
 facet normal 0.821453 -0.00873791 -0.570209
  outer loop
   vertex -75.3904 81.7724 -7.01376
   vertex -74.1141 102.732 -5.49633
   vertex -75.1979 81.1936 -6.72764
  endloop
 endfacet
 facet normal 0.122308 0.300249 -0.945987
  outer loop
   vertex -44.3305 133.532 2.94545
   vertex -50.842 163.306 11.5537
   vertex -48.3751 160.76 11.0645
  endloop
 endfacet
 facet normal -0.173156 -0.437219 -0.882529
  outer loop
   vertex -67.7206 126.316 -4.59029
   vertex -57.6151 126.842 -6.83346
   vertex -58.0542 123.9 -5.29015
  endloop
 endfacet
 facet normal -0.169989 -0.927241 -0.333658
  outer loop
   vertex -74.9485 80.1027 -3.82331
   vertex -75.1979 81.1936 -6.72764
   vertex -74.2047 79.7621 -3.25567
  endloop
 endfacet
 facet normal 0.394794 -0.764252 0.509957
  outer loop
   vertex -74.807 80.5807 -3.21654
   vertex -74.9485 80.1027 -3.82331
   vertex -66.7648 85.1295 -2.62537
  endloop
 endfacet
 facet normal -0.168612 0.0647124 -0.983556
  outer loop
   vertex -75.1979 81.1936 -6.72764
   vertex -74.1141 102.732 -5.49633
   vertex -73.5207 79.909 -7.09967
  endloop
 endfacet
 facet normal -0.0873995 -0.733948 -0.673559
  outer loop
   vertex -73.1879 78.1968 -3.723
   vertex -75.1979 81.1936 -6.72764
   vertex -72.0118 77.7301 -3.36709
  endloop
 endfacet
 facet normal 0.334608 0.532568 -0.777438
  outer loop
   vertex -61.5909 130.546 -6.52862
   vertex -44.3305 133.532 2.94545
   vertex -56.4631 126.821 -6.87352
  endloop
 endfacet
 facet normal 0.0337629 0.0709118 -0.996911
  outer loop
   vertex -73.5207 79.909 -7.09967
   vertex -74.1141 102.732 -5.49633
   vertex -72.4952 78.7207 -7.14947
  endloop
 endfacet
 facet normal -0.0338879 0.045786 -0.998376
  outer loop
   vertex -57.6151 126.842 -6.83346
   vertex -61.5909 130.546 -6.52862
   vertex -56.4631 126.821 -6.87352
  endloop
 endfacet
 facet normal 0.312976 0.462607 -0.829482
  outer loop
   vertex -48.3751 160.76 11.0645
   vertex -50.842 163.306 11.5537
   vertex -44.2044 160.293 12.3779
  endloop
 endfacet
 facet normal -0.039155 -0.459686 -0.887218
  outer loop
   vertex -58.0542 123.9 -5.29015
   vertex -57.6151 126.842 -6.83346
   vertex -56.4631 126.821 -6.87352
  endloop
 endfacet
 facet normal -0.106264 -0.343666 -0.93306
  outer loop
   vertex -72.2357 77.9917 -6.91054
   vertex -72.4952 78.7207 -7.14947
   vertex -70.2668 77.2884 -6.87573
  endloop
 endfacet
 facet normal 0.135403 0.30154 -0.94379
  outer loop
   vertex -44.3305 133.532 2.94545
   vertex -48.3751 160.76 11.0645
   vertex -42.815 158.857 11.2544
  endloop
 endfacet
 facet normal 0.171507 0.0791717 -0.981997
  outer loop
   vertex -72.4952 78.7207 -7.14947
   vertex -74.1141 102.732 -5.49633
   vertex -70.2668 77.2884 -6.87573
  endloop
 endfacet
 facet normal -0.30103 -0.862833 -0.406079
  outer loop
   vertex -72.2357 77.9917 -6.91054
   vertex -70.2668 77.2884 -6.87573
   vertex -71.4893 77.057 -5.47769
  endloop
 endfacet
 facet normal -0.139572 0.0325499 -0.989677
  outer loop
   vertex -70.2668 77.2884 -6.87573
   vertex -74.1141 102.732 -5.49633
   vertex -68.6327 77.8858 -7.08654
  endloop
 endfacet
 facet normal 0.384425 -0.923134 0.00640123
  outer loop
   vertex -71.6072 77.0179 -4.0326
   vertex -71.4893 77.057 -5.47769
   vertex -70.9815 77.2834 -3.31625
  endloop
 endfacet
 facet normal 0.357078 -0.920283 0.159918
  outer loop
   vertex -71.4893 77.057 -5.47769
   vertex -70.2668 77.2884 -6.87573
   vertex -68.6327 77.8858 -7.08654
  endloop
 endfacet
 facet normal 0.294519 -0.955147 0.0308777
  outer loop
   vertex -70.9815 77.2834 -3.31625
   vertex -71.4893 77.057 -5.47769
   vertex -68.6327 77.8858 -7.08654
  endloop
 endfacet
 facet normal -0.0351178 -0.983227 -0.178971
  outer loop
   vertex -70.9815 77.2834 -3.31625
   vertex -68.6327 77.8858 -7.08654
   vertex -68.5553 77.2571 -3.64784
  endloop
 endfacet
 facet normal 0.122038 0.302804 -0.945207
  outer loop
   vertex -44.3305 133.532 2.94545
   vertex -42.815 158.857 11.2544
   vertex -37.9462 157.288 11.3804
  endloop
 endfacet
 facet normal 0.18185 0.102709 -0.977948
  outer loop
   vertex -68.6327 77.8858 -7.08654
   vertex -74.1141 102.732 -5.49633
   vertex -65.2289 78.0928 -6.43188
  endloop
 endfacet
 facet normal 0.302673 0.510965 -0.804552
  outer loop
   vertex -47.4932 121.773 -6.70466
   vertex -56.4631 126.821 -6.87352
   vertex -48.7149 130.192 -1.81792
  endloop
 endfacet
 facet normal 0.0626725 -0.99798 -0.0103604
  outer loop
   vertex -68.6327 77.8858 -7.08654
   vertex -65.2289 78.0928 -6.43188
   vertex -65.9256 78.0142 -3.0766
  endloop
 endfacet
 facet normal -0.366041 -0.758422 -0.539268
  outer loop
   vertex -65.0054 77.7877 -3.38271
   vertex -65.9256 78.0142 -3.0766
   vertex -64.614 77.8731 -3.76846
  endloop
 endfacet
 facet normal -0.133292 -0.989771 -0.0508571
  outer loop
   vertex -65.9256 78.0142 -3.0766
   vertex -65.2289 78.0928 -6.43188
   vertex -64.614 77.8731 -3.76846
  endloop
 endfacet
 facet normal 0.270153 -0.960859 0.061379
  outer loop
   vertex -65.0054 77.7877 -3.38271
   vertex -64.614 77.8731 -3.76846
   vertex -63.6175 78.2028 -2.99284
  endloop
 endfacet
 facet normal 0.0576301 0.0831507 -0.994869
  outer loop
   vertex -64.5731 78.8733 -6.93774
   vertex -74.1141 102.732 -5.49633
   vertex -63.0363 78.9586 -6.84159
  endloop
 endfacet
 facet normal 0.366999 0.222101 -0.903318
  outer loop
   vertex -33.9572 156.245 12.7444
   vertex -44.3305 133.532 2.94545
   vertex -37.9462 157.288 11.3804
  endloop
 endfacet
 facet normal 0.0829906 -0.590139 -0.803025
  outer loop
   vertex -64.5731 78.8733 -6.93774
   vertex -63.0363 78.9586 -6.84159
   vertex -65.2289 78.0928 -6.43188
  endloop
 endfacet
 facet normal 0.15794 0.248706 -0.955615
  outer loop
   vertex -56.4631 126.821 -6.87352
   vertex -47.4932 121.773 -6.70466
   vertex -47.3589 120.038 -7.13399
  endloop
 endfacet
 facet normal 0.442578 -0.176809 -0.879126
  outer loop
   vertex -63.13 78.0688 -3.06075
   vertex -64.614 77.8731 -3.76846
   vertex -62.6963 78.3684 -2.90263
  endloop
 endfacet
 facet normal -0.00753592 -0.860707 0.509045
  outer loop
   vertex -62.6963 78.3684 -2.90263
   vertex -64.614 77.8731 -3.76846
   vertex -61.6407 78.2849 -3.02814
  endloop
 endfacet
 facet normal -0.276839 -0.337047 -0.899866
  outer loop
   vertex -56.4631 126.821 -6.87352
   vertex -47.3589 120.038 -7.13399
   vertex -58.0542 123.9 -5.29015
  endloop
 endfacet
 facet normal 0.028152 0.0695455 -0.997181
  outer loop
   vertex -63.0363 78.9586 -6.84159
   vertex -74.1141 102.732 -5.49633
   vertex -61.3484 79.2568 -6.77314
  endloop
 endfacet
 facet normal 0.153695 -0.712946 -0.684168
  outer loop
   vertex -65.2289 78.0928 -6.43188
   vertex -63.0363 78.9586 -6.84159
   vertex -61.3484 79.2568 -6.77314
  endloop
 endfacet
 facet normal -0.00167121 0.0110073 -0.999938
  outer loop
   vertex -58.0542 123.9 -5.29015
   vertex -40.9762 94.1407 -5.64628
   vertex -74.1141 102.732 -5.49633
  endloop
 endfacet
 facet normal 0.145098 -0.982763 -0.114554
  outer loop
   vertex -64.614 77.8731 -3.76846
   vertex -65.2289 78.0928 -6.43188
   vertex -58.8774 79.0234 -6.37048
  endloop
 endfacet
 facet normal 0.029865 -0.919643 0.391618
  outer loop
   vertex -61.6407 78.2849 -3.02814
   vertex -64.614 77.8731 -3.76846
   vertex -60.2578 78.3279 -3.03257
  endloop
 endfacet
 facet normal 0.0864686 -0.534698 -0.840608
  outer loop
   vertex -65.2289 78.0928 -6.43188
   vertex -61.3484 79.2568 -6.77314
   vertex -58.8774 79.0234 -6.37048
  endloop
 endfacet
 facet normal 0.205297 0.164117 -0.964841
  outer loop
   vertex -61.3484 79.2568 -6.77314
   vertex -74.1141 102.732 -5.49633
   vertex -58.2739 79.0507 -6.154
  endloop
 endfacet
 facet normal 0.313252 -0.0426527 -0.948712
  outer loop
   vertex -33.9572 156.245 12.7444
   vertex -37.9462 157.288 11.3804
   vertex -35.7115 156.969 12.1327
  endloop
 endfacet
 facet normal 0.127903 -0.980175 -0.151319
  outer loop
   vertex -60.2578 78.3279 -3.03257
   vertex -64.614 77.8731 -3.76846
   vertex -58.8774 79.0234 -6.37048
  endloop
 endfacet
 facet normal 0.769974 -0.608622 0.191624
  outer loop
   vertex -60.2578 78.3279 -3.03257
   vertex -58.8774 79.0234 -6.37048
   vertex -60.0428 78.6797 -2.77906
  endloop
 endfacet
 facet normal -0.0904873 -0.988159 -0.123911
  outer loop
   vertex -58.8774 79.0234 -6.37048
   vertex -58.7696 78.5853 -2.956
   vertex -60.0428 78.6797 -2.77906
  endloop
 endfacet
 facet normal 0.435674 -0.890949 -0.128056
  outer loop
   vertex -58.8774 79.0234 -6.37048
   vertex -57.9628 78.9399 -2.67776
   vertex -58.7696 78.5853 -2.956
  endloop
 endfacet
 facet normal 0.0585393 -0.997597 -0.0370561
  outer loop
   vertex -57.9628 78.9399 -2.67776
   vertex -58.8774 79.0234 -6.37048
   vertex -58.2739 79.0507 -6.154
  endloop
 endfacet
 facet normal 0.0398093 -0.99858 -0.0354112
  outer loop
   vertex -57.9628 78.9399 -2.67776
   vertex -58.2739 79.0507 -6.154
   vertex -55.0228 79.1178 -4.3903
  endloop
 endfacet
 facet normal -0.392849 -0.556358 -0.732213
  outer loop
   vertex -57.9628 78.9399 -2.67776
   vertex -55.0228 79.1178 -4.3903
   vertex -57.0637 78.7653 -3.02747
  endloop
 endfacet
 facet normal 0.198937 0.475303 -0.857036
  outer loop
   vertex -47.3589 120.038 -7.13399
   vertex -48.7149 130.192 -1.81792
   vertex -45.542 119.528 -6.99554
  endloop
 endfacet
 facet normal -0.230301 -0.127253 -0.964763
  outer loop
   vertex -58.2739 79.0507 -6.154
   vertex -74.1141 102.732 -5.49633
   vertex -56.8367 79.9012 -6.60926
  endloop
 endfacet
 facet normal 0.302594 -0.793779 -0.527591
  outer loop
   vertex -58.2739 79.0507 -6.154
   vertex -56.8367 79.9012 -6.60926
   vertex -55.0228 79.1178 -4.3903
  endloop
 endfacet
 facet normal 0.438339 0.494752 -0.750387
  outer loop
   vertex -48.7149 130.192 -1.81792
   vertex -44.3305 133.532 2.94545
   vertex -45.542 119.528 -6.99554
  endloop
 endfacet
 facet normal 0.0167164 0.0612986 -0.997979
  outer loop
   vertex -74.1141 102.732 -5.49633
   vertex -53.6371 79.9367 -6.55348
   vertex -56.8367 79.9012 -6.60926
  endloop
 endfacet
 facet normal 0.0164139 -0.938545 -0.344767
  outer loop
   vertex -56.8367 79.9012 -6.60926
   vertex -53.6371 79.9367 -6.55348
   vertex -55.0228 79.1178 -4.3903
  endloop
 endfacet
 facet normal 0.159 -0.987128 -0.0172219
  outer loop
   vertex -57.0637 78.7653 -3.02747
   vertex -55.0228 79.1178 -4.3903
   vertex -54.2666 79.2083 -2.59305
  endloop
 endfacet
 facet normal -0.101339 0.432752 -0.895799
  outer loop
   vertex -44.3305 133.532 2.94545
   vertex -33.9572 156.245 12.7444
   vertex -31.3523 153.913 11.3231
  endloop
 endfacet
 facet normal 0.920663 -0.0713909 -0.383775
  outer loop
   vertex -54.4241 79.085 -2.94792
   vertex -55.0228 79.1178 -4.3903
   vertex -54.2666 79.2083 -2.59305
  endloop
 endfacet
 facet normal -0.0470109 -0.996444 0.0699256
  outer loop
   vertex -55.0228 79.1178 -4.3903
   vertex -53.5626 79.1536 -2.89812
   vertex -54.2666 79.2083 -2.59305
  endloop
 endfacet
 facet normal 0.150335 0.180127 -0.972087
  outer loop
   vertex -53.6371 79.9367 -6.55348
   vertex -74.1141 102.732 -5.49633
   vertex -50.3745 79.7025 -6.09232
  endloop
 endfacet
 facet normal 0.0983296 -0.992517 -0.0724018
  outer loop
   vertex -53.5626 79.1536 -2.89812
   vertex -55.0228 79.1178 -4.3903
   vertex -50.3745 79.7025 -6.09232
  endloop
 endfacet
 facet normal -0.0156134 -0.931768 -0.362718
  outer loop
   vertex -55.0228 79.1178 -4.3903
   vertex -53.6371 79.9367 -6.55348
   vertex -50.3745 79.7025 -6.09232
  endloop
 endfacet
 facet normal 0.427684 -0.859752 0.27913
  outer loop
   vertex -53.5626 79.1536 -2.89812
   vertex -50.3745 79.7025 -6.09232
   vertex -52.9108 79.6529 -2.35879
  endloop
 endfacet
 facet normal 0.192909 0.265452 -0.944628
  outer loop
   vertex -20.2731 144.377 10.906
   vertex -44.3305 133.532 2.94545
   vertex -31.3523 153.913 11.3231
  endloop
 endfacet
 facet normal 0.0144592 0.0604556 -0.998066
  outer loop
   vertex -31.3523 153.913 11.3231
   vertex -26.0843 150.098 11.1684
   vertex -20.2731 144.377 10.906
  endloop
 endfacet
 facet normal -0.357791 -0.346379 -0.867184
  outer loop
   vertex -50.3745 79.7025 -6.09232
   vertex -74.1141 102.732 -5.49633
   vertex -49.8728 80.1761 -6.48851
  endloop
 endfacet
 facet normal 0.0671511 -0.997217 0.0323826
  outer loop
   vertex -50.3745 79.7025 -6.09232
   vertex -46.8883 80.0628 -2.22413
   vertex -52.9108 79.6529 -2.35879
  endloop
 endfacet
 facet normal 0.0510567 -0.997593 0.0469226
  outer loop
   vertex -46.8883 80.0628 -2.22413
   vertex -50.3745 79.7025 -6.09232
   vertex -49.3579 79.7618 -5.93694
  endloop
 endfacet
 facet normal 0.145625 -0.72098 -0.677481
  outer loop
   vertex -50.3745 79.7025 -6.09232
   vertex -49.8728 80.1761 -6.48851
   vertex -49.3579 79.7618 -5.93694
  endloop
 endfacet
 facet normal -0.256325 -0.26623 -0.929203
  outer loop
   vertex -58.0542 123.9 -5.29015
   vertex -47.3589 120.038 -7.13399
   vertex -36.7439 110.076 -7.20769
  endloop
 endfacet
 facet normal 0.00952162 0.0541541 -0.998487
  outer loop
   vertex -49.8728 80.1761 -6.48851
   vertex -74.1141 102.732 -5.49633
   vertex -40.9762 94.1407 -5.64628
  endloop
 endfacet
 facet normal 0.564905 -0.313866 -0.763132
  outer loop
   vertex -49.8728 80.1761 -6.48851
   vertex -40.9762 94.1407 -5.64628
   vertex -49.3579 79.7618 -5.93694
  endloop
 endfacet
 facet normal 0.110202 0.12471 -0.986054
  outer loop
   vertex -47.3589 120.038 -7.13399
   vertex -45.542 119.528 -6.99554
   vertex -36.7439 110.076 -7.20769
  endloop
 endfacet
 facet normal -0.0121544 0.00499103 -0.999914
  outer loop
   vertex -58.0542 123.9 -5.29015
   vertex -37.2273 99.5136 -5.66504
   vertex -40.9762 94.1407 -5.64628
  endloop
 endfacet
 facet normal 0.100979 -0.994797 0.0134906
  outer loop
   vertex -49.3579 79.7618 -5.93694
   vertex -46.223 80.0761 -6.22568
   vertex -46.8883 80.0628 -2.22413
  endloop
 endfacet
 facet normal 0.205802 0.044241 -0.977593
  outer loop
   vertex -74.1141 102.732 -5.49633
   vertex -75.8738 81.9989 -6.80506
   vertex -76.8487 83.3 -6.95141
  endloop
 endfacet
 facet normal -0.197496 -0.249155 -0.948112
  outer loop
   vertex -57.6151 126.842 -6.83346
   vertex -67.7206 126.316 -4.59029
   vertex -65.7276 132.228 -6.559
  endloop
 endfacet
 facet normal 0.0712792 0.157552 -0.984935
  outer loop
   vertex -61.5909 130.546 -6.52862
   vertex -57.6151 126.842 -6.83346
   vertex -65.7276 132.228 -6.559
  endloop
 endfacet
 facet normal 0.73903 -0.116211 -0.663573
  outer loop
   vertex -74.1141 102.732 -5.49633
   vertex -77.7789 83.5957 -6.22659
   vertex -78.1333 85.0174 -6.87027
  endloop
 endfacet
 facet normal -0.00909475 -0.999878 -0.0126742
  outer loop
   vertex -77.7789 83.5957 -6.22659
   vertex -77.8724 83.5566 -3.07002
   vertex -78.6248 83.5676 -3.40044
  endloop
 endfacet
 facet normal -0.254517 -0.450806 -0.855567
  outer loop
   vertex -77.7789 83.5957 -6.22659
   vertex -79.0794 84.868 -6.51012
   vertex -78.1333 85.0174 -6.87027
  endloop
 endfacet
 facet normal 0.339569 -0.0410549 -0.939685
  outer loop
   vertex -74.1141 102.732 -5.49633
   vertex -79.0794 84.868 -6.51012
   vertex -79.7357 86.3473 -6.81195
  endloop
 endfacet
 facet normal 0.141083 0.370104 -0.918215
  outer loop
   vertex -51.7918 164.332 14.2137
   vertex -44.3305 133.532 2.94545
   vertex -80.2932 162.671 9.16511
  endloop
 endfacet
 facet normal 0.302252 0.576049 -0.759481
  outer loop
   vertex -44.3305 133.532 2.94545
   vertex -65.7276 132.228 -6.559
   vertex -66.3909 139.455 -1.34156
  endloop
 endfacet
 facet normal -0.197866 -0.815339 -0.544125
  outer loop
   vertex -79.7357 86.3473 -6.81195
   vertex -79.0326 83.9742 -3.51168
   vertex -80.3208 86.4915 -6.81523
  endloop
 endfacet
 facet normal 0.0233549 0.0720516 -0.997127
  outer loop
   vertex -74.1141 102.732 -5.49633
   vertex -79.7357 86.3473 -6.81195
   vertex -80.3208 86.4915 -6.81523
  endloop
 endfacet
 facet normal 0.592521 0.241939 -0.768365
  outer loop
   vertex -55.2464 166.592 12.2614
   vertex -51.7918 164.332 14.2137
   vertex -55.6331 166.393 11.9006
  endloop
 endfacet
 facet normal 0.167845 -0.361948 -0.916963
  outer loop
   vertex -65.7276 132.228 -6.559
   vertex -67.7206 126.316 -4.59029
   vertex -67.2663 132.055 -6.77248
  endloop
 endfacet
 facet normal 0.175249 -0.572353 -0.801062
  outer loop
   vertex -51.7918 164.332 14.2137
   vertex -80.2932 162.671 9.16511
   vertex -55.6331 166.393 11.9006
  endloop
 endfacet
 facet normal -0.0586284 0.0541888 -0.996808
  outer loop
   vertex -58.0542 123.9 -5.29015
   vertex -74.1141 102.732 -5.49633
   vertex -67.7206 126.316 -4.59029
  endloop
 endfacet
 facet normal 0.0240019 0.0718046 -0.99713
  outer loop
   vertex -74.1141 102.732 -5.49633
   vertex -80.3208 86.4915 -6.81523
   vertex -81.364 87.6821 -6.75461
  endloop
 endfacet
 facet normal 0.0342399 0.641856 -0.766061
  outer loop
   vertex -65.7276 132.228 -6.559
   vertex -67.2663 132.055 -6.77248
   vertex -67.4895 135.696 -3.73145
  endloop
 endfacet
 facet normal -0.33801 -0.311001 -0.888272
  outer loop
   vertex -67.2663 132.055 -6.77248
   vertex -67.7206 126.316 -4.59029
   vertex -67.67 132.4 -6.73972
  endloop
 endfacet
 facet normal 0.0869466 0.147974 -0.985162
  outer loop
   vertex -55.6331 166.393 11.9006
   vertex -80.2932 162.671 9.16511
   vertex -56.8005 166.895 11.8728
  endloop
 endfacet
 facet normal 0.374849 0.416977 -0.828021
  outer loop
   vertex -66.3909 139.455 -1.34156
   vertex -67.4895 135.696 -3.73145
   vertex -71.9337 133.72 -6.73881
  endloop
 endfacet
 facet normal 0.0725593 0.220069 -0.972782
  outer loop
   vertex -56.8005 166.895 11.8728
   vertex -80.2932 162.671 9.16511
   vertex -59.5229 167.954 11.9095
  endloop
 endfacet
 facet normal -0.102512 -0.330592 -0.93819
  outer loop
   vertex -67.67 132.4 -6.73972
   vertex -67.7206 126.316 -4.59029
   vertex -71.9337 133.72 -6.73881
  endloop
 endfacet
 facet normal -0.360545 -0.932434 -0.0239701
  outer loop
   vertex -85.1169 90.3616 -6.2363
   vertex -84.1833 90.0109 -6.63599
   vertex -86.7771 90.9288 -3.3296
  endloop
 endfacet
 facet normal -0.0805694 -0.319806 -0.944051
  outer loop
   vertex -71.9337 133.72 -6.73881
   vertex -67.7206 126.316 -4.59029
   vertex -82.854 131.042 -4.89983
  endloop
 endfacet
 facet normal -0.00878523 0.0407657 -0.99913
  outer loop
   vertex -74.1141 102.732 -5.49633
   vertex -83.3749 124.759 -4.51617
   vertex -67.7206 126.316 -4.59029
  endloop
 endfacet
 facet normal 0.0332212 0.354767 -0.934364
  outer loop
   vertex -59.5229 167.954 11.9095
   vertex -80.2932 162.671 9.16511
   vertex -62.7466 169.203 12.2692
  endloop
 endfacet
 facet normal 0.0537029 -0.704856 -0.707315
  outer loop
   vertex -71.9337 133.72 -6.73881
   vertex -82.854 131.042 -4.89983
   vertex -74.8803 133.46 -6.70336
  endloop
 endfacet
 facet normal 0.00134611 -0.0610599 -0.998133
  outer loop
   vertex -67.7206 126.316 -4.59029
   vertex -83.3749 124.759 -4.51617
   vertex -82.854 131.042 -4.89983
  endloop
 endfacet
 facet normal 0.12471 0.613408 -0.779858
  outer loop
   vertex -66.3909 139.455 -1.34156
   vertex -71.9337 133.72 -6.73881
   vertex -82.4476 142.471 -1.53636
  endloop
 endfacet
 facet normal 0.182456 0.655057 -0.733219
  outer loop
   vertex -82.4476 142.471 -1.53636
   vertex -71.9337 133.72 -6.73881
   vertex -78.5569 136.072 -6.28543
  endloop
 endfacet
 facet normal 0.0137391 0.0767339 -0.996957
  outer loop
   vertex -74.1141 102.732 -5.49633
   vertex -81.364 87.6821 -6.75461
   vertex -88.6455 94.0281 -6.36651
  endloop
 endfacet
 facet normal -0.0230675 0.126199 -0.991737
  outer loop
   vertex -71.9337 133.72 -6.73881
   vertex -74.8803 133.46 -6.70336
   vertex -78.5569 136.072 -6.28543
  endloop
 endfacet
 facet normal -0.137931 -0.258394 -0.956142
  outer loop
   vertex -74.8803 133.46 -6.70336
   vertex -82.854 131.042 -4.89983
   vertex -79.2492 135.658 -6.66712
  endloop
 endfacet
 facet normal 0.215299 0.442296 -0.870643
  outer loop
   vertex -78.5569 136.072 -6.28543
   vertex -74.8803 133.46 -6.70336
   vertex -79.2492 135.658 -6.66712
  endloop
 endfacet
 facet normal -0.434781 -0.198041 -0.87849
  outer loop
   vertex -89.2991 95.2372 -6.31558
   vertex -88.6455 94.0281 -6.36651
   vertex -89.7619 94.6244 -5.94844
  endloop
 endfacet
 facet normal 0.026126 0.056166 -0.99808
  outer loop
   vertex -74.1141 102.732 -5.49633
   vertex -88.6455 94.0281 -6.36651
   vertex -89.2991 95.2372 -6.31558
  endloop
 endfacet
 facet normal 0.0287979 -0.716063 0.697441
  outer loop
   vertex -71.9391 139.863 2.78632
   vertex -65.4818 145.677 8.48841
   vertex -112.16 137.326 1.84175
  endloop
 endfacet
 facet normal -0.345857 -0.27613 -0.896736
  outer loop
   vertex -89.2991 95.2372 -6.31558
   vertex -89.7619 94.6244 -5.94844
   vertex -90.1374 94.9994 -5.91905
  endloop
 endfacet
 facet normal 0.0863366 0.308731 -0.947223
  outer loop
   vertex -44.3305 133.532 2.94545
   vertex -89.354 148.164 3.611
   vertex -80.2932 162.671 9.16511
  endloop
 endfacet
 facet normal 0.0401399 0.338852 -0.939983
  outer loop
   vertex -62.7466 169.203 12.2692
   vertex -80.2932 162.671 9.16511
   vertex -67.0201 170.367 12.506
  endloop
 endfacet
 facet normal 0.0893513 -0.131177 -0.987324
  outer loop
   vertex -74.1141 102.732 -5.49633
   vertex -90.1374 94.9994 -5.91905
   vertex -91.049 96.0221 -6.13742
  endloop
 endfacet
 facet normal -0.0345704 0.181157 -0.982846
  outer loop
   vertex -74.1141 102.732 -5.49633
   vertex -91.049 96.0221 -6.13742
   vertex -92.7331 97.7818 -5.75385
  endloop
 endfacet
 facet normal 0.260484 -0.515936 -0.816063
  outer loop
   vertex -79.2492 135.658 -6.66712
   vertex -82.854 131.042 -4.89983
   vertex -80.9217 135.081 -6.83642
  endloop
 endfacet
 facet normal 0.0682495 -0.205918 -0.976186
  outer loop
   vertex -74.1141 102.732 -5.49633
   vertex -92.7331 97.7818 -5.75385
   vertex -93.4013 99.2813 -6.11688
  endloop
 endfacet
 facet normal 0.532565 -0.741042 -0.408939
  outer loop
   vertex -67.8841 170.108 11.8499
   vertex -67.0201 170.367 12.506
   vertex -80.2932 162.671 9.16511
  endloop
 endfacet
 facet normal 0.01051 0.324 -0.945999
  outer loop
   vertex -67.8841 170.108 11.8499
   vertex -80.2932 162.671 9.16511
   vertex -70.521 170.934 12.1035
  endloop
 endfacet
 facet normal 0.0208153 0.0630923 -0.997791
  outer loop
   vertex -74.1141 102.732 -5.49633
   vertex -93.4013 99.2813 -6.11688
   vertex -93.8051 99.6136 -6.10429
  endloop
 endfacet
 facet normal 0.0223367 0.0535875 -0.998313
  outer loop
   vertex -74.1141 102.732 -5.49633
   vertex -93.8051 99.6136 -6.10429
   vertex -94.0375 100.138 -6.08136
  endloop
 endfacet
 facet normal -0.0102945 0.294547 -0.955582
  outer loop
   vertex -74.1141 102.732 -5.49633
   vertex -94.0375 100.138 -6.08136
   vertex -95.5676 101.268 -5.71662
  endloop
 endfacet
 facet normal 0.00154483 -0.432973 -0.901406
  outer loop
   vertex -80.9217 135.081 -6.83642
   vertex -82.854 131.042 -4.89983
   vertex -89.1815 135.152 -6.88458
  endloop
 endfacet
 facet normal 0.00647013 0.0765615 -0.997044
  outer loop
   vertex -80.9217 135.081 -6.83642
   vertex -89.1815 135.152 -6.88458
   vertex -85.1145 136.11 -6.78459
  endloop
 endfacet
 facet normal 0.0342279 0.188855 -0.981408
  outer loop
   vertex -79.2492 135.658 -6.66712
   vertex -80.9217 135.081 -6.83642
   vertex -85.1145 136.11 -6.78459
  endloop
 endfacet
 facet normal 0.0158556 0.662992 -0.748458
  outer loop
   vertex -78.5569 136.072 -6.28543
   vertex -79.2492 135.658 -6.66712
   vertex -86.6424 139.283 -3.61268
  endloop
 endfacet
 facet normal 0.0940394 0.233001 -0.967919
  outer loop
   vertex -70.521 170.934 12.1035
   vertex -80.2932 162.671 9.16511
   vertex -74.195 171.304 11.8356
  endloop
 endfacet
 facet normal -0.0359864 -0.0579361 -0.997671
  outer loop
   vertex -83.3749 124.759 -4.51617
   vertex -89.3666 129.186 -4.55712
   vertex -82.854 131.042 -4.89983
  endloop
 endfacet
 facet normal 0.116955 0.0931691 -0.988757
  outer loop
   vertex -74.1141 102.732 -5.49633
   vertex -92.6696 131.155 -5.01293
   vertex -83.3749 124.759 -4.51617
  endloop
 endfacet
 facet normal 0.0549404 -0.364387 -0.929625
  outer loop
   vertex -82.854 131.042 -4.89983
   vertex -89.3666 129.186 -4.55712
   vertex -89.1815 135.152 -6.88458
  endloop
 endfacet
 facet normal -0.0384758 0.580304 -0.813491
  outer loop
   vertex -86.6424 139.283 -3.61268
   vertex -82.4476 142.471 -1.53636
   vertex -78.5569 136.072 -6.28543
  endloop
 endfacet
 facet normal 0.0139296 -0.053865 -0.998451
  outer loop
   vertex -74.1141 102.732 -5.49633
   vertex -95.5676 101.268 -5.71662
   vertex -96.5739 103.562 -5.85445
  endloop
 endfacet
 facet normal 0.0930337 0.23369 -0.96785
  outer loop
   vertex -80.2932 162.671 9.16511
   vertex -76.0133 170.855 11.5524
   vertex -74.195 171.304 11.8356
  endloop
 endfacet
 facet normal 0.0314202 0.469494 -0.882376
  outer loop
   vertex -98.0112 104.273 -5.52731
   vertex -74.1141 102.732 -5.49633
   vertex -96.5739 103.562 -5.85445
  endloop
 endfacet
endsolid
