solid ascii
 facet normal 0.369096 -0.528377 0.764582
  outer loop
   vertex -142.167 10.4064 -0.817866
   vertex -144.089 9.81401 -0.299226
   vertex -143.117 9.50891 -0.979556
  endloop
 endfacet
 facet normal 0.112767 -0.103063 0.988262
  outer loop
   vertex -207.152 1.83706 12.8779
   vertex -222.197 12.5782 15.7148
   vertex -222.215 7.62828 15.2007
  endloop
 endfacet
 facet normal 0.0236674 0.499334 0.866086
  outer loop
   vertex -143.117 9.50891 -0.979556
   vertex -180.92 5.8847 2.143
   vertex -144.452 8.57156 -0.40266
  endloop
 endfacet
 facet normal 0.0677853 0.0249219 0.997389
  outer loop
   vertex -144.452 8.57156 -0.40266
   vertex -180.92 5.8847 2.143
   vertex -148.74 4.95227 -0.0207809
  endloop
 endfacet
 facet normal 0.1723 -0.0244544 0.984741
  outer loop
   vertex -180.92 5.8847 2.143
   vertex -194.679 30.1099 5.15186
   vertex -185.405 0.231196 2.78729
  endloop
 endfacet
 facet normal 0.220348 0.189349 0.956867
  outer loop
   vertex -207.152 1.83706 12.8779
   vertex -222.215 7.62828 15.2007
   vertex -221.72 6.35862 15.338
  endloop
 endfacet
 facet normal 0.2925 0.498402 0.816112
  outer loop
   vertex -207.152 1.83706 12.8779
   vertex -221.72 6.35862 15.338
   vertex -221.313 5.98433 15.4208
  endloop
 endfacet
 facet normal 0.31293 0.748633 -0.584486
  outer loop
   vertex -182.447 4.743 -5.49463
   vertex -175.319 3.27938 -3.55301
   vertex -181.448 4.24026 -5.60328
  endloop
 endfacet
 facet normal 0.164172 -0.0436343 0.985466
  outer loop
   vertex -207.152 1.83706 12.8779
   vertex -221.313 5.98433 15.4208
   vertex -220.839 3.46935 15.2304
  endloop
 endfacet
 facet normal 0.0670527 -0.00119563 0.997749
  outer loop
   vertex -148.74 4.95227 -0.0207809
   vertex -180.92 5.8847 2.143
   vertex -152.565 1.79172 0.232471
  endloop
 endfacet
 facet normal 0.178961 0.088441 0.979873
  outer loop
   vertex -207.152 1.83706 12.8779
   vertex -220.839 3.46935 15.2304
   vertex -220.408 2.47382 15.2415
  endloop
 endfacet
 facet normal 0.0565463 -0.0730388 0.995725
  outer loop
   vertex -152.565 1.79172 0.232471
   vertex -180.92 5.8847 2.143
   vertex -153.939 0.429446 0.210617
  endloop
 endfacet
 facet normal 0.115868 0.230865 0.966062
  outer loop
   vertex -153.939 0.429446 0.210617
   vertex -180.92 5.8847 2.143
   vertex -155.027 0.146966 0.408611
  endloop
 endfacet
 facet normal 0.424107 0.214169 0.879923
  outer loop
   vertex -185.405 0.231196 2.78729
   vertex -207.152 1.83706 12.8779
   vertex -204.375 -1.42312 12.3333
  endloop
 endfacet
 facet normal 0.173328 -0.0437626 0.983891
  outer loop
   vertex -207.152 1.83706 12.8779
   vertex -220.408 2.47382 15.2415
   vertex -219.91 0.585567 15.0699
  endloop
 endfacet
 facet normal 0.0595156 -0.032997 0.997682
  outer loop
   vertex -155.027 0.146966 0.408611
   vertex -180.92 5.8847 2.143
   vertex -156.305 -1.18731 0.440674
  endloop
 endfacet
 facet normal 0.174944 -0.0625162 0.982592
  outer loop
   vertex -219.02 -2.09219 14.741
   vertex -207.152 1.83706 12.8779
   vertex -219.91 0.585567 15.0699
  endloop
 endfacet
 facet normal 0.0719697 0.0104318 0.997352
  outer loop
   vertex -156.305 -1.18731 0.440674
   vertex -180.92 5.8847 2.143
   vertex -158.241 -2.38968 0.592981
  endloop
 endfacet
 facet normal 0.16332 -0.0256773 0.986239
  outer loop
   vertex -207.152 1.83706 12.8779
   vertex -219.02 -2.09219 14.741
   vertex -204.375 -1.42312 12.3333
  endloop
 endfacet
 facet normal 0.394484 -0.541241 0.742591
  outer loop
   vertex -156.305 -1.18731 0.440674
   vertex -158.241 -2.38968 0.592981
   vertex -157.482 -2.38874 0.19028
  endloop
 endfacet
 facet normal 0.0176596 -0.137125 0.990396
  outer loop
   vertex -158.241 -2.38968 0.592981
   vertex -180.92 5.8847 2.143
   vertex -158.476 -2.87321 0.530221
  endloop
 endfacet
 facet normal 0.0931519 0.0556636 0.994095
  outer loop
   vertex -158.476 -2.87321 0.530221
   vertex -180.92 5.8847 2.143
   vertex -159.42 -3.47804 0.652527
  endloop
 endfacet
 facet normal 0.246796 0.452202 0.857091
  outer loop
   vertex -191.26 -7.66759 8.64067
   vertex -185.405 0.231196 2.78729
   vertex -195.74 -8.74862 10.5009
  endloop
 endfacet
 facet normal -0.122252 -0.423623 0.897551
  outer loop
   vertex -159.42 -3.47804 0.652527
   vertex -180.92 5.8847 2.143
   vertex -159.604 -4.05501 0.355091
  endloop
 endfacet
 facet normal 0.342044 0.604058 0.719805
  outer loop
   vertex -159.604 -4.05501 0.355091
   vertex -180.92 5.8847 2.143
   vertex -160.085 -4.1482 0.661608
  endloop
 endfacet
 facet normal 0.0522913 -0.0387442 0.99788
  outer loop
   vertex -160.085 -4.1482 0.661608
   vertex -180.92 5.8847 2.143
   vertex -165.656 -8.33348 0.791059
  endloop
 endfacet
 facet normal 0.154261 0.14209 0.97776
  outer loop
   vertex -204.375 -1.42312 12.3333
   vertex -219.02 -2.09219 14.741
   vertex -217.297 -4.30027 14.79
  endloop
 endfacet
 facet normal 0.23546 -0.257162 0.937244
  outer loop
   vertex -204.375 -1.42312 12.3333
   vertex -217.297 -4.30027 14.79
   vertex -217.242 -5.5229 14.4408
  endloop
 endfacet
 facet normal 0.413838 0.270408 0.869263
  outer loop
   vertex -185.405 0.231196 2.78729
   vertex -204.375 -1.42312 12.3333
   vertex -195.74 -8.74862 10.5009
  endloop
 endfacet
 facet normal 0.0679875 0.279033 0.957872
  outer loop
   vertex -204.375 -1.42312 12.3333
   vertex -217.242 -5.5229 14.4408
   vertex -216.701 -6.09373 14.5687
  endloop
 endfacet
 facet normal 0.0882369 0.230907 0.968967
  outer loop
   vertex -215.342 -6.84424 14.6238
   vertex -204.375 -1.42312 12.3333
   vertex -216.701 -6.09373 14.5687
  endloop
 endfacet
 facet normal 0.111249 0.0249707 0.993479
  outer loop
   vertex -180.92 5.8847 2.143
   vertex -185.405 0.231196 2.78729
   vertex -165.656 -8.33348 0.791059
  endloop
 endfacet
 facet normal 0.301921 0.888621 -0.345248
  outer loop
   vertex -174.923 -7.65447 -6.21299
   vertex -166.911 -9.21169 -3.21449
   vertex -173.713 -8.08984 -6.27538
  endloop
 endfacet
 facet normal 0.12324 0.0532097 0.990949
  outer loop
   vertex -165.656 -8.33348 0.791059
   vertex -185.405 0.231196 2.78729
   vertex -167.332 -9.32916 1.05293
  endloop
 endfacet
 facet normal -0.0258726 -0.225584 0.97388
  outer loop
   vertex -167.332 -9.32916 1.05293
   vertex -185.405 0.231196 2.78729
   vertex -168.524 -10.5079 0.748218
  endloop
 endfacet
 facet normal 0.492026 0.823017 0.283819
  outer loop
   vertex -119.25 30.6691 -1.08743
   vertex -118.86 30.6031 -1.5727
   vertex -133.211 38.7297 -0.258745
  endloop
 endfacet
 facet normal -0.0395365 0.99728 0.0622121
  outer loop
   vertex -196.793 100.084 16.9132
   vertex -196.373 100.075 17.3301
   vertex -195.871 100.204 15.5737
  endloop
 endfacet
 facet normal 0.205324 -0.00183824 0.978692
  outer loop
   vertex -204.375 -1.42312 12.3333
   vertex -215.342 -6.84424 14.6238
   vertex -214.588 -8.80331 14.4619
  endloop
 endfacet
 facet normal 0.0754666 0.913511 -0.399753
  outer loop
   vertex -172.582 -10.1844 -6.50788
   vertex -166.911 -9.21169 -3.21449
   vertex -169.048 -9.97904 -5.37149
  endloop
 endfacet
 facet normal 0.363946 -0.244373 0.898791
  outer loop
   vertex -204.375 -1.42312 12.3333
   vertex -214.588 -8.80331 14.4619
   vertex -214.655 -9.71602 14.2411
  endloop
 endfacet
 facet normal 0.160505 0.0653015 0.984872
  outer loop
   vertex -168.524 -10.5079 0.748218
   vertex -185.405 0.231196 2.78729
   vertex -170.982 -12.0289 1.24958
  endloop
 endfacet
 facet normal 0.646741 -0.0541521 0.760785
  outer loop
   vertex -198.097 98.6398 17.1412
   vertex -198.528 97.8235 17.4488
   vertex -198.745 95.4229 17.4627
  endloop
 endfacet
 facet normal 0.0509289 -0.0650793 0.99658
  outer loop
   vertex -170.982 -12.0289 1.24958
   vertex -185.405 0.231196 2.78729
   vertex -171.21 -12.521 1.22913
  endloop
 endfacet
 facet normal 0.185886 -0.00438139 0.982562
  outer loop
   vertex -204.375 -1.42312 12.3333
   vertex -214.655 -9.71602 14.2411
   vertex -213.367 -12.3954 13.9855
  endloop
 endfacet
 facet normal 0.157837 0.0552266 0.98592
  outer loop
   vertex -185.405 0.231196 2.78729
   vertex -174.722 -15.0873 1.93511
   vertex -171.21 -12.521 1.22913
  endloop
 endfacet
 facet normal 0.158183 0.0190235 0.987227
  outer loop
   vertex -204.375 -1.42312 12.3333
   vertex -213.367 -12.3954 13.9855
   vertex -211.165 -18.5607 13.7514
  endloop
 endfacet
 facet normal 0.206786 -0.00096321 0.978386
  outer loop
   vertex -195.74 -8.74862 10.5009
   vertex -204.375 -1.42312 12.3333
   vertex -211.165 -18.5607 13.7514
  endloop
 endfacet
 facet normal 0.461611 0.281271 0.84131
  outer loop
   vertex -185.405 0.231196 2.78729
   vertex -191.26 -7.66759 8.64067
   vertex -182.454 -16.8595 6.88201
  endloop
 endfacet
 facet normal 0.164776 -0.385208 0.908
  outer loop
   vertex -173.001 -13.6201 -3.97953
   vertex -166.911 -9.21169 -3.21449
   vertex -173.603 -13.7593 -3.92927
  endloop
 endfacet
 facet normal 0.508408 0.282665 0.813401
  outer loop
   vertex -185.405 0.231196 2.78729
   vertex -182.454 -16.8595 6.88201
   vertex -174.867 -15.6594 1.72269
  endloop
 endfacet
 facet normal 0.534477 0.175389 0.826785
  outer loop
   vertex -174.867 -15.6594 1.72269
   vertex -182.454 -16.8595 6.88201
   vertex -180.939 -19.0408 6.36502
  endloop
 endfacet
 facet normal 0.10216 0.164407 0.981088
  outer loop
   vertex -195.74 -8.74862 10.5009
   vertex -211.165 -18.5607 13.7514
   vertex -209.786 -19.8522 13.8242
  endloop
 endfacet
 facet normal 0.47845 0.126466 0.86896
  outer loop
   vertex -180.939 -19.0408 6.36502
   vertex -182.454 -16.8595 6.88201
   vertex -182.223 -19.4262 7.12829
  endloop
 endfacet
 facet normal 0.659243 0.716738 0.227343
  outer loop
   vertex -209.786 -19.8522 13.8242
   vertex -211.165 -18.5607 13.7514
   vertex -210.795 -18.9289 13.8409
  endloop
 endfacet
 facet normal 0.425024 -0.280014 0.860782
  outer loop
   vertex -191.26 -7.66759 8.64067
   vertex -195.74 -8.74862 10.5009
   vertex -209.786 -19.8522 13.8242
  endloop
 endfacet
 facet normal 0.428143 0.124444 0.895102
  outer loop
   vertex -182.223 -19.4262 7.12829
   vertex -182.454 -16.8595 6.88201
   vertex -184.519 -20.4695 8.37177
  endloop
 endfacet
 facet normal 0.37256 0.18285 0.909816
  outer loop
   vertex -191.26 -7.66759 8.64067
   vertex -187.076 -21.4648 9.70019
   vertex -182.454 -16.8595 6.88201
  endloop
 endfacet
 facet normal 0.415493 0.133592 0.899733
  outer loop
   vertex -182.454 -16.8595 6.88201
   vertex -187.076 -21.4648 9.70019
   vertex -184.519 -20.4695 8.37177
  endloop
 endfacet
 facet normal 0.100075 0.106318 0.989283
  outer loop
   vertex -187.076 -21.4648 9.70019
   vertex -191.26 -7.66759 8.64067
   vertex -188.977 -23.1329 10.0717
  endloop
 endfacet
 facet normal 0.255076 0.958467 0.12758
  outer loop
   vertex -188.431 -22.6242 10.0543
   vertex -189.903 -22.3067 10.6117
   vertex -188.852 -22.545 10.3013
  endloop
 endfacet
 facet normal 0.604479 0.161443 0.78009
  outer loop
   vertex -188.977 -23.1329 10.0717
   vertex -191.26 -7.66759 8.64067
   vertex -189.623 -23.0965 10.5651
  endloop
 endfacet
 facet normal 0.12049 0.135447 0.983431
  outer loop
   vertex -189.623 -23.0965 10.5651
   vertex -191.26 -7.66759 8.64067
   vertex -193.054 -25.7169 11.3463
  endloop
 endfacet
 facet normal 0.188792 0.127208 0.973743
  outer loop
   vertex -191.26 -7.66759 8.64067
   vertex -209.786 -19.8522 13.8242
   vertex -193.054 -25.7169 11.3463
  endloop
 endfacet
 facet normal 0.805302 -0.182845 0.563965
  outer loop
   vertex -190.224 -23.8567 6.59034
   vertex -191.025 -24.5914 7.49606
   vertex -190.519 -24.2655 6.87839
  endloop
 endfacet
 facet normal -0.162878 -0.117983 0.979567
  outer loop
   vertex -209.786 -19.8522 13.8242
   vertex -209.568 -22.7003 13.5174
   vertex -207.099 -26.1654 13.5106
  endloop
 endfacet
 facet normal 0.240908 0.296907 0.924018
  outer loop
   vertex -193.054 -25.7169 11.3463
   vertex -209.786 -19.8522 13.8242
   vertex -193.986 -25.9692 11.6704
  endloop
 endfacet
 facet normal 0.1393 0.0111567 0.990187
  outer loop
   vertex -209.786 -19.8522 13.8242
   vertex -203.943 -31.3859 13.1322
   vertex -193.986 -25.9692 11.6704
  endloop
 endfacet
 facet normal 0.12632 0.00447412 0.991979
  outer loop
   vertex -209.786 -19.8522 13.8242
   vertex -207.099 -26.1654 13.5106
   vertex -203.943 -31.3859 13.1322
  endloop
 endfacet
 facet normal 0.165555 -0.0383835 0.985453
  outer loop
   vertex -193.986 -25.9692 11.6704
   vertex -203.943 -31.3859 13.1322
   vertex -201.447 -31.4365 12.7109
  endloop
 endfacet
 facet normal 0.0697917 0.951617 0.299255
  outer loop
   vertex -201.447 -31.4365 12.7109
   vertex -203.943 -31.3859 13.1322
   vertex -202.312 -31.4889 13.0793
  endloop
 endfacet
 facet normal -0.00240751 -0.486929 0.873438
  outer loop
   vertex -202.312 -31.4889 13.0793
   vertex -203.943 -31.3859 13.1322
   vertex -203.586 -32.0818 12.7452
  endloop
 endfacet
 facet normal 0.00233158 -0.494656 0.869085
  outer loop
   vertex -202.312 -31.4889 13.0793
   vertex -203.586 -32.0818 12.7452
   vertex -202.698 -32.3875 12.5689
  endloop
 endfacet
 facet normal 0.467779 0.859153 0.207459
  outer loop
   vertex -133.455 50.0792 0.177941
   vertex -134.492 51.3542 -2.76415
   vertex -138.901 52.9057 0.751462
  endloop
 endfacet
 facet normal 0.108479 -0.0272803 0.993724
  outer loop
   vertex -137.56 52.2453 0.587048
   vertex -138.901 52.9057 0.751462
   vertex -133.211 38.7297 -0.258745
  endloop
 endfacet
 facet normal 0.331275 -0.329413 0.884163
  outer loop
   vertex -206.911 66.5431 15.6397
   vertex -219.406 58.2451 17.2297
   vertex -188.199 73.2565 11.1302
  endloop
 endfacet
 facet normal 0.286369 -0.216036 0.933446
  outer loop
   vertex -188.199 73.2565 11.1302
   vertex -219.406 58.2451 17.2297
   vertex -220.989 56.2533 17.2546
  endloop
 endfacet
 facet normal 0.456881 0.869133 0.189387
  outer loop
   vertex -138.901 52.9057 0.751462
   vertex -134.492 51.3542 -2.76415
   vertex -138.464 53.4103 -2.6167
  endloop
 endfacet
 facet normal 0.123055 -0.02132 0.992171
  outer loop
   vertex -133.211 38.7297 -0.258745
   vertex -138.901 52.9057 0.751462
   vertex -140.241 53.5303 0.931142
  endloop
 endfacet
 facet normal -0.21667 -0.00487989 0.976233
  outer loop
   vertex -221.727 54.6473 17.0828
   vertex -221.199 52.7195 17.1904
   vertex -220.989 56.2533 17.2546
  endloop
 endfacet
 facet normal 0.520526 0.831964 0.192061
  outer loop
   vertex -138.901 52.9057 0.751462
   vertex -138.464 53.4103 -2.6167
   vertex -141.101 54.9563 -2.1679
  endloop
 endfacet
 facet normal 0.436123 0.857322 0.273487
  outer loop
   vertex -140.241 53.5303 0.931142
   vertex -138.901 52.9057 0.751462
   vertex -141.101 54.9563 -2.1679
  endloop
 endfacet
 facet normal 0.884917 0.464669 -0.0317014
  outer loop
   vertex -140.241 53.5303 0.931142
   vertex -141.101 54.9563 -2.1679
   vertex -140.707 54.4068 0.759621
  endloop
 endfacet
 facet normal 0.153957 0.00943292 0.988032
  outer loop
   vertex -143.412 55.8644 1.16717
   vertex -133.211 38.7297 -0.258745
   vertex -140.707 54.4068 0.759621
  endloop
 endfacet
 facet normal -0.0625054 0.0621103 0.99611
  outer loop
   vertex -220.989 56.2533 17.2546
   vertex -219.406 58.2451 17.2297
   vertex -221.079 58.0389 17.1376
  endloop
 endfacet
 facet normal 0.070247 0.88745 -0.455519
  outer loop
   vertex -176.29 81.6797 3.34446
   vertex -177.143 82.8552 5.50296
   vertex -175.382 81.8356 3.78801
  endloop
 endfacet
 facet normal 0.553843 0.828661 0.0811122
  outer loop
   vertex -140.707 54.4068 0.759621
   vertex -141.101 54.9563 -2.1679
   vertex -144.266 56.7792 0.818865
  endloop
 endfacet
 facet normal 0.45835 0.672964 0.580547
  outer loop
   vertex -140.707 54.4068 0.759621
   vertex -144.266 56.7792 0.818865
   vertex -145.141 56.8898 1.3814
  endloop
 endfacet
 facet normal 0.114534 -0.0144762 0.993314
  outer loop
   vertex -133.211 38.7297 -0.258745
   vertex -143.412 55.8644 1.16717
   vertex -145.141 56.8898 1.3814
  endloop
 endfacet
 facet normal 0.0822497 -0.0379679 0.995888
  outer loop
   vertex -189.798 51.4551 4.89981
   vertex -133.211 38.7297 -0.258745
   vertex -145.833 57.1123 1.4845
  endloop
 endfacet
 facet normal 0.150174 0.00935966 0.988615
  outer loop
   vertex -133.211 38.7297 -0.258745
   vertex -145.141 56.8898 1.3814
   vertex -145.833 57.1123 1.4845
  endloop
 endfacet
 facet normal 0.583244 0.802069 0.128497
  outer loop
   vertex -144.266 56.7792 0.818865
   vertex -141.101 54.9563 -2.1679
   vertex -144.921 57.2345 0.953455
  endloop
 endfacet
 facet normal 0.584401 0.750476 0.308644
  outer loop
   vertex -144.638 56.9143 1.19453
   vertex -144.266 56.7792 0.818865
   vertex -144.921 57.2345 0.953455
  endloop
 endfacet
 facet normal 0.217405 0.702762 0.677392
  outer loop
   vertex -145.141 56.8898 1.3814
   vertex -144.638 56.9143 1.19453
   vertex -144.921 57.2345 0.953455
  endloop
 endfacet
 facet normal 0.521568 0.853064 0.0157851
  outer loop
   vertex -141.101 54.9563 -2.1679
   vertex -143.485 56.4129 -2.0991
   vertex -144.921 57.2345 0.953455
  endloop
 endfacet
 facet normal 0.312825 0.655036 0.687799
  outer loop
   vertex -145.141 56.8898 1.3814
   vertex -144.921 57.2345 0.953455
   vertex -145.833 57.1123 1.4845
  endloop
 endfacet
 facet normal -0.0480205 -0.0559763 0.997277
  outer loop
   vertex -221.079 58.0389 17.1376
   vertex -219.406 58.2451 17.2297
   vertex -219.727 60.5709 17.3448
  endloop
 endfacet
 facet normal 0.0727983 0.0359719 0.996698
  outer loop
   vertex -189.798 51.4551 4.89981
   vertex -145.833 57.1123 1.4845
   vertex -148.669 59.6897 1.59859
  endloop
 endfacet
 facet normal 0.650264 0.702634 0.2889
  outer loop
   vertex -145.833 57.1123 1.4845
   vertex -143.485 56.4129 -2.0991
   vertex -148.669 59.6897 1.59859
  endloop
 endfacet
 facet normal -0.0692448 0.997142 0.0302092
  outer loop
   vertex -173.708 80.6019 2.02667
   vertex -173.581 80.6267 1.49637
   vertex -175.269 80.4974 1.89613
  endloop
 endfacet
 facet normal 0.364033 0.0042053 0.931376
  outer loop
   vertex -219.727 60.5709 17.3448
   vertex -219.406 58.2451 17.2297
   vertex -219.412 62.6981 17.2121
  endloop
 endfacet
 facet normal 0.123547 0.00410647 0.99233
  outer loop
   vertex -219.406 58.2451 17.2297
   vertex -206.911 66.5431 15.6397
   vertex -219.412 62.6981 17.2121
  endloop
 endfacet
 facet normal 0.464756 0.876535 -0.125252
  outer loop
   vertex -148.669 59.6897 1.59859
   vertex -143.485 56.4129 -2.0991
   vertex -150.575 60.7495 1.94119
  endloop
 endfacet
 facet normal -0.104725 0.686859 0.719206
  outer loop
   vertex -218.843 62.8642 17.4157
   vertex -206.911 66.5431 15.6397
   vertex -219.383 63.1233 17.0896
  endloop
 endfacet
 facet normal 0.0833155 -0.0345649 0.995924
  outer loop
   vertex -189.798 51.4551 4.89981
   vertex -150.575 60.7495 1.94119
   vertex -153.791 63.498 2.30556
  endloop
 endfacet
 facet normal 0.456554 0.430899 0.778386
  outer loop
   vertex -153.791 63.498 2.30556
   vertex -150.575 60.7495 1.94119
   vertex -152.945 63.3548 1.88915
  endloop
 endfacet
 facet normal 0.166042 -0.195836 0.966477
  outer loop
   vertex -219.383 63.1233 17.0896
   vertex -206.911 66.5431 15.6397
   vertex -217.599 66.4387 17.4548
  endloop
 endfacet
 facet normal 0.722486 0.652734 -0.227932
  outer loop
   vertex -152.945 63.3548 1.88915
   vertex -150.575 60.7495 1.94119
   vertex -155.361 64.7449 -1.78573
  endloop
 endfacet
 facet normal 0.586884 0.788622 0.18342
  outer loop
   vertex -150.575 60.7495 1.94119
   vertex -143.485 56.4129 -2.0991
   vertex -152.509 63.0101 -1.59239
  endloop
 endfacet
 facet normal 0.487886 0.83167 0.265127
  outer loop
   vertex -150.575 60.7495 1.94119
   vertex -152.509 63.0101 -1.59239
   vertex -155.361 64.7449 -1.78573
  endloop
 endfacet
 facet normal 0.254779 0.947925 0.19112
  outer loop
   vertex -152.945 63.3548 1.88915
   vertex -155.361 64.7449 -1.78573
   vertex -153.791 63.498 2.30556
  endloop
 endfacet
 facet normal 0.167287 0.0130812 0.985822
  outer loop
   vertex -206.911 66.5431 15.6397
   vertex -217.043 69.2786 17.3227
   vertex -217.599 66.4387 17.4548
  endloop
 endfacet
 facet normal 0.0537093 0.0542044 0.997084
  outer loop
   vertex -159.584 68.8583 2.3262
   vertex -189.798 51.4551 4.89981
   vertex -153.791 63.498 2.30556
  endloop
 endfacet
 facet normal 0.122595 -0.149557 0.981123
  outer loop
   vertex -217.043 69.2786 17.3227
   vertex -206.911 66.5431 15.6397
   vertex -213.82 73.3768 17.5447
  endloop
 endfacet
 facet normal 0.204825 -0.0651678 0.976627
  outer loop
   vertex -213.82 73.3768 17.5447
   vertex -206.911 66.5431 15.6397
   vertex -198.684 69.6283 14.1202
  endloop
 endfacet
 facet normal 0.510086 0.710961 -0.484093
  outer loop
   vertex -157.887 67.577 -1.14235
   vertex -156.027 66.042 -1.43717
   vertex -157.829 67.24 -1.57648
  endloop
 endfacet
 facet normal 0.64333 0.754723 0.12853
  outer loop
   vertex -156.027 66.042 -1.43717
   vertex -157.887 67.577 -1.14235
   vertex -153.791 63.498 2.30556
  endloop
 endfacet
 facet normal 0.200656 -0.206752 0.957596
  outer loop
   vertex -189.798 51.4551 4.89981
   vertex -159.584 68.8583 2.3262
   vertex -162.304 70.3402 3.21618
  endloop
 endfacet
 facet normal 0.678017 0.732508 0.0610368
  outer loop
   vertex -153.791 63.498 2.30556
   vertex -157.887 67.577 -1.14235
   vertex -159.584 68.8583 2.3262
  endloop
 endfacet
 facet normal 0.495649 0.865091 -0.0771373
  outer loop
   vertex -159.584 68.8583 2.3262
   vertex -157.887 67.577 -1.14235
   vertex -159.203 68.2977 -1.51478
  endloop
 endfacet
 facet normal -0.0976439 0.0228812 0.994958
  outer loop
   vertex -217.043 69.2786 17.3227
   vertex -213.82 73.3768 17.5447
   vertex -215.881 71.8661 17.3772
  endloop
 endfacet
 facet normal 0.713023 0.70043 -0.0315623
  outer loop
   vertex -159.584 68.8583 2.3262
   vertex -159.203 68.2977 -1.51478
   vertex -160.754 69.8997 -0.994046
  endloop
 endfacet
 facet normal 0.579438 0.709668 0.400778
  outer loop
   vertex -161.014 69.6294 3.0283
   vertex -159.584 68.8583 2.3262
   vertex -161.859 70.6168 2.50292
  endloop
 endfacet
 facet normal 0.461722 0.691306 0.555795
  outer loop
   vertex -162.304 70.3402 3.21618
   vertex -161.014 69.6294 3.0283
   vertex -161.859 70.6168 2.50292
  endloop
 endfacet
 facet normal 0.612641 0.789721 0.0318175
  outer loop
   vertex -159.584 68.8583 2.3262
   vertex -160.754 69.8997 -0.994046
   vertex -161.859 70.6168 2.50292
  endloop
 endfacet
 facet normal 0.614901 0.787918 0.0329018
  outer loop
   vertex -161.859 70.6168 2.50292
   vertex -160.754 69.8997 -0.994046
   vertex -161.66 70.6118 -1.10681
  endloop
 endfacet
 facet normal 0.0588535 0.00331518 0.998261
  outer loop
   vertex -189.798 51.4551 4.89981
   vertex -162.304 70.3402 3.21618
   vertex -164.132 72.1669 3.31788
  endloop
 endfacet
 facet normal 0.690389 0.721389 -0.0544163
  outer loop
   vertex -161.859 70.6168 2.50292
   vertex -161.955 70.4164 -1.36323
   vertex -162.854 71.2773 -1.36408
  endloop
 endfacet
 facet normal 0.589874 0.557794 0.583878
  outer loop
   vertex -164.132 72.1669 3.31788
   vertex -162.304 70.3402 3.21618
   vertex -161.859 70.6168 2.50292
  endloop
 endfacet
 facet normal 0.133613 -0.0823363 0.987607
  outer loop
   vertex -189.798 51.4551 4.89981
   vertex -164.783 72.7326 3.28951
   vertex -165.837 73.2881 3.47836
  endloop
 endfacet
 facet normal 0.0109463 0.0626587 0.997975
  outer loop
   vertex -189.798 51.4551 4.89981
   vertex -164.132 72.1669 3.31788
   vertex -164.783 72.7326 3.28951
  endloop
 endfacet
 facet normal 0.530251 -0.268676 0.804144
  outer loop
   vertex -189.798 51.4551 4.89981
   vertex -180.242 70.9727 5.12016
   vertex -188.199 73.2565 11.1302
  endloop
 endfacet
 facet normal 0.598216 0.779655 0.185135
  outer loop
   vertex -164.132 72.1669 3.31788
   vertex -161.859 70.6168 2.50292
   vertex -170.341 77.9013 -0.767122
  endloop
 endfacet
 facet normal 0.642809 0.765128 0.0371062
  outer loop
   vertex -161.859 70.6168 2.50292
   vertex -163.103 71.8364 -1.10328
   vertex -170.341 77.9013 -0.767122
  endloop
 endfacet
 facet normal -0.0717327 -0.0127315 0.997343
  outer loop
   vertex -215.881 71.8661 17.3772
   vertex -213.82 73.3768 17.5447
   vertex -214.27 74.1314 17.522
  endloop
 endfacet
 facet normal 0.259934 0.183482 0.948034
  outer loop
   vertex -213.82 73.3768 17.5447
   vertex -198.684 69.6283 14.1202
   vertex -214.27 74.1314 17.522
  endloop
 endfacet
 facet normal 0.652746 0.754602 0.0670771
  outer loop
   vertex -164.783 72.7326 3.28951
   vertex -164.132 72.1669 3.31788
   vertex -170.341 77.9013 -0.767122
  endloop
 endfacet
 facet normal 0.605807 0.739316 -0.293956
  outer loop
   vertex -163.103 71.8364 -1.10328
   vertex -165.845 73.7521 -1.93701
   vertex -170.341 77.9013 -0.767122
  endloop
 endfacet
 facet normal 0.485045 0.799567 0.354152
  outer loop
   vertex -164.783 72.7326 3.28951
   vertex -170.341 77.9013 -0.767122
   vertex -165.837 73.2881 3.47836
  endloop
 endfacet
 facet normal 0.0925457 -0.0565314 0.994102
  outer loop
   vertex -180.242 70.9727 5.12016
   vertex -189.798 51.4551 4.89981
   vertex -172.717 78.8752 4.869
  endloop
 endfacet
 facet normal 0.223304 0.0370495 0.974045
  outer loop
   vertex -214.27 74.1314 17.522
   vertex -198.684 69.6283 14.1202
   vertex -213.878 75.5717 17.3774
  endloop
 endfacet
 facet normal 0.181025 -0.0746504 0.980641
  outer loop
   vertex -213.878 75.5717 17.3774
   vertex -198.684 69.6283 14.1202
   vertex -212.878 77.2372 17.3196
  endloop
 endfacet
 facet normal 0.291361 -0.0549113 0.955036
  outer loop
   vertex -198.684 69.6283 14.1202
   vertex -188.199 73.2565 11.1302
   vertex -206.345 82.4813 17.1963
  endloop
 endfacet
 facet normal 0.102134 -0.0473965 0.993641
  outer loop
   vertex -189.798 51.4551 4.89981
   vertex -165.837 73.2881 3.47836
   vertex -167.516 74.7727 3.72179
  endloop
 endfacet
 facet normal 0.691074 0.721038 0.0502083
  outer loop
   vertex -165.837 73.2881 3.47836
   vertex -170.341 77.9013 -0.767122
   vertex -170.591 77.809 3.98849
  endloop
 endfacet
 facet normal 0.401103 -0.248863 0.88158
  outer loop
   vertex -172.717 78.8752 4.869
   vertex -189.798 51.4551 4.89981
   vertex -172.276 78.8731 4.66778
  endloop
 endfacet
 facet normal 0.587735 0.745324 -0.314738
  outer loop
   vertex -170.341 77.9013 -0.767122
   vertex -166.153 74.1427 -1.84693
   vertex -168.198 75.0269 -3.57119
  endloop
 endfacet
 facet normal 0.484611 -0.38215 0.786837
  outer loop
   vertex -188.199 73.2565 11.1302
   vertex -180.242 70.9727 5.12016
   vertex -182.087 80.5079 10.8872
  endloop
 endfacet
 facet normal 0.501567 -0.374616 0.779804
  outer loop
   vertex -180.242 70.9727 5.12016
   vertex -175.248 80.4081 6.44056
   vertex -182.087 80.5079 10.8872
  endloop
 endfacet
 facet normal 0.877807 0.265977 0.398386
  outer loop
   vertex -170.341 77.9013 -0.767122
   vertex -168.198 75.0269 -3.57119
   vertex -168.955 76.7891 -3.07919
  endloop
 endfacet
 facet normal 0.357388 -0.312346 0.880178
  outer loop
   vertex -180.242 70.9727 5.12016
   vertex -172.717 78.8752 4.869
   vertex -175.248 80.4081 6.44056
  endloop
 endfacet
 facet normal 0.922938 0.355106 0.148608
  outer loop
   vertex -168.198 75.0269 -3.57119
   vertex -168.667 76.2937 -3.68447
   vertex -168.955 76.7891 -3.07919
  endloop
 endfacet
 facet normal -0.214255 0.736741 0.641333
  outer loop
   vertex -212.704 77.523 17.0496
   vertex -212.878 77.2372 17.3196
   vertex -211.792 77.3212 17.5862
  endloop
 endfacet
 facet normal 0.212089 -0.0775378 0.974169
  outer loop
   vertex -211.792 77.3212 17.5862
   vertex -198.684 69.6283 14.1202
   vertex -211.12 78.9539 17.5698
  endloop
 endfacet
 facet normal 0.828037 0.429251 0.360692
  outer loop
   vertex -169.372 77.2264 -2.64169
   vertex -169.851 77.5412 -1.91853
   vertex -168.955 76.7891 -3.07919
  endloop
 endfacet
 facet normal 0.1051 -0.129664 0.985972
  outer loop
   vertex -189.798 51.4551 4.89981
   vertex -148.669 59.6897 1.59859
   vertex -150.575 60.7495 1.94119
  endloop
 endfacet
 facet normal 0.0701141 -0.0166096 0.997401
  outer loop
   vertex -189.798 51.4551 4.89981
   vertex -167.516 74.7727 3.72179
   vertex -170.591 77.809 3.98849
  endloop
 endfacet
 facet normal 0.128851 -0.073973 0.988901
  outer loop
   vertex -172.276 78.8731 4.66778
   vertex -189.798 51.4551 4.89981
   vertex -171.099 77.7394 4.42964
  endloop
 endfacet
 facet normal 0.434616 0.26067 0.862067
  outer loop
   vertex -198.684 69.6283 14.1202
   vertex -210.994 79.8636 17.2313
   vertex -211.12 78.9539 17.5698
  endloop
 endfacet
 facet normal 0.701321 0.701952 0.124145
  outer loop
   vertex -172.276 78.8731 4.66778
   vertex -171.099 77.7394 4.42964
   vertex -170.341 77.9013 -0.767122
  endloop
 endfacet
 facet normal -0.124733 0.992109 0.012712
  outer loop
   vertex -171.099 77.7394 4.42964
   vertex -170.591 77.809 3.98849
   vertex -170.341 77.9013 -0.767122
  endloop
 endfacet
 facet normal 0.602703 0.204232 0.771388
  outer loop
   vertex -175.248 80.4081 6.44056
   vertex -172.717 78.8752 4.869
   vertex -173.683 80.1503 5.28607
  endloop
 endfacet
 facet normal 0.131017 -0.140716 0.981343
  outer loop
   vertex -210.994 79.8636 17.2313
   vertex -198.684 69.6283 14.1202
   vertex -209.159 82.3049 17.3364
  endloop
 endfacet
 facet normal -0.0893198 0.974459 -0.206037
  outer loop
   vertex -172.717 78.8752 4.869
   vertex -172.276 78.8731 4.66778
   vertex -170.341 77.9013 -0.767122
  endloop
 endfacet
 facet normal 0.174824 -0.264649 0.948366
  outer loop
   vertex -207.679 83.2001 17.4959
   vertex -188.199 73.2565 11.1302
   vertex -192.634 83.7854 14.8859
  endloop
 endfacet
 facet normal 0.28825 -0.211696 0.933861
  outer loop
   vertex -188.199 73.2565 11.1302
   vertex -182.087 80.5079 10.8872
   vertex -192.634 83.7854 14.8859
  endloop
 endfacet
 facet normal 0.313492 0.798932 -0.513254
  outer loop
   vertex -170.341 77.9013 -0.767122
   vertex -172.364 79.4021 0.333349
   vertex -173.581 80.6267 1.49637
  endloop
 endfacet
 facet normal 0.809457 0.531613 0.249331
  outer loop
   vertex -173.683 80.1503 5.28607
   vertex -172.717 78.8752 4.869
   vertex -170.341 77.9013 -0.767122
  endloop
 endfacet
 facet normal 0.708976 0.676049 0.200775
  outer loop
   vertex -173.708 80.6019 2.02667
   vertex -170.341 77.9013 -0.767122
   vertex -173.581 80.6267 1.49637
  endloop
 endfacet
 facet normal 0.602549 0.211304 0.769601
  outer loop
   vertex -175.225 81.1334 6.22346
   vertex -175.248 80.4081 6.44056
   vertex -173.683 80.1503 5.28607
  endloop
 endfacet
 facet normal 0.526549 0.849775 -0.0250505
  outer loop
   vertex -173.683 80.1503 5.28607
   vertex -170.341 77.9013 -0.767122
   vertex -175.225 81.1334 6.22346
  endloop
 endfacet
 facet normal 0.708726 0.67654 0.2
  outer loop
   vertex -170.341 77.9013 -0.767122
   vertex -173.708 80.6019 2.02667
   vertex -175.382 81.8356 3.78801
  endloop
 endfacet
 facet normal 0.0611035 -0.19773 0.97835
  outer loop
   vertex -198.684 69.6283 14.1202
   vertex -206.345 82.4813 17.1963
   vertex -209.159 82.3049 17.3364
  endloop
 endfacet
 facet normal 0.692373 0.703983 0.1582
  outer loop
   vertex -175.225 81.1334 6.22346
   vertex -170.341 77.9013 -0.767122
   vertex -175.382 81.8356 3.78801
  endloop
 endfacet
 facet normal 0.759264 0.164467 0.629658
  outer loop
   vertex -176.099 81.1744 7.26727
   vertex -175.248 80.4081 6.44056
   vertex -175.225 81.1334 6.22346
  endloop
 endfacet
 facet normal 0.568562 -0.33437 0.751621
  outer loop
   vertex -179.052 81.1753 9.6598
   vertex -175.248 80.4081 6.44056
   vertex -177.934 81.97 9.16722
  endloop
 endfacet
 facet normal 0.733353 0.629724 0.256207
  outer loop
   vertex -175.382 81.8356 3.78801
   vertex -173.708 80.6019 2.02667
   vertex -175.241 81.8853 3.26126
  endloop
 endfacet
 facet normal 0.74924 0.171857 0.639613
  outer loop
   vertex -177.934 81.97 9.16722
   vertex -175.248 80.4081 6.44056
   vertex -176.921 81.8828 8.004
  endloop
 endfacet
 facet normal 0.52084 0.75044 0.406897
  outer loop
   vertex -176.099 81.1744 7.26727
   vertex -175.225 81.1334 6.22346
   vertex -177.143 82.8552 5.50296
  endloop
 endfacet
 facet normal -0.0744799 0.978668 -0.191471
  outer loop
   vertex -174.94 81.6761 2.80086
   vertex -176.29 81.6797 3.34446
   vertex -175.382 81.8356 3.78801
  endloop
 endfacet
 facet normal 0.618665 0.76465 0.180455
  outer loop
   vertex -175.225 81.1334 6.22346
   vertex -175.382 81.8356 3.78801
   vertex -177.143 82.8552 5.50296
  endloop
 endfacet
 facet normal 0.115147 -0.658149 0.74403
  outer loop
   vertex -175.248 80.4081 6.44056
   vertex -176.207 81.5175 7.57032
   vertex -176.921 81.8828 8.004
  endloop
 endfacet
 facet normal 0.619303 0.572405 0.537416
  outer loop
   vertex -176.207 81.5175 7.57032
   vertex -177.236 82.1195 8.1155
   vertex -176.921 81.8828 8.004
  endloop
 endfacet
 facet normal 0.713766 0.667084 0.213396
  outer loop
   vertex -176.099 81.1744 7.26727
   vertex -177.143 82.8552 5.50296
   vertex -177.236 82.1195 8.1155
  endloop
 endfacet
 facet normal 0.0332327 0.240336 0.970121
  outer loop
   vertex -209.159 82.3049 17.3364
   vertex -206.345 82.4813 17.1963
   vertex -208.252 83.285 17.0625
  endloop
 endfacet
 facet normal 0.625765 0.598604 0.500091
  outer loop
   vertex -177.934 81.97 9.16722
   vertex -176.921 81.8828 8.004
   vertex -177.236 82.1195 8.1155
  endloop
 endfacet
 facet normal 0.513304 -0.206098 0.833092
  outer loop
   vertex -179.052 81.1753 9.6598
   vertex -177.934 81.97 9.16722
   vertex -178.634 82.568 9.74647
  endloop
 endfacet
 facet normal 0.458997 0.785034 0.415985
  outer loop
   vertex -177.934 81.97 9.16722
   vertex -177.236 82.1195 8.1155
   vertex -178.785 83.5971 7.03593
  endloop
 endfacet
 facet normal 0.728847 0.652607 0.207092
  outer loop
   vertex -177.934 81.97 9.16722
   vertex -178.785 83.5971 7.03593
   vertex -178.634 82.568 9.74647
  endloop
 endfacet
 facet normal 0.391511 0.918476 -0.0558713
  outer loop
   vertex -207.731 82.9001 14.3894
   vertex -208.29 83.2512 16.2384
   vertex -208.252 83.285 17.0625
  endloop
 endfacet
 facet normal 0.44528 -0.188288 0.875371
  outer loop
   vertex -179.052 81.1753 9.6598
   vertex -178.634 82.568 9.74647
   vertex -179.46 83.2495 10.313
  endloop
 endfacet
 facet normal 0.00432245 0.837372 -0.546616
  outer loop
   vertex -177.143 82.8552 5.50296
   vertex -176.887 81.7453 3.80472
   vertex -178.255 83.4141 6.3504
  endloop
 endfacet
 facet normal 0.575797 0.781376 0.240643
  outer loop
   vertex -177.236 82.1195 8.1155
   vertex -177.143 82.8552 5.50296
   vertex -178.255 83.4141 6.3504
  endloop
 endfacet
 facet normal 0.269621 -0.262624 0.926463
  outer loop
   vertex -192.634 83.7854 14.8859
   vertex -182.087 80.5079 10.8872
   vertex -185.238 87.0475 13.6582
  endloop
 endfacet
 facet normal 0.705615 0.674631 0.216751
  outer loop
   vertex -178.634 82.568 9.74647
   vertex -178.785 83.5971 7.03593
   vertex -179.46 83.2495 10.313
  endloop
 endfacet
 facet normal 0.448158 -0.187325 0.874108
  outer loop
   vertex -179.052 81.1753 9.6598
   vertex -179.46 83.2495 10.313
   vertex -180.766 84.0868 11.1622
  endloop
 endfacet
 facet normal 0.575989 0.781289 0.240468
  outer loop
   vertex -177.236 82.1195 8.1155
   vertex -178.255 83.4141 6.3504
   vertex -178.462 83.4161 6.83947
  endloop
 endfacet
 facet normal 0.406836 -0.218311 0.887031
  outer loop
   vertex -182.087 80.5079 10.8872
   vertex -179.052 81.1753 9.6598
   vertex -180.766 84.0868 11.1622
  endloop
 endfacet
 facet normal 0.168632 0.0542563 0.984185
  outer loop
   vertex -206.548 85.627 17.1684
   vertex -207.679 83.2001 17.4959
   vertex -192.634 83.7854 14.8859
  endloop
 endfacet
 facet normal 0.620039 0.756543 0.207832
  outer loop
   vertex -179.46 83.2495 10.313
   vertex -178.785 83.5971 7.03593
   vertex -180.766 84.0868 11.1622
  endloop
 endfacet
 facet normal 0.580269 0.779824 0.234867
  outer loop
   vertex -177.236 82.1195 8.1155
   vertex -178.462 83.4161 6.83947
   vertex -178.785 83.5971 7.03593
  endloop
 endfacet
 facet normal 0.294996 0.89345 -0.33871
  outer loop
   vertex -178.462 83.4161 6.83947
   vertex -176.887 81.7453 3.80472
   vertex -178.785 83.5971 7.03593
  endloop
 endfacet
 facet normal 0.314997 0.891423 -0.325795
  outer loop
   vertex -178.785 83.5971 7.03593
   vertex -176.887 81.7453 3.80472
   vertex -179.756 84.1631 7.64571
  endloop
 endfacet
 facet normal 0.578481 0.794824 0.183342
  outer loop
   vertex -180.766 84.0868 11.1622
   vertex -178.785 83.5971 7.03593
   vertex -179.756 84.1631 7.64571
  endloop
 endfacet
 facet normal 0.464775 -0.237087 0.853097
  outer loop
   vertex -182.087 80.5079 10.8872
   vertex -180.766 84.0868 11.1622
   vertex -182.371 84.8547 12.2503
  endloop
 endfacet
 facet normal 0.00220159 -0.299094 0.954221
  outer loop
   vertex -182.087 80.5079 10.8872
   vertex -182.371 84.8547 12.2503
   vertex -183.077 85.7896 12.545
  endloop
 endfacet
 facet normal 0.196494 0.348846 0.91635
  outer loop
   vertex -206.548 85.627 17.1684
   vertex -192.634 83.7854 14.8859
   vertex -206.254 86.0008 16.9629
  endloop
 endfacet
 facet normal 0.0053203 -0.666332 0.745636
  outer loop
   vertex -206.254 86.0008 16.9629
   vertex -192.634 83.7854 14.8859
   vertex -206.044 86.393 17.3119
  endloop
 endfacet
 facet normal 0.340698 -0.222829 0.913385
  outer loop
   vertex -182.087 80.5079 10.8872
   vertex -183.077 85.7896 12.545
   vertex -185.238 87.0475 13.6582
  endloop
 endfacet
 facet normal 0.574402 0.755929 0.314062
  outer loop
   vertex -182.371 84.8547 12.2503
   vertex -180.766 84.0868 11.1622
   vertex -184.005 87.1244 9.77446
  endloop
 endfacet
 facet normal 0.801124 0.598167 0.0198835
  outer loop
   vertex -183.077 85.7896 12.545
   vertex -182.371 84.8547 12.2503
   vertex -184.005 87.1244 9.77446
  endloop
 endfacet
 facet normal 0.158354 -0.0995693 0.982349
  outer loop
   vertex -206.044 86.393 17.3119
   vertex -192.634 83.7854 14.8859
   vertex -204.357 89.002 17.3044
  endloop
 endfacet
 facet normal 0.624896 0.75575 0.195823
  outer loop
   vertex -180.766 84.0868 11.1622
   vertex -179.756 84.1631 7.64571
   vertex -184.005 87.1244 9.77446
  endloop
 endfacet
 facet normal 0.658499 0.740178 0.136072
  outer loop
   vertex -183.077 85.7896 12.545
   vertex -184.005 87.1244 9.77446
   vertex -186.177 88.9156 10.5446
  endloop
 endfacet
 facet normal 0.221099 -0.137938 0.965447
  outer loop
   vertex -192.634 83.7854 14.8859
   vertex -185.238 87.0475 13.6582
   vertex -189.387 91.9119 15.3034
  endloop
 endfacet
 facet normal 0.137091 0.985498 -0.100003
  outer loop
   vertex -203.674 88.6172 14.4484
   vertex -204.357 89.002 17.3044
   vertex -203.737 88.9304 17.4487
  endloop
 endfacet
 facet normal 0.526572 0.167244 0.833517
  outer loop
   vertex -185.238 87.0475 13.6582
   vertex -183.077 85.7896 12.545
   vertex -189.387 91.9119 15.3034
  endloop
 endfacet
 facet normal 0.177003 -0.105464 0.978543
  outer loop
   vertex -203.737 88.9304 17.4487
   vertex -192.634 83.7854 14.8859
   vertex -202.635 91.0601 17.4788
  endloop
 endfacet
 facet normal 0.639316 0.748038 0.178085
  outer loop
   vertex -183.077 85.7896 12.545
   vertex -186.177 88.9156 10.5446
   vertex -188.031 90.3638 11.1168
  endloop
 endfacet
 facet normal 0.684888 0.727133 -0.046966
  outer loop
   vertex -189.387 91.9119 15.3034
   vertex -183.077 85.7896 12.545
   vertex -188.031 90.3638 11.1168
  endloop
 endfacet
 facet normal 0.324204 0.110813 0.939474
  outer loop
   vertex -192.634 83.7854 14.8859
   vertex -202.727 92.0019 17.3995
   vertex -202.635 91.0601 17.4788
  endloop
 endfacet
 facet normal 0.638402 0.769053 -0.0316196
  outer loop
   vertex -189.387 91.9119 15.3034
   vertex -188.089 90.6759 11.4665
   vertex -190.525 92.7269 12.1639
  endloop
 endfacet
 facet normal 0.195758 -0.0590107 0.978875
  outer loop
   vertex -202.727 92.0019 17.3995
   vertex -192.634 83.7854 14.8859
   vertex -200.759 94.9851 17.1859
  endloop
 endfacet
 facet normal 0.347181 -0.185939 0.91918
  outer loop
   vertex -192.634 83.7854 14.8859
   vertex -189.387 91.9119 15.3034
   vertex -189.788 92.0906 15.4909
  endloop
 endfacet
 facet normal 0.435368 0.897108 0.0751759
  outer loop
   vertex -189.387 91.9119 15.3034
   vertex -190.525 92.7269 12.1639
   vertex -189.788 92.0906 15.4909
  endloop
 endfacet
 facet normal 0.197218 -0.138286 0.970558
  outer loop
   vertex -192.634 83.7854 14.8859
   vertex -189.788 92.0906 15.4909
   vertex -190.234 93.1399 15.7309
  endloop
 endfacet
 facet normal 0.115512 -0.118727 0.986185
  outer loop
   vertex -192.634 83.7854 14.8859
   vertex -190.234 93.1399 15.7309
   vertex -200.759 94.9851 17.1859
  endloop
 endfacet
 facet normal 0.664509 0.730298 0.158405
  outer loop
   vertex -189.788 92.0906 15.4909
   vertex -190.965 93.7734 12.6717
   vertex -192.007 94.6757 12.8792
  endloop
 endfacet
 facet normal -0.00496405 -0.636503 0.771258
  outer loop
   vertex -200.759 94.9851 17.1859
   vertex -190.234 93.1399 15.7309
   vertex -199.705 95.4199 17.5516
  endloop
 endfacet
 facet normal 0.0865385 -0.376934 0.922189
  outer loop
   vertex -199.705 95.4199 17.5516
   vertex -190.234 93.1399 15.7309
   vertex -198.745 95.4229 17.4627
  endloop
 endfacet
 facet normal 0.811946 0.570103 -0.125401
  outer loop
   vertex -189.788 92.0906 15.4909
   vertex -192.007 94.6757 12.8792
   vertex -192.513 96.1719 16.4052
  endloop
 endfacet
 facet normal -0.230608 0.195079 0.953291
  outer loop
   vertex -200.448 95.1809 17.4208
   vertex -199.705 95.4199 17.5516
   vertex -199.138 97.3591 17.2919
  endloop
 endfacet
 facet normal 0.206703 0.0287398 0.977982
  outer loop
   vertex -190.234 93.1399 15.7309
   vertex -196.793 100.084 16.9132
   vertex -198.745 95.4229 17.4627
  endloop
 endfacet
 facet normal 0.0913469 0.105905 0.990172
  outer loop
   vertex -199.705 95.4199 17.5516
   vertex -198.745 95.4229 17.4627
   vertex -199.138 97.3591 17.2919
  endloop
 endfacet
 facet normal 0.0603635 -0.173247 0.983027
  outer loop
   vertex -190.234 93.1399 15.7309
   vertex -192.513 96.1719 16.4052
   vertex -196.373 100.075 17.3301
  endloop
 endfacet
 facet normal -0.270409 0.0300708 0.962276
  outer loop
   vertex -199.138 97.3591 17.2919
   vertex -198.745 95.4229 17.4627
   vertex -198.528 97.8235 17.4488
  endloop
 endfacet
 facet normal 0.759666 0.630675 -0.158607
  outer loop
   vertex -192.513 96.1719 16.4052
   vertex -192.007 94.6757 12.8792
   vertex -195.813 99.7249 14.7274
  endloop
 endfacet
 facet normal 0.08193 0.0827838 0.993194
  outer loop
   vertex -198.097 98.6398 17.1412
   vertex -198.745 95.4229 17.4627
   vertex -196.793 100.084 16.9132
  endloop
 endfacet
 facet normal 0.717133 0.649411 0.252953
  outer loop
   vertex -192.513 96.1719 16.4052
   vertex -195.871 100.204 15.5737
   vertex -196.373 100.075 17.3301
  endloop
 endfacet
 facet normal 0.765756 0.580775 -0.276258
  outer loop
   vertex -192.513 96.1719 16.4052
   vertex -195.813 99.7249 14.7274
   vertex -195.871 100.204 15.5737
  endloop
 endfacet
 facet normal 0.0138146 0.870475 -0.492018
  outer loop
   vertex -195.871 100.204 15.5737
   vertex -195.813 99.7249 14.7274
   vertex -196.616 99.8878 14.9932
  endloop
 endfacet
 facet normal 0.332801 -0.251363 0.908879
  outer loop
   vertex -191.994 29.8002 4.08305
   vertex -199.033 41.5422 9.90815
   vertex -194.679 30.1099 5.15186
  endloop
 endfacet
 facet normal 0.0614117 -0.0527035 0.99672
  outer loop
   vertex -118.86 30.6031 -1.5727
   vertex -116.722 32.9725 -1.57913
   vertex -133.211 38.7297 -0.258745
  endloop
 endfacet
 facet normal 0.0770908 -0.0606209 0.995179
  outer loop
   vertex -189.798 51.4551 4.89981
   vertex -185.487 26.8031 3.06423
   vertex -133.211 38.7297 -0.258745
  endloop
 endfacet
 facet normal 0.350813 -0.155424 0.923457
  outer loop
   vertex -222.533 25.8522 16.1948
   vertex -199.033 41.5422 9.90815
   vertex -188.199 73.2565 11.1302
  endloop
 endfacet
 facet normal 0.0744701 0.0814914 0.993888
  outer loop
   vertex -223.249 36.396 16.7786
   vertex -188.199 73.2565 11.1302
   vertex -224.076 39.524 16.5842
  endloop
 endfacet
 facet normal 0.0446664 -0.0552178 0.997475
  outer loop
   vertex -133.211 38.7297 -0.258745
   vertex -116.595 33.3634 -1.29988
   vertex -112.35 38.4121 -1.21048
  endloop
 endfacet
 facet normal 0.131665 -0.0506923 0.989997
  outer loop
   vertex -191.994 29.8002 4.08305
   vertex -185.487 26.8031 3.06423
   vertex -189.798 51.4551 4.89981
  endloop
 endfacet
 facet normal 0.545243 -0.0867413 0.833778
  outer loop
   vertex -199.033 41.5422 9.90815
   vertex -191.994 29.8002 4.08305
   vertex -189.798 51.4551 4.89981
  endloop
 endfacet
 facet normal -0.28251 0.764013 0.580062
  outer loop
   vertex -223.938 41.6962 14.6165
   vertex -224.142 40.8655 15.6113
   vertex -223.494 40.1309 16.8944
  endloop
 endfacet
 facet normal 0.19295 -0.0349507 0.980586
  outer loop
   vertex -223.494 40.1309 16.8944
   vertex -188.199 73.2565 11.1302
   vertex -223.26 44.0775 16.9891
  endloop
 endfacet
 facet normal 0.0454482 -0.00824496 0.998933
  outer loop
   vertex -133.211 38.7297 -0.258745
   vertex -112.35 38.4121 -1.21048
   vertex -112.776 41.1561 -1.16844
  endloop
 endfacet
 facet normal 0.052844 -0.0716216 0.996031
  outer loop
   vertex -119.284 44.0673 -0.613861
   vertex -133.211 38.7297 -0.258745
   vertex -112.776 41.1561 -1.16844
  endloop
 endfacet
 facet normal 0.834106 0.100823 0.542311
  outer loop
   vertex -112.35 38.4121 -1.21048
   vertex -111.329 39.2985 -2.94637
   vertex -112.471 41.1852 -1.54049
  endloop
 endfacet
 facet normal 0.764143 0.108904 0.635788
  outer loop
   vertex -112.776 41.1561 -1.16844
   vertex -112.35 38.4121 -1.21048
   vertex -112.471 41.1852 -1.54049
  endloop
 endfacet
 facet normal 0.900184 0.434859 -0.023788
  outer loop
   vertex -111.329 39.2985 -2.94637
   vertex -111.959 40.5423 -4.06729
   vertex -112.417 41.478 -4.2832
  endloop
 endfacet
 facet normal 0.875212 0.47889 0.0683265
  outer loop
   vertex -111.329 39.2985 -2.94637
   vertex -112.417 41.478 -4.2832
   vertex -112.471 41.1852 -1.54049
  endloop
 endfacet
 facet normal 0.642601 0.760436 0.0938109
  outer loop
   vertex -112.471 41.1852 -1.54049
   vertex -112.417 41.478 -4.2832
   vertex -113.028 42.0068 -4.38497
  endloop
 endfacet
 facet normal 0.479697 0.863547 0.155491
  outer loop
   vertex -112.471 41.1852 -1.54049
   vertex -113.028 42.0068 -4.38497
   vertex -113.53 42.2621 -4.25385
  endloop
 endfacet
 facet normal 0.458935 0.77342 0.437265
  outer loop
   vertex -112.776 41.1561 -1.16844
   vertex -112.471 41.1852 -1.54049
   vertex -114.418 42.5279 -1.8724
  endloop
 endfacet
 facet normal 0.159826 0.937328 0.309631
  outer loop
   vertex -112.471 41.1852 -1.54049
   vertex -113.53 42.2621 -4.25385
   vertex -114.953 42.6192 -4.60027
  endloop
 endfacet
 facet normal 0.37802 0.738641 0.558131
  outer loop
   vertex -112.776 41.1561 -1.16844
   vertex -114.418 42.5279 -1.8724
   vertex -119.284 44.0673 -0.613861
  endloop
 endfacet
 facet normal 0.575584 0.813225 -0.0858361
  outer loop
   vertex -114.418 42.5279 -1.8724
   vertex -112.471 41.1852 -1.54049
   vertex -114.953 42.6192 -4.60027
  endloop
 endfacet
 facet normal 0.295383 0.955023 -0.0260555
  outer loop
   vertex -114.418 42.5279 -1.8724
   vertex -114.953 42.6192 -4.60027
   vertex -119.284 44.0673 -0.613861
  endloop
 endfacet
 facet normal 0.573677 0.738136 0.355036
  outer loop
   vertex -119.284 44.0673 -0.613861
   vertex -114.953 42.6192 -4.60027
   vertex -117.351 44.2141 -4.04284
  endloop
 endfacet
 facet normal 0.126659 0.0467629 0.990843
  outer loop
   vertex -223.457 47.1763 16.868
   vertex -223.26 44.0775 16.9891
   vertex -188.199 73.2565 11.1302
  endloop
 endfacet
 facet normal -0.0647119 0.233406 0.970224
  outer loop
   vertex -120.3 44.8059 -0.85933
   vertex -133.211 38.7297 -0.258745
   vertex -119.284 44.0673 -0.613861
  endloop
 endfacet
 facet normal 0.158043 0.978705 0.130994
  outer loop
   vertex -119.284 44.0673 -0.613861
   vertex -117.351 44.2141 -4.04284
   vertex -118.995 44.5106 -4.2741
  endloop
 endfacet
 facet normal 0.444891 -0.428417 0.786467
  outer loop
   vertex -223.457 47.1763 16.868
   vertex -188.199 73.2565 11.1302
   vertex -222.192 48.91 17.0967
  endloop
 endfacet
 facet normal 0.655881 -0.25148 0.711743
  outer loop
   vertex -199.033 41.5422 9.90815
   vertex -189.798 51.4551 4.89981
   vertex -188.199 73.2565 11.1302
  endloop
 endfacet
 facet normal 0.89475 0.429398 0.122641
  outer loop
   vertex -119.284 44.0673 -0.613861
   vertex -118.995 44.5106 -4.2741
   vertex -119.28 45.0387 -4.04387
  endloop
 endfacet
 facet normal 0.415028 0.875257 0.248348
  outer loop
   vertex -119.284 44.0673 -0.613861
   vertex -119.28 45.0387 -4.04387
   vertex -120.386 45.477 -3.73921
  endloop
 endfacet
 facet normal 0.318978 0.767269 -0.556374
  outer loop
   vertex -118.995 44.5106 -4.2741
   vertex -123.393 46.5281 -4.01328
   vertex -120.386 45.477 -3.73921
  endloop
 endfacet
 facet normal 0.0989311 -0.112492 0.988715
  outer loop
   vertex -133.211 38.7297 -0.258745
   vertex -120.3 44.8059 -0.85933
   vertex -123.982 45.8964 -0.366872
  endloop
 endfacet
 facet normal -0.234666 0.0431302 0.971119
  outer loop
   vertex -223.232 48.3175 16.8717
   vertex -223.457 47.1763 16.868
   vertex -222.192 48.91 17.0967
  endloop
 endfacet
 facet normal 0.551114 0.816156 0.173676
  outer loop
   vertex -120.3 44.8059 -0.85933
   vertex -119.284 44.0673 -0.613861
   vertex -120.386 45.477 -3.73921
  endloop
 endfacet
 facet normal 0.0315551 -0.0255633 0.999175
  outer loop
   vertex -133.211 38.7297 -0.258745
   vertex -123.982 45.8964 -0.366872
   vertex -125.67 46.6164 -0.295122
  endloop
 endfacet
 facet normal 0.305963 0.929187 0.207362
  outer loop
   vertex -120.3 44.8059 -0.85933
   vertex -120.386 45.477 -3.73921
   vertex -123.393 46.5281 -4.01328
  endloop
 endfacet
 facet normal 0.309023 0.874694 0.373384
  outer loop
   vertex -123.982 45.8964 -0.366872
   vertex -120.3 44.8059 -0.85933
   vertex -126.012 47.8548 -3.27482
  endloop
 endfacet
 facet normal -0.0228207 0.976598 -0.213857
  outer loop
   vertex -222.951 48.2626 14.2212
   vertex -223.17 48.7883 16.6454
   vertex -222.192 48.91 17.0967
  endloop
 endfacet
 facet normal -0.0726438 0.0740471 0.994605
  outer loop
   vertex -126.578 47.241 -0.407883
   vertex -133.211 38.7297 -0.258745
   vertex -125.67 46.6164 -0.295122
  endloop
 endfacet
 facet normal 0.459331 0.887604 0.0342711
  outer loop
   vertex -126.012 47.8548 -3.27482
   vertex -120.3 44.8059 -0.85933
   vertex -123.393 46.5281 -4.01328
  endloop
 endfacet
 facet normal 0.383415 0.86759 0.316672
  outer loop
   vertex -125.67 46.6164 -0.295122
   vertex -123.982 45.8964 -0.366872
   vertex -126.012 47.8548 -3.27482
  endloop
 endfacet
 facet normal 0.130403 -0.0843271 0.987868
  outer loop
   vertex -133.211 38.7297 -0.258745
   vertex -126.578 47.241 -0.407883
   vertex -129.808 48.0214 0.0851635
  endloop
 endfacet
 facet normal 0.193286 -0.0295279 0.980698
  outer loop
   vertex -188.199 73.2565 11.1302
   vertex -222.068 50.9508 17.1337
   vertex -222.192 48.91 17.0967
  endloop
 endfacet
 facet normal 0.521481 0.807439 0.275862
  outer loop
   vertex -125.67 46.6164 -0.295122
   vertex -126.012 47.8548 -3.27482
   vertex -126.578 47.241 -0.407883
  endloop
 endfacet
 facet normal -0.266395 0.0619722 0.96187
  outer loop
   vertex -130.601 48.9665 -0.195246
   vertex -133.211 38.7297 -0.258745
   vertex -129.808 48.0214 0.0851635
  endloop
 endfacet
 facet normal 0.370047 0.75896 -0.535766
  outer loop
   vertex -125.195 47.0061 -3.91336
   vertex -126.589 47.7781 -3.78237
   vertex -126.012 47.8548 -3.27482
  endloop
 endfacet
 facet normal -0.260859 0.953239 0.152605
  outer loop
   vertex -126.578 47.241 -0.407883
   vertex -126.012 47.8548 -3.27482
   vertex -126.589 47.7781 -3.78237
  endloop
 endfacet
 facet normal 0.501243 0.854809 0.134378
  outer loop
   vertex -126.578 47.241 -0.407883
   vertex -126.589 47.7781 -3.78237
   vertex -128.627 48.8929 -3.27323
  endloop
 endfacet
 facet normal 0.25814 0.946656 0.192888
  outer loop
   vertex -129.808 48.0214 0.0851635
   vertex -126.578 47.241 -0.407883
   vertex -129.339 48.6512 -3.63444
  endloop
 endfacet
 facet normal 0.719701 0.663859 0.203277
  outer loop
   vertex -129.808 48.0214 0.0851635
   vertex -129.339 48.6512 -3.63444
   vertex -130.601 48.9665 -0.195246
  endloop
 endfacet
 facet normal 0.368462 0.92829 0.0501256
  outer loop
   vertex -130.601 48.9665 -0.195246
   vertex -129.339 48.6512 -3.63444
   vertex -133.455 50.0792 0.177941
  endloop
 endfacet
 facet normal 0.277412 -0.166547 0.946205
  outer loop
   vertex -222.068 50.9508 17.1337
   vertex -188.199 73.2565 11.1302
   vertex -221.199 52.7195 17.1904
  endloop
 endfacet
 facet normal 0.115869 -0.0357074 0.992622
  outer loop
   vertex -133.211 38.7297 -0.258745
   vertex -130.601 48.9665 -0.195246
   vertex -133.455 50.0792 0.177941
  endloop
 endfacet
 facet normal -0.115215 -0.410043 0.90476
  outer loop
   vertex -222.739 51.291 16.3469
   vertex -221.199 52.7195 17.1904
   vertex -222.441 52.3313 16.8563
  endloop
 endfacet
 facet normal 0.568977 0.752078 0.33263
  outer loop
   vertex -129.339 48.6512 -3.63444
   vertex -131.53 50.0412 -3.0283
   vertex -133.455 50.0792 0.177941
  endloop
 endfacet
 facet normal -0.256936 -0.00963583 0.96638
  outer loop
   vertex -222.441 52.3313 16.8563
   vertex -221.199 52.7195 17.1904
   vertex -222.007 54.3618 16.9918
  endloop
 endfacet
 facet normal 0.282924 0.731474 -0.620403
  outer loop
   vertex -131.53 50.0412 -3.0283
   vertex -132.735 50.223 -3.36337
   vertex -134.079 51.1843 -2.84307
  endloop
 endfacet
 facet normal 0.411798 0.879982 0.236757
  outer loop
   vertex -133.455 50.0792 0.177941
   vertex -131.53 50.0412 -3.0283
   vertex -134.079 51.1843 -2.84307
  endloop
 endfacet
 facet normal 0.408618 0.881169 0.237849
  outer loop
   vertex -133.455 50.0792 0.177941
   vertex -134.079 51.1843 -2.84307
   vertex -134.492 51.3542 -2.76415
  endloop
 endfacet
 facet normal 0.0799431 -0.0366127 0.996127
  outer loop
   vertex -137.56 52.2453 0.587048
   vertex -133.211 38.7297 -0.258745
   vertex -133.455 50.0792 0.177941
  endloop
 endfacet
 facet normal 0.198314 -0.0295667 0.979692
  outer loop
   vertex -221.199 52.7195 17.1904
   vertex -188.199 73.2565 11.1302
   vertex -220.989 56.2533 17.2546
  endloop
 endfacet
 facet normal 0.0341765 -0.0434561 0.998471
  outer loop
   vertex -119.25 30.6691 -1.08743
   vertex -133.211 38.7297 -0.258745
   vertex -120.106 29.753 -1.09801
  endloop
 endfacet
 facet normal -0.0342673 -0.142511 0.9892
  outer loop
   vertex -120.106 29.753 -1.09801
   vertex -133.211 38.7297 -0.258745
   vertex -121.59 27.8504 -1.4235
  endloop
 endfacet
 facet normal 0.197472 0.106616 0.974494
  outer loop
   vertex -121.59 27.8504 -1.4235
   vertex -133.211 38.7297 -0.258745
   vertex -122.812 27.2491 -1.10998
  endloop
 endfacet
 facet normal 0.2297 -0.0696536 0.970766
  outer loop
   vertex -188.199 73.2565 11.1302
   vertex -223.249 36.396 16.7786
   vertex -222.952 29.9102 16.243
  endloop
 endfacet
 facet normal 0.388571 -0.223852 0.893814
  outer loop
   vertex -199.033 41.5422 9.90815
   vertex -222.533 25.8522 16.1948
   vertex -194.679 30.1099 5.15186
  endloop
 endfacet
 facet normal -0.18304 -0.236549 0.954223
  outer loop
   vertex -122.812 27.2491 -1.10998
   vertex -133.211 38.7297 -0.258745
   vertex -124.018 25.7055 -1.72391
  endloop
 endfacet
 facet normal 0.365202 0.533505 0.762889
  outer loop
   vertex -185.487 26.8031 3.06423
   vertex -191.994 29.8002 4.08305
   vertex -194.679 30.1099 5.15186
  endloop
 endfacet
 facet normal 0.851884 0.297405 0.431096
  outer loop
   vertex -221.919 27.0673 16.1639
   vertex -222.952 29.9102 16.243
   vertex -222.781 29.3645 16.2816
  endloop
 endfacet
 facet normal 0.494365 0.25549 0.83086
  outer loop
   vertex -124.018 25.7055 -1.72391
   vertex -133.211 38.7297 -0.258745
   vertex -124.971 25.4081 -1.06515
  endloop
 endfacet
 facet normal 0.0699212 -0.0286494 0.997141
  outer loop
   vertex -185.487 26.8031 3.06423
   vertex -180.92 5.8847 2.143
   vertex -133.211 38.7297 -0.258745
  endloop
 endfacet
 facet normal 0.578943 0.384784 0.718864
  outer loop
   vertex -221.919 27.0673 16.1639
   vertex -223.232 30.0648 15.6166
   vertex -223.072 29.0253 16.0445
  endloop
 endfacet
 facet normal 0.124173 0.0174687 0.992107
  outer loop
   vertex -188.199 73.2565 11.1302
   vertex -222.952 29.9102 16.243
   vertex -221.919 27.0673 16.1639
  endloop
 endfacet
 facet normal 0.0657706 -0.0197083 0.99764
  outer loop
   vertex -124.971 25.4081 -1.06515
   vertex -133.211 38.7297 -0.258745
   vertex -125.977 24.8061 -1.01072
  endloop
 endfacet
 facet normal 0.326762 0.0896122 0.940849
  outer loop
   vertex -125.822 24.3552 -1.45604
   vertex -133.211 38.7297 -0.258745
   vertex -126.824 23.8943 -1.06403
  endloop
 endfacet
 facet normal -0.0324061 0.0417768 0.998601
  outer loop
   vertex -221.919 27.0673 16.1639
   vertex -223.072 29.0253 16.0445
   vertex -222.533 25.8522 16.1948
  endloop
 endfacet
 facet normal 0.0892169 -0.041791 0.995135
  outer loop
   vertex -133.211 38.7297 -0.258745
   vertex -138.069 22.2066 -0.517156
   vertex -126.966 23.5252 -1.45717
  endloop
 endfacet
 facet normal 0.344368 -0.150408 0.926708
  outer loop
   vertex -222.533 25.8522 16.1948
   vertex -188.199 73.2565 11.1302
   vertex -221.919 27.0673 16.1639
  endloop
 endfacet
 facet normal -0.11214 0.991479 0.0662862
  outer loop
   vertex -126.966 23.5252 -1.45717
   vertex -138.069 22.2066 -0.517156
   vertex -128.115 23.3623 -0.963661
  endloop
 endfacet
 facet normal 0.0763351 -0.0380232 0.996357
  outer loop
   vertex -180.92 5.8847 2.143
   vertex -138.069 22.2066 -0.517156
   vertex -133.211 38.7297 -0.258745
  endloop
 endfacet
 facet normal 0.0565017 -0.102985 0.993077
  outer loop
   vertex -128.115 23.3623 -0.963661
   vertex -138.069 22.2066 -0.517156
   vertex -129.043 22.205 -1.03084
  endloop
 endfacet
 facet normal 0.410303 -0.377414 0.830187
  outer loop
   vertex -126.966 23.5252 -1.45717
   vertex -128.115 23.3623 -0.963661
   vertex -129.043 22.205 -1.03084
  endloop
 endfacet
 facet normal 0.0767999 -0.0879805 0.993157
  outer loop
   vertex -222.533 25.8522 16.1948
   vertex -223.271 23.0949 16.0076
   vertex -207.152 1.83706 12.8779
  endloop
 endfacet
 facet normal 0.0559003 -0.176397 0.982731
  outer loop
   vertex -129.043 22.205 -1.03084
   vertex -138.069 22.2066 -0.517156
   vertex -130.895 20.3838 -1.25239
  endloop
 endfacet
 facet normal 0.0292811 -0.123824 0.991872
  outer loop
   vertex -207.152 1.83706 12.8779
   vertex -223.271 23.0949 16.0076
   vertex -223.607 21.2502 15.7872
  endloop
 endfacet
 facet normal 0.112088 0.0406312 0.992867
  outer loop
   vertex -130.895 20.3838 -1.25239
   vertex -138.069 22.2066 -0.517156
   vertex -133.154 18.7647 -0.931207
  endloop
 endfacet
 facet normal 0.0703087 -0.0195706 0.997333
  outer loop
   vertex -133.154 18.7647 -0.931207
   vertex -138.069 22.2066 -0.517156
   vertex -134.798 17.4978 -0.840129
  endloop
 endfacet
 facet normal -0.164289 -0.291889 0.942237
  outer loop
   vertex -207.152 1.83706 12.8779
   vertex -223.425 20.9293 15.955
   vertex -223.682 19.8989 15.591
  endloop
 endfacet
 facet normal 0.532467 0.168455 0.829519
  outer loop
   vertex -135.103 16.7523 -1.31324
   vertex -138.069 22.2066 -0.517156
   vertex -135.867 16.6658 -0.805612
  endloop
 endfacet
 facet normal 0.0664338 -0.0255228 0.997464
  outer loop
   vertex -135.867 16.6658 -0.805612
   vertex -138.069 22.2066 -0.517156
   vertex -138.377 14.2476 -0.700274
  endloop
 endfacet
 facet normal 0.50847 0.346966 0.788081
  outer loop
   vertex -207.152 1.83706 12.8779
   vertex -223.682 19.8989 15.591
   vertex -223.333 18.592 15.9412
  endloop
 endfacet
 facet normal 0.0386324 -0.143491 0.988897
  outer loop
   vertex -207.152 1.83706 12.8779
   vertex -223.333 18.592 15.9412
   vertex -223.502 17.3448 15.7669
  endloop
 endfacet
 facet normal 0.142775 -0.0282937 0.989351
  outer loop
   vertex -138.377 14.2476 -0.700274
   vertex -138.069 22.2066 -0.517156
   vertex -139.259 13.8835 -0.583379
  endloop
 endfacet
 facet normal 0.230334 0.0619354 0.971139
  outer loop
   vertex -207.152 1.83706 12.8779
   vertex -223.502 17.3448 15.7669
   vertex -223.199 15.5368 15.8103
  endloop
 endfacet
 facet normal 0.223483 0.00586208 0.97469
  outer loop
   vertex -180.92 5.8847 2.143
   vertex -185.487 26.8031 3.06423
   vertex -194.679 30.1099 5.15186
  endloop
 endfacet
 facet normal 0.0293841 -0.0121554 0.999494
  outer loop
   vertex -139.259 13.8835 -0.583379
   vertex -138.069 22.2066 -0.517156
   vertex -140.779 12.064 -0.560821
  endloop
 endfacet
 facet normal -0.110414 -0.330005 0.9375
  outer loop
   vertex -207.152 1.83706 12.8779
   vertex -223.199 15.5368 15.8103
   vertex -223.493 14.3439 15.3558
  endloop
 endfacet
 facet normal 0.423789 0.0600087 0.903771
  outer loop
   vertex -194.679 30.1099 5.15186
   vertex -207.152 1.83706 12.8779
   vertex -185.405 0.231196 2.78729
  endloop
 endfacet
 facet normal 0.0996032 -0.0308993 0.994547
  outer loop
   vertex -140.779 12.064 -0.560821
   vertex -138.069 22.2066 -0.517156
   vertex -144.089 9.81401 -0.299226
  endloop
 endfacet
 facet normal 0.0677905 -0.0153908 0.997581
  outer loop
   vertex -138.069 22.2066 -0.517156
   vertex -180.92 5.8847 2.143
   vertex -144.089 9.81401 -0.299226
  endloop
 endfacet
 facet normal 0.353771 0.0981132 0.930172
  outer loop
   vertex -222.533 25.8522 16.1948
   vertex -207.152 1.83706 12.8779
   vertex -194.679 30.1099 5.15186
  endloop
 endfacet
 facet normal 0.494928 0.506817 0.70582
  outer loop
   vertex -222.197 12.5782 15.7148
   vertex -207.152 1.83706 12.8779
   vertex -223.493 14.3439 15.3558
  endloop
 endfacet
 facet normal -0.116134 0.840377 0.529414
  outer loop
   vertex -141.807 10.687 -1.18425
   vertex -144.089 9.81401 -0.299226
   vertex -142.167 10.4064 -0.817866
  endloop
 endfacet
endsolid
