solid ascii
 facet normal -0.9855 -0.0601822 0.158643
  outer loop
   vertex -102.385 -48.9822 0.694728
   vertex -102.325 -50.2077 0.60265
   vertex -101.83 -48.9189 4.16104
  endloop
 endfacet
 facet normal -0.90511 0.402385 0.13734
  outer loop
   vertex -102.385 -48.9822 0.694728
   vertex -101.83 -48.9189 4.16104
   vertex -102.016 -48.0102 0.276434
  endloop
 endfacet
 facet normal -0.907943 -0.415618 -0.0538707
  outer loop
   vertex -102.016 -48.0102 0.276434
   vertex -101.83 -48.9189 4.16104
   vertex -102.539 -46.9273 0.734137
  endloop
 endfacet
 facet normal -0.948864 0.145019 0.280406
  outer loop
   vertex -101.83 -48.9189 4.16104
   vertex -102.455 -45.8653 0.469631
   vertex -102.539 -46.9273 0.734137
  endloop
 endfacet
 facet normal -0.988292 -0.145142 0.0470486
  outer loop
   vertex -102.455 -45.8653 0.469631
   vertex -101.83 -48.9189 4.16104
   vertex -102.49 -44.3193 4.48995
  endloop
 endfacet
 facet normal -0.848689 0.491087 -0.196369
  outer loop
   vertex -102.455 -45.8653 0.469631
   vertex -102.49 -44.3193 4.48995
   vertex -102.235 -43.8166 4.64243
  endloop
 endfacet
 facet normal -0.892881 -0.383797 0.235506
  outer loop
   vertex -102.455 -45.8653 0.469631
   vertex -102.235 -43.8166 4.64243
   vertex -102.963 -42.5811 3.895
  endloop
 endfacet
 facet normal -0.874889 -0.27411 0.39929
  outer loop
   vertex -102.963 -42.5811 3.895
   vertex -102.235 -43.8166 4.64243
   vertex -102.906 -41.7632 4.58041
  endloop
 endfacet
 facet normal -0.991432 -0.128401 -0.0239909
  outer loop
   vertex -102.455 -45.8653 0.469631
   vertex -102.963 -42.5811 3.895
   vertex -103.35 -39.0393 0.927429
  endloop
 endfacet
 facet normal -0.661604 0.50801 -0.551548
  outer loop
   vertex -102.963 -42.5811 3.895
   vertex -102.906 -41.7632 4.58041
   vertex -102.662 -41.2732 4.73936
  endloop
 endfacet
 facet normal -0.497479 0.183408 -0.847866
  outer loop
   vertex -54.2461 -84.3218 -8.46231
   vertex -54.6421 -71.5267 -5.46214
   vertex -52.57 -79.0776 -8.31132
  endloop
 endfacet
 facet normal -0.681844 -0.206281 0.70181
  outer loop
   vertex -24.7045 -82.2259 5.63285
   vertex -18.4354 -100.515 6.34796
   vertex -18.5232 -100.016 6.40929
  endloop
 endfacet
 facet normal -0.813886 -0.171487 0.555142
  outer loop
   vertex -102.963 -42.5811 3.895
   vertex -102.662 -41.2732 4.73936
   vertex -103.362 -39.8892 4.14162
  endloop
 endfacet
 facet normal -0.763919 0.196779 0.614578
  outer loop
   vertex -103.17 -40.7545 4.65734
   vertex -102.884 -40.0033 4.77254
   vertex -103.362 -39.8892 4.14162
  endloop
 endfacet
 facet normal -0.770233 0.170371 0.614586
  outer loop
   vertex -103.362 -39.8892 4.14162
   vertex -102.884 -40.0033 4.77254
   vertex -102.962 -39.4255 4.51463
  endloop
 endfacet
 facet normal -0.975181 -0.12798 -0.180672
  outer loop
   vertex -102.963 -42.5811 3.895
   vertex -103.362 -39.8892 4.14162
   vertex -103.264 -38.8308 2.86383
  endloop
 endfacet
 facet normal -0.996508 -0.0659278 0.0512319
  outer loop
   vertex -103.35 -39.0393 0.927429
   vertex -102.963 -42.5811 3.895
   vertex -103.264 -38.8308 2.86383
  endloop
 endfacet
 facet normal -0.829128 0.460087 0.317594
  outer loop
   vertex -103.362 -39.8892 4.14162
   vertex -102.962 -39.4255 4.51463
   vertex -103.264 -38.8308 2.86383
  endloop
 endfacet
 facet normal -0.434519 0.211136 -0.875565
  outer loop
   vertex -52.57 -79.0776 -8.31132
   vertex -54.6421 -71.5267 -5.46214
   vertex -50.5296 -74.5435 -8.23055
  endloop
 endfacet
 facet normal -0.826322 -0.554898 0.0963323
  outer loop
   vertex -103.35 -39.0393 0.927429
   vertex -103.264 -38.8308 2.86383
   vertex -103.547 -38.6875 1.26301
  endloop
 endfacet
 facet normal -0.544985 0.398463 -0.737712
  outer loop
   vertex -103.35 -39.0393 0.927429
   vertex -103.547 -38.6875 1.26301
   vertex -102.53 -37.8171 0.981724
  endloop
 endfacet
 facet normal -0.611186 0.771433 0.177039
  outer loop
   vertex -103.547 -38.6875 1.26301
   vertex -103.264 -38.8308 2.86383
   vertex -102.53 -37.8171 0.981724
  endloop
 endfacet
 facet normal -0.621609 0.764792 0.169396
  outer loop
   vertex -102.53 -37.8171 0.981724
   vertex -103.264 -38.8308 2.86383
   vertex -101.41 -37.1858 2.23863
  endloop
 endfacet
 facet normal -0.640321 0.677764 0.361421
  outer loop
   vertex -103.264 -38.8308 2.86383
   vertex -102.962 -39.4255 4.51463
   vertex -101.855 -37.5035 2.87125
  endloop
 endfacet
 facet normal -0.680792 0.723393 -0.114997
  outer loop
   vertex -101.41 -37.1858 2.23863
   vertex -103.264 -38.8308 2.86383
   vertex -101.855 -37.5035 2.87125
  endloop
 endfacet
 facet normal -0.557576 0.827548 0.065369
  outer loop
   vertex -90.7369 -46.6944 3.4147
   vertex -90.8986 -46.5423 0.108938
   vertex -91.6379 -46.9835 -0.610375
  endloop
 endfacet
 facet normal -0.670074 0.700805 0.244691
  outer loop
   vertex -102.53 -37.8171 0.981724
   vertex -101.41 -37.1858 2.23863
   vertex -101.841 -37.2132 1.13851
  endloop
 endfacet
 facet normal -0.487721 0.626249 -0.608227
  outer loop
   vertex -73.3171 -57.5768 1.83501
   vertex -72.8284 -57.4431 1.58077
   vertex -69.558 -58.7518 -2.38914
  endloop
 endfacet
 facet normal -0.368476 0.303912 -0.878557
  outer loop
   vertex -50.5296 -74.5435 -8.23055
   vertex -54.6421 -71.5267 -5.46214
   vertex -48.461 -72.9271 -8.53897
  endloop
 endfacet
 facet normal -0.666102 -0.405936 0.62572
  outer loop
   vertex -51.5537 -67.7397 -0.628691
   vertex -43.9634 -80.2518 -0.665775
   vertex -50.7326 -68.5762 -0.297307
  endloop
 endfacet
 facet normal -0.588172 -0.517178 0.621757
  outer loop
   vertex -43.9634 -80.2518 -0.665775
   vertex -55.5002 -66.0582 0.226813
   vertex -56.2902 -65.3875 0.0373634
  endloop
 endfacet
 facet normal -0.614532 0.0720877 -0.785592
  outer loop
   vertex -48.461 -72.9271 -8.53897
   vertex -51.8069 -67.7504 -5.44663
   vertex -48.5131 -69.8063 -8.21189
  endloop
 endfacet
 facet normal -0.30883 0.458593 -0.833256
  outer loop
   vertex -41.9106 -72.5924 -0.830412
   vertex -41.2458 -72.6452 -1.10584
   vertex -39.7922 -73.2531 -1.97922
  endloop
 endfacet
 facet normal -0.867735 0.483484 0.115235
  outer loop
   vertex -24.3575 -80.7329 1.98178
   vertex -24.7045 -82.2259 5.63285
   vertex -24.218 -81.345 5.59993
  endloop
 endfacet
 facet normal -0.729365 -0.0196109 0.683844
  outer loop
   vertex -99.674 -99.5969 2.60474
   vertex -99.7061 -96.7538 2.65207
   vertex -100.131 -100.732 2.08505
  endloop
 endfacet
 facet normal -0.988506 0.0879856 0.122944
  outer loop
   vertex -100.131 -100.732 2.08505
   vertex -99.7061 -96.7538 2.65207
   vertex -100.432 -98.6613 -1.81974
  endloop
 endfacet
 facet normal -0.976888 0.189185 0.0994967
  outer loop
   vertex -100.131 -100.732 2.08505
   vertex -100.385 -99.9311 -1.93588
   vertex -100.651 -101.421 -1.71828
  endloop
 endfacet
 facet normal -0.688332 0.249634 0.681088
  outer loop
   vertex -72.6841 -121.492 6.65724
   vertex -72.6316 -118.332 5.55221
   vertex -73.0483 -116.269 4.37497
  endloop
 endfacet
 facet normal -0.57507 0.293591 0.763609
  outer loop
   vertex -73.0483 -116.269 4.37497
   vertex -74.7331 -111.581 1.30359
   vertex -72.6841 -121.492 6.65724
  endloop
 endfacet
 facet normal -0.982928 -0.1021 0.153063
  outer loop
   vertex -100.131 -100.732 2.08505
   vertex -100.651 -101.421 -1.71828
   vertex -100.385 -104.87 -2.30767
  endloop
 endfacet
 facet normal -0.36477 0.468746 -0.8045
  outer loop
   vertex -98.5051 -105.729 -2.70833
   vertex -99.9799 -111.201 -5.22769
   vertex -100.916 -107.595 -2.70246
  endloop
 endfacet
 facet normal -0.967784 0.208833 -0.14065
  outer loop
   vertex -100.385 -104.87 -2.30767
   vertex -100.916 -107.595 -2.70246
   vertex -100.131 -100.732 2.08505
  endloop
 endfacet
 facet normal -0.899892 0.029452 0.435118
  outer loop
   vertex -100.165 -106.292 2.39055
   vertex -100.131 -100.732 2.08505
   vertex -100.376 -109.612 2.1791
  endloop
 endfacet
 facet normal -0.39258 0.457054 -0.798112
  outer loop
   vertex -100.916 -107.595 -2.70246
   vertex -99.9799 -111.201 -5.22769
   vertex -101.115 -110.904 -4.49976
  endloop
 endfacet
 facet normal -0.717829 0.644211 -0.264035
  outer loop
   vertex -61.91 -139.407 8.64376
   vertex -46.6845 -124.24 4.25384
   vertex -59.5907 -137.988 5.79888
  endloop
 endfacet
 facet normal -0.999188 0.0278926 0.0290768
  outer loop
   vertex -100.694 -117.502 -1.19549
   vertex -100.376 -109.612 2.1791
   vertex -100.131 -100.732 2.08505
  endloop
 endfacet
 facet normal -0.849016 0.271516 -0.453268
  outer loop
   vertex -101.115 -110.904 -4.49976
   vertex -100.895 -110.926 -4.92448
   vertex -101.225 -111.982 -4.93892
  endloop
 endfacet
 facet normal -0.933006 0.213447 -0.289725
  outer loop
   vertex -100.916 -107.595 -2.70246
   vertex -101.115 -110.904 -4.49976
   vertex -101.225 -111.982 -4.93892
  endloop
 endfacet
 facet normal -0.864535 -0.167724 0.47376
  outer loop
   vertex -100.376 -109.612 2.1791
   vertex -100.694 -117.502 -1.19549
   vertex -99.8434 -111.673 2.42086
  endloop
 endfacet
 facet normal -0.803667 0.35247 -0.479462
  outer loop
   vertex -59.5907 -137.988 5.79888
   vertex -60.0721 -138.632 6.13211
   vertex -61.91 -139.407 8.64376
  endloop
 endfacet
 facet normal -0.97263 -0.0474276 0.227467
  outer loop
   vertex -100.916 -107.595 -2.70246
   vertex -101.225 -111.982 -4.93892
   vertex -100.131 -100.732 2.08505
  endloop
 endfacet
 facet normal -0.711986 -0.330613 -0.619493
  outer loop
   vertex -100.713 -113.265 -4.84235
   vertex -101.225 -111.982 -4.93892
   vertex -100.69 -112.56 -5.24479
  endloop
 endfacet
 facet normal -0.992138 0.0926153 0.0841652
  outer loop
   vertex -99.8434 -111.673 2.42086
   vertex -100.694 -117.502 -1.19549
   vertex -100.162 -115.085 2.42077
  endloop
 endfacet
 facet normal -0.855417 -0.368583 -0.36388
  outer loop
   vertex -101.225 -111.982 -4.93892
   vertex -100.713 -113.265 -4.84235
   vertex -100.626 -115.637 -2.64368
  endloop
 endfacet
 facet normal -0.978462 -0.0321509 0.203909
  outer loop
   vertex -101.225 -111.982 -4.93892
   vertex -100.626 -115.637 -2.64368
   vertex -100.131 -100.732 2.08505
  endloop
 endfacet
 facet normal -0.999413 0.0341453 -0.00284786
  outer loop
   vertex -100.694 -117.502 -1.19549
   vertex -100.131 -100.732 2.08505
   vertex -100.626 -115.637 -2.64368
  endloop
 endfacet
 facet normal -0.975854 -0.08566 0.200927
  outer loop
   vertex -100.162 -115.085 2.42077
   vertex -100.694 -117.502 -1.19549
   vertex -99.8363 -117.766 2.85935
  endloop
 endfacet
 facet normal -0.968707 -0.153558 0.195004
  outer loop
   vertex -100.694 -117.502 -1.19549
   vertex -100.365 -119.314 -0.986102
   vertex -99.8363 -117.766 2.85935
  endloop
 endfacet
 facet normal -0.821557 0.087601 -0.563356
  outer loop
   vertex -100.109 -119.419 2.99995
   vertex -99.8363 -117.766 2.85935
   vertex -100.332 -123.738 2.65352
  endloop
 endfacet
 facet normal -0.971359 0.234363 0.0391771
  outer loop
   vertex -100.365 -119.314 -0.986102
   vertex -100.493 -119.973 -0.228726
   vertex -99.8363 -117.766 2.85935
  endloop
 endfacet
 facet normal -0.984959 0.0764044 0.154976
  outer loop
   vertex -100.332 -123.738 2.65352
   vertex -99.8363 -117.766 2.85935
   vertex -100.493 -119.973 -0.228726
  endloop
 endfacet
 facet normal -0.684119 -0.461656 -0.564672
  outer loop
   vertex -100.332 -123.738 2.65352
   vertex -100.493 -119.973 -0.228726
   vertex -100.003 -120.997 0.0143361
  endloop
 endfacet
 facet normal -0.98923 0.0397629 0.140866
  outer loop
   vertex -100.109 -119.419 2.99995
   vertex -100.332 -123.738 2.65352
   vertex -100.021 -121.122 4.10101
  endloop
 endfacet
 facet normal -0.972525 0.190081 -0.134404
  outer loop
   vertex -100.021 -121.122 4.10101
   vertex -100.332 -123.738 2.65352
   vertex -100.162 -121.714 4.28725
  endloop
 endfacet
 facet normal -0.953405 0.259037 0.154656
  outer loop
   vertex -100.385 -123.653 6.16119
   vertex -100.162 -121.714 4.28725
   vertex -100.252 -122.298 4.71013
  endloop
 endfacet
 facet normal -0.991726 0.120005 -0.045588
  outer loop
   vertex -100.252 -122.298 4.71013
   vertex -100.162 -121.714 4.28725
   vertex -100.332 -123.738 2.65352
  endloop
 endfacet
 facet normal -0.941745 -0.257278 0.216621
  outer loop
   vertex -100.252 -122.298 4.71013
   vertex -100.332 -123.738 2.65352
   vertex -99.9513 -124.762 3.0917
  endloop
 endfacet
 facet normal -0.892378 0.166493 -0.419454
  outer loop
   vertex -100.252 -122.298 4.71013
   vertex -99.9513 -124.762 3.0917
   vertex -100.888 -126.53 4.38298
  endloop
 endfacet
 facet normal -0.980175 0.131034 -0.148619
  outer loop
   vertex -100.92 -124.838 6.87656
   vertex -100.252 -122.298 4.71013
   vertex -101.007 -128.087 4.58274
  endloop
 endfacet
 facet normal -0.926178 0.233632 -0.29599
  outer loop
   vertex -100.92 -124.838 6.87656
   vertex -101.007 -128.087 4.58274
   vertex -101.561 -126.428 7.62491
  endloop
 endfacet
 facet normal -0.934759 0.114442 0.336345
  outer loop
   vertex -101.007 -128.087 4.58274
   vertex -100.252 -122.298 4.71013
   vertex -100.888 -126.53 4.38298
  endloop
 endfacet
 facet normal -0.966446 0.106245 -0.23387
  outer loop
   vertex -101.561 -126.428 7.62491
   vertex -101.007 -128.087 4.58274
   vertex -101.926 -128.415 8.23246
  endloop
 endfacet
 facet normal -0.630231 0.330723 0.702447
  outer loop
   vertex -101.546 -128.57 8.64706
   vertex -101.561 -126.428 7.62491
   vertex -101.926 -128.415 8.23246
  endloop
 endfacet
 facet normal -0.930357 0.302549 -0.207125
  outer loop
   vertex -101.007 -128.087 4.58274
   vertex -101.895 -130.063 5.68663
   vertex -101.926 -128.415 8.23246
  endloop
 endfacet
 facet normal -0.999677 -0.0250996 0.00409386
  outer loop
   vertex -101.926 -128.415 8.23246
   vertex -101.895 -130.063 5.68663
   vertex -101.844 -132.117 5.70601
  endloop
 endfacet
 facet normal -0.878396 0.255913 -0.403644
  outer loop
   vertex -101.926 -128.415 8.23246
   vertex -101.844 -132.117 5.70601
   vertex -102.385 -133.081 6.27238
  endloop
 endfacet
 facet normal -0.640214 0.308802 0.703397
  outer loop
   vertex -101.546 -128.57 8.64706
   vertex -101.926 -128.415 8.23246
   vertex -102.343 -132.696 9.73196
  endloop
 endfacet
 facet normal -0.995245 0.0973968 0.00107065
  outer loop
   vertex -101.926 -128.415 8.23246
   vertex -102.385 -133.081 6.27238
   vertex -102.343 -132.696 9.73196
  endloop
 endfacet
 facet normal -0.520747 0.131149 0.843577
  outer loop
   vertex -102.003 -133.262 10.03
   vertex -102.343 -132.696 9.73196
   vertex -102.695 -134.783 9.83905
  endloop
 endfacet
 facet normal -0.986098 0.166028 -0.00668552
  outer loop
   vertex -102.343 -132.696 9.73196
   vertex -102.385 -133.081 6.27238
   vertex -102.695 -134.783 9.83905
  endloop
 endfacet
 facet normal -0.987941 0.154329 -0.012426
  outer loop
   vertex -102.695 -134.783 9.83905
   vertex -102.385 -133.081 6.27238
   vertex -102.777 -135.535 7.00787
  endloop
 endfacet
 facet normal -0.967178 -0.23721 0.091093
  outer loop
   vertex -102.695 -134.783 9.83905
   vertex -102.777 -135.535 7.00787
   vertex -102.554 -136.549 6.74417
  endloop
 endfacet
 facet normal -0.994837 0.0615554 -0.0806911
  outer loop
   vertex -102.695 -134.783 9.83905
   vertex -102.554 -136.549 6.74417
   vertex -102.971 -138.083 10.7223
  endloop
 endfacet
 facet normal -0.921711 0.384445 0.0514842
  outer loop
   vertex -102.971 -138.083 10.7223
   vertex -102.554 -136.549 6.74417
   vertex -103.15 -138.053 7.3128
  endloop
 endfacet
 facet normal -0.99398 0.0960125 0.0527764
  outer loop
   vertex -102.971 -138.083 10.7223
   vertex -103.15 -138.053 7.3128
   vertex -103.422 -141.25 7.9878
  endloop
 endfacet
 facet normal -0.99277 0.0455136 0.111066
  outer loop
   vertex -102.971 -138.083 10.7223
   vertex -103.422 -141.25 7.9878
   vertex -103.143 -143.865 11.5559
  endloop
 endfacet
 facet normal -0.968254 0.15935 0.192592
  outer loop
   vertex -103.143 -143.865 11.5559
   vertex -103.422 -141.25 7.9878
   vertex -103.545 -146.134 11.4145
  endloop
 endfacet
 facet normal -0.422396 0.896993 -0.130328
  outer loop
   vertex -85.9964 -51.1284 -1.20506
   vertex -85.1635 -50.6161 -0.37866
   vertex -85.4458 -50.8731 -1.23221
  endloop
 endfacet
 facet normal -0.988055 -0.0711828 -0.136676
  outer loop
   vertex -103.422 -141.25 7.9878
   vertex -103.202 -144.534 8.10804
   vertex -103.545 -146.134 11.4145
  endloop
 endfacet
 facet normal -0.882477 0.145025 -0.44744
  outer loop
   vertex -87.9407 -124.703 3.06796
   vertex -94.8256 -149.869 8.48977
   vertex -95.1363 -150.538 8.88571
  endloop
 endfacet
 facet normal -0.955741 0.291196 0.0420038
  outer loop
   vertex -103.545 -146.134 11.4145
   vertex -103.202 -144.534 8.10804
   vertex -103.709 -146.271 8.62726
  endloop
 endfacet
 facet normal -0.801291 -0.598198 0.0096139
  outer loop
   vertex -97.3585 -150.64 11.5036
   vertex -97.2955 -150.761 9.2178
   vertex -97.1162 -150.972 11.0384
  endloop
 endfacet
 facet normal -0.949027 -0.307098 0.0709855
  outer loop
   vertex -103.545 -146.134 11.4145
   vertex -103.709 -146.271 8.62726
   vertex -103.506 -146.921 8.53078
  endloop
 endfacet
 facet normal -0.99074 -0.13379 0.0231023
  outer loop
   vertex -103.545 -146.134 11.4145
   vertex -103.506 -146.921 8.53078
   vertex -103.31 -148.341 8.69121
  endloop
 endfacet
 facet normal -0.388166 -0.290172 0.874716
  outer loop
   vertex -98.2586 -150.012 11.7249
   vertex -98.9573 -151.094 11.0557
   vertex -98.4473 -151.076 11.2882
  endloop
 endfacet
 facet normal -0.996617 -0.0793092 -0.0215625
  outer loop
   vertex -103.545 -146.134 11.4145
   vertex -103.31 -148.341 8.69121
   vertex -103.226 -150.288 11.9729
  endloop
 endfacet
 facet normal -0.762084 0.548109 0.344681
  outer loop
   vertex -103.226 -150.288 11.9729
   vertex -103.31 -148.341 8.69121
   vertex -103.763 -150.63 11.3284
  endloop
 endfacet
 facet normal -0.935231 0.330754 0.126273
  outer loop
   vertex -103.763 -150.63 11.3284
   vertex -103.31 -148.341 8.69121
   vertex -103.956 -150.594 9.8096
  endloop
 endfacet
 facet normal -0.953931 0.296428 0.0463173
  outer loop
   vertex -103.31 -148.341 8.69121
   vertex -103.917 -150.389 9.29486
   vertex -103.956 -150.594 9.8096
  endloop
 endfacet
 facet normal -0.657709 -0.681153 -0.321636
  outer loop
   vertex -103.956 -150.594 9.8096
   vertex -103.917 -150.389 9.29486
   vertex -103.351 -151.062 9.56283
  endloop
 endfacet
 facet normal -0.6497 -0.297752 0.699452
  outer loop
   vertex -103.226 -150.288 11.9729
   vertex -103.763 -150.63 11.3284
   vertex -103.234 -151.247 11.5571
  endloop
 endfacet
 facet normal -0.44505 0.275153 -0.852186
  outer loop
   vertex -66.1524 -98.1229 -7.67025
   vertex -64.7537 -90.3348 -5.88606
   vertex -63.2186 -94.4663 -8.02172
  endloop
 endfacet
 facet normal -0.917846 -0.308201 0.250142
  outer loop
   vertex -101.414 -71.28 -0.0673177
   vertex -100.994 -73.0515 -0.707544
   vertex -101.257 -69.3538 2.88255
  endloop
 endfacet
 facet normal -0.990947 -0.12293 0.0539596
  outer loop
   vertex -101.257 -69.3538 2.88255
   vertex -100.994 -73.0515 -0.707544
   vertex -100.316 -76.8817 3.0128
  endloop
 endfacet
 facet normal -0.93557 0.146543 0.3213
  outer loop
   vertex -100.316 -76.8817 3.0128
   vertex -100.994 -73.0515 -0.707544
   vertex -101.077 -73.5866 -0.705391
  endloop
 endfacet
 facet normal -0.90195 0.214608 0.374739
  outer loop
   vertex -100.316 -76.8817 3.0128
   vertex -101.077 -73.5866 -0.705391
   vertex -100.749 -77.612 2.39082
  endloop
 endfacet
 facet normal -0.756401 -0.436479 -0.48718
  outer loop
   vertex -101.077 -73.5866 -0.705391
   vertex -100.206 -79.2001 2.97061
   vertex -100.749 -77.612 2.39082
  endloop
 endfacet
 facet normal -0.837099 0.202746 0.508093
  outer loop
   vertex -100.206 -79.2001 2.97061
   vertex -101.077 -73.5866 -0.705391
   vertex -100.487 -79.9526 2.80712
  endloop
 endfacet
 facet normal -0.990187 -0.01514 0.138926
  outer loop
   vertex -100.487 -79.9526 2.80712
   vertex -101.077 -73.5866 -0.705391
   vertex -100.962 -80.9723 -0.691445
  endloop
 endfacet
 facet normal -0.700567 -0.194043 0.686698
  outer loop
   vertex -90.1239 -47.1327 3.08637
   vertex -89.5804 -48.3732 3.29029
   vertex -89.7035 -47.8097 3.32396
  endloop
 endfacet
 facet normal -0.98849 -0.0399322 0.145921
  outer loop
   vertex -100.487 -79.9526 2.80712
   vertex -100.962 -80.9723 -0.691445
   vertex -100.534 -84.0196 1.3791
  endloop
 endfacet
 facet normal -0.97976 -0.186778 -0.0720068
  outer loop
   vertex -100.534 -84.0196 1.3791
   vertex -100.962 -80.9723 -0.691445
   vertex -100.54 -83.0247 -1.11533
  endloop
 endfacet
 facet normal -0.932352 -0.110242 0.344335
  outer loop
   vertex -100.487 -79.9526 2.80712
   vertex -100.534 -84.0196 1.3791
   vertex -100.339 -80.9991 2.87232
  endloop
 endfacet
 facet normal -0.920733 -0.123708 0.370063
  outer loop
   vertex -100.339 -80.9991 2.87232
   vertex -100.534 -84.0196 1.3791
   vertex -99.6427 -86.1645 2.87859
  endloop
 endfacet
 facet normal -0.623616 -0.00431622 -0.781719
  outer loop
   vertex -100.873 -84.457 -0.842018
   vertex -100.54 -83.0247 -1.11533
   vertex -100.163 -88.253 -1.38743
  endloop
 endfacet
 facet normal -0.964895 0.243098 0.0993989
  outer loop
   vertex -100.54 -83.0247 -1.11533
   vertex -100.873 -84.457 -0.842018
   vertex -100.534 -84.0196 1.3791
  endloop
 endfacet
 facet normal -0.960358 -0.206517 0.187251
  outer loop
   vertex -100.873 -84.457 -0.842018
   vertex -100.163 -88.253 -1.38743
   vertex -100.534 -84.0196 1.3791
  endloop
 endfacet
 facet normal -0.945249 -0.232491 0.229024
  outer loop
   vertex -100.534 -84.0196 1.3791
   vertex -100.163 -88.253 -1.38743
   vertex -99.6427 -86.1645 2.87859
  endloop
 endfacet
 facet normal -0.344474 0.459776 -0.818501
  outer loop
   vertex -88.5882 -104.716 -3.93363
   vertex -64.7537 -90.3348 -5.88606
   vertex -89.6756 -109.496 -6.16068
  endloop
 endfacet
 facet normal -0.977358 0.211001 0.015811
  outer loop
   vertex -99.6427 -86.1645 2.87859
   vertex -100.163 -88.253 -1.38743
   vertex -100.545 -90.0534 -1.0024
  endloop
 endfacet
 facet normal -0.981423 0.0405962 0.18751
  outer loop
   vertex -100.53 -90.4509 -0.835958
   vertex -99.6427 -86.1645 2.87859
   vertex -100.545 -90.0534 -1.0024
  endloop
 endfacet
 facet normal -0.974457 0.00713291 0.224463
  outer loop
   vertex -99.6427 -86.1645 2.87859
   vertex -100.53 -90.4509 -0.835958
   vertex -99.7106 -90.2974 2.71518
  endloop
 endfacet
 facet normal -0.962227 -0.135942 -0.23588
  outer loop
   vertex -100.53 -90.4509 -0.835958
   vertex -100.545 -90.0534 -1.0024
   vertex -100.354 -90.6347 -1.44677
  endloop
 endfacet
 facet normal -0.862773 0.358841 -0.356168
  outer loop
   vertex -100.53 -90.4509 -0.835958
   vertex -100.354 -90.6347 -1.44677
   vertex -100.569 -90.8932 -1.18668
  endloop
 endfacet
 facet normal -0.720339 -0.0929174 -0.68737
  outer loop
   vertex -100.569 -90.8932 -1.18668
   vertex -100.354 -90.6347 -1.44677
   vertex -100.169 -91.3533 -1.54343
  endloop
 endfacet
 facet normal -0.881939 0.0168616 -0.471063
  outer loop
   vertex -100.53 -90.4509 -0.835958
   vertex -100.169 -91.3533 -1.54343
   vertex -100.56 -93.7579 -0.897707
  endloop
 endfacet
 facet normal -0.955009 0.078432 -0.286017
  outer loop
   vertex -100.56 -93.7579 -0.897707
   vertex -100.169 -91.3533 -1.54343
   vertex -100.328 -93.7389 -1.66698
  endloop
 endfacet
 facet normal -0.974448 0.00471841 0.224565
  outer loop
   vertex -99.7106 -90.2974 2.71518
   vertex -100.53 -90.4509 -0.835958
   vertex -100.56 -93.7579 -0.897707
  endloop
 endfacet
 facet normal -0.985748 0.128099 0.109045
  outer loop
   vertex -100.001 -92.3211 2.4637
   vertex -99.7106 -90.2974 2.71518
   vertex -100.56 -93.7579 -0.897707
  endloop
 endfacet
 facet normal -0.896894 -0.332783 0.291269
  outer loop
   vertex -100.001 -92.3211 2.4637
   vertex -100.56 -93.7579 -0.897707
   vertex -99.757 -92.8719 2.5868
  endloop
 endfacet
 facet normal -0.967963 -0.0705645 0.240976
  outer loop
   vertex -100.56 -93.7579 -0.897707
   vertex -100.432 -98.6613 -1.81974
   vertex -99.757 -92.8719 2.5868
  endloop
 endfacet
 facet normal -0.957217 0.0291634 -0.287897
  outer loop
   vertex -100.328 -93.7389 -1.66698
   vertex -100.432 -98.6613 -1.81974
   vertex -100.56 -93.7579 -0.897707
  endloop
 endfacet
 facet normal -0.984464 0.163501 -0.0640174
  outer loop
   vertex -99.757 -92.8719 2.5868
   vertex -100.432 -98.6613 -1.81974
   vertex -99.9709 -94.1591 2.58841
  endloop
 endfacet
 facet normal -0.975463 -0.0947022 0.198754
  outer loop
   vertex -100.432 -98.6613 -1.81974
   vertex -99.7061 -96.7538 2.65207
   vertex -99.9709 -94.1591 2.58841
  endloop
 endfacet
 facet normal -0.998652 0.0466699 0.022719
  outer loop
   vertex -101.414 -71.28 -0.0673177
   vertex -101.257 -69.3538 2.88255
   vertex -101.323 -69.0872 -0.531439
  endloop
 endfacet
 facet normal -0.986816 -0.161726 0.00621959
  outer loop
   vertex -101.257 -69.3538 2.88255
   vertex -101.633 -67.1768 -0.123702
   vertex -101.323 -69.0872 -0.531439
  endloop
 endfacet
 facet normal -0.444498 -0.332484 0.831791
  outer loop
   vertex -101.257 -69.3538 2.88255
   vertex -96.3937 -76.1639 2.75946
   vertex -100.831 -68.9212 3.28322
  endloop
 endfacet
 facet normal -0.994783 -0.0722738 0.0719934
  outer loop
   vertex -101.633 -67.1768 -0.123702
   vertex -101.257 -69.3538 2.88255
   vertex -101.45 -66.4045 3.1745
  endloop
 endfacet
 facet normal -0.614333 -0.117469 0.780254
  outer loop
   vertex -101.257 -69.3538 2.88255
   vertex -100.831 -68.9212 3.28322
   vertex -101.45 -66.4045 3.1745
  endloop
 endfacet
 facet normal -0.830684 -0.0162472 -0.556507
  outer loop
   vertex -101.323 -69.0872 -0.531439
   vertex -101.633 -67.1768 -0.123702
   vertex -101.354 -67.8162 -0.521821
  endloop
 endfacet
 facet normal -0.997225 -0.037891 0.064078
  outer loop
   vertex -101.633 -67.1768 -0.123702
   vertex -101.45 -66.4045 3.1745
   vertex -101.726 -58.5966 3.50428
  endloop
 endfacet
 facet normal -0.647008 0.146407 -0.748295
  outer loop
   vertex -63.2186 -94.4663 -8.02172
   vertex -64.7537 -90.3348 -5.88606
   vertex -63.1332 -93.9045 -7.98567
  endloop
 endfacet
 facet normal -0.995177 0.0288682 -0.0937551
  outer loop
   vertex -101.633 -67.1768 -0.123702
   vertex -101.726 -58.5966 3.50428
   vertex -101.504 -63.6329 -0.403056
  endloop
 endfacet
 facet normal -0.268869 -0.597785 0.755223
  outer loop
   vertex -101.504 -63.6329 -0.403056
   vertex -101.726 -58.5966 3.50428
   vertex -101.846 -62.7681 0.159526
  endloop
 endfacet
 facet normal -0.993838 -0.050439 0.0987056
  outer loop
   vertex -101.846 -62.7681 0.159526
   vertex -101.726 -58.5966 3.50428
   vertex -102.003 -59.821 0.0856486
  endloop
 endfacet
 facet normal -0.859623 -0.00811378 -0.510865
  outer loop
   vertex -101.504 -63.6329 -0.403056
   vertex -101.846 -62.7681 0.159526
   vertex -101.544 -62.3725 -0.356138
  endloop
 endfacet
 facet normal -0.840761 -0.0582565 -0.538263
  outer loop
   vertex -101.846 -62.7681 0.159526
   vertex -102.003 -59.821 0.0856486
   vertex -101.544 -62.3725 -0.356138
  endloop
 endfacet
 facet normal -0.480382 0.870386 0.107988
  outer loop
   vertex -59.6146 -91.9541 -8.05325
   vertex -60.1245 -92.2271 -8.12148
   vertex -63.1332 -93.9045 -7.98567
  endloop
 endfacet
 facet normal -0.705934 -0.00453225 -0.708264
  outer loop
   vertex -101.544 -62.3725 -0.356138
   vertex -102.003 -59.821 0.0856486
   vertex -101.735 -57.4591 -0.196589
  endloop
 endfacet
 facet normal -0.992359 0.117208 0.038542
  outer loop
   vertex -102.003 -59.821 0.0856486
   vertex -101.726 -58.5966 3.50428
   vertex -101.735 -57.4591 -0.196589
  endloop
 endfacet
 facet normal -0.965629 -0.249129 -0.0741253
  outer loop
   vertex -101.735 -57.4591 -0.196589
   vertex -101.726 -58.5966 3.50428
   vertex -102.129 -56.0531 0.203471
  endloop
 endfacet
 facet normal -0.377962 0.335866 -0.862751
  outer loop
   vertex -63.1332 -93.9045 -7.98567
   vertex -64.7537 -90.3348 -5.88606
   vertex -57.4376 -88.4069 -8.34066
  endloop
 endfacet
 facet normal -0.982217 0.0703401 0.174072
  outer loop
   vertex -102.129 -56.0531 0.203471
   vertex -101.726 -58.5966 3.50428
   vertex -101.433 -55.5629 3.93061
  endloop
 endfacet
 facet normal -0.15128 0.73934 -0.656118
  outer loop
   vertex -24.5288 -88.2379 1.93819
   vertex -54.1007 -98.8566 -3.20906
   vertex -46.1254 -95.1072 -0.822884
  endloop
 endfacet
 facet normal -0.933969 -0.287574 0.212139
  outer loop
   vertex -102.129 -56.0531 0.203471
   vertex -101.433 -55.5629 3.93061
   vertex -101.763 -54.7298 3.60911
  endloop
 endfacet
 facet normal -0.390357 0.485038 -0.782534
  outer loop
   vertex -56.588 -87.7418 -8.35219
   vertex -57.4376 -88.4069 -8.34066
   vertex -64.7537 -90.3348 -5.88606
  endloop
 endfacet
 facet normal -0.685328 0.00990247 0.728167
  outer loop
   vertex -101.763 -54.7298 3.60911
   vertex -101.433 -55.5629 3.93061
   vertex -101.289 -53.5092 4.03798
  endloop
 endfacet
 facet normal -0.92576 0.375266 -0.0463023
  outer loop
   vertex -102.129 -56.0531 0.203471
   vertex -101.763 -54.7298 3.60911
   vertex -101.289 -53.5092 4.03798
  endloop
 endfacet
 facet normal -0.378712 0.854525 -0.355477
  outer loop
   vertex -55.5833 -87.2242 -8.1784
   vertex -56.588 -87.7418 -8.35219
   vertex -64.7537 -90.3348 -5.88606
  endloop
 endfacet
 facet normal -0.920978 -0.200057 0.33433
  outer loop
   vertex -102.129 -56.0531 0.203471
   vertex -101.289 -53.5092 4.03798
   vertex -101.691 -51.7019 4.0134
  endloop
 endfacet
 facet normal -0.743058 0.0195408 -0.668942
  outer loop
   vertex -101.84 -53.1065 -0.030814
   vertex -102.129 -56.0531 0.203471
   vertex -102.253 -51.3924 0.477357
  endloop
 endfacet
 facet normal -0.991909 0.123931 -0.0275364
  outer loop
   vertex -102.129 -56.0531 0.203471
   vertex -101.691 -51.7019 4.0134
   vertex -101.566 -50.6865 4.08321
  endloop
 endfacet
 facet normal -0.990031 -0.0343669 0.136593
  outer loop
   vertex -102.253 -51.3924 0.477357
   vertex -102.129 -56.0531 0.203471
   vertex -101.83 -48.9189 4.16104
  endloop
 endfacet
 facet normal -0.935092 0.334419 -0.117335
  outer loop
   vertex -102.253 -51.3924 0.477357
   vertex -101.83 -48.9189 4.16104
   vertex -101.927 -50.5926 0.163702
  endloop
 endfacet
 facet normal -0.92526 -0.153687 0.346806
  outer loop
   vertex -102.129 -56.0531 0.203471
   vertex -101.566 -50.6865 4.08321
   vertex -101.83 -48.9189 4.16104
  endloop
 endfacet
 facet normal -0.412585 -0.836632 0.360305
  outer loop
   vertex -101.927 -50.5926 0.163702
   vertex -101.83 -48.9189 4.16104
   vertex -102.325 -50.2077 0.60265
  endloop
 endfacet
 facet normal -0.734896 0.0149555 -0.678015
  outer loop
   vertex -102.385 -48.9822 0.694728
   vertex -101.927 -50.5926 0.163702
   vertex -102.325 -50.2077 0.60265
  endloop
 endfacet
 facet normal -0.129396 -0.788292 0.601541
  outer loop
   vertex -21.4019 -105.337 6.64646
   vertex -35.5937 -103.3 6.26321
   vertex -21.37 -105.736 6.13122
  endloop
 endfacet
 facet normal -0.596014 -0.800961 0.0568193
  outer loop
   vertex -103.956 -150.594 9.8096
   vertex -103.351 -151.062 9.56283
   vertex -103.763 -150.63 11.3284
  endloop
 endfacet
 facet normal -0.756133 -0.654209 -0.0165451
  outer loop
   vertex -103.351 -151.062 9.56283
   vertex -103.234 -151.247 11.5571
   vertex -103.763 -150.63 11.3284
  endloop
 endfacet
endsolid
