solid ascii
 facet normal 0.691136 -0.550392 0.4684
  outer loop
   vertex -21.4019 -105.337 6.64646
   vertex -21.37 -105.736 6.13122
   vertex -20.2962 -104.402 6.1135
  endloop
 endfacet
 facet normal 0.626772 -0.342211 0.700035
  outer loop
   vertex -18.4354 -100.515 6.34796
   vertex -21.4019 -105.337 6.64646
   vertex -20.2962 -104.402 6.1135
  endloop
 endfacet
 facet normal 0.450326 -0.470203 0.759023
  outer loop
   vertex -102.906 -41.7632 4.58041
   vertex -99.9037 -38.8541 4.60113
   vertex -102.662 -41.2732 4.73936
  endloop
 endfacet
 facet normal 0.63225 0.0160239 0.774599
  outer loop
   vertex -18.4354 -100.515 6.34796
   vertex -17.572 -100.146 5.63554
   vertex -18.5232 -100.016 6.40929
  endloop
 endfacet
 facet normal 0.494768 -0.520502 0.695904
  outer loop
   vertex -18.5232 -100.016 6.40929
   vertex -17.572 -100.146 5.63554
   vertex -17.2179 -99.5496 5.83002
  endloop
 endfacet
 facet normal 0.431419 -0.0703385 0.899406
  outer loop
   vertex -91.5816 -57.0916 3.00677
   vertex -90.1239 -47.1327 3.08637
   vertex -90.7369 -46.6944 3.4147
  endloop
 endfacet
 facet normal 0.481145 -0.346548 0.805236
  outer loop
   vertex -18.5232 -100.016 6.40929
   vertex -17.2179 -99.5496 5.83002
   vertex -16.343 -97.5699 6.15927
  endloop
 endfacet
 facet normal 0.690219 0.678756 -0.250775
  outer loop
   vertex -89.0095 -48.2062 3.24825
   vertex -88.316 -48.9429 3.16296
   vertex -90.1239 -47.1327 3.08637
  endloop
 endfacet
 facet normal 0.462125 0.676794 0.573054
  outer loop
   vertex -83.7773 -51.6618 2.67776
   vertex -77.2417 -55.6626 2.13229
   vertex -77.2105 -55.214 1.57739
  endloop
 endfacet
 facet normal 0.274664 -0.303942 0.912239
  outer loop
   vertex -98.2056 -40.8294 4.42459
   vertex -102.235 -43.8166 4.64243
   vertex -97.625 -40.9541 4.20827
  endloop
 endfacet
 facet normal 0.609116 0.78279 -0.127347
  outer loop
   vertex -90.1239 -47.1327 3.08637
   vertex -84.6574 -51.4353 2.78574
   vertex -88.0531 -49.4073 -0.99
  endloop
 endfacet
 facet normal 0.584679 0.811217 0.00874524
  outer loop
   vertex -90.7369 -46.6944 3.4147
   vertex -90.1239 -47.1327 3.08637
   vertex -90.8986 -46.5423 0.108938
  endloop
 endfacet
 facet normal 0.459658 0.885898 0.0624494
  outer loop
   vertex -88.0531 -49.4073 -0.99
   vertex -84.6574 -51.4353 2.78574
   vertex -77.2105 -55.214 1.57739
  endloop
 endfacet
 facet normal 0.632441 0.774531 -0.0109577
  outer loop
   vertex -90.1239 -47.1327 3.08637
   vertex -88.8772 -48.2001 -0.401723
   vertex -90.8986 -46.5423 0.108938
  endloop
 endfacet
 facet normal 0.455483 -0.401195 0.794719
  outer loop
   vertex -77.2417 -55.6626 2.13229
   vertex -96.3937 -76.1639 2.75946
   vertex -76.7776 -55.5995 1.89815
  endloop
 endfacet
 facet normal 0.388153 0.612052 0.689006
  outer loop
   vertex -98.2056 -40.8294 4.42459
   vertex -97.625 -40.9541 4.20827
   vertex -97.8484 -40.1163 3.58994
  endloop
 endfacet
 facet normal 0.848913 0.507337 0.148172
  outer loop
   vertex -88.0531 -49.4073 -0.99
   vertex -88.8772 -48.2001 -0.401723
   vertex -90.1239 -47.1327 3.08637
  endloop
 endfacet
 facet normal 0.492593 0.774864 -0.396154
  outer loop
   vertex -83.6739 -52.0853 -1.40006
   vertex -85.4458 -50.8731 -1.23221
   vertex -85.1635 -50.6161 -0.37866
  endloop
 endfacet
 facet normal 0.531971 0.7756 -0.339782
  outer loop
   vertex -85.1635 -50.6161 -0.37866
   vertex -77.2105 -55.214 1.57739
   vertex -83.6739 -52.0853 -1.40006
  endloop
 endfacet
 facet normal 0.610272 0.696873 -0.376745
  outer loop
   vertex -96.2623 -42.3026 0.104563
   vertex -97.2168 -41.3547 0.311777
   vertex -96.7125 -41.3175 1.19736
  endloop
 endfacet
 facet normal 0.790312 0.572596 -0.218036
  outer loop
   vertex -91.6379 -46.9835 -0.610375
   vertex -93.1111 -44.6992 0.0489075
   vertex -90.7369 -46.6944 3.4147
  endloop
 endfacet
 facet normal 0.322917 0.896406 0.303612
  outer loop
   vertex -93.1111 -44.6992 0.0489075
   vertex -95.3457 -43.8339 -0.12924
   vertex -90.7369 -46.6944 3.4147
  endloop
 endfacet
 facet normal 0.603174 0.460323 0.65137
  outer loop
   vertex -99.9037 -38.8541 4.60113
   vertex -98.2056 -40.8294 4.42459
   vertex -97.8484 -40.1163 3.58994
  endloop
 endfacet
 facet normal 0.305903 0.741723 -0.596883
  outer loop
   vertex -77.2571 -55.216 -2.00191
   vertex -83.6739 -52.0853 -1.40006
   vertex -78.5934 -54.2168 -1.44502
  endloop
 endfacet
 facet normal 0.616652 0.765402 -0.184121
  outer loop
   vertex -90.7369 -46.6944 3.4147
   vertex -95.3457 -43.8339 -0.12924
   vertex -97.625 -40.9541 4.20827
  endloop
 endfacet
 facet normal 0.454343 0.781485 0.427614
  outer loop
   vertex -74.7925 -56.3271 1.11872
   vertex -76.7776 -55.5995 1.89815
   vertex -73.3171 -57.5768 1.83501
  endloop
 endfacet
 facet normal 0.607833 0.717926 0.339297
  outer loop
   vertex -100.784 -37.9772 4.32238
   vertex -99.9037 -38.8541 4.60113
   vertex -97.8484 -40.1163 3.58994
  endloop
 endfacet
 facet normal 0.384752 0.914424 0.125674
  outer loop
   vertex -83.6739 -52.0853 -1.40006
   vertex -77.2105 -55.214 1.57739
   vertex -78.5934 -54.2168 -1.44502
  endloop
 endfacet
 facet normal 0.668702 0.743475 -0.00912762
  outer loop
   vertex -76.7776 -55.5995 1.89815
   vertex -77.2571 -55.216 -2.00191
   vertex -77.2105 -55.214 1.57739
  endloop
 endfacet
 facet normal 0.360093 0.931715 0.0473272
  outer loop
   vertex -77.2571 -55.216 -2.00191
   vertex -76.7776 -55.5995 1.89815
   vertex -74.7925 -56.3271 1.11872
  endloop
 endfacet
 facet normal 0.535099 0.774574 -0.337201
  outer loop
   vertex -96.7125 -41.3175 1.19736
   vertex -97.2168 -41.3547 0.311777
   vertex -98.1126 -40.7334 0.31738
  endloop
 endfacet
 facet normal 0.900942 0.36889 0.228526
  outer loop
   vertex -97.625 -40.9541 4.20827
   vertex -95.3457 -43.8339 -0.12924
   vertex -96.7125 -41.3175 1.19736
  endloop
 endfacet
 facet normal 0.84284 0.523526 -0.12466
  outer loop
   vertex -95.3457 -43.8339 -0.12924
   vertex -96.2623 -42.3026 0.104563
   vertex -96.7125 -41.3175 1.19736
  endloop
 endfacet
 facet normal 0.889248 0.400396 0.221179
  outer loop
   vertex -97.8484 -40.1163 3.58994
   vertex -97.625 -40.9541 4.20827
   vertex -96.7125 -41.3175 1.19736
  endloop
 endfacet
 facet normal 0.658192 0.750116 -0.0640946
  outer loop
   vertex -96.7125 -41.3175 1.19736
   vertex -98.1533 -40.0915 0.749911
   vertex -97.8484 -40.1163 3.58994
  endloop
 endfacet
 facet normal 0.596645 0.802463 -0.00822159
  outer loop
   vertex -78.5934 -54.2168 -1.44502
   vertex -77.2105 -55.214 1.57739
   vertex -77.2571 -55.216 -2.00191
  endloop
 endfacet
 facet normal 0.839687 -0.0847177 0.536423
  outer loop
   vertex -16.2881 -96.3585 6.26461
   vertex -16.343 -97.5699 6.15927
   vertex -15.6607 -96.6225 5.24089
  endloop
 endfacet
 facet normal 0.660789 0.747804 -0.0643935
  outer loop
   vertex -98.1533 -40.0915 0.749911
   vertex -99.1174 -39.2199 0.978228
   vertex -97.8484 -40.1163 3.58994
  endloop
 endfacet
 facet normal 0.437106 0.715078 -0.545529
  outer loop
   vertex -76.3759 -55.8216 -2.08958
   vertex -77.2571 -55.216 -2.00191
   vertex -75.6107 -55.7721 -1.41161
  endloop
 endfacet
 facet normal 0.249824 0.903623 -0.347928
  outer loop
   vertex -75.5523 -56.0737 -2.15294
   vertex -76.3759 -55.8216 -2.08958
   vertex -75.6107 -55.7721 -1.41161
  endloop
 endfacet
 facet normal 0.698123 0.638439 -0.324067
  outer loop
   vertex -77.2571 -55.216 -2.00191
   vertex -74.7925 -56.3271 1.11872
   vertex -73.3171 -57.5768 1.83501
  endloop
 endfacet
 facet normal 0.608212 0.720758 0.332544
  outer loop
   vertex -100.864 -37.3759 3.16546
   vertex -100.784 -37.9772 4.32238
   vertex -97.8484 -40.1163 3.58994
  endloop
 endfacet
 facet normal 0.628452 0.769761 -0.111872
  outer loop
   vertex -99.5873 -39.1225 0.659634
   vertex -101.841 -37.2132 1.13851
   vertex -97.8484 -40.1163 3.58994
  endloop
 endfacet
 facet normal 0.673146 0.739467 -0.00795863
  outer loop
   vertex -100.834 -37.4102 2.52638
   vertex -100.864 -37.3759 3.16546
   vertex -97.8484 -40.1163 3.58994
  endloop
 endfacet
 facet normal 0.671032 0.686689 -0.279596
  outer loop
   vertex -101.841 -37.2132 1.13851
   vertex -101.41 -37.1858 2.23863
   vertex -97.8484 -40.1163 3.58994
  endloop
 endfacet
 facet normal 0.615824 0.742902 0.262408
  outer loop
   vertex -72.8284 -57.4431 1.58077
   vertex -72.057 -58.1493 1.76951
   vertex -69.558 -58.7518 -2.38914
  endloop
 endfacet
 facet normal 0.520834 0.804264 -0.286169
  outer loop
   vertex -74.6681 -56.6796 -2.24638
   vertex -75.5523 -56.0737 -2.15294
   vertex -75.6107 -55.7721 -1.41161
  endloop
 endfacet
 facet normal 0.505519 0.806692 -0.306101
  outer loop
   vertex -73.7662 -57.289 -2.36285
   vertex -74.6681 -56.6796 -2.24638
   vertex -75.6107 -55.7721 -1.41161
  endloop
 endfacet
 facet normal 0.476963 0.863973 0.161425
  outer loop
   vertex -72.057 -58.1493 1.76951
   vertex -70.6337 -58.9123 1.64789
   vertex -69.558 -58.7518 -2.38914
  endloop
 endfacet
 facet normal 0.341328 0.0499572 0.938616
  outer loop
   vertex -67.4029 -60.4342 1.3974
   vertex -61.3421 -78.9825 0.180618
   vertex -66.915 -60.33 1.21442
  endloop
 endfacet
 facet normal 0.567594 0.821428 0.0556239
  outer loop
   vertex -75.6107 -55.7721 -1.41161
   vertex -73.3171 -57.5768 1.83501
   vertex -72.2784 -57.9982 -2.54151
  endloop
 endfacet
 facet normal 0.268372 0.962878 -0.0290148
  outer loop
   vertex -73.3171 -57.5768 1.83501
   vertex -69.558 -58.7518 -2.38914
   vertex -72.2784 -57.9982 -2.54151
  endloop
 endfacet
 facet normal 0.574612 0.813173 0.0925853
  outer loop
   vertex -73.1592 -57.3893 -2.4227
   vertex -75.6107 -55.7721 -1.41161
   vertex -72.2784 -57.9982 -2.54151
  endloop
 endfacet
 facet normal 0.639336 0.674482 0.369221
  outer loop
   vertex -67.7033 -60.1552 1.40804
   vertex -67.4029 -60.4342 1.3974
   vertex -67.7479 -59.745 0.735781
  endloop
 endfacet
 facet normal 0.687481 0.724578 0.0485484
  outer loop
   vertex -68.6714 -59.8546 1.51449
   vertex -69.558 -58.7518 -2.38914
   vertex -69.59 -58.9762 1.41206
  endloop
 endfacet
 facet normal 0.762557 0.595646 -0.252414
  outer loop
   vertex -69.558 -58.7518 -2.38914
   vertex -67.7479 -59.745 0.735781
   vertex -66.7053 -60.8211 1.34614
  endloop
 endfacet
 facet normal 0.347586 0.64375 -0.681741
  outer loop
   vertex -67.9072 -60.3298 -3.0703
   vertex -69.2588 -59.4148 -2.89535
   vertex -67.5538 -59.7166 -2.31104
  endloop
 endfacet
 facet normal 0.149184 0.734146 -0.6624
  outer loop
   vertex -66.2554 -60.8347 -3.25785
   vertex -67.9072 -60.3298 -3.0703
   vertex -67.5538 -59.7166 -2.31104
  endloop
 endfacet
 facet normal 0.716926 -0.428587 0.549846
  outer loop
   vertex -16.2881 -96.3585 6.26461
   vertex -15.6607 -96.6225 5.24089
   vertex -13.4865 -92.3021 5.77355
  endloop
 endfacet
 facet normal 0.29888 -0.0187304 0.954107
  outer loop
   vertex -62.9589 -62.5639 1.0094
   vertex -61.3421 -78.9825 0.180618
   vertex -62.4634 -62.4852 0.855722
  endloop
 endfacet
 facet normal 0.421919 0.89036 0.17101
  outer loop
   vertex -69.558 -58.7518 -2.38914
   vertex -66.7053 -60.8211 1.34614
   vertex -67.5538 -59.7166 -2.31104
  endloop
 endfacet
 facet normal 0.424335 0.904674 0.0387885
  outer loop
   vertex -66.7053 -60.8211 1.34614
   vertex -62.9589 -62.5639 1.0094
   vertex -66.2554 -60.8347 -3.25785
  endloop
 endfacet
 facet normal 0.345036 0.663016 -0.664349
  outer loop
   vertex -69.2588 -59.4148 -2.89535
   vertex -69.558 -58.7518 -2.38914
   vertex -67.5538 -59.7166 -2.31104
  endloop
 endfacet
 facet normal 0.677617 0.732622 0.0640431
  outer loop
   vertex -67.5538 -59.7166 -2.31104
   vertex -66.7053 -60.8211 1.34614
   vertex -66.2554 -60.8347 -3.25785
  endloop
 endfacet
 facet normal 0.37777 0.92561 0.0231395
  outer loop
   vertex -66.2554 -60.8347 -3.25785
   vertex -62.4634 -62.4852 0.855722
   vertex -60.4752 -63.2845 0.372582
  endloop
 endfacet
 facet normal 0.418711 0.906454 -0.0549722
  outer loop
   vertex -61.7221 -62.9652 -3.85897
   vertex -66.2554 -60.8347 -3.25785
   vertex -60.4752 -63.2845 0.372582
  endloop
 endfacet
 facet normal 0.3917 -0.160862 0.905922
  outer loop
   vertex -13.3057 -89.9199 6.11838
   vertex -16.2881 -96.3585 6.26461
   vertex -13.4865 -92.3021 5.77355
  endloop
 endfacet
 facet normal 0.333966 0.233761 0.913139
  outer loop
   vertex -57.793 -65.0859 0.509777
   vertex -43.9634 -80.2518 -0.665775
   vertex -56.2902 -65.3875 0.0373634
  endloop
 endfacet
 facet normal 0.181203 0.739643 -0.648146
  outer loop
   vertex -57.9593 -64.5199 -3.71852
   vertex -58.9796 -64.8015 -4.32516
   vertex -58.4773 -64.2362 -3.53966
  endloop
 endfacet
 facet normal 0.124528 0.803314 -0.582391
  outer loop
   vertex -57.5359 -65.1563 -4.50585
   vertex -58.9796 -64.8015 -4.32516
   vertex -57.9593 -64.5199 -3.71852
  endloop
 endfacet
 facet normal 0.837052 0.458204 0.298987
  outer loop
   vertex -58.0183 -64.5867 0.375448
   vertex -57.793 -65.0859 0.509777
   vertex -55.0999 -66.4795 -4.89428
  endloop
 endfacet
 facet normal 0.333607 0.94232 -0.0271871
  outer loop
   vertex -61.7221 -62.9652 -3.85897
   vertex -60.4752 -63.2845 0.372582
   vertex -59.3793 -63.7898 -3.69175
  endloop
 endfacet
 facet normal 0.46822 0.883459 0.016428
  outer loop
   vertex -59.3793 -63.7898 -3.69175
   vertex -60.4752 -63.2845 0.372582
   vertex -58.0183 -64.5867 0.375448
  endloop
 endfacet
 facet normal 0.4395 0.897779 0.028844
  outer loop
   vertex -59.3793 -63.7898 -3.69175
   vertex -58.0183 -64.5867 0.375448
   vertex -58.4773 -64.2362 -3.53966
  endloop
 endfacet
 facet normal 0.383106 0.922561 -0.0459503
  outer loop
   vertex -55.0999 -66.4795 -4.89428
   vertex -55.5002 -66.0582 0.226813
   vertex -51.5537 -67.7397 -0.628691
  endloop
 endfacet
 facet normal 0.648798 0.760868 -0.0118768
  outer loop
   vertex -55.5002 -66.0582 0.226813
   vertex -55.0999 -66.4795 -4.89428
   vertex -56.2902 -65.3875 0.0373634
  endloop
 endfacet
 facet normal 0.844132 0.535728 0.0209089
  outer loop
   vertex -57.5359 -65.1563 -4.50585
   vertex -57.9593 -64.5199 -3.71852
   vertex -58.0183 -64.5867 0.375448
  endloop
 endfacet
 facet normal 0.485835 0.873792 0.021265
  outer loop
   vertex -57.9593 -64.5199 -3.71852
   vertex -58.4773 -64.2362 -3.53966
   vertex -58.0183 -64.5867 0.375448
  endloop
 endfacet
 facet normal 0.601114 0.797819 0.0463377
  outer loop
   vertex -58.0183 -64.5867 0.375448
   vertex -55.0999 -66.4795 -4.89428
   vertex -57.1797 -64.9593 -4.08755
  endloop
 endfacet
 facet normal 0.356925 0.933901 -0.0208352
  outer loop
   vertex -55.0999 -66.4795 -4.89428
   vertex -51.5537 -67.7397 -0.628691
   vertex -51.8069 -67.7504 -5.44663
  endloop
 endfacet
 facet normal 0.512252 0.253821 0.820471
  outer loop
   vertex -50.0451 -68.6296 -0.464162
   vertex -43.9634 -80.2518 -0.665775
   vertex -48.899 -69.0134 -1.061
  endloop
 endfacet
 facet normal 0.303396 0.736151 -0.605006
  outer loop
   vertex -57.1797 -64.9593 -4.08755
   vertex -55.0999 -66.4795 -4.89428
   vertex -57.5359 -65.1563 -4.50585
  endloop
 endfacet
 facet normal 0.720865 0.691953 -0.0394248
  outer loop
   vertex -51.8069 -67.7504 -5.44663
   vertex -51.5537 -67.7397 -0.628691
   vertex -50.7326 -68.5762 -0.297307
  endloop
 endfacet
 facet normal 0.338711 0.939762 0.0460626
  outer loop
   vertex -51.8069 -67.7504 -5.44663
   vertex -50.0451 -68.6296 -0.464162
   vertex -48.899 -69.0134 -1.061
  endloop
 endfacet
 facet normal 0.391984 0.090442 0.915516
  outer loop
   vertex -45.7637 -70.9075 -0.818056
   vertex -43.9634 -80.2518 -0.665775
   vertex -44.7665 -70.9877 -1.23712
  endloop
 endfacet
 facet normal 0.338701 0.648124 0.682068
  outer loop
   vertex -45.7637 -70.9075 -0.818056
   vertex -44.7665 -70.9877 -1.23712
   vertex -48.899 -69.0134 -1.061
  endloop
 endfacet
 facet normal 0.581056 0.598753 -0.551243
  outer loop
   vertex -41.8623 -72.8372 -5.40506
   vertex -46.3911 -70.7473 -7.90871
   vertex -45.6838 -70.4053 -6.7918
  endloop
 endfacet
 facet normal 0.484926 0.87171 -0.0704864
  outer loop
   vertex -48.5131 -69.8063 -8.21189
   vertex -51.8069 -67.7504 -5.44663
   vertex -48.899 -69.0134 -1.061
  endloop
 endfacet
 facet normal 0.3125 0.83591 -0.451218
  outer loop
   vertex -47.6375 -70.0524 -8.46237
   vertex -48.1017 -69.7771 -8.27387
   vertex -47.6311 -69.6035 -7.62629
  endloop
 endfacet
 facet normal 0.684688 0.725751 0.0669952
  outer loop
   vertex -47.6311 -69.6035 -7.62629
   vertex -48.899 -69.0134 -1.061
   vertex -46.3911 -70.7473 -7.90871
  endloop
 endfacet
 facet normal 0.413774 0.730604 0.543147
  outer loop
   vertex -44.7665 -70.9877 -1.23712
   vertex -43.7724 -71.8389 -0.849336
   vertex -39.7922 -73.2531 -1.97922
  endloop
 endfacet
 facet normal 0.369329 0.916457 0.153956
  outer loop
   vertex -43.7724 -71.8389 -0.849336
   vertex -41.9106 -72.5924 -0.830412
   vertex -39.7922 -73.2531 -1.97922
  endloop
 endfacet
 facet normal 0.347919 0.720097 -0.600343
  outer loop
   vertex -16.1194 -83.6109 2.95335
   vertex -15.0208 -84.5003 2.52322
   vertex -17.0135 -83.6781 2.35462
  endloop
 endfacet
 facet normal 0.430042 0.88367 0.184907
  outer loop
   vertex -48.899 -69.0134 -1.061
   vertex -44.7665 -70.9877 -1.23712
   vertex -39.7922 -73.2531 -1.97922
  endloop
 endfacet
 facet normal 0.636195 0.558212 0.532593
  outer loop
   vertex -46.3911 -70.7473 -7.90871
   vertex -47.0855 -69.8086 -8.06308
   vertex -47.6311 -69.6035 -7.62629
  endloop
 endfacet
 facet normal 0.824679 0.564648 0.0328153
  outer loop
   vertex -39.7367 -73.4293 -0.342547
   vertex -39.4322 -73.8979 0.0685908
   vertex -39.7922 -73.2531 -1.97922
  endloop
 endfacet
 facet normal 0.452482 0.880709 0.140041
  outer loop
   vertex -41.2458 -72.6452 -1.10584
   vertex -40.7655 -72.9565 -0.699646
   vertex -39.7922 -73.2531 -1.97922
  endloop
 endfacet
 facet normal 0.423449 0.905749 0.0175729
  outer loop
   vertex -45.6838 -70.4053 -6.7918
   vertex -48.899 -69.0134 -1.061
   vertex -39.7922 -73.2531 -1.97922
  endloop
 endfacet
 facet normal 0.994526 -0.0314682 -0.0996352
  outer loop
   vertex -11.4208 -86.2836 3.59833
   vertex -11.2574 -85.8446 5.09039
   vertex -11.2886 -87.1683 5.19754
  endloop
 endfacet
 facet normal 0.583732 0.769423 -0.259318
  outer loop
   vertex -45.6838 -70.4053 -6.7918
   vertex -39.7922 -73.2531 -1.97922
   vertex -41.8623 -72.8372 -5.40506
  endloop
 endfacet
 facet normal 0.391417 0.916247 0.0853522
  outer loop
   vertex -40.7655 -72.9565 -0.699646
   vertex -39.7367 -73.4293 -0.342547
   vertex -39.7922 -73.2531 -1.97922
  endloop
 endfacet
 facet normal 0.453272 0.878307 0.152056
  outer loop
   vertex -35.2092 -76.2245 2.68354
   vertex -32.3517 -77.8768 3.70966
   vertex -33.4901 -76.6747 0.15922
  endloop
 endfacet
 facet normal 0.430394 -0.233322 0.871965
  outer loop
   vertex -13.3057 -89.9199 6.11838
   vertex -13.1008 -91.5216 5.58866
   vertex -12.7865 -90.8675 5.60854
  endloop
 endfacet
 facet normal 0.342168 0.928169 0.14637
  outer loop
   vertex -27.1612 -80.1839 5.0547
   vertex -25.01 -81.0391 5.4487
   vertex -24.3575 -80.7329 1.98178
  endloop
 endfacet
 facet normal 0.425381 0.895633 0.129971
  outer loop
   vertex -36.2153 -75.6886 2.28341
   vertex -35.2092 -76.2245 2.68354
   vertex -33.4901 -76.6747 0.15922
  endloop
 endfacet
 facet normal 0.933654 0.298223 -0.198376
  outer loop
   vertex -32.3517 -77.8768 3.70966
   vertex -32.1922 -78.1197 4.09527
   vertex -33.4901 -76.6747 0.15922
  endloop
 endfacet
 facet normal 0.548327 0.836079 0.017575
  outer loop
   vertex -39.7922 -73.2531 -1.97922
   vertex -38.7349 -73.9887 0.0243328
   vertex -36.2153 -75.6886 2.28341
  endloop
 endfacet
 facet normal 0.371782 0.927504 0.038906
  outer loop
   vertex -39.7922 -73.2531 -1.97922
   vertex -39.1371 -73.4488 -3.57399
   vertex -40.1682 -73.0166 -4.02447
  endloop
 endfacet
 facet normal 0.390317 0.90139 0.18748
  outer loop
   vertex -39.7922 -73.2531 -1.97922
   vertex -36.2153 -75.6886 2.28341
   vertex -37.7508 -74.0107 -2.58684
  endloop
 endfacet
 facet normal 0.966055 0.108215 -0.23458
  outer loop
   vertex -12.7865 -90.8675 5.60854
   vertex -13.5019 -90.0379 3.0452
   vertex -12.78 -90.2493 5.92036
  endloop
 endfacet
 facet normal 0.541887 0.685377 -0.486432
  outer loop
   vertex -30.5422 -78.8243 0.414307
   vertex -35.4757 -76.0061 -1.11084
   vertex -33.4901 -76.6747 0.15922
  endloop
 endfacet
 facet normal 0.849204 0.520617 -0.0883765
  outer loop
   vertex -37.7508 -74.0107 -2.58684
   vertex -36.2153 -75.6886 2.28341
   vertex -37.3088 -74.7304 -2.57914
  endloop
 endfacet
 facet normal 0.328638 0.944308 -0.0167405
  outer loop
   vertex -36.2153 -75.6886 2.28341
   vertex -33.4901 -76.6747 0.15922
   vertex -35.4757 -76.0061 -1.11084
  endloop
 endfacet
 facet normal 0.334578 0.938375 0.0866632
  outer loop
   vertex -32.1922 -78.1197 4.09527
   vertex -29.4796 -79.1365 4.63201
   vertex -28.33 -79.2477 1.39879
  endloop
 endfacet
 facet normal 0.356012 0.933946 0.0316381
  outer loop
   vertex -39.7922 -73.2531 -1.97922
   vertex -37.7508 -74.0107 -2.58684
   vertex -39.1371 -73.4488 -3.57399
  endloop
 endfacet
 facet normal 0.579959 0.807807 0.105336
  outer loop
   vertex -33.4901 -76.6747 0.15922
   vertex -32.1922 -78.1197 4.09527
   vertex -30.5422 -78.8243 0.414307
  endloop
 endfacet
 facet normal 0.836233 0.532145 0.132425
  outer loop
   vertex -36.2153 -75.6886 2.28341
   vertex -35.4757 -76.0061 -1.11084
   vertex -36.1133 -74.9834 -1.19433
  endloop
 endfacet
 facet normal 0.438438 0.622106 -0.648657
  outer loop
   vertex -29.3925 -79.3699 0.668129
   vertex -30.5422 -78.8243 0.414307
   vertex -29.707 -78.6611 1.13543
  endloop
 endfacet
 facet normal 0.498901 0.853929 0.147995
  outer loop
   vertex -28.33 -79.2477 1.39879
   vertex -29.4796 -79.1365 4.63201
   vertex -27.8728 -80.166 5.15564
  endloop
 endfacet
 facet normal 0.31575 -0.0651702 0.946602
  outer loop
   vertex -12.1909 -89.0131 5.80897
   vertex -13.3057 -89.9199 6.11838
   vertex -12.78 -90.2493 5.92036
  endloop
 endfacet
 facet normal 0.940636 0.273368 0.20118
  outer loop
   vertex -24.7045 -82.2259 5.63285
   vertex -24.3575 -80.7329 1.98178
   vertex -25.01 -81.0391 5.4487
  endloop
 endfacet
 facet normal 0.365628 0.920374 0.138665
  outer loop
   vertex -32.1922 -78.1197 4.09527
   vertex -28.33 -79.2477 1.39879
   vertex -29.707 -78.6611 1.13543
  endloop
 endfacet
 facet normal 0.312085 0.710164 -0.631086
  outer loop
   vertex -24.9211 -81.2305 1.4242
   vertex -26.095 -80.8628 1.25757
   vertex -25.869 -80.2655 2.04148
  endloop
 endfacet
 facet normal 0.361338 0.924522 0.12122
  outer loop
   vertex -28.33 -79.2477 1.39879
   vertex -27.1612 -80.1839 5.0547
   vertex -26.846 -79.8555 1.61068
  endloop
 endfacet
 facet normal 0.337006 0.930363 0.144402
  outer loop
   vertex -24.218 -81.345 5.59993
   vertex -23.5974 -81.5848 5.69678
   vertex -24.3575 -80.7329 1.98178
  endloop
 endfacet
 facet normal 0.338649 0.933233 0.119973
  outer loop
   vertex -26.846 -79.8555 1.61068
   vertex -27.1612 -80.1839 5.0547
   vertex -25.869 -80.2655 2.04148
  endloop
 endfacet
 facet normal 0.519851 0.600589 -0.607493
  outer loop
   vertex -25.869 -80.2655 2.04148
   vertex -26.095 -80.8628 1.25757
   vertex -26.846 -79.8555 1.61068
  endloop
 endfacet
 facet normal 0.297589 0.949237 0.101931
  outer loop
   vertex -25.869 -80.2655 2.04148
   vertex -27.1612 -80.1839 5.0547
   vertex -24.3575 -80.7329 1.98178
  endloop
 endfacet
 facet normal 0.506333 0.857409 -0.0920721
  outer loop
   vertex -20.3115 -82.7081 5.8383
   vertex -24.3575 -80.7329 1.98178
   vertex -21.8505 -81.8588 5.28411
  endloop
 endfacet
 facet normal 0.928425 -0.307544 0.20843
  outer loop
   vertex -11.8935 -88.7946 5.4927
   vertex -11.2886 -87.1683 5.19754
   vertex -11.4435 -87.2428 5.77781
  endloop
 endfacet
 facet normal 0.790606 -0.32467 0.519164
  outer loop
   vertex -12.1909 -89.0131 5.80897
   vertex -11.8935 -88.7946 5.4927
   vertex -11.4435 -87.2428 5.77781
  endloop
 endfacet
 facet normal 0.366809 0.925988 0.089431
  outer loop
   vertex -24.3575 -80.7329 1.98178
   vertex -20.3115 -82.7081 5.8383
   vertex -17.0135 -83.6781 2.35462
  endloop
 endfacet
 facet normal 0.332963 0.804104 0.492497
  outer loop
   vertex -17.8293 -83.1593 5.32205
   vertex -16.9614 -83.8763 5.90591
   vertex -14.003 -84.9284 5.62356
  endloop
 endfacet
 facet normal 0.549595 0.403897 0.731309
  outer loop
   vertex -12.3215 -86.3641 5.95234
   vertex -11.4435 -87.2428 5.77781
   vertex -11.8018 -85.8677 5.28757
  endloop
 endfacet
 facet normal 0.898694 0.335031 0.283024
  outer loop
   vertex -11.4435 -87.2428 5.77781
   vertex -11.2886 -87.1683 5.19754
   vertex -11.8018 -85.8677 5.28757
  endloop
 endfacet
 facet normal 0.420456 0.907223 -0.0127686
  outer loop
   vertex -17.8293 -83.1593 5.32205
   vertex -14.003 -84.9284 5.62356
   vertex -15.0208 -84.5003 2.52322
  endloop
 endfacet
 facet normal 0.393771 0.561906 0.727465
  outer loop
   vertex -12.3215 -86.3641 5.95234
   vertex -11.8018 -85.8677 5.28757
   vertex -13.3585 -85.2839 5.67924
  endloop
 endfacet
 facet normal 0.337237 0.068074 0.938955
  outer loop
   vertex -11.2886 -87.1683 5.19754
   vertex -11.2574 -85.8446 5.09039
   vertex -11.8018 -85.8677 5.28757
  endloop
 endfacet
 facet normal 0.668163 0.652238 0.357973
  outer loop
   vertex -16.1194 -83.6109 2.95335
   vertex -17.8293 -83.1593 5.32205
   vertex -15.0208 -84.5003 2.52322
  endloop
 endfacet
 facet normal 0.307025 0.876415 -0.370987
  outer loop
   vertex -13.4754 -84.9732 2.68489
   vertex -15.0208 -84.5003 2.52322
   vertex -13.7763 -84.5878 3.34651
  endloop
 endfacet
 facet normal 0.485189 0.873554 -0.038667
  outer loop
   vertex -15.0208 -84.5003 2.52322
   vertex -14.003 -84.9284 5.62356
   vertex -13.3585 -85.2839 5.67924
  endloop
 endfacet
 facet normal 0.387657 0.900035 0.199147
  outer loop
   vertex -13.3585 -85.2839 5.67924
   vertex -11.8018 -85.8677 5.28757
   vertex -13.7763 -84.5878 3.34651
  endloop
 endfacet
 facet normal 0.522438 0.818424 -0.239251
  outer loop
   vertex -13.4754 -84.9732 2.68489
   vertex -13.7763 -84.5878 3.34651
   vertex -11.7282 -85.9701 3.09001
  endloop
 endfacet
 facet normal 0.483878 0.787666 -0.381371
  outer loop
   vertex -11.7282 -85.9701 3.09001
   vertex -13.7763 -84.5878 3.34651
   vertex -11.2099 -85.5982 4.5158
  endloop
 endfacet
 facet normal 0.198526 -0.312525 0.928932
  outer loop
   vertex -48.9722 -133.333 8.23002
   vertex -57.2425 -137.612 8.55803
   vertex -50.8299 -134.844 8.11879
  endloop
 endfacet
 facet normal 0.269145 -0.492176 0.827843
  outer loop
   vertex -50.8299 -134.844 8.11879
   vertex -57.2425 -137.612 8.55803
   vertex -55.209 -137.204 8.13904
  endloop
 endfacet
 facet normal 0.241383 -0.44036 0.864764
  outer loop
   vertex -53.2798 -136.477 7.97117
   vertex -50.8299 -134.844 8.11879
   vertex -55.209 -137.204 8.13904
  endloop
 endfacet
 facet normal 0.253092 -0.609288 0.751473
  outer loop
   vertex -57.2425 -137.612 8.55803
   vertex -58.2064 -137.882 8.66371
   vertex -57.7201 -138.278 8.17842
  endloop
 endfacet
 facet normal 0.256251 -0.606682 0.75251
  outer loop
   vertex -57.7201 -138.278 8.17842
   vertex -58.2064 -137.882 8.66371
   vertex -59.1316 -138.675 8.33946
  endloop
 endfacet
 facet normal 0.32165 0.939361 0.118924
  outer loop
   vertex -99.9799 -111.201 -5.22769
   vertex -100.895 -110.926 -4.92448
   vertex -101.115 -110.904 -4.49976
  endloop
 endfacet
 facet normal 0.422388 0.335992 0.841842
  outer loop
   vertex -65.7085 -140.992 8.58503
   vertex -69.6941 -137.455 9.17299
   vertex -67.0648 -140.949 9.24826
  endloop
 endfacet
 facet normal 0.490935 -0.618164 0.613886
  outer loop
   vertex -67.663 -141.867 8.8023
   vertex -67.0648 -140.949 9.24826
   vertex -68.8433 -142.388 9.22115
  endloop
 endfacet
 facet normal 0.251956 -0.308075 0.917392
  outer loop
   vertex -69.3688 -142.822 9.11827
   vertex -72.7701 -143.795 9.72557
   vertex -74.4175 -145.401 9.63873
  endloop
 endfacet
 facet normal 0.911802 0.408057 0.0458996
  outer loop
   vertex -97.7711 -129.809 8.95438
   vertex -100.385 -123.653 6.16119
   vertex -100.151 -124.235 6.67333
  endloop
 endfacet
 facet normal 0.273946 -0.168517 0.946866
  outer loop
   vertex -78.1941 -147.157 9.87013
   vertex -78.9436 -146.229 10.2522
   vertex -79.4117 -147.183 10.2177
  endloop
 endfacet
 facet normal 0.468076 -0.316686 0.824994
  outer loop
   vertex -102.695 -134.783 9.83905
   vertex -97.7711 -129.809 8.95438
   vertex -102.003 -133.262 10.03
  endloop
 endfacet
 facet normal 0.229116 -0.701633 0.674698
  outer loop
   vertex -80.7486 -147.913 9.91242
   vertex -79.4117 -147.183 10.2177
   vertex -84.1075 -148.301 10.6494
  endloop
 endfacet
 facet normal 0.232617 -0.664376 0.710277
  outer loop
   vertex -80.7486 -147.913 9.91242
   vertex -84.1075 -148.301 10.6494
   vertex -84.5775 -148.959 10.1882
  endloop
 endfacet
 facet normal 0.872691 0.301784 0.383844
  outer loop
   vertex -98.2586 -150.012 11.7249
   vertex -102.695 -134.783 9.83905
   vertex -102.267 -137.337 10.8728
  endloop
 endfacet
 facet normal 0.224543 -0.661983 0.715094
  outer loop
   vertex -84.5775 -148.959 10.1882
   vertex -84.1075 -148.301 10.6494
   vertex -86.2921 -148.968 10.7187
  endloop
 endfacet
 facet normal 0.39598 0.89644 0.198986
  outer loop
   vertex -86.2921 -148.968 10.7187
   vertex -87.8829 -148.331 11.0168
   vertex -86.8544 -148.76 10.9036
  endloop
 endfacet
 facet normal 0.345075 -0.451287 0.82296
  outer loop
   vertex -87.8105 -149.621 10.2791
   vertex -87.8829 -148.331 11.0168
   vertex -89.2218 -149.902 10.7166
  endloop
 endfacet
 facet normal 0.102339 -0.641278 0.760453
  outer loop
   vertex -93.6509 -150.298 11.2317
   vertex -94.8216 -150.681 11.0664
   vertex -94.0673 -150.661 10.9811
  endloop
 endfacet
 facet normal 0.0723402 -0.557776 0.826833
  outer loop
   vertex -98.2586 -150.012 11.7249
   vertex -103.226 -150.288 11.9729
   vertex -98.9573 -151.094 11.0557
  endloop
 endfacet
 facet normal 0.172352 -0.695818 0.697232
  outer loop
   vertex -96.3937 -76.1639 2.75946
   vertex -100.316 -76.8817 3.0128
   vertex -100.749 -77.612 2.39082
  endloop
 endfacet
 facet normal 0.635762 -0.449414 0.627562
  outer loop
   vertex -35.6125 -121.739 7.31688
   vertex -36.4864 -122.345 7.76801
   vertex -36.6099 -123.018 7.41129
  endloop
 endfacet
 facet normal 0.294524 -0.306821 0.905051
  outer loop
   vertex -96.3937 -76.1639 2.75946
   vertex -100.206 -79.2001 2.97061
   vertex -100.487 -79.9526 2.80712
  endloop
 endfacet
 facet normal 0.767795 -0.468813 0.436698
  outer loop
   vertex -37.871 -124.167 6.18817
   vertex -40.5127 -126.861 7.94096
   vertex -40.4258 -127.227 7.39506
  endloop
 endfacet
 facet normal 0.606404 0.599026 -0.522917
  outer loop
   vertex -100.545 -90.0534 -1.0024
   vertex -88.5882 -104.716 -3.93363
   vertex -100.354 -90.6347 -1.44677
  endloop
 endfacet
 facet normal 0.867402 0.493473 0.0640116
  outer loop
   vertex -92.971 -102.058 2.05154
   vertex -99.7106 -90.2974 2.71518
   vertex -99.4299 -90.7976 2.76787
  endloop
 endfacet
 facet normal 0.45129 0.434999 0.779175
  outer loop
   vertex -49.7395 -124.198 7.81518
   vertex -44.3634 -130.245 8.07723
   vertex -44.0793 -130.195 7.88475
  endloop
 endfacet
 facet normal 0.625447 0.423877 0.655091
  outer loop
   vertex -92.971 -102.058 2.05154
   vertex -100.001 -92.3211 2.4637
   vertex -99.757 -92.8719 2.5868
  endloop
 endfacet
 facet normal 0.737323 0.638417 0.220859
  outer loop
   vertex -92.971 -102.058 2.05154
   vertex -99.9709 -94.1591 2.58841
   vertex -99.5528 -94.6951 2.74193
  endloop
 endfacet
 facet normal 0.293224 -0.568126 0.768929
  outer loop
   vertex -48.2244 -133.4 7.89546
   vertex -47.4151 -132.729 8.0824
   vertex -48.9722 -133.333 8.23002
  endloop
 endfacet
 facet normal 0.48658 0.505057 0.712852
  outer loop
   vertex -72.6316 -118.332 5.55221
   vertex -63.7498 -131.137 8.5622
   vertex -73.0483 -116.269 4.37497
  endloop
 endfacet
 facet normal 0.918287 0.284922 -0.274896
  outer loop
   vertex -98.5051 -105.729 -2.70833
   vertex -100.244 -99.3808 -1.93624
   vertex -100.432 -98.6613 -1.81974
  endloop
 endfacet
 facet normal 0.754961 -0.144355 0.639684
  outer loop
   vertex -52.4834 -81.6409 -0.776125
   vertex -57.0667 -100.122 0.462441
   vertex -55.3845 -95.1807 -0.407717
  endloop
 endfacet
 facet normal 0.540198 -0.44435 0.71466
  outer loop
   vertex -28.7094 -112.874 7.17308
   vertex -29.4273 -113.699 7.20267
   vertex -27.0602 -111.908 6.52671
  endloop
 endfacet
 facet normal 0.454615 -0.194726 0.869141
  outer loop
   vertex -28.271 -112.256 7.08218
   vertex -28.7094 -112.874 7.17308
   vertex -27.0602 -111.908 6.52671
  endloop
 endfacet
 facet normal 0.651888 -0.460804 0.602248
  outer loop
   vertex -27.7664 -112.162 7.09714
   vertex -27.0602 -111.908 6.52671
   vertex -27.3489 -111.565 7.10216
  endloop
 endfacet
 facet normal 0.91834 0.214423 0.332677
  outer loop
   vertex -27.0602 -111.908 6.52671
   vertex -26.5323 -111.057 4.52074
   vertex -27.3489 -111.565 7.10216
  endloop
 endfacet
 facet normal 0.494292 -0.388416 0.777694
  outer loop
   vertex -27.3489 -111.565 7.10216
   vertex -25.4441 -110.468 6.43924
   vertex -25.739 -109.902 6.90932
  endloop
 endfacet
 facet normal 0.747129 0.0281519 0.664083
  outer loop
   vertex -52.4834 -81.6409 -0.776125
   vertex -52.7795 -95.349 0.138172
   vertex -52.2588 -90.9344 -0.634869
  endloop
 endfacet
 facet normal 0.502171 -0.382535 0.775559
  outer loop
   vertex -25.739 -109.902 6.90932
   vertex -25.4441 -110.468 6.43924
   vertex -25.0454 -110.052 6.38643
  endloop
 endfacet
 facet normal 0.534662 -0.292401 0.792867
  outer loop
   vertex -25.739 -109.902 6.90932
   vertex -25.0454 -110.052 6.38643
   vertex -25.4884 -109.576 6.86061
  endloop
 endfacet
 facet normal 0.764983 0.0746023 0.639715
  outer loop
   vertex -25.4884 -109.576 6.86061
   vertex -25.0454 -110.052 6.38643
   vertex -24.8172 -109.791 6.08305
  endloop
 endfacet
 facet normal 0.610243 -0.545986 0.574024
  outer loop
   vertex -22.0663 -106.069 6.55414
   vertex -22.9626 -107.763 5.89629
   vertex -21.37 -105.736 6.13122
  endloop
 endfacet
 facet normal 0.163207 -0.706088 0.68906
  outer loop
   vertex -93.123 -150.537 10.8618
   vertex -92.4773 -150.137 11.118
   vertex -93.6509 -150.298 11.2317
  endloop
 endfacet
 facet normal 0.532554 -0.577049 0.619193
  outer loop
   vertex -25.4884 -109.576 6.86061
   vertex -24.8172 -109.791 6.08305
   vertex -22.9983 -107.653 6.51119
  endloop
 endfacet
endsolid
